<?xml version="1.0" encoding="UTF-8" standalone="no"?>
<!DOCTYPE svg PUBLIC "-//W3C//DTD SVG 1.1//EN"
 "http://www.w3.org/Graphics/SVG/1.1/DTD/svg11.dtd">
<!-- Generated by graphviz version 2.40.1 (20161225.0304)
 -->
<!-- Title: G Pages: 1 -->
<svg width="860pt" height="545pt"
 viewBox="0.00 0.00 860.00 544.60" xmlns="http://www.w3.org/2000/svg" xmlns:xlink="http://www.w3.org/1999/xlink">
<g id="graph0" class="graph" transform="scale(1 1) rotate(0) translate(4 540.6)">
<title>G</title>
<polygon fill="#eeeeee" stroke="transparent" points="-4,4 -4,-540.6 856,-540.6 856,4 -4,4"/>
<g id="clust1" class="cluster">
<title>cluster_inputs</title>
<polygon fill="#eeeeee" stroke="#000000" stroke-dasharray="5,2" points="8,-450.8 8,-528.6 844,-528.6 844,-450.8 8,-450.8"/>
<text text-anchor="middle" x="787.9856" y="-459" font-family="Times,serif" font-size="14.00" fill="#000000">Workflow Inputs</text>
</g>
<g id="clust2" class="cluster">
<title>cluster_outputs</title>
<polygon fill="#eeeeee" stroke="#000000" stroke-dasharray="5,2" points="232,-8 232,-85.8 406,-85.8 406,-8 232,-8"/>
<text text-anchor="middle" x="345.3173" y="-16.2" font-family="Times,serif" font-size="14.00" fill="#000000">Workflow Outputs</text>
</g>
<!-- VCFexpression -->
<g id="node1" class="node">
<title>VCFexpression</title>
<polygon fill="#f3cea1" stroke="#000000" points="317.4523,-187.3 317.4523,-223.3 420.5477,-223.3 420.5477,-187.3 317.4523,-187.3"/>
<text text-anchor="middle" x="369" y="-201.1" font-family="Times,serif" font-size="14.00" fill="#000000">VCFexpression</text>
</g>
<!-- PhaseVcf -->
<g id="node2" class="node">
<title>PhaseVcf</title>
<polygon fill="#f3cea1" stroke="#000000" points="246.1809,-114.3 246.1809,-150.3 315.8191,-150.3 315.8191,-114.3 246.1809,-114.3"/>
<text text-anchor="middle" x="281" y="-128.1" font-family="Times,serif" font-size="14.00" fill="#000000">PhaseVcf</text>
</g>
<!-- VCFexpression&#45;&gt;PhaseVcf -->
<g id="edge1" class="edge">
<title>VCFexpression&#45;&gt;PhaseVcf</title>
<path fill="none" stroke="#000000" d="M347.2472,-187.2551C336.247,-178.1299 322.7294,-166.9165 310.7797,-157.0036"/>
<polygon fill="#000000" stroke="#000000" points="312.7387,-154.0812 302.8076,-150.3904 308.2695,-159.4688 312.7387,-154.0812"/>
</g>
<!-- annVcf -->
<g id="node17" class="node">
<title>annVcf</title>
<polygon fill="#94ddf4" stroke="#000000" points="340.4018,-41.3 340.4018,-77.3 397.5982,-77.3 397.5982,-41.3 340.4018,-41.3"/>
<text text-anchor="middle" x="369" y="-55.1" font-family="Times,serif" font-size="14.00" fill="#000000">annVcf</text>
</g>
<!-- VCFexpression&#45;&gt;annVcf -->
<g id="edge20" class="edge">
<title>VCFexpression&#45;&gt;annVcf</title>
<path fill="none" stroke="#000000" d="M369,-187.1042C369,-162.1868 369,-117.1938 369,-87.7877"/>
<polygon fill="#000000" stroke="#000000" points="372.5001,-87.7251 369,-77.7251 365.5001,-87.7251 372.5001,-87.7251"/>
</g>
<!-- phasedVCF -->
<g id="node18" class="node">
<title>phasedVCF</title>
<polygon fill="#94ddf4" stroke="#000000" points="239.9502,-41.3 239.9502,-77.3 322.0498,-77.3 322.0498,-41.3 239.9502,-41.3"/>
<text text-anchor="middle" x="281" y="-55.1" font-family="Times,serif" font-size="14.00" fill="#000000">phasedVCF</text>
</g>
<!-- PhaseVcf&#45;&gt;phasedVCF -->
<g id="edge21" class="edge">
<title>PhaseVcf&#45;&gt;phasedVCF</title>
<path fill="none" stroke="#000000" d="M281,-114.2551C281,-106.1828 281,-96.4764 281,-87.4817"/>
<polygon fill="#000000" stroke="#000000" points="284.5001,-87.3903 281,-77.3904 277.5001,-87.3904 284.5001,-87.3903"/>
</g>
<!-- rVCFcoverage -->
<g id="node3" class="node">
<title>rVCFcoverage</title>
<polygon fill="#f3cea1" stroke="#000000" points="578.7973,-260.3 578.7973,-296.3 677.2027,-296.3 677.2027,-260.3 578.7973,-260.3"/>
<text text-anchor="middle" x="628" y="-274.1" font-family="Times,serif" font-size="14.00" fill="#000000">rVCFcoverage</text>
</g>
<!-- rVCFcoverage&#45;&gt;VCFexpression -->
<g id="edge2" class="edge">
<title>rVCFcoverage&#45;&gt;VCFexpression</title>
<path fill="none" stroke="#000000" d="M578.6744,-264.3974C536.5593,-252.5272 475.7929,-235.3999 430.5092,-222.6366"/>
<polygon fill="#000000" stroke="#000000" points="431.3791,-219.2455 420.8046,-219.9013 429.4801,-225.983 431.3791,-219.2455"/>
</g>
<!-- VCFvep -->
<g id="node4" class="node">
<title>VCFvep</title>
<polygon fill="#fafad2" stroke="#000000" points="636.2798,-406.3 636.2798,-442.3 699.7202,-442.3 699.7202,-406.3 636.2798,-406.3"/>
<text text-anchor="middle" x="668" y="-420.1" font-family="Times,serif" font-size="14.00" fill="#000000">VCFvep</text>
</g>
<!-- dVCFcoverage -->
<g id="node5" class="node">
<title>dVCFcoverage</title>
<polygon fill="#f3cea1" stroke="#000000" points="616.6276,-333.3 616.6276,-369.3 717.3724,-369.3 717.3724,-333.3 616.6276,-333.3"/>
<text text-anchor="middle" x="667" y="-347.1" font-family="Times,serif" font-size="14.00" fill="#000000">dVCFcoverage</text>
</g>
<!-- VCFvep&#45;&gt;dVCFcoverage -->
<g id="edge3" class="edge">
<title>VCFvep&#45;&gt;dVCFcoverage</title>
<path fill="none" stroke="#000000" d="M667.7528,-406.2551C667.6422,-398.1828 667.5093,-388.4764 667.3861,-379.4817"/>
<polygon fill="#000000" stroke="#000000" points="670.8846,-379.3414 667.2478,-369.3904 663.8852,-379.4374 670.8846,-379.3414"/>
</g>
<!-- dVCFcoverage&#45;&gt;rVCFcoverage -->
<g id="edge4" class="edge">
<title>dVCFcoverage&#45;&gt;rVCFcoverage</title>
<path fill="none" stroke="#000000" d="M657.3595,-333.2551C652.8595,-324.8319 647.4088,-314.6292 642.4315,-305.3128"/>
<polygon fill="#000000" stroke="#000000" points="645.464,-303.5613 637.6647,-296.3904 639.2898,-306.8598 645.464,-303.5613"/>
</g>
<!-- tbam -->
<g id="node6" class="node">
<title>tbam</title>
<polygon fill="#94ddf4" stroke="#000000" points="490,-484.1 490,-520.1 544,-520.1 544,-484.1 490,-484.1"/>
<text text-anchor="middle" x="516.9979" y="-497.9" font-family="Times,serif" font-size="14.00" fill="#000000">tbam</text>
</g>
<!-- tbam&#45;&gt;PhaseVcf -->
<g id="edge5" class="edge">
<title>tbam&#45;&gt;PhaseVcf</title>
<path fill="none" stroke="#000000" d="M506.2256,-483.7609C490.9944,-456.054 465,-401.425 465,-351.3 465,-351.3 465,-351.3 465,-278.3 465,-234.7598 461.0128,-217.3607 430,-186.8 401.9404,-159.1495 358.7273,-145.3838 326.0506,-138.619"/>
<polygon fill="#000000" stroke="#000000" points="326.3246,-135.1078 315.8441,-136.6599 325.005,-141.9823 326.3246,-135.1078"/>
</g>
<!-- tbam&#45;&gt;dVCFcoverage -->
<g id="edge6" class="edge">
<title>tbam&#45;&gt;dVCFcoverage</title>
<path fill="none" stroke="#000000" d="M528.329,-483.734C534.9674,-473.5791 543.8316,-460.9925 553,-450.8 578.1451,-422.8464 610.8071,-395.0486 634.7213,-375.9698"/>
<polygon fill="#000000" stroke="#000000" points="637.1097,-378.5435 642.7885,-369.5991 632.7714,-373.0499 637.1097,-378.5435"/>
</g>
<!-- gvcf -->
<g id="node7" class="node">
<title>gvcf</title>
<polygon fill="#94ddf4" stroke="#000000" points="16,-484.1 16,-520.1 70,-520.1 70,-484.1 16,-484.1"/>
<text text-anchor="middle" x="42.9376" y="-497.9" font-family="Times,serif" font-size="14.00" fill="#000000">gvcf</text>
</g>
<!-- gvcf&#45;&gt;PhaseVcf -->
<g id="edge7" class="edge">
<title>gvcf&#45;&gt;PhaseVcf</title>
<path fill="none" stroke="#000000" d="M52.3088,-484.0709C65.7501,-456.3191 89,-401.1161 89,-351.3 89,-351.3 89,-351.3 89,-278.3 89,-204.8225 179.199,-163.4806 235.9504,-144.7409"/>
<polygon fill="#000000" stroke="#000000" points="237.3187,-147.9784 245.7842,-141.6078 235.1936,-141.3087 237.3187,-147.9784"/>
</g>
<!-- nsample -->
<g id="node8" class="node">
<title>nsample</title>
<polygon fill="#94ddf4" stroke="#000000" points="87.6725,-484.1 87.6725,-520.1 150.3275,-520.1 150.3275,-484.1 87.6725,-484.1"/>
<text text-anchor="middle" x="119" y="-497.9" font-family="Times,serif" font-size="14.00" fill="#000000">nsample</text>
</g>
<!-- nsample&#45;&gt;PhaseVcf -->
<g id="edge8" class="edge">
<title>nsample&#45;&gt;PhaseVcf</title>
<path fill="none" stroke="#000000" d="M130.1888,-483.8146C146.0058,-456.1761 173,-401.6334 173,-351.3 173,-351.3 173,-351.3 173,-278.3 173,-227.6512 215.5281,-183.0768 247.21,-156.8976"/>
<polygon fill="#000000" stroke="#000000" points="249.7915,-159.314 255.4055,-150.3288 245.4136,-153.8519 249.7915,-159.314"/>
</g>
<!-- ref -->
<g id="node9" class="node">
<title>ref</title>
<polygon fill="#94ddf4" stroke="#000000" points="782,-484.1 782,-520.1 836,-520.1 836,-484.1 782,-484.1"/>
<text text-anchor="middle" x="808.7679" y="-497.9" font-family="Times,serif" font-size="14.00" fill="#000000">ref</text>
</g>
<!-- ref&#45;&gt;PhaseVcf -->
<g id="edge9" class="edge">
<title>ref&#45;&gt;PhaseVcf</title>
<path fill="none" stroke="#000000" d="M808.8024,-483.9944C808.511,-455.6835 808,-399.2115 808,-351.3 808,-351.3 808,-351.3 808,-278.3 808,-178.6847 453.8795,-144.279 326.2041,-135.1115"/>
<polygon fill="#000000" stroke="#000000" points="326.2058,-131.6032 315.9861,-134.3973 325.7177,-138.5862 326.2058,-131.6032"/>
</g>
<!-- ref&#45;&gt;rVCFcoverage -->
<g id="edge12" class="edge">
<title>ref&#45;&gt;rVCFcoverage</title>
<path fill="none" stroke="#000000" d="M804.0689,-483.9309C794.196,-450.4421 769.1654,-378.2573 726,-332.8 713.7854,-319.9368 697.8508,-309.3261 682.3917,-300.9939"/>
<polygon fill="#000000" stroke="#000000" points="683.8691,-297.818 673.3762,-296.3516 680.6645,-304.0414 683.8691,-297.818"/>
</g>
<!-- ref&#45;&gt;VCFvep -->
<g id="edge10" class="edge">
<title>ref&#45;&gt;VCFvep</title>
<path fill="none" stroke="#000000" d="M800.9989,-483.9532C794.984,-472.5339 785.6121,-458.5394 773,-450.8 751.5714,-437.6503 741.3509,-449.0555 717,-442.8 714.534,-442.1665 712.0213,-441.4503 709.5015,-440.677"/>
<polygon fill="#000000" stroke="#000000" points="710.4255,-437.296 699.8321,-437.4659 708.2194,-443.9392 710.4255,-437.296"/>
</g>
<!-- ref&#45;&gt;dVCFcoverage -->
<g id="edge11" class="edge">
<title>ref&#45;&gt;dVCFcoverage</title>
<path fill="none" stroke="#000000" d="M799.2882,-483.6684C792.9384,-472.992 783.8241,-459.9053 773,-450.8 766.6099,-445.4246 762.7984,-447.6488 756,-442.8 729.6772,-424.026 704.4504,-396.9316 687.6201,-377.0986"/>
<polygon fill="#000000" stroke="#000000" points="690.2542,-374.7923 681.1608,-369.3552 684.8788,-379.2763 690.2542,-374.7923"/>
</g>
<!-- tsample -->
<g id="node10" class="node">
<title>tsample</title>
<polygon fill="#94ddf4" stroke="#000000" points="168.2272,-484.1 168.2272,-520.1 227.7728,-520.1 227.7728,-484.1 168.2272,-484.1"/>
<text text-anchor="middle" x="198" y="-497.9" font-family="Times,serif" font-size="14.00" fill="#000000">tsample</text>
</g>
<!-- tsample&#45;&gt;PhaseVcf -->
<g id="edge13" class="edge">
<title>tsample&#45;&gt;PhaseVcf</title>
<path fill="none" stroke="#000000" d="M211.9969,-483.7204C231.3706,-456.3962 264,-402.7408 264,-351.3 264,-351.3 264,-351.3 264,-278.3 264,-237.1634 270.7409,-189.9421 275.7332,-160.6106"/>
<polygon fill="#000000" stroke="#000000" points="279.1985,-161.1123 277.4776,-150.6581 272.3036,-159.9037 279.1985,-161.1123"/>
</g>
<!-- kallistoIdx -->
<g id="node11" class="node">
<title>kallistoIdx</title>
<polygon fill="#94ddf4" stroke="#000000" points="246.0589,-484.1 246.0589,-520.1 321.9411,-520.1 321.9411,-484.1 246.0589,-484.1"/>
<text text-anchor="middle" x="284" y="-497.9" font-family="Times,serif" font-size="14.00" fill="#000000">kallistoIdx</text>
</g>
<!-- kallistoIdx&#45;&gt;VCFexpression -->
<g id="edge14" class="edge">
<title>kallistoIdx&#45;&gt;VCFexpression</title>
<path fill="none" stroke="#000000" d="M289.1892,-483.9806C303.5044,-433.9953 343.6332,-293.8748 360.9154,-233.5295"/>
<polygon fill="#000000" stroke="#000000" points="364.3822,-234.1365 363.7707,-223.5594 357.6527,-232.2093 364.3822,-234.1365"/>
</g>
<!-- rnaseqs -->
<g id="node12" class="node">
<title>rnaseqs</title>
<polygon fill="#94ddf4" stroke="#000000" points="340.0105,-484.1 340.0105,-520.1 397.9895,-520.1 397.9895,-484.1 340.0105,-484.1"/>
<text text-anchor="middle" x="369" y="-497.9" font-family="Times,serif" font-size="14.00" fill="#000000">rnaseqs</text>
</g>
<!-- rnaseqs&#45;&gt;VCFexpression -->
<g id="edge15" class="edge">
<title>rnaseqs&#45;&gt;VCFexpression</title>
<path fill="none" stroke="#000000" d="M369,-483.9806C369,-434.0988 369,-294.4546 369,-233.9053"/>
<polygon fill="#000000" stroke="#000000" points="372.5001,-233.5593 369,-223.5594 365.5001,-233.5594 372.5001,-233.5593"/>
</g>
<!-- threads -->
<g id="node13" class="node">
<title>threads</title>
<polygon fill="#94ddf4" stroke="#000000" points="415.7875,-484.1 415.7875,-520.1 472.2125,-520.1 472.2125,-484.1 415.7875,-484.1"/>
<text text-anchor="middle" x="444" y="-497.9" font-family="Times,serif" font-size="14.00" fill="#000000">threads</text>
</g>
<!-- threads&#45;&gt;VCFexpression -->
<g id="edge16" class="edge">
<title>threads&#45;&gt;VCFexpression</title>
<path fill="none" stroke="#000000" d="M439.4387,-483.8551C429.3346,-443.468 404.2761,-343.4603 383,-259.8 380.8089,-251.1845 378.4066,-241.8075 376.22,-233.2991"/>
<polygon fill="#000000" stroke="#000000" points="379.5701,-232.2734 373.6885,-223.4611 372.791,-234.0178 379.5701,-232.2734"/>
</g>
<!-- VepDir -->
<g id="node14" class="node">
<title>VepDir</title>
<polygon fill="#94ddf4" stroke="#000000" points="634.0105,-484.1 634.0105,-520.1 691.9895,-520.1 691.9895,-484.1 634.0105,-484.1"/>
<text text-anchor="middle" x="663" y="-497.9" font-family="Times,serif" font-size="14.00" fill="#000000">VepDir</text>
</g>
<!-- VepDir&#45;&gt;VCFvep -->
<g id="edge17" class="edge">
<title>VepDir&#45;&gt;VCFvep</title>
<path fill="none" stroke="#000000" d="M664.1597,-484.0556C664.7612,-474.6963 665.5096,-463.0503 666.1856,-452.532"/>
<polygon fill="#000000" stroke="#000000" points="669.6807,-452.72 666.8293,-442.5161 662.6951,-452.271 669.6807,-452.72"/>
</g>
<!-- svcf -->
<g id="node15" class="node">
<title>svcf</title>
<polygon fill="#94ddf4" stroke="#000000" points="710,-484.1 710,-520.1 764,-520.1 764,-484.1 710,-484.1"/>
<text text-anchor="middle" x="736.6599" y="-497.9" font-family="Times,serif" font-size="14.00" fill="#000000">svcf</text>
</g>
<!-- svcf&#45;&gt;VCFvep -->
<g id="edge18" class="edge">
<title>svcf&#45;&gt;VCFvep</title>
<path fill="none" stroke="#000000" d="M726.1432,-484.0709C719.5243,-473.7861 710.5243,-460.9611 701,-450.8 700.576,-450.3477 700.1441,-449.8964 699.7053,-449.4465"/>
<polygon fill="#000000" stroke="#000000" points="701.8332,-446.6436 692.1461,-442.3528 697.0431,-451.748 701.8332,-446.6436"/>
</g>
<!-- rbam -->
<g id="node16" class="node">
<title>rbam</title>
<polygon fill="#94ddf4" stroke="#000000" points="562,-484.1 562,-520.1 616,-520.1 616,-484.1 562,-484.1"/>
<text text-anchor="middle" x="588.8829" y="-497.9" font-family="Times,serif" font-size="14.00" fill="#000000">rbam</text>
</g>
<!-- rbam&#45;&gt;rVCFcoverage -->
<g id="edge19" class="edge">
<title>rbam&#45;&gt;rVCFcoverage</title>
<path fill="none" stroke="#000000" d="M589.6064,-484.0654C590.9688,-452.8549 595.2294,-386.9182 608,-332.8 610.0963,-323.9164 613.2124,-314.4976 616.3643,-306.0341"/>
<polygon fill="#000000" stroke="#000000" points="619.6602,-307.2155 620.022,-296.6268 613.136,-304.6787 619.6602,-307.2155"/>
</g>
</g>
</svg>

