<?xml version="1.0" encoding="UTF-8" standalone="no"?>
<!DOCTYPE svg PUBLIC "-//W3C//DTD SVG 1.1//EN"
 "http://www.w3.org/Graphics/SVG/1.1/DTD/svg11.dtd">
<!-- Generated by graphviz version 2.40.1 (20161225.0304)
 -->
<!-- Title: G Pages: 1 -->
<svg width="462pt" height="472pt"
 viewBox="0.00 0.00 462.00 471.60" xmlns="http://www.w3.org/2000/svg" xmlns:xlink="http://www.w3.org/1999/xlink">
<g id="graph0" class="graph" transform="scale(1 1) rotate(0) translate(4 467.6)">
<title>G</title>
<polygon fill="#eeeeee" stroke="transparent" points="-4,4 -4,-467.6 458,-467.6 458,4 -4,4"/>
<g id="clust1" class="cluster">
<title>cluster_inputs</title>
<polygon fill="#eeeeee" stroke="#000000" stroke-dasharray="5,2" points="8,-377.8 8,-455.6 446,-455.6 446,-377.8 8,-377.8"/>
<text text-anchor="middle" x="389.9856" y="-386" font-family="Times,serif" font-size="14.00" fill="#000000">Workflow Inputs</text>
</g>
<g id="clust2" class="cluster">
<title>cluster_outputs</title>
<polygon fill="#eeeeee" stroke="#000000" stroke-dasharray="5,2" points="262,-8 262,-85.8 404,-85.8 404,-8 262,-8"/>
<text text-anchor="middle" x="343.3173" y="-16.2" font-family="Times,serif" font-size="14.00" fill="#000000">Workflow Outputs</text>
</g>
<!-- sortBam -->
<g id="node1" class="node">
<title>sortBam</title>
<polygon fill="#fafad2" stroke="#000000" points="301.2812,-187.3 301.2812,-223.3 364.7188,-223.3 364.7188,-187.3 301.2812,-187.3"/>
<text text-anchor="middle" x="333" y="-201.1" font-family="Times,serif" font-size="14.00" fill="#000000">sortBam</text>
</g>
<!-- idxBam -->
<g id="node2" class="node">
<title>idxBam</title>
<polygon fill="#fafad2" stroke="#000000" points="273.8338,-114.3 273.8338,-150.3 334.1662,-150.3 334.1662,-114.3 273.8338,-114.3"/>
<text text-anchor="middle" x="304" y="-128.1" font-family="Times,serif" font-size="14.00" fill="#000000">idxBam</text>
</g>
<!-- sortBam&#45;&gt;idxBam -->
<g id="edge1" class="edge">
<title>sortBam&#45;&gt;idxBam</title>
<path fill="none" stroke="#000000" d="M325.8315,-187.2551C322.555,-179.0074 318.6007,-169.0536 314.9629,-159.8962"/>
<polygon fill="#000000" stroke="#000000" points="318.1313,-158.3917 311.1866,-150.3904 311.6259,-160.9761 318.1313,-158.3917"/>
</g>
<!-- Bam -->
<g id="node11" class="node">
<title>Bam</title>
<polygon fill="#94ddf4" stroke="#000000" points="342,-41.3 342,-77.3 396,-77.3 396,-41.3 342,-41.3"/>
<text text-anchor="middle" x="368.7209" y="-55.1" font-family="Times,serif" font-size="14.00" fill="#000000">Bam</text>
</g>
<!-- sortBam&#45;&gt;Bam -->
<g id="edge10" class="edge">
<title>sortBam&#45;&gt;Bam</title>
<path fill="none" stroke="#000000" d="M337.4866,-187.1042C343.6307,-162.1868 354.7248,-117.1938 361.9756,-87.7877"/>
<polygon fill="#000000" stroke="#000000" points="365.4609,-88.2723 364.4568,-77.7251 358.6645,-86.5964 365.4609,-88.2723"/>
</g>
<!-- Idx -->
<g id="node12" class="node">
<title>Idx</title>
<polygon fill="#94ddf4" stroke="#000000" points="270,-41.3 270,-77.3 324,-77.3 324,-41.3 270,-41.3"/>
<text text-anchor="middle" x="296.8303" y="-55.1" font-family="Times,serif" font-size="14.00" fill="#000000">Idx</text>
</g>
<!-- idxBam&#45;&gt;Idx -->
<g id="edge11" class="edge">
<title>idxBam&#45;&gt;Idx</title>
<path fill="none" stroke="#000000" d="M302.2697,-114.2551C301.4956,-106.1828 300.5649,-96.4764 299.7024,-87.4817"/>
<polygon fill="#000000" stroke="#000000" points="303.1733,-87.0106 298.7347,-77.3904 296.2053,-87.6788 303.1733,-87.0106"/>
</g>
<!-- bwa -->
<g id="node3" class="node">
<title>bwa</title>
<polygon fill="#fafad2" stroke="#000000" points="198,-333.3 198,-369.3 252,-369.3 252,-333.3 198,-333.3"/>
<text text-anchor="middle" x="224.6606" y="-347.1" font-family="Times,serif" font-size="14.00" fill="#000000">bwa</text>
</g>
<!-- sam2bam -->
<g id="node4" class="node">
<title>sam2bam</title>
<polygon fill="#fafad2" stroke="#000000" points="267.1725,-260.3 267.1725,-296.3 336.8275,-296.3 336.8275,-260.3 267.1725,-260.3"/>
<text text-anchor="middle" x="302" y="-274.1" font-family="Times,serif" font-size="14.00" fill="#000000">sam2bam</text>
</g>
<!-- bwa&#45;&gt;sam2bam -->
<g id="edge2" class="edge">
<title>bwa&#45;&gt;sam2bam</title>
<path fill="none" stroke="#000000" d="M244.0337,-333.2551C253.5663,-324.2177 265.2595,-313.1319 275.6408,-303.2899"/>
<polygon fill="#000000" stroke="#000000" points="278.0693,-305.8104 282.9184,-296.3904 273.2533,-300.7305 278.0693,-305.8104"/>
</g>
<!-- sam2bam&#45;&gt;sortBam -->
<g id="edge3" class="edge">
<title>sam2bam&#45;&gt;sortBam</title>
<path fill="none" stroke="#000000" d="M309.6629,-260.2551C313.2026,-251.9196 317.4823,-241.8416 321.4051,-232.6042"/>
<polygon fill="#000000" stroke="#000000" points="324.6306,-233.9629 325.3178,-223.3904 318.1874,-231.2267 324.6306,-233.9629"/>
</g>
<!-- FQ1 -->
<g id="node5" class="node">
<title>FQ1</title>
<polygon fill="#94ddf4" stroke="#000000" points="306,-411.1 306,-447.1 360,-447.1 360,-411.1 306,-411.1"/>
<text text-anchor="middle" x="332.9446" y="-424.9" font-family="Times,serif" font-size="14.00" fill="#000000">FQ1</text>
</g>
<!-- FQ1&#45;&gt;bwa -->
<g id="edge4" class="edge">
<title>FQ1&#45;&gt;bwa</title>
<path fill="none" stroke="#000000" d="M323.8555,-410.8162C317.5986,-399.9232 308.3831,-386.5577 297,-377.8 286.773,-369.9317 273.9758,-364.2236 262.018,-360.1675"/>
<polygon fill="#000000" stroke="#000000" points="262.8338,-356.7562 252.2458,-357.1379 260.7609,-363.4422 262.8338,-356.7562"/>
</g>
<!-- FQ2 -->
<g id="node6" class="node">
<title>FQ2</title>
<polygon fill="#94ddf4" stroke="#000000" points="234,-411.1 234,-447.1 288,-447.1 288,-411.1 234,-411.1"/>
<text text-anchor="middle" x="260.9446" y="-424.9" font-family="Times,serif" font-size="14.00" fill="#000000">FQ2</text>
</g>
<!-- FQ2&#45;&gt;bwa -->
<g id="edge5" class="edge">
<title>FQ2&#45;&gt;bwa</title>
<path fill="none" stroke="#000000" d="M252.6504,-411.0556C248.2294,-401.5013 242.7057,-389.564 237.7601,-378.8761"/>
<polygon fill="#000000" stroke="#000000" points="240.805,-377.1218 233.429,-369.5161 234.4521,-380.0614 240.805,-377.1218"/>
</g>
<!-- RG -->
<g id="node7" class="node">
<title>RG</title>
<polygon fill="#94ddf4" stroke="#000000" points="162,-411.1 162,-447.1 216,-447.1 216,-411.1 162,-411.1"/>
<text text-anchor="middle" x="188.7216" y="-424.9" font-family="Times,serif" font-size="14.00" fill="#000000">RG</text>
</g>
<!-- RG&#45;&gt;bwa -->
<g id="edge6" class="edge">
<title>RG&#45;&gt;bwa</title>
<path fill="none" stroke="#000000" d="M197.3496,-411.0556C201.7706,-401.5013 207.2943,-389.564 212.2399,-378.8761"/>
<polygon fill="#000000" stroke="#000000" points="215.5479,-380.0614 216.571,-369.5161 209.195,-377.1218 215.5479,-380.0614"/>
</g>
<!-- Ref -->
<g id="node8" class="node">
<title>Ref</title>
<polygon fill="#94ddf4" stroke="#000000" points="90,-411.1 90,-447.1 144,-447.1 144,-411.1 90,-411.1"/>
<text text-anchor="middle" x="116.6059" y="-424.9" font-family="Times,serif" font-size="14.00" fill="#000000">Ref</text>
</g>
<!-- Ref&#45;&gt;bwa -->
<g id="edge7" class="edge">
<title>Ref&#45;&gt;bwa</title>
<path fill="none" stroke="#000000" d="M126.1445,-410.8162C132.4014,-399.9232 141.6169,-386.5577 153,-377.8 163.227,-369.9317 176.0242,-364.2236 187.982,-360.1675"/>
<polygon fill="#000000" stroke="#000000" points="189.2391,-363.4422 197.7542,-357.1379 187.1662,-356.7562 189.2391,-363.4422"/>
</g>
<!-- threads -->
<g id="node9" class="node">
<title>threads</title>
<polygon fill="#94ddf4" stroke="#000000" points="15.7875,-411.1 15.7875,-447.1 72.2125,-447.1 72.2125,-411.1 15.7875,-411.1"/>
<text text-anchor="middle" x="44" y="-424.9" font-family="Times,serif" font-size="14.00" fill="#000000">threads</text>
</g>
<!-- threads&#45;&gt;bwa -->
<g id="edge8" class="edge">
<title>threads&#45;&gt;bwa</title>
<path fill="none" stroke="#000000" d="M52.587,-410.863C58.8671,-399.5571 68.4713,-385.7244 81,-377.8 98.3045,-366.855 150.8544,-359.191 187.4381,-355.0129"/>
<polygon fill="#000000" stroke="#000000" points="188.1987,-358.4504 197.7559,-353.8777 187.4331,-351.4924 188.1987,-358.4504"/>
</g>
<!-- outBam -->
<g id="node10" class="node">
<title>outBam</title>
<polygon fill="#94ddf4" stroke="#000000" points="377.8338,-411.1 377.8338,-447.1 438.1662,-447.1 438.1662,-411.1 377.8338,-411.1"/>
<text text-anchor="middle" x="408" y="-424.9" font-family="Times,serif" font-size="14.00" fill="#000000">outBam</text>
</g>
<!-- outBam&#45;&gt;sortBam -->
<g id="edge9" class="edge">
<title>outBam&#45;&gt;sortBam</title>
<path fill="none" stroke="#000000" d="M401.8624,-410.7855C388.7549,-371.6726 357.9561,-279.7691 342.3766,-233.2799"/>
<polygon fill="#000000" stroke="#000000" points="345.6134,-231.9233 339.1172,-223.5537 338.9762,-234.1476 345.6134,-231.9233"/>
</g>
</g>
</svg>

