<?xml version="1.0" encoding="UTF-8" standalone="no"?>
<!DOCTYPE svg PUBLIC "-//W3C//DTD SVG 1.1//EN"
 "http://www.w3.org/Graphics/SVG/1.1/DTD/svg11.dtd">
<!-- Generated by graphviz version 2.40.1 (20161225.0304)
 -->
<!-- Title: G Pages: 1 -->
<svg width="384pt" height="472pt"
 viewBox="0.00 0.00 384.00 471.60" xmlns="http://www.w3.org/2000/svg" xmlns:xlink="http://www.w3.org/1999/xlink">
<g id="graph0" class="graph" transform="scale(1 1) rotate(0) translate(4 467.6)">
<title>G</title>
<polygon fill="#eeeeee" stroke="transparent" points="-4,4 -4,-467.6 380,-467.6 380,4 -4,4"/>
<g id="clust1" class="cluster">
<title>cluster_inputs</title>
<polygon fill="#eeeeee" stroke="#000000" stroke-dasharray="5,2" points="8,-377.8 8,-455.6 368,-455.6 368,-377.8 8,-377.8"/>
<text text-anchor="middle" x="311.9856" y="-386" font-family="Times,serif" font-size="14.00" fill="#000000">Workflow Inputs</text>
</g>
<g id="clust2" class="cluster">
<title>cluster_outputs</title>
<polygon fill="#eeeeee" stroke="#000000" stroke-dasharray="5,2" points="118,-8 118,-85.8 260,-85.8 260,-8 118,-8"/>
<text text-anchor="middle" x="199.3173" y="-16.2" font-family="Times,serif" font-size="14.00" fill="#000000">Workflow Outputs</text>
</g>
<!-- sortBam -->
<g id="node1" class="node">
<title>sortBam</title>
<polygon fill="#fafad2" stroke="#000000" points="157.2812,-187.3 157.2812,-223.3 220.7188,-223.3 220.7188,-187.3 157.2812,-187.3"/>
<text text-anchor="middle" x="189" y="-201.1" font-family="Times,serif" font-size="14.00" fill="#000000">sortBam</text>
</g>
<!-- idxBam -->
<g id="node2" class="node">
<title>idxBam</title>
<polygon fill="#fafad2" stroke="#000000" points="129.8338,-114.3 129.8338,-150.3 190.1662,-150.3 190.1662,-114.3 129.8338,-114.3"/>
<text text-anchor="middle" x="160" y="-128.1" font-family="Times,serif" font-size="14.00" fill="#000000">idxBam</text>
</g>
<!-- sortBam&#45;&gt;idxBam -->
<g id="edge1" class="edge">
<title>sortBam&#45;&gt;idxBam</title>
<path fill="none" stroke="#000000" d="M181.8315,-187.2551C178.555,-179.0074 174.6007,-169.0536 170.9629,-159.8962"/>
<polygon fill="#000000" stroke="#000000" points="174.1313,-158.3917 167.1866,-150.3904 167.6259,-160.9761 174.1313,-158.3917"/>
</g>
<!-- Bam -->
<g id="node10" class="node">
<title>Bam</title>
<polygon fill="#94ddf4" stroke="#000000" points="198,-41.3 198,-77.3 252,-77.3 252,-41.3 198,-41.3"/>
<text text-anchor="middle" x="224.7209" y="-55.1" font-family="Times,serif" font-size="14.00" fill="#000000">Bam</text>
</g>
<!-- sortBam&#45;&gt;Bam -->
<g id="edge9" class="edge">
<title>sortBam&#45;&gt;Bam</title>
<path fill="none" stroke="#000000" d="M193.4866,-187.1042C199.6307,-162.1868 210.7248,-117.1938 217.9756,-87.7877"/>
<polygon fill="#000000" stroke="#000000" points="221.4609,-88.2723 220.4568,-77.7251 214.6645,-86.5964 221.4609,-88.2723"/>
</g>
<!-- Idx -->
<g id="node11" class="node">
<title>Idx</title>
<polygon fill="#94ddf4" stroke="#000000" points="126,-41.3 126,-77.3 180,-77.3 180,-41.3 126,-41.3"/>
<text text-anchor="middle" x="152.8303" y="-55.1" font-family="Times,serif" font-size="14.00" fill="#000000">Idx</text>
</g>
<!-- idxBam&#45;&gt;Idx -->
<g id="edge10" class="edge">
<title>idxBam&#45;&gt;Idx</title>
<path fill="none" stroke="#000000" d="M158.2697,-114.2551C157.4956,-106.1828 156.5649,-96.4764 155.7024,-87.4817"/>
<polygon fill="#000000" stroke="#000000" points="159.1733,-87.0106 154.7347,-77.3904 152.2053,-87.6788 159.1733,-87.0106"/>
</g>
<!-- bwa -->
<g id="node3" class="node">
<title>bwa</title>
<polygon fill="#fafad2" stroke="#000000" points="162,-333.3 162,-369.3 216,-369.3 216,-333.3 162,-333.3"/>
<text text-anchor="middle" x="188.6606" y="-347.1" font-family="Times,serif" font-size="14.00" fill="#000000">bwa</text>
</g>
<!-- sam2bam -->
<g id="node4" class="node">
<title>sam2bam</title>
<polygon fill="#fafad2" stroke="#000000" points="154.1725,-260.3 154.1725,-296.3 223.8275,-296.3 223.8275,-260.3 154.1725,-260.3"/>
<text text-anchor="middle" x="189" y="-274.1" font-family="Times,serif" font-size="14.00" fill="#000000">sam2bam</text>
</g>
<!-- bwa&#45;&gt;sam2bam -->
<g id="edge2" class="edge">
<title>bwa&#45;&gt;sam2bam</title>
<path fill="none" stroke="#000000" d="M189,-333.2551C189,-325.1828 189,-315.4764 189,-306.4817"/>
<polygon fill="#000000" stroke="#000000" points="192.5001,-306.3903 189,-296.3904 185.5001,-306.3904 192.5001,-306.3903"/>
</g>
<!-- sam2bam&#45;&gt;sortBam -->
<g id="edge3" class="edge">
<title>sam2bam&#45;&gt;sortBam</title>
<path fill="none" stroke="#000000" d="M189,-260.2551C189,-252.1828 189,-242.4764 189,-233.4817"/>
<polygon fill="#000000" stroke="#000000" points="192.5001,-233.3903 189,-223.3904 185.5001,-233.3904 192.5001,-233.3903"/>
</g>
<!-- FQ1 -->
<g id="node5" class="node">
<title>FQ1</title>
<polygon fill="#94ddf4" stroke="#000000" points="306,-411.1 306,-447.1 360,-447.1 360,-411.1 306,-411.1"/>
<text text-anchor="middle" x="332.9446" y="-424.9" font-family="Times,serif" font-size="14.00" fill="#000000">FQ1</text>
</g>
<!-- FQ1&#45;&gt;bwa -->
<g id="edge4" class="edge">
<title>FQ1&#45;&gt;bwa</title>
<path fill="none" stroke="#000000" d="M324.4647,-410.8592C318.3346,-399.6992 309.0352,-386.0294 297,-377.8 285.4985,-369.9355 252.6333,-362.5151 226.1517,-357.5381"/>
<polygon fill="#000000" stroke="#000000" points="226.4737,-354.0392 216.0083,-355.6899 225.2189,-360.9258 226.4737,-354.0392"/>
</g>
<!-- FQ2 -->
<g id="node6" class="node">
<title>FQ2</title>
<polygon fill="#94ddf4" stroke="#000000" points="234,-411.1 234,-447.1 288,-447.1 288,-411.1 234,-411.1"/>
<text text-anchor="middle" x="260.9446" y="-424.9" font-family="Times,serif" font-size="14.00" fill="#000000">FQ2</text>
</g>
<!-- FQ2&#45;&gt;bwa -->
<g id="edge5" class="edge">
<title>FQ2&#45;&gt;bwa</title>
<path fill="none" stroke="#000000" d="M250.3018,-410.9191C243.7357,-400.5837 234.7357,-387.7587 225,-377.8 224.471,-377.2589 223.9302,-376.7206 223.379,-376.1857"/>
<polygon fill="#000000" stroke="#000000" points="225.5849,-373.4642 215.7731,-369.4667 220.9504,-378.7104 225.5849,-373.4642"/>
</g>
<!-- RG -->
<g id="node7" class="node">
<title>RG</title>
<polygon fill="#94ddf4" stroke="#000000" points="162,-411.1 162,-447.1 216,-447.1 216,-411.1 162,-411.1"/>
<text text-anchor="middle" x="188.7216" y="-424.9" font-family="Times,serif" font-size="14.00" fill="#000000">RG</text>
</g>
<!-- RG&#45;&gt;bwa -->
<g id="edge6" class="edge">
<title>RG&#45;&gt;bwa</title>
<path fill="none" stroke="#000000" d="M189,-411.0556C189,-401.6963 189,-390.0503 189,-379.532"/>
<polygon fill="#000000" stroke="#000000" points="192.5001,-379.516 189,-369.5161 185.5001,-379.5161 192.5001,-379.516"/>
</g>
<!-- Ref -->
<g id="node8" class="node">
<title>Ref</title>
<polygon fill="#94ddf4" stroke="#000000" points="90,-411.1 90,-447.1 144,-447.1 144,-411.1 90,-411.1"/>
<text text-anchor="middle" x="116.6059" y="-424.9" font-family="Times,serif" font-size="14.00" fill="#000000">Ref</text>
</g>
<!-- Ref&#45;&gt;bwa -->
<g id="edge7" class="edge">
<title>Ref&#45;&gt;bwa</title>
<path fill="none" stroke="#000000" d="M127.6982,-410.9191C134.2643,-400.5837 143.2643,-387.7587 153,-377.8 153.529,-377.2589 154.0698,-376.7206 154.621,-376.1857"/>
<polygon fill="#000000" stroke="#000000" points="157.0496,-378.7104 162.2269,-369.4667 152.4151,-373.4642 157.0496,-378.7104"/>
</g>
<!-- threads -->
<g id="node9" class="node">
<title>threads</title>
<polygon fill="#94ddf4" stroke="#000000" points="15.7875,-411.1 15.7875,-447.1 72.2125,-447.1 72.2125,-411.1 15.7875,-411.1"/>
<text text-anchor="middle" x="44" y="-424.9" font-family="Times,serif" font-size="14.00" fill="#000000">threads</text>
</g>
<!-- threads&#45;&gt;bwa -->
<g id="edge8" class="edge">
<title>threads&#45;&gt;bwa</title>
<path fill="none" stroke="#000000" d="M52.8879,-410.8574C59.2343,-399.6967 68.8,-386.0268 81,-377.8 92.5169,-370.0339 125.2101,-362.6256 151.6342,-357.6266"/>
<polygon fill="#000000" stroke="#000000" points="152.5575,-361.0156 161.7615,-355.768 151.2939,-354.1306 152.5575,-361.0156"/>
</g>
</g>
</svg>

