<?xml version="1.0" encoding="UTF-8" standalone="no"?>
<!DOCTYPE svg PUBLIC "-//W3C//DTD SVG 1.1//EN"
 "http://www.w3.org/Graphics/SVG/1.1/DTD/svg11.dtd">
<!-- Generated by graphviz version 2.40.1 (20161225.0304)
 -->
<!-- Title: G Pages: 1 -->
<svg width="554pt" height="399pt"
 viewBox="0.00 0.00 554.00 398.60" xmlns="http://www.w3.org/2000/svg" xmlns:xlink="http://www.w3.org/1999/xlink">
<g id="graph0" class="graph" transform="scale(1 1) rotate(0) translate(4 394.6)">
<title>G</title>
<polygon fill="#eeeeee" stroke="transparent" points="-4,4 -4,-394.6 550,-394.6 550,4 -4,4"/>
<g id="clust1" class="cluster">
<title>cluster_inputs</title>
<polygon fill="#eeeeee" stroke="#000000" stroke-dasharray="5,2" points="8,-304.8 8,-382.6 538,-382.6 538,-304.8 8,-304.8"/>
<text text-anchor="middle" x="481.9856" y="-313" font-family="Times,serif" font-size="14.00" fill="#000000">Workflow Inputs</text>
</g>
<g id="clust2" class="cluster">
<title>cluster_outputs</title>
<polygon fill="#eeeeee" stroke="#000000" stroke-dasharray="5,2" points="37,-8 37,-85.8 327,-85.8 327,-8 37,-8"/>
<text text-anchor="middle" x="266.3173" y="-16.2" font-family="Times,serif" font-size="14.00" fill="#000000">Workflow Outputs</text>
</g>
<!-- mergeBamDup -->
<g id="node1" class="node">
<title>mergeBamDup</title>
<polygon fill="#f3cea1" stroke="#000000" points="241.2356,-187.3 241.2356,-223.3 342.7644,-223.3 342.7644,-187.3 241.2356,-187.3"/>
<text text-anchor="middle" x="292" y="-201.1" font-family="Times,serif" font-size="14.00" fill="#000000">mergeBamDup</text>
</g>
<!-- BaseRecal -->
<g id="node2" class="node">
<title>BaseRecal</title>
<polygon fill="#f3cea1" stroke="#000000" points="108.4593,-114.3 108.4593,-150.3 183.5407,-150.3 183.5407,-114.3 108.4593,-114.3"/>
<text text-anchor="middle" x="146" y="-128.1" font-family="Times,serif" font-size="14.00" fill="#000000">BaseRecal</text>
</g>
<!-- mergeBamDup&#45;&gt;BaseRecal -->
<g id="edge1" class="edge">
<title>mergeBamDup&#45;&gt;BaseRecal</title>
<path fill="none" stroke="#000000" d="M255.9101,-187.2551C236.3438,-177.4719 211.9765,-165.2883 191.1612,-154.8806"/>
<polygon fill="#000000" stroke="#000000" points="192.6903,-151.7321 182.1807,-150.3904 189.5597,-157.993 192.6903,-151.7321"/>
</g>
<!-- matrix -->
<g id="node13" class="node">
<title>matrix</title>
<polygon fill="#94ddf4" stroke="#000000" points="265,-41.3 265,-77.3 319,-77.3 319,-41.3 265,-41.3"/>
<text text-anchor="middle" x="291.7735" y="-55.1" font-family="Times,serif" font-size="14.00" fill="#000000">matrix</text>
</g>
<!-- mergeBamDup&#45;&gt;matrix -->
<g id="edge14" class="edge">
<title>mergeBamDup&#45;&gt;matrix</title>
<path fill="none" stroke="#000000" d="M292,-187.1042C292,-162.1868 292,-117.1938 292,-87.7877"/>
<polygon fill="#000000" stroke="#000000" points="295.5001,-87.7251 292,-77.7251 288.5001,-87.7251 295.5001,-87.7251"/>
</g>
<!-- BAM -->
<g id="node11" class="node">
<title>BAM</title>
<polygon fill="#94ddf4" stroke="#000000" points="193,-41.3 193,-77.3 247,-77.3 247,-41.3 193,-41.3"/>
<text text-anchor="middle" x="219.9439" y="-55.1" font-family="Times,serif" font-size="14.00" fill="#000000">BAM</text>
</g>
<!-- BaseRecal&#45;&gt;BAM -->
<g id="edge12" class="edge">
<title>BaseRecal&#45;&gt;BAM</title>
<path fill="none" stroke="#000000" d="M164.2921,-114.2551C173.3644,-105.3054 184.4729,-94.347 194.3768,-84.5769"/>
<polygon fill="#000000" stroke="#000000" points="197.0008,-86.9049 201.6618,-77.3904 192.0848,-81.9215 197.0008,-86.9049"/>
</g>
<!-- flagstat -->
<g id="node12" class="node">
<title>flagstat</title>
<polygon fill="#94ddf4" stroke="#000000" points="117.3969,-41.3 117.3969,-77.3 174.6031,-77.3 174.6031,-41.3 117.3969,-41.3"/>
<text text-anchor="middle" x="146" y="-55.1" font-family="Times,serif" font-size="14.00" fill="#000000">flagstat</text>
</g>
<!-- BaseRecal&#45;&gt;flagstat -->
<g id="edge13" class="edge">
<title>BaseRecal&#45;&gt;flagstat</title>
<path fill="none" stroke="#000000" d="M146,-114.2551C146,-106.1828 146,-96.4764 146,-87.4817"/>
<polygon fill="#000000" stroke="#000000" points="149.5001,-87.3903 146,-77.3904 142.5001,-87.3904 149.5001,-87.3903"/>
</g>
<!-- stats -->
<g id="node14" class="node">
<title>stats</title>
<polygon fill="#94ddf4" stroke="#000000" points="45,-41.3 45,-77.3 99,-77.3 99,-41.3 45,-41.3"/>
<text text-anchor="middle" x="71.9425" y="-55.1" font-family="Times,serif" font-size="14.00" fill="#000000">stats</text>
</g>
<!-- BaseRecal&#45;&gt;stats -->
<g id="edge15" class="edge">
<title>BaseRecal&#45;&gt;stats</title>
<path fill="none" stroke="#000000" d="M127.7079,-114.2551C118.6356,-105.3054 107.5271,-94.347 97.6232,-84.5769"/>
<polygon fill="#000000" stroke="#000000" points="99.9152,-81.9215 90.3382,-77.3904 94.9992,-86.9049 99.9152,-81.9215"/>
</g>
<!-- bwaAlign -->
<g id="node3" class="node">
<title>bwaAlign</title>
<polygon fill="#f3cea1" stroke="#000000" points="288.3955,-260.3 288.3955,-296.3 359.6045,-296.3 359.6045,-260.3 288.3955,-260.3"/>
<text text-anchor="middle" x="324" y="-274.1" font-family="Times,serif" font-size="14.00" fill="#000000">bwaAlign</text>
</g>
<!-- bwaAlign&#45;&gt;mergeBamDup -->
<g id="edge2" class="edge">
<title>bwaAlign&#45;&gt;mergeBamDup</title>
<path fill="none" stroke="#000000" d="M316.0899,-260.2551C312.436,-251.9196 308.0182,-241.8416 303.969,-232.6042"/>
<polygon fill="#000000" stroke="#000000" points="307.1504,-231.1439 299.93,-223.3904 300.7393,-233.9542 307.1504,-231.1439"/>
</g>
<!-- knowSites -->
<g id="node4" class="node">
<title>knowSites</title>
<polygon fill="#94ddf4" stroke="#000000" points="15.8352,-338.1 15.8352,-374.1 90.1648,-374.1 90.1648,-338.1 15.8352,-338.1"/>
<text text-anchor="middle" x="53" y="-351.9" font-family="Times,serif" font-size="14.00" fill="#000000">knowSites</text>
</g>
<!-- knowSites&#45;&gt;BaseRecal -->
<g id="edge3" class="edge">
<title>knowSites&#45;&gt;BaseRecal</title>
<path fill="none" stroke="#000000" d="M60.6106,-337.7855C76.8981,-298.5905 115.215,-206.3827 134.4945,-159.9875"/>
<polygon fill="#000000" stroke="#000000" points="137.8093,-161.1312 138.4147,-150.5537 131.3452,-158.445 137.8093,-161.1312"/>
</g>
<!-- outBam -->
<g id="node5" class="node">
<title>outBam</title>
<polygon fill="#94ddf4" stroke="#000000" points="107.8338,-338.1 107.8338,-374.1 168.1662,-374.1 168.1662,-338.1 107.8338,-338.1"/>
<text text-anchor="middle" x="138" y="-351.9" font-family="Times,serif" font-size="14.00" fill="#000000">outBam</text>
</g>
<!-- outBam&#45;&gt;mergeBamDup -->
<g id="edge5" class="edge">
<title>outBam&#45;&gt;mergeBamDup</title>
<path fill="none" stroke="#000000" d="M150.4934,-337.8001C157.7539,-327.6659 167.3524,-315.0779 177,-304.8 203.0226,-277.0773 236.1624,-249.0559 260.1755,-229.8459"/>
<polygon fill="#000000" stroke="#000000" points="262.6012,-232.3893 268.262,-223.4335 258.2518,-226.9045 262.6012,-232.3893"/>
</g>
<!-- outBam&#45;&gt;BaseRecal -->
<g id="edge4" class="edge">
<title>outBam&#45;&gt;BaseRecal</title>
<path fill="none" stroke="#000000" d="M138.6547,-337.7855C140.0499,-298.7548 143.3242,-207.155 144.9893,-160.5735"/>
<polygon fill="#000000" stroke="#000000" points="148.4879,-160.6724 145.3475,-150.5537 141.4924,-160.4222 148.4879,-160.6724"/>
</g>
<!-- Ref -->
<g id="node6" class="node">
<title>Ref</title>
<polygon fill="#94ddf4" stroke="#000000" points="186,-338.1 186,-374.1 240,-374.1 240,-338.1 186,-338.1"/>
<text text-anchor="middle" x="212.6059" y="-351.9" font-family="Times,serif" font-size="14.00" fill="#000000">Ref</text>
</g>
<!-- Ref&#45;&gt;BaseRecal -->
<g id="edge6" class="edge">
<title>Ref&#45;&gt;BaseRecal</title>
<path fill="none" stroke="#000000" d="M207.5171,-337.7855C195.8077,-298.6726 168.2941,-206.7691 154.3765,-160.2799"/>
<polygon fill="#000000" stroke="#000000" points="157.6857,-159.1298 151.4647,-150.5537 150.9798,-161.1374 157.6857,-159.1298"/>
</g>
<!-- Ref&#45;&gt;bwaAlign -->
<g id="edge7" class="edge">
<title>Ref&#45;&gt;bwaAlign</title>
<path fill="none" stroke="#000000" d="M222.1045,-337.7638C228.3464,-326.8511 237.5601,-313.4834 249,-304.8 257.6692,-298.2196 268.109,-293.1793 278.4075,-289.3545"/>
<polygon fill="#000000" stroke="#000000" points="279.8251,-292.5698 288.1757,-286.0492 277.5814,-285.9391 279.8251,-292.5698"/>
</g>
<!-- threads -->
<g id="node7" class="node">
<title>threads</title>
<polygon fill="#94ddf4" stroke="#000000" points="401.7875,-338.1 401.7875,-374.1 458.2125,-374.1 458.2125,-338.1 401.7875,-338.1"/>
<text text-anchor="middle" x="430" y="-351.9" font-family="Times,serif" font-size="14.00" fill="#000000">threads</text>
</g>
<!-- threads&#45;&gt;bwaAlign -->
<g id="edge8" class="edge">
<title>threads&#45;&gt;bwaAlign</title>
<path fill="none" stroke="#000000" d="M420.4497,-337.8775C413.9619,-327.0076 404.4836,-313.6449 393,-304.8 385.909,-299.3384 377.5599,-294.8857 369.1645,-291.2975"/>
<polygon fill="#000000" stroke="#000000" points="370.3188,-287.9908 359.7309,-287.6061 367.7679,-294.5095 370.3188,-287.9908"/>
</g>
<!-- FQ1s -->
<g id="node8" class="node">
<title>FQ1s</title>
<polygon fill="#94ddf4" stroke="#000000" points="330,-338.1 330,-374.1 384,-374.1 384,-338.1 330,-338.1"/>
<text text-anchor="middle" x="356.6669" y="-351.9" font-family="Times,serif" font-size="14.00" fill="#000000">FQ1s</text>
</g>
<!-- FQ1s&#45;&gt;bwaAlign -->
<g id="edge9" class="edge">
<title>FQ1s&#45;&gt;bwaAlign</title>
<path fill="none" stroke="#000000" d="M349.3462,-338.0556C345.2936,-328.5013 340.2302,-316.564 335.6968,-305.8761"/>
<polygon fill="#000000" stroke="#000000" points="338.8537,-304.3554 331.7266,-296.5161 332.4094,-307.0889 338.8537,-304.3554"/>
</g>
<!-- FQ2s -->
<g id="node9" class="node">
<title>FQ2s</title>
<polygon fill="#94ddf4" stroke="#000000" points="258,-338.1 258,-374.1 312,-374.1 312,-338.1 258,-338.1"/>
<text text-anchor="middle" x="284.6669" y="-351.9" font-family="Times,serif" font-size="14.00" fill="#000000">FQ2s</text>
</g>
<!-- FQ2s&#45;&gt;bwaAlign -->
<g id="edge10" class="edge">
<title>FQ2s&#45;&gt;bwaAlign</title>
<path fill="none" stroke="#000000" d="M294.0454,-338.0556C298.8837,-328.4038 304.9411,-316.3202 310.3403,-305.5493"/>
<polygon fill="#000000" stroke="#000000" points="313.5161,-307.0242 314.8685,-296.5161 307.2583,-303.8873 313.5161,-307.0242"/>
</g>
<!-- RG -->
<g id="node10" class="node">
<title>RG</title>
<polygon fill="#94ddf4" stroke="#000000" points="476,-338.1 476,-374.1 530,-374.1 530,-338.1 476,-338.1"/>
<text text-anchor="middle" x="502.7216" y="-351.9" font-family="Times,serif" font-size="14.00" fill="#000000">RG</text>
</g>
<!-- RG&#45;&gt;bwaAlign -->
<g id="edge11" class="edge">
<title>RG&#45;&gt;bwaAlign</title>
<path fill="none" stroke="#000000" d="M494.7575,-337.8732C488.6934,-326.5715 479.3579,-312.7396 467,-304.8 451.1943,-294.6453 405.4444,-287.3419 369.9037,-283.0063"/>
<polygon fill="#000000" stroke="#000000" points="370.0559,-279.5002 359.7158,-281.8092 369.239,-286.4523 370.0559,-279.5002"/>
</g>
</g>
</svg>

