<?xml version="1.0" encoding="UTF-8" standalone="no"?>
<!DOCTYPE svg PUBLIC "-//W3C//DTD SVG 1.1//EN"
 "http://www.w3.org/Graphics/SVG/1.1/DTD/svg11.dtd">
<!-- Generated by graphviz version 2.40.1 (20161225.0304)
 -->
<!-- Title: G Pages: 1 -->
<svg width="462pt" height="326pt"
 viewBox="0.00 0.00 462.00 325.60" xmlns="http://www.w3.org/2000/svg" xmlns:xlink="http://www.w3.org/1999/xlink">
<g id="graph0" class="graph" transform="scale(1 1) rotate(0) translate(4 321.6)">
<title>G</title>
<polygon fill="#eeeeee" stroke="transparent" points="-4,4 -4,-321.6 458,-321.6 458,4 -4,4"/>
<g id="clust1" class="cluster">
<title>cluster_inputs</title>
<polygon fill="#eeeeee" stroke="#000000" stroke-dasharray="5,2" points="8,-231.8 8,-309.6 446,-309.6 446,-231.8 8,-231.8"/>
<text text-anchor="middle" x="389.9856" y="-240" font-family="Times,serif" font-size="14.00" fill="#000000">Workflow Inputs</text>
</g>
<g id="clust2" class="cluster">
<title>cluster_outputs</title>
<polygon fill="#eeeeee" stroke="#000000" stroke-dasharray="5,2" points="146,-8 146,-85.8 364,-85.8 364,-8 146,-8"/>
<text text-anchor="middle" x="303.3173" y="-16.2" font-family="Times,serif" font-size="14.00" fill="#000000">Workflow Outputs</text>
</g>
<!-- bwaAlign -->
<g id="node1" class="node">
<title>bwaAlign</title>
<polygon fill="#f3cea1" stroke="#000000" points="187.3955,-187.3 187.3955,-223.3 258.6045,-223.3 258.6045,-187.3 187.3955,-187.3"/>
<text text-anchor="middle" x="223" y="-201.1" font-family="Times,serif" font-size="14.00" fill="#000000">bwaAlign</text>
</g>
<!-- mergeBamDup -->
<g id="node2" class="node">
<title>mergeBamDup</title>
<polygon fill="#f3cea1" stroke="#000000" points="204.2356,-114.3 204.2356,-150.3 305.7644,-150.3 305.7644,-114.3 204.2356,-114.3"/>
<text text-anchor="middle" x="255" y="-128.1" font-family="Times,serif" font-size="14.00" fill="#000000">mergeBamDup</text>
</g>
<!-- bwaAlign&#45;&gt;mergeBamDup -->
<g id="edge1" class="edge">
<title>bwaAlign&#45;&gt;mergeBamDup</title>
<path fill="none" stroke="#000000" d="M230.9101,-187.2551C234.564,-178.9196 238.9818,-168.8416 243.031,-159.6042"/>
<polygon fill="#000000" stroke="#000000" points="246.2607,-160.9542 247.07,-150.3904 239.8496,-158.1439 246.2607,-160.9542"/>
</g>
<!-- Idx -->
<g id="node9" class="node">
<title>Idx</title>
<polygon fill="#94ddf4" stroke="#000000" points="302,-41.3 302,-77.3 356,-77.3 356,-41.3 302,-41.3"/>
<text text-anchor="middle" x="328.8303" y="-55.1" font-family="Times,serif" font-size="14.00" fill="#000000">Idx</text>
</g>
<!-- mergeBamDup&#45;&gt;Idx -->
<g id="edge8" class="edge">
<title>mergeBamDup&#45;&gt;Idx</title>
<path fill="none" stroke="#000000" d="M273.2921,-114.2551C282.3644,-105.3054 293.4729,-94.347 303.3768,-84.5769"/>
<polygon fill="#000000" stroke="#000000" points="306.0008,-86.9049 310.6618,-77.3904 301.0848,-81.9215 306.0008,-86.9049"/>
</g>
<!-- flagstat -->
<g id="node10" class="node">
<title>flagstat</title>
<polygon fill="#94ddf4" stroke="#000000" points="226.3969,-41.3 226.3969,-77.3 283.6031,-77.3 283.6031,-41.3 226.3969,-41.3"/>
<text text-anchor="middle" x="255" y="-55.1" font-family="Times,serif" font-size="14.00" fill="#000000">flagstat</text>
</g>
<!-- mergeBamDup&#45;&gt;flagstat -->
<g id="edge9" class="edge">
<title>mergeBamDup&#45;&gt;flagstat</title>
<path fill="none" stroke="#000000" d="M255,-114.2551C255,-106.1828 255,-96.4764 255,-87.4817"/>
<polygon fill="#000000" stroke="#000000" points="258.5001,-87.3903 255,-77.3904 251.5001,-87.3904 258.5001,-87.3903"/>
</g>
<!-- matrix -->
<g id="node11" class="node">
<title>matrix</title>
<polygon fill="#94ddf4" stroke="#000000" points="154,-41.3 154,-77.3 208,-77.3 208,-41.3 154,-41.3"/>
<text text-anchor="middle" x="180.7735" y="-55.1" font-family="Times,serif" font-size="14.00" fill="#000000">matrix</text>
</g>
<!-- mergeBamDup&#45;&gt;matrix -->
<g id="edge10" class="edge">
<title>mergeBamDup&#45;&gt;matrix</title>
<path fill="none" stroke="#000000" d="M236.7079,-114.2551C227.6356,-105.3054 216.5271,-94.347 206.6232,-84.5769"/>
<polygon fill="#000000" stroke="#000000" points="208.9152,-81.9215 199.3382,-77.3904 203.9992,-86.9049 208.9152,-81.9215"/>
</g>
<!-- Ref -->
<g id="node3" class="node">
<title>Ref</title>
<polygon fill="#94ddf4" stroke="#000000" points="306,-265.1 306,-301.1 360,-301.1 360,-265.1 306,-265.1"/>
<text text-anchor="middle" x="332.6059" y="-278.9" font-family="Times,serif" font-size="14.00" fill="#000000">Ref</text>
</g>
<!-- Ref&#45;&gt;bwaAlign -->
<g id="edge2" class="edge">
<title>Ref&#45;&gt;bwaAlign</title>
<path fill="none" stroke="#000000" d="M323.8825,-264.7809C317.6358,-253.8746 308.4214,-240.5076 297,-231.8 288.5295,-225.3421 278.3449,-220.3587 268.279,-216.551"/>
<polygon fill="#000000" stroke="#000000" points="269.3191,-213.2074 258.7243,-213.2508 267.0337,-219.8238 269.3191,-213.2074"/>
</g>
<!-- threads -->
<g id="node4" class="node">
<title>threads</title>
<polygon fill="#94ddf4" stroke="#000000" points="231.7875,-265.1 231.7875,-301.1 288.2125,-301.1 288.2125,-265.1 231.7875,-265.1"/>
<text text-anchor="middle" x="260" y="-278.9" font-family="Times,serif" font-size="14.00" fill="#000000">threads</text>
</g>
<!-- threads&#45;&gt;bwaAlign -->
<g id="edge3" class="edge">
<title>threads&#45;&gt;bwaAlign</title>
<path fill="none" stroke="#000000" d="M251.4185,-265.0556C246.8283,-255.4038 241.0816,-243.3202 235.9592,-232.5493"/>
<polygon fill="#000000" stroke="#000000" points="239.1188,-231.0436 231.6632,-223.5161 232.7973,-234.0501 239.1188,-231.0436"/>
</g>
<!-- outBam -->
<g id="node5" class="node">
<title>outBam</title>
<polygon fill="#94ddf4" stroke="#000000" points="377.8338,-265.1 377.8338,-301.1 438.1662,-301.1 438.1662,-265.1 377.8338,-265.1"/>
<text text-anchor="middle" x="408" y="-278.9" font-family="Times,serif" font-size="14.00" fill="#000000">outBam</text>
</g>
<!-- outBam&#45;&gt;mergeBamDup -->
<g id="edge4" class="edge">
<title>outBam&#45;&gt;mergeBamDup</title>
<path fill="none" stroke="#000000" d="M395.4894,-264.8162C388.2235,-254.687 378.6254,-242.0988 369,-231.8 343.1663,-204.159 310.3194,-176.1274 286.5263,-156.8928"/>
<polygon fill="#000000" stroke="#000000" points="288.5063,-153.9943 278.5143,-150.4713 284.1284,-159.4564 288.5063,-153.9943"/>
</g>
<!-- FQ1s -->
<g id="node6" class="node">
<title>FQ1s</title>
<polygon fill="#94ddf4" stroke="#000000" points="88,-265.1 88,-301.1 142,-301.1 142,-265.1 88,-265.1"/>
<text text-anchor="middle" x="114.6669" y="-278.9" font-family="Times,serif" font-size="14.00" fill="#000000">FQ1s</text>
</g>
<!-- FQ1s&#45;&gt;bwaAlign -->
<g id="edge5" class="edge">
<title>FQ1s&#45;&gt;bwaAlign</title>
<path fill="none" stroke="#000000" d="M124.1445,-264.8162C130.4014,-253.9232 139.6169,-240.5577 151,-231.8 158.8352,-225.7719 168.179,-221.0117 177.4981,-217.2909"/>
<polygon fill="#000000" stroke="#000000" points="178.9382,-220.4914 187.1364,-213.7802 176.5424,-213.9141 178.9382,-220.4914"/>
</g>
<!-- FQ2s -->
<g id="node7" class="node">
<title>FQ2s</title>
<polygon fill="#94ddf4" stroke="#000000" points="16,-265.1 16,-301.1 70,-301.1 70,-265.1 16,-265.1"/>
<text text-anchor="middle" x="42.6669" y="-278.9" font-family="Times,serif" font-size="14.00" fill="#000000">FQ2s</text>
</g>
<!-- FQ2s&#45;&gt;bwaAlign -->
<g id="edge6" class="edge">
<title>FQ2s&#45;&gt;bwaAlign</title>
<path fill="none" stroke="#000000" d="M51.2392,-264.8681C57.302,-253.5642 66.6372,-239.7319 79,-231.8 94.9676,-221.5553 141.2704,-214.2481 177.1048,-209.9358"/>
<polygon fill="#000000" stroke="#000000" points="177.8407,-213.3741 187.3715,-208.7464 177.0351,-206.4206 177.8407,-213.3741"/>
</g>
<!-- RG -->
<g id="node8" class="node">
<title>RG</title>
<polygon fill="#94ddf4" stroke="#000000" points="160,-265.1 160,-301.1 214,-301.1 214,-265.1 160,-265.1"/>
<text text-anchor="middle" x="186.7216" y="-278.9" font-family="Times,serif" font-size="14.00" fill="#000000">RG</text>
</g>
<!-- RG&#45;&gt;bwaAlign -->
<g id="edge7" class="edge">
<title>RG&#45;&gt;bwaAlign</title>
<path fill="none" stroke="#000000" d="M195.3496,-265.0556C199.7706,-255.5013 205.2943,-243.564 210.2399,-232.8761"/>
<polygon fill="#000000" stroke="#000000" points="213.5479,-234.0614 214.571,-223.5161 207.195,-231.1218 213.5479,-234.0614"/>
</g>
</g>
</svg>

