<?xml version="1.0" encoding="UTF-8" standalone="no"?>
<!DOCTYPE svg PUBLIC "-//W3C//DTD SVG 1.1//EN"
 "http://www.w3.org/Graphics/SVG/1.1/DTD/svg11.dtd">
<!-- Generated by graphviz version 2.40.1 (20161225.0304)
 -->
<!-- Title: G Pages: 1 -->
<svg width="396pt" height="326pt"
 viewBox="0.00 0.00 396.00 325.60" xmlns="http://www.w3.org/2000/svg" xmlns:xlink="http://www.w3.org/1999/xlink">
<g id="graph0" class="graph" transform="scale(1 1) rotate(0) translate(4 321.6)">
<title>G</title>
<polygon fill="#eeeeee" stroke="transparent" points="-4,4 -4,-321.6 392,-321.6 392,4 -4,4"/>
<g id="clust1" class="cluster">
<title>cluster_inputs</title>
<polygon fill="#eeeeee" stroke="#000000" stroke-dasharray="5,2" points="8,-231.8 8,-309.6 380,-309.6 380,-231.8 8,-231.8"/>
<text text-anchor="middle" x="323.9856" y="-240" font-family="Times,serif" font-size="14.00" fill="#000000">Workflow Inputs</text>
</g>
<g id="clust2" class="cluster">
<title>cluster_outputs</title>
<polygon fill="#eeeeee" stroke="#000000" stroke-dasharray="5,2" points="90,-8 90,-85.8 211,-85.8 211,-8 90,-8"/>
<text text-anchor="middle" x="150.3173" y="-16.2" font-family="Times,serif" font-size="14.00" fill="#000000">Workflow Outputs</text>
</g>
<!-- copy -->
<g id="node1" class="node">
<title>copy</title>
<polygon fill="#fafad2" stroke="#000000" points="232,-187.3 232,-223.3 286,-223.3 286,-187.3 232,-187.3"/>
<text text-anchor="middle" x="258.6073" y="-201.1" font-family="Times,serif" font-size="14.00" fill="#000000">copy</text>
</g>
<!-- compsra -->
<g id="node2" class="node">
<title>compsra</title>
<polygon fill="#fafad2" stroke="#000000" points="118.2875,-114.3 118.2875,-150.3 181.7125,-150.3 181.7125,-114.3 118.2875,-114.3"/>
<text text-anchor="middle" x="150" y="-128.1" font-family="Times,serif" font-size="14.00" fill="#000000">compsra</text>
</g>
<!-- copy&#45;&gt;compsra -->
<g id="edge1" class="edge">
<title>copy&#45;&gt;compsra</title>
<path fill="none" stroke="#000000" d="M232.0562,-187.2551C218.038,-177.8667 200.719,-166.2678 185.6103,-156.1491"/>
<polygon fill="#000000" stroke="#000000" points="187.268,-153.0469 177.0116,-150.3904 183.3728,-158.8631 187.268,-153.0469"/>
</g>
<!-- out -->
<g id="node8" class="node">
<title>out</title>
<polygon fill="#94ddf4" stroke="#000000" points="123,-41.3 123,-77.3 177,-77.3 177,-41.3 123,-41.3"/>
<text text-anchor="middle" x="149.9453" y="-55.1" font-family="Times,serif" font-size="14.00" fill="#000000">out</text>
</g>
<!-- compsra&#45;&gt;out -->
<g id="edge7" class="edge">
<title>compsra&#45;&gt;out</title>
<path fill="none" stroke="#000000" d="M150,-114.2551C150,-106.1828 150,-96.4764 150,-87.4817"/>
<polygon fill="#000000" stroke="#000000" points="153.5001,-87.3903 150,-77.3904 146.5001,-87.3904 153.5001,-87.3903"/>
</g>
<!-- DB -->
<g id="node3" class="node">
<title>DB</title>
<polygon fill="#94ddf4" stroke="#000000" points="16,-265.1 16,-301.1 70,-301.1 70,-265.1 16,-265.1"/>
<text text-anchor="middle" x="42.7216" y="-278.9" font-family="Times,serif" font-size="14.00" fill="#000000">DB</text>
</g>
<!-- DB&#45;&gt;compsra -->
<g id="edge2" class="edge">
<title>DB&#45;&gt;compsra</title>
<path fill="none" stroke="#000000" d="M55.6274,-265.0322C62.5168,-255.1933 71.2066,-242.8132 79,-231.8 96.5121,-207.0529 116.5895,-178.9401 130.9156,-158.9246"/>
<polygon fill="#000000" stroke="#000000" points="133.8946,-160.7762 136.8708,-150.6079 128.2032,-156.7008 133.8946,-160.7762"/>
</g>
<!-- adapt -->
<g id="node4" class="node">
<title>adapt</title>
<polygon fill="#94ddf4" stroke="#000000" points="88,-265.1 88,-301.1 142,-301.1 142,-265.1 88,-265.1"/>
<text text-anchor="middle" x="114.6599" y="-278.9" font-family="Times,serif" font-size="14.00" fill="#000000">adapt</text>
</g>
<!-- adapt&#45;&gt;compsra -->
<g id="edge3" class="edge">
<title>adapt&#45;&gt;compsra</title>
<path fill="none" stroke="#000000" d="M119.2218,-264.91C125.2395,-238.9825 136.3387,-191.1606 143.435,-160.5858"/>
<polygon fill="#000000" stroke="#000000" points="146.9117,-161.0869 145.7632,-150.5545 140.0929,-159.5043 146.9117,-161.0869"/>
</g>
<!-- ref -->
<g id="node5" class="node">
<title>ref</title>
<polygon fill="#94ddf4" stroke="#000000" points="160,-265.1 160,-301.1 214,-301.1 214,-265.1 160,-265.1"/>
<text text-anchor="middle" x="186.7679" y="-278.9" font-family="Times,serif" font-size="14.00" fill="#000000">ref</text>
</g>
<!-- ref&#45;&gt;compsra -->
<g id="edge4" class="edge">
<title>ref&#45;&gt;compsra</title>
<path fill="none" stroke="#000000" d="M182.5369,-264.91C176.1754,-238.9825 164.4419,-191.1606 156.9401,-160.5858"/>
<polygon fill="#000000" stroke="#000000" points="160.261,-159.4324 154.4789,-150.5545 153.4627,-161.1005 160.261,-159.4324"/>
</g>
<!-- fq -->
<g id="node6" class="node">
<title>fq</title>
<polygon fill="#94ddf4" stroke="#000000" points="232,-265.1 232,-301.1 286,-301.1 286,-265.1 232,-265.1"/>
<text text-anchor="middle" x="258.8303" y="-278.9" font-family="Times,serif" font-size="14.00" fill="#000000">fq</text>
</g>
<!-- fq&#45;&gt;copy -->
<g id="edge5" class="edge">
<title>fq&#45;&gt;copy</title>
<path fill="none" stroke="#000000" d="M259,-265.0556C259,-255.6963 259,-244.0503 259,-233.532"/>
<polygon fill="#000000" stroke="#000000" points="262.5001,-233.516 259,-223.5161 255.5001,-233.5161 262.5001,-233.516"/>
</g>
<!-- samplefq -->
<g id="node7" class="node">
<title>samplefq</title>
<polygon fill="#94ddf4" stroke="#000000" points="304.3422,-265.1 304.3422,-301.1 371.6578,-301.1 371.6578,-265.1 304.3422,-265.1"/>
<text text-anchor="middle" x="338" y="-278.9" font-family="Times,serif" font-size="14.00" fill="#000000">samplefq</text>
</g>
<!-- samplefq&#45;&gt;copy -->
<g id="edge6" class="edge">
<title>samplefq&#45;&gt;copy</title>
<path fill="none" stroke="#000000" d="M324.6335,-265.0861C316.5946,-254.8065 305.8446,-241.9815 295,-231.8 294.3317,-231.1725 293.6483,-230.5465 292.9529,-229.9232"/>
<polygon fill="#000000" stroke="#000000" points="295.078,-227.1377 285.1635,-223.4022 290.5846,-232.5052 295.078,-227.1377"/>
</g>
</g>
</svg>

