<?xml version="1.0" encoding="UTF-8" standalone="no"?>
<!DOCTYPE svg PUBLIC "-//W3C//DTD SVG 1.1//EN"
 "http://www.w3.org/Graphics/SVG/1.1/DTD/svg11.dtd">
<!-- Generated by graphviz version 2.40.1 (20161225.0304)
 -->
<!-- Title: %0 Pages: 1 -->
<svg width="188pt" height="188pt"
 viewBox="0.00 0.00 188.00 188.00" xmlns="http://www.w3.org/2000/svg" xmlns:xlink="http://www.w3.org/1999/xlink">
<g id="graph0" class="graph" transform="scale(1 1) rotate(0) translate(4 184)">
<title>%0</title>
<polygon fill="#ffffff" stroke="transparent" points="-4,4 -4,-184 184,-184 184,4 -4,4"/>
<!-- 1&#45;&gt;5 -->
<g id="edge1" class="edge">
<title>1&#45;&gt;5</title>
<path fill="none" stroke="#cccccc" d="M36.1686,-143.8314C48.8942,-131.1058 65.5966,-114.4034 77.0008,-102.9992"/>
<polygon fill="#cccccc" stroke="#cccccc" points="78.3537,-104.1212 80.6519,-99.3481 75.8788,-101.6463 78.3537,-104.1212"/>
</g>
<!-- 2&#45;&gt;5 -->
<g id="edge2" class="edge">
<title>2&#45;&gt;5</title>
<path fill="none" stroke="#cccccc" d="M90,-143.8314C90,-134.6078 90,-123.295 90,-113.4246"/>
<polygon fill="#cccccc" stroke="#cccccc" points="91.7501,-113.4132 90,-108.4133 88.2501,-113.4133 91.7501,-113.4132"/>
</g>
<!-- 3&#45;&gt;5 -->
<g id="edge3" class="edge">
<title>3&#45;&gt;5</title>
<path fill="none" stroke="#cccccc" d="M143.8314,-143.8314C131.1058,-131.1058 114.4034,-114.4034 102.9992,-102.9992"/>
<polygon fill="#cccccc" stroke="#cccccc" points="104.1212,-101.6463 99.3481,-99.3481 101.6463,-104.1212 104.1212,-101.6463"/>
</g>
<!-- 5&#45;&gt;4 -->
<g id="edge4" class="edge">
<title>5&#45;&gt;4</title>
<path fill="none" stroke="#cccccc" d="M90,-71.8314C90,-62.6078 90,-51.295 90,-41.4246"/>
<polygon fill="#cccccc" stroke="#cccccc" points="91.7501,-41.4132 90,-36.4133 88.2501,-41.4133 91.7501,-41.4132"/>
</g>
<!-- 1 -->
<g id="node1" class="node">
<title>1</title>
<polygon fill="#f0f8ff" stroke="#b3b3b3" points="36,-180 0,-180 0,-144 36,-144 36,-180"/>
<text text-anchor="middle" x="18" y="-159" font-family="Helvetica,sans-Serif" font-size="10.00" fill="#000000">species</text>
</g>
<!-- 2 -->
<g id="node2" class="node">
<title>2</title>
<polygon fill="#f0f8ff" stroke="#b3b3b3" points="108,-180 72,-180 72,-144 108,-144 108,-180"/>
<text text-anchor="middle" x="90" y="-159" font-family="Helvetica,sans-Serif" font-size="10.00" fill="#000000">from</text>
</g>
<!-- 3 -->
<g id="node3" class="node">
<title>3</title>
<polygon fill="#f0f8ff" stroke="#b3b3b3" points="180,-180 144,-180 144,-144 180,-144 180,-180"/>
<text text-anchor="middle" x="162" y="-159" font-family="Helvetica,sans-Serif" font-size="10.00" fill="#000000">to</text>
</g>
<!-- 4 -->
<g id="node4" class="node">
<title>4</title>
<ellipse fill="#f0f8ff" stroke="#b3b3b3" cx="90" cy="-18" rx="18" ry="18"/>
<text text-anchor="middle" x="90" y="-15" font-family="Helvetica,sans-Serif" font-size="10.00" fill="#000000">liftover</text>
</g>
<!-- 5 -->
<g id="node5" class="node">
<title>5</title>
<polygon fill="#f0f8ff" stroke="#b3b3b3" points="90,-108 72,-90 90,-72 108,-90 90,-108"/>
<text text-anchor="middle" x="90" y="-87" font-family="Helvetica,sans-Serif" font-size="10.00" fill="#000000">bash</text>
</g>
</g>
</svg>

