<?xml version="1.0" encoding="UTF-8" standalone="no"?>
<!DOCTYPE svg PUBLIC "-//W3C//DTD SVG 1.1//EN"
 "http://www.w3.org/Graphics/SVG/1.1/DTD/svg11.dtd">
<!-- Generated by graphviz version 2.40.1 (20161225.0304)
 -->
<!-- Title: G Pages: 1 -->
<svg width="1046pt" height="472pt"
 viewBox="0.00 0.00 1046.00 471.60" xmlns="http://www.w3.org/2000/svg" xmlns:xlink="http://www.w3.org/1999/xlink">
<g id="graph0" class="graph" transform="scale(1 1) rotate(0) translate(4 467.6)">
<title>G</title>
<polygon fill="#eeeeee" stroke="transparent" points="-4,4 -4,-467.6 1042,-467.6 1042,4 -4,4"/>
<g id="clust1" class="cluster">
<title>cluster_inputs</title>
<polygon fill="#eeeeee" stroke="#000000" stroke-dasharray="5,2" points="10,-377.8 10,-455.6 1030,-455.6 1030,-377.8 10,-377.8"/>
<text text-anchor="middle" x="973.9856" y="-386" font-family="Times,serif" font-size="14.00" fill="#000000">Workflow Inputs</text>
</g>
<g id="clust2" class="cluster">
<title>cluster_outputs</title>
<polygon fill="#eeeeee" stroke="#000000" stroke-dasharray="5,2" points="8,-8 8,-85.8 154,-85.8 154,-8 8,-8"/>
<text text-anchor="middle" x="93.3173" y="-16.2" font-family="Times,serif" font-size="14.00" fill="#000000">Workflow Outputs</text>
</g>
<!-- ubam2bamJson -->
<g id="node1" class="node">
<title>ubam2bamJson</title>
<polygon fill="#fafad2" stroke="#000000" points="152.4502,-187.3 152.4502,-223.3 255.5498,-223.3 255.5498,-187.3 152.4502,-187.3"/>
<text text-anchor="middle" x="204" y="-201.1" font-family="Times,serif" font-size="14.00" fill="#000000">ubam2bamJson</text>
</g>
<!-- align -->
<g id="node2" class="node">
<title>align</title>
<polygon fill="#fafad2" stroke="#000000" points="97,-114.3 97,-150.3 151,-150.3 151,-114.3 97,-114.3"/>
<text text-anchor="middle" x="123.9979" y="-128.1" font-family="Times,serif" font-size="14.00" fill="#000000">align</text>
</g>
<!-- ubam2bamJson&#45;&gt;align -->
<g id="edge1" class="edge">
<title>ubam2bamJson&#45;&gt;align</title>
<path fill="none" stroke="#000000" d="M184.2247,-187.2551C174.3207,-178.2177 162.1719,-167.1319 151.3862,-157.2899"/>
<polygon fill="#000000" stroke="#000000" points="153.5711,-154.5455 143.8251,-150.3904 148.8527,-159.7163 153.5711,-154.5455"/>
</g>
<!-- bamlog -->
<g id="node18" class="node">
<title>bamlog</title>
<polygon fill="#94ddf4" stroke="#000000" points="88.0021,-41.3 88.0021,-77.3 145.9979,-77.3 145.9979,-41.3 88.0021,-41.3"/>
<text text-anchor="middle" x="117" y="-55.1" font-family="Times,serif" font-size="14.00" fill="#000000">bamlog</text>
</g>
<!-- align&#45;&gt;bamlog -->
<g id="edge18" class="edge">
<title>align&#45;&gt;bamlog</title>
<path fill="none" stroke="#000000" d="M122.2697,-114.2551C121.4956,-106.1828 120.5649,-96.4764 119.7024,-87.4817"/>
<polygon fill="#000000" stroke="#000000" points="123.1733,-87.0106 118.7347,-77.3904 116.2053,-87.6788 123.1733,-87.0106"/>
</g>
<!-- fqJson -->
<g id="node3" class="node">
<title>fqJson</title>
<polygon fill="#fafad2" stroke="#000000" points="536,-333.3 536,-369.3 590,-369.3 590,-333.3 536,-333.3"/>
<text text-anchor="middle" x="562.7749" y="-347.1" font-family="Times,serif" font-size="14.00" fill="#000000">fqJson</text>
</g>
<!-- fq2ubam -->
<g id="node4" class="node">
<title>fq2ubam</title>
<polygon fill="#fafad2" stroke="#000000" points="171.1171,-260.3 171.1171,-296.3 236.8829,-296.3 236.8829,-260.3 171.1171,-260.3"/>
<text text-anchor="middle" x="204" y="-274.1" font-family="Times,serif" font-size="14.00" fill="#000000">fq2ubam</text>
</g>
<!-- fqJson&#45;&gt;fq2ubam -->
<g id="edge2" class="edge">
<title>fqJson&#45;&gt;fq2ubam</title>
<path fill="none" stroke="#000000" d="M535.722,-345.7532C473.7576,-333.1532 321.9868,-302.2917 247.1533,-287.0749"/>
<polygon fill="#000000" stroke="#000000" points="247.6188,-283.598 237.1219,-285.0351 246.2239,-290.4576 247.6188,-283.598"/>
</g>
<!-- fq2ubam&#45;&gt;ubam2bamJson -->
<g id="edge3" class="edge">
<title>fq2ubam&#45;&gt;ubam2bamJson</title>
<path fill="none" stroke="#000000" d="M204,-260.2551C204,-252.1828 204,-242.4764 204,-233.4817"/>
<polygon fill="#000000" stroke="#000000" points="207.5001,-233.3903 204,-223.3904 200.5001,-233.3904 207.5001,-233.3903"/>
</g>
<!-- cromwell -->
<g id="node5" class="node">
<title>cromwell</title>
<polygon fill="#94ddf4" stroke="#000000" points="89.5659,-411.1 89.5659,-447.1 158.4341,-447.1 158.4341,-411.1 89.5659,-411.1"/>
<text text-anchor="middle" x="124" y="-424.9" font-family="Times,serif" font-size="14.00" fill="#000000">cromwell</text>
</g>
<!-- cromwell&#45;&gt;align -->
<g id="edge4" class="edge">
<title>cromwell&#45;&gt;align</title>
<path fill="none" stroke="#000000" d="M124,-410.9806C124,-361.0988 124,-221.4546 124,-160.9053"/>
<polygon fill="#000000" stroke="#000000" points="127.5001,-160.5593 124,-150.5594 120.5001,-160.5594 127.5001,-160.5593"/>
</g>
<!-- cromwell&#45;&gt;fq2ubam -->
<g id="edge5" class="edge">
<title>cromwell&#45;&gt;fq2ubam</title>
<path fill="none" stroke="#000000" d="M133.6499,-410.91C147.5847,-384.6428 173.4409,-335.9039 189.627,-305.3931"/>
<polygon fill="#000000" stroke="#000000" points="192.7213,-307.0287 194.3159,-296.5545 186.5376,-303.7481 192.7213,-307.0287"/>
</g>
<!-- wdl2 -->
<g id="node6" class="node">
<title>wdl2</title>
<polygon fill="#94ddf4" stroke="#000000" points="18,-411.1 18,-447.1 72,-447.1 72,-411.1 18,-411.1"/>
<text text-anchor="middle" x="44.9986" y="-424.9" font-family="Times,serif" font-size="14.00" fill="#000000">wdl2</text>
</g>
<!-- wdl2&#45;&gt;align -->
<g id="edge6" class="edge">
<title>wdl2&#45;&gt;align</title>
<path fill="none" stroke="#000000" d="M49.8229,-410.9806C63.1276,-360.9953 100.4238,-220.8748 116.4861,-160.5295"/>
<polygon fill="#000000" stroke="#000000" points="119.9499,-161.1232 119.1399,-150.5594 113.1854,-159.3226 119.9499,-161.1232"/>
</g>
<!-- wdl1 -->
<g id="node7" class="node">
<title>wdl1</title>
<polygon fill="#94ddf4" stroke="#000000" points="176,-411.1 176,-447.1 230,-447.1 230,-411.1 176,-411.1"/>
<text text-anchor="middle" x="202.9986" y="-424.9" font-family="Times,serif" font-size="14.00" fill="#000000">wdl1</text>
</g>
<!-- wdl1&#45;&gt;fq2ubam -->
<g id="edge7" class="edge">
<title>wdl1&#45;&gt;fq2ubam</title>
<path fill="none" stroke="#000000" d="M203.1206,-410.91C203.2926,-384.9825 203.6097,-337.1606 203.8124,-306.5858"/>
<polygon fill="#000000" stroke="#000000" points="207.3125,-306.5775 203.8789,-296.5545 200.3126,-306.5311 207.3125,-306.5775"/>
</g>
<!-- center -->
<g id="node8" class="node">
<title>center</title>
<polygon fill="#94ddf4" stroke="#000000" points="716,-411.1 716,-447.1 770,-447.1 770,-411.1 716,-411.1"/>
<text text-anchor="middle" x="742.5975" y="-424.9" font-family="Times,serif" font-size="14.00" fill="#000000">center</text>
</g>
<!-- center&#45;&gt;fqJson -->
<g id="edge8" class="edge">
<title>center&#45;&gt;fqJson</title>
<path fill="none" stroke="#000000" d="M734.7608,-410.8681C728.698,-399.5642 719.3628,-385.7319 707,-377.8 689.7667,-366.7432 637.1984,-359.1081 600.5912,-354.9668"/>
<polygon fill="#000000" stroke="#000000" points="600.5866,-351.4457 590.2664,-353.8426 599.8288,-358.4046 600.5866,-351.4457"/>
</g>
<!-- fastq1 -->
<g id="node9" class="node">
<title>fastq1</title>
<polygon fill="#94ddf4" stroke="#000000" points="644,-411.1 644,-447.1 698,-447.1 698,-411.1 644,-411.1"/>
<text text-anchor="middle" x="670.6052" y="-424.9" font-family="Times,serif" font-size="14.00" fill="#000000">fastq1</text>
</g>
<!-- fastq1&#45;&gt;fqJson -->
<g id="edge9" class="edge">
<title>fastq1&#45;&gt;fqJson</title>
<path fill="none" stroke="#000000" d="M661.8555,-410.8162C655.5986,-399.9232 646.3831,-386.5577 635,-377.8 624.773,-369.9317 611.9758,-364.2236 600.018,-360.1675"/>
<polygon fill="#000000" stroke="#000000" points="600.8338,-356.7562 590.2458,-357.1379 598.7609,-363.4422 600.8338,-356.7562"/>
</g>
<!-- fastq2 -->
<g id="node10" class="node">
<title>fastq2</title>
<polygon fill="#94ddf4" stroke="#000000" points="572,-411.1 572,-447.1 626,-447.1 626,-411.1 572,-411.1"/>
<text text-anchor="middle" x="598.6052" y="-424.9" font-family="Times,serif" font-size="14.00" fill="#000000">fastq2</text>
</g>
<!-- fastq2&#45;&gt;fqJson -->
<g id="edge10" class="edge">
<title>fastq2&#45;&gt;fqJson</title>
<path fill="none" stroke="#000000" d="M590.6504,-411.0556C586.2294,-401.5013 580.7057,-389.564 575.7601,-378.8761"/>
<polygon fill="#000000" stroke="#000000" points="578.805,-377.1218 571.429,-369.5161 572.4521,-380.0614 578.805,-377.1218"/>
</g>
<!-- library -->
<g id="node11" class="node">
<title>library</title>
<polygon fill="#94ddf4" stroke="#000000" points="500,-411.1 500,-447.1 554,-447.1 554,-411.1 500,-411.1"/>
<text text-anchor="middle" x="526.6585" y="-424.9" font-family="Times,serif" font-size="14.00" fill="#000000">library</text>
</g>
<!-- library&#45;&gt;fqJson -->
<g id="edge11" class="edge">
<title>library&#45;&gt;fqJson</title>
<path fill="none" stroke="#000000" d="M535.3496,-411.0556C539.7706,-401.5013 545.2943,-389.564 550.2399,-378.8761"/>
<polygon fill="#000000" stroke="#000000" points="553.5479,-380.0614 554.571,-369.5161 547.195,-377.1218 553.5479,-380.0614"/>
</g>
<!-- platform -->
<g id="node12" class="node">
<title>platform</title>
<polygon fill="#94ddf4" stroke="#000000" points="417.8962,-411.1 417.8962,-447.1 482.1038,-447.1 482.1038,-411.1 417.8962,-411.1"/>
<text text-anchor="middle" x="450" y="-424.9" font-family="Times,serif" font-size="14.00" fill="#000000">platform</text>
</g>
<!-- platform&#45;&gt;fqJson -->
<g id="edge12" class="edge">
<title>platform&#45;&gt;fqJson</title>
<path fill="none" stroke="#000000" d="M460.9465,-410.8463C468.2727,-399.9647 478.7918,-386.6006 491,-377.8 501.4673,-370.2544 514.323,-364.6247 526.2605,-360.5415"/>
<polygon fill="#000000" stroke="#000000" points="527.517,-363.8152 535.9995,-357.4673 525.4097,-357.1399 527.517,-363.8152"/>
</g>
<!-- platunit -->
<g id="node13" class="node">
<title>platunit</title>
<polygon fill="#94ddf4" stroke="#000000" points="341.6115,-411.1 341.6115,-447.1 400.3885,-447.1 400.3885,-411.1 341.6115,-411.1"/>
<text text-anchor="middle" x="371" y="-424.9" font-family="Times,serif" font-size="14.00" fill="#000000">platunit</text>
</g>
<!-- platunit&#45;&gt;fqJson -->
<g id="edge13" class="edge">
<title>platunit&#45;&gt;fqJson</title>
<path fill="none" stroke="#000000" d="M379.7597,-411.0606C386.2415,-399.6866 396.1638,-385.7023 409,-377.8 428.0864,-366.05 486.6909,-358.428 525.8485,-354.5003"/>
<polygon fill="#000000" stroke="#000000" points="526.2209,-357.9808 535.8381,-353.5356 525.5479,-351.0132 526.2209,-357.9808"/>
</g>
<!-- readGroup -->
<g id="node14" class="node">
<title>readGroup</title>
<polygon fill="#94ddf4" stroke="#000000" points="248.0715,-411.1 248.0715,-447.1 323.9285,-447.1 323.9285,-411.1 248.0715,-411.1"/>
<text text-anchor="middle" x="286" y="-424.9" font-family="Times,serif" font-size="14.00" fill="#000000">readGroup</text>
</g>
<!-- readGroup&#45;&gt;fqJson -->
<g id="edge14" class="edge">
<title>readGroup&#45;&gt;fqJson</title>
<path fill="none" stroke="#000000" d="M297.4708,-411.0273C305.8364,-399.4857 318.2605,-385.3227 333,-377.8 365.7929,-361.0633 469.4316,-354.71 525.729,-352.4499"/>
<polygon fill="#000000" stroke="#000000" points="526.1316,-355.9373 535.9924,-352.0622 525.8673,-348.9423 526.1316,-355.9373"/>
</g>
<!-- sampleName -->
<g id="node15" class="node">
<title>sampleName</title>
<polygon fill="#94ddf4" stroke="#000000" points="860.4593,-411.1 860.4593,-447.1 949.5407,-447.1 949.5407,-411.1 860.4593,-411.1"/>
<text text-anchor="middle" x="905" y="-424.9" font-family="Times,serif" font-size="14.00" fill="#000000">sampleName</text>
</g>
<!-- sampleName&#45;&gt;fqJson -->
<g id="edge15" class="edge">
<title>sampleName&#45;&gt;fqJson</title>
<path fill="none" stroke="#000000" d="M891.3016,-410.8938C881.4647,-399.2942 867.134,-385.1167 851,-377.8 828.7171,-367.6948 673.4111,-357.6153 600.5625,-353.3804"/>
<polygon fill="#000000" stroke="#000000" points="600.6226,-349.8782 590.4383,-352.7987 600.221,-356.8666 600.6226,-349.8782"/>
</g>
<!-- tmpl1 -->
<g id="node16" class="node">
<title>tmpl1</title>
<polygon fill="#94ddf4" stroke="#000000" points="788,-411.1 788,-447.1 842,-447.1 842,-411.1 788,-411.1"/>
<text text-anchor="middle" x="814.8359" y="-424.9" font-family="Times,serif" font-size="14.00" fill="#000000">tmpl1</text>
</g>
<!-- tmpl1&#45;&gt;fqJson -->
<g id="edge16" class="edge">
<title>tmpl1&#45;&gt;fqJson</title>
<path fill="none" stroke="#000000" d="M807.0491,-410.8706C801.0553,-399.4164 791.6882,-385.414 779,-377.8 749.6919,-360.2126 653.9106,-354.2482 600.2617,-352.2627"/>
<polygon fill="#000000" stroke="#000000" points="600.2396,-348.76 590.1259,-351.9164 600.0005,-355.7559 600.2396,-348.76"/>
</g>
<!-- tmpl2 -->
<g id="node17" class="node">
<title>tmpl2</title>
<polygon fill="#94ddf4" stroke="#000000" points="968,-411.1 968,-447.1 1022,-447.1 1022,-411.1 968,-411.1"/>
<text text-anchor="middle" x="994.8359" y="-424.9" font-family="Times,serif" font-size="14.00" fill="#000000">tmpl2</text>
</g>
<!-- tmpl2&#45;&gt;ubam2bamJson -->
<g id="edge17" class="edge">
<title>tmpl2&#45;&gt;ubam2bamJson</title>
<path fill="none" stroke="#000000" d="M986.6456,-411.0434C980.5356,-399.8116 971.191,-385.9936 959,-377.8 844.0048,-300.5113 424.8166,-235.8635 265.7674,-213.5975"/>
<polygon fill="#000000" stroke="#000000" points="266.0603,-210.1046 255.6733,-212.1925 265.0952,-217.0378 266.0603,-210.1046"/>
</g>
<!-- outdir -->
<g id="node19" class="node">
<title>outdir</title>
<polygon fill="#94ddf4" stroke="#000000" points="16,-41.3 16,-77.3 70,-77.3 70,-41.3 16,-41.3"/>
<text text-anchor="middle" x="42.7209" y="-55.1" font-family="Times,serif" font-size="14.00" fill="#000000">outdir</text>
</g>
<!-- mvOut -->
<g id="node20" class="node">
<title>mvOut</title>
<ellipse fill="none" stroke="#000000" cx="41" cy="-132.3" rx="37.7217" ry="18"/>
<text text-anchor="middle" x="41" y="-128.1" font-family="Times,serif" font-size="14.00" fill="#000000">mvOut</text>
</g>
<!-- mvOut&#45;&gt;outdir -->
<g id="edge19" class="edge">
<title>mvOut&#45;&gt;outdir</title>
<path fill="none" stroke="#000000" d="M41.4944,-114.2551C41.7155,-106.1828 41.9815,-96.4764 42.2279,-87.4817"/>
<polygon fill="#000000" stroke="#000000" points="45.7291,-87.4825 42.5044,-77.3904 38.7317,-87.2907 45.7291,-87.4825"/>
</g>
</g>
</svg>

