<?xml version="1.0" encoding="UTF-8" standalone="no"?>
<!DOCTYPE svg PUBLIC "-//W3C//DTD SVG 1.1//EN"
 "http://www.w3.org/Graphics/SVG/1.1/DTD/svg11.dtd">
<!-- Generated by graphviz version 2.40.1 (20161225.0304)
 -->
<!-- Title: G Pages: 1 -->
<svg width="402pt" height="326pt"
 viewBox="0.00 0.00 402.00 325.60" xmlns="http://www.w3.org/2000/svg" xmlns:xlink="http://www.w3.org/1999/xlink">
<g id="graph0" class="graph" transform="scale(1 1) rotate(0) translate(4 321.6)">
<title>G</title>
<polygon fill="#eeeeee" stroke="transparent" points="-4,4 -4,-321.6 398,-321.6 398,4 -4,4"/>
<g id="clust1" class="cluster">
<title>cluster_inputs</title>
<polygon fill="#eeeeee" stroke="#000000" stroke-dasharray="5,2" points="8,-231.8 8,-309.6 386,-309.6 386,-231.8 8,-231.8"/>
<text text-anchor="middle" x="329.9856" y="-240" font-family="Times,serif" font-size="14.00" fill="#000000">Workflow Inputs</text>
</g>
<g id="clust2" class="cluster">
<title>cluster_outputs</title>
<polygon fill="#eeeeee" stroke="#000000" stroke-dasharray="5,2" points="184,-8 184,-85.8 305,-85.8 305,-8 184,-8"/>
<text text-anchor="middle" x="244.3173" y="-16.2" font-family="Times,serif" font-size="14.00" fill="#000000">Workflow Outputs</text>
</g>
<!-- GenomicsDB -->
<g id="node1" class="node">
<title>GenomicsDB</title>
<polygon fill="#fafad2" stroke="#000000" points="92.8976,-187.3 92.8976,-223.3 185.1024,-223.3 185.1024,-187.3 92.8976,-187.3"/>
<text text-anchor="middle" x="139" y="-201.1" font-family="Times,serif" font-size="14.00" fill="#000000">GenomicsDB</text>
</g>
<!-- PoN -->
<g id="node2" class="node">
<title>PoN</title>
<polygon fill="#fafad2" stroke="#000000" points="217,-114.3 217,-150.3 271,-150.3 271,-114.3 217,-114.3"/>
<text text-anchor="middle" x="243.9446" y="-128.1" font-family="Times,serif" font-size="14.00" fill="#000000">PoN</text>
</g>
<!-- GenomicsDB&#45;&gt;PoN -->
<g id="edge1" class="edge">
<title>GenomicsDB&#45;&gt;PoN</title>
<path fill="none" stroke="#000000" d="M164.9551,-187.2551C178.4588,-177.8667 195.1422,-166.2678 209.6965,-156.1491"/>
<polygon fill="#000000" stroke="#000000" points="211.7669,-158.9725 217.9796,-150.3904 207.771,-153.225 211.7669,-158.9725"/>
</g>
<!-- Pvcf -->
<g id="node8" class="node">
<title>Pvcf</title>
<polygon fill="#94ddf4" stroke="#000000" points="217,-41.3 217,-77.3 271,-77.3 271,-41.3 217,-41.3"/>
<text text-anchor="middle" x="243.8289" y="-55.1" font-family="Times,serif" font-size="14.00" fill="#000000">Pvcf</text>
</g>
<!-- PoN&#45;&gt;Pvcf -->
<g id="edge8" class="edge">
<title>PoN&#45;&gt;Pvcf</title>
<path fill="none" stroke="#000000" d="M244,-114.2551C244,-106.1828 244,-96.4764 244,-87.4817"/>
<polygon fill="#000000" stroke="#000000" points="247.5001,-87.3903 244,-77.3904 240.5001,-87.3904 247.5001,-87.3903"/>
</g>
<!-- Ref -->
<g id="node3" class="node">
<title>Ref</title>
<polygon fill="#94ddf4" stroke="#000000" points="164,-265.1 164,-301.1 218,-301.1 218,-265.1 164,-265.1"/>
<text text-anchor="middle" x="190.6059" y="-278.9" font-family="Times,serif" font-size="14.00" fill="#000000">Ref</text>
</g>
<!-- Ref&#45;&gt;GenomicsDB -->
<g id="edge2" class="edge">
<title>Ref&#45;&gt;GenomicsDB</title>
<path fill="none" stroke="#000000" d="M178.9395,-265.0556C172.3581,-255.2089 164.0849,-242.8309 156.7777,-231.8982"/>
<polygon fill="#000000" stroke="#000000" points="159.6421,-229.8851 151.1753,-223.5161 153.8223,-233.7749 159.6421,-229.8851"/>
</g>
<!-- Ref&#45;&gt;PoN -->
<g id="edge3" class="edge">
<title>Ref&#45;&gt;PoN</title>
<path fill="none" stroke="#000000" d="M197.393,-264.91C206.5453,-238.8693 223.4598,-190.7426 234.1991,-160.1862"/>
<polygon fill="#000000" stroke="#000000" points="237.5705,-161.1493 237.5843,-150.5545 230.9665,-158.8283 237.5705,-161.1493"/>
</g>
<!-- interval -->
<g id="node4" class="node">
<title>interval</title>
<polygon fill="#94ddf4" stroke="#000000" points="15.6192,-265.1 15.6192,-301.1 74.3808,-301.1 74.3808,-265.1 15.6192,-265.1"/>
<text text-anchor="middle" x="45" y="-278.9" font-family="Times,serif" font-size="14.00" fill="#000000">interval</text>
</g>
<!-- interval&#45;&gt;GenomicsDB -->
<g id="edge4" class="edge">
<title>interval&#45;&gt;GenomicsDB</title>
<path fill="none" stroke="#000000" d="M55.4629,-264.6973C62.2404,-254.0311 71.8656,-240.9451 83,-231.8 84.1688,-230.84 85.3782,-229.9055 86.6202,-228.9966"/>
<polygon fill="#000000" stroke="#000000" points="88.7597,-231.7792 95.2054,-223.3706 84.9229,-225.9243 88.7597,-231.7792"/>
</g>
<!-- nvcf -->
<g id="node5" class="node">
<title>nvcf</title>
<polygon fill="#94ddf4" stroke="#000000" points="92,-265.1 92,-301.1 146,-301.1 146,-265.1 92,-265.1"/>
<text text-anchor="middle" x="118.9376" y="-278.9" font-family="Times,serif" font-size="14.00" fill="#000000">nvcf</text>
</g>
<!-- nvcf&#45;&gt;GenomicsDB -->
<g id="edge5" class="edge">
<title>nvcf&#45;&gt;GenomicsDB</title>
<path fill="none" stroke="#000000" d="M123.6387,-265.0556C126.0697,-255.5988 129.1009,-243.8074 131.8268,-233.2037"/>
<polygon fill="#000000" stroke="#000000" points="135.2172,-234.0726 134.3172,-223.5161 128.4376,-232.3297 135.2172,-234.0726"/>
</g>
<!-- gresource -->
<g id="node6" class="node">
<title>gresource</title>
<polygon fill="#94ddf4" stroke="#000000" points="235.7952,-265.1 235.7952,-301.1 306.2048,-301.1 306.2048,-265.1 235.7952,-265.1"/>
<text text-anchor="middle" x="271" y="-278.9" font-family="Times,serif" font-size="14.00" fill="#000000">gresource</text>
</g>
<!-- gresource&#45;&gt;PoN -->
<g id="edge6" class="edge">
<title>gresource&#45;&gt;PoN</title>
<path fill="none" stroke="#000000" d="M267.7432,-264.91C263.101,-238.9825 254.5387,-191.1606 249.0644,-160.5858"/>
<polygon fill="#000000" stroke="#000000" points="252.4761,-159.7811 247.2684,-150.5545 245.5857,-161.0149 252.4761,-159.7811"/>
</g>
<!-- pvcf -->
<g id="node7" class="node">
<title>pvcf</title>
<polygon fill="#94ddf4" stroke="#000000" points="324,-265.1 324,-301.1 378,-301.1 378,-265.1 324,-265.1"/>
<text text-anchor="middle" x="350.9376" y="-278.9" font-family="Times,serif" font-size="14.00" fill="#000000">pvcf</text>
</g>
<!-- pvcf&#45;&gt;PoN -->
<g id="edge7" class="edge">
<title>pvcf&#45;&gt;PoN</title>
<path fill="none" stroke="#000000" d="M338.3726,-265.0322C331.4832,-255.1933 322.7934,-242.8132 315,-231.8 297.4879,-207.0529 277.4105,-178.9401 263.0844,-158.9246"/>
<polygon fill="#000000" stroke="#000000" points="265.7968,-156.7008 257.1292,-150.6079 260.1054,-160.7762 265.7968,-156.7008"/>
</g>
</g>
</svg>

