<?xml version="1.0" encoding="UTF-8" standalone="no"?>
<!DOCTYPE svg PUBLIC "-//W3C//DTD SVG 1.1//EN"
 "http://www.w3.org/Graphics/SVG/1.1/DTD/svg11.dtd">
<!-- Generated by graphviz version 2.40.1 (20161225.0304)
 -->
<!-- Title: G Pages: 1 -->
<svg width="406pt" height="326pt"
 viewBox="0.00 0.00 406.00 325.60" xmlns="http://www.w3.org/2000/svg" xmlns:xlink="http://www.w3.org/1999/xlink">
<g id="graph0" class="graph" transform="scale(1 1) rotate(0) translate(4 321.6)">
<title>G</title>
<polygon fill="#eeeeee" stroke="transparent" points="-4,4 -4,-321.6 402,-321.6 402,4 -4,4"/>
<g id="clust1" class="cluster">
<title>cluster_inputs</title>
<polygon fill="#eeeeee" stroke="#000000" stroke-dasharray="5,2" points="8,-231.8 8,-309.6 390,-309.6 390,-231.8 8,-231.8"/>
<text text-anchor="middle" x="333.9856" y="-240" font-family="Times,serif" font-size="14.00" fill="#000000">Workflow Inputs</text>
</g>
<g id="clust2" class="cluster">
<title>cluster_outputs</title>
<polygon fill="#eeeeee" stroke="#000000" stroke-dasharray="5,2" points="16,-8 16,-85.8 158,-85.8 158,-8 16,-8"/>
<text text-anchor="middle" x="97.3173" y="-16.2" font-family="Times,serif" font-size="14.00" fill="#000000">Workflow Outputs</text>
</g>
<!-- hapJson -->
<g id="node1" class="node">
<title>hapJson</title>
<polygon fill="#fafad2" stroke="#000000" points="206.4481,-187.3 206.4481,-223.3 267.5519,-223.3 267.5519,-187.3 206.4481,-187.3"/>
<text text-anchor="middle" x="237" y="-201.1" font-family="Times,serif" font-size="14.00" fill="#000000">hapJson</text>
</g>
<!-- HC -->
<g id="node2" class="node">
<title>HC</title>
<polygon fill="#fafad2" stroke="#000000" points="102,-114.3 102,-150.3 156,-150.3 156,-114.3 102,-114.3"/>
<text text-anchor="middle" x="128.7216" y="-128.1" font-family="Times,serif" font-size="14.00" fill="#000000">HC</text>
</g>
<!-- hapJson&#45;&gt;HC -->
<g id="edge1" class="edge">
<title>hapJson&#45;&gt;HC</title>
<path fill="none" stroke="#000000" d="M210.3034,-187.2551C196.4138,-177.8667 179.2537,-166.2678 164.2836,-156.1491"/>
<polygon fill="#000000" stroke="#000000" points="166.0088,-153.0907 155.7638,-150.3904 162.0888,-158.8901 166.0088,-153.0907"/>
</g>
<!-- hclog -->
<g id="node8" class="node">
<title>hclog</title>
<polygon fill="#94ddf4" stroke="#000000" points="96,-41.3 96,-77.3 150,-77.3 150,-41.3 96,-41.3"/>
<text text-anchor="middle" x="122.5526" y="-55.1" font-family="Times,serif" font-size="14.00" fill="#000000">hclog</text>
</g>
<!-- HC&#45;&gt;hclog -->
<g id="edge7" class="edge">
<title>HC&#45;&gt;hclog</title>
<path fill="none" stroke="#000000" d="M127.5169,-114.2551C126.8534,-106.1828 126.0556,-96.4764 125.3163,-87.4817"/>
<polygon fill="#000000" stroke="#000000" points="128.7944,-87.07 124.4869,-77.3904 121.8179,-87.6435 128.7944,-87.07"/>
</g>
<!-- cromwell -->
<g id="node3" class="node">
<title>cromwell</title>
<polygon fill="#94ddf4" stroke="#000000" points="15.5659,-265.1 15.5659,-301.1 84.4341,-301.1 84.4341,-265.1 15.5659,-265.1"/>
<text text-anchor="middle" x="50" y="-278.9" font-family="Times,serif" font-size="14.00" fill="#000000">cromwell</text>
</g>
<!-- cromwell&#45;&gt;HC -->
<g id="edge2" class="edge">
<title>cromwell&#45;&gt;HC</title>
<path fill="none" stroke="#000000" d="M59.5292,-264.91C73.2306,-238.7561 98.603,-190.3236 114.5994,-159.7887"/>
<polygon fill="#000000" stroke="#000000" points="117.8967,-161.0368 119.437,-150.5545 111.6961,-157.7884 117.8967,-161.0368"/>
</g>
<!-- wdl -->
<g id="node4" class="node">
<title>wdl</title>
<polygon fill="#94ddf4" stroke="#000000" points="102,-265.1 102,-301.1 156,-301.1 156,-265.1 102,-265.1"/>
<text text-anchor="middle" x="128.9986" y="-278.9" font-family="Times,serif" font-size="14.00" fill="#000000">wdl</text>
</g>
<!-- wdl&#45;&gt;HC -->
<g id="edge3" class="edge">
<title>wdl&#45;&gt;HC</title>
<path fill="none" stroke="#000000" d="M129,-264.91C129,-238.9825 129,-191.1606 129,-160.5858"/>
<polygon fill="#000000" stroke="#000000" points="132.5001,-160.5545 129,-150.5545 125.5001,-160.5545 132.5001,-160.5545"/>
</g>
<!-- bam -->
<g id="node5" class="node">
<title>bam</title>
<polygon fill="#94ddf4" stroke="#000000" points="174,-265.1 174,-301.1 228,-301.1 228,-265.1 174,-265.1"/>
<text text-anchor="middle" x="200.5526" y="-278.9" font-family="Times,serif" font-size="14.00" fill="#000000">bam</text>
</g>
<!-- bam&#45;&gt;hapJson -->
<g id="edge4" class="edge">
<title>bam&#45;&gt;hapJson</title>
<path fill="none" stroke="#000000" d="M209.3496,-265.0556C213.7706,-255.5013 219.2943,-243.564 224.2399,-232.8761"/>
<polygon fill="#000000" stroke="#000000" points="227.5479,-234.0614 228.571,-223.5161 221.195,-231.1218 227.5479,-234.0614"/>
</g>
<!-- intervals -->
<g id="node6" class="node">
<title>intervals</title>
<polygon fill="#94ddf4" stroke="#000000" points="317.8969,-265.1 317.8969,-301.1 382.1031,-301.1 382.1031,-265.1 317.8969,-265.1"/>
<text text-anchor="middle" x="350" y="-278.9" font-family="Times,serif" font-size="14.00" fill="#000000">intervals</text>
</g>
<!-- intervals&#45;&gt;hapJson -->
<g id="edge5" class="edge">
<title>intervals&#45;&gt;hapJson</title>
<path fill="none" stroke="#000000" d="M339.0535,-264.8463C331.7273,-253.9647 321.2082,-240.6006 309,-231.8 299.652,-225.0613 288.3992,-219.8507 277.5966,-215.905"/>
<polygon fill="#000000" stroke="#000000" points="278.4641,-212.504 267.87,-212.6294 276.23,-219.138 278.4641,-212.504"/>
</g>
<!-- tmpl -->
<g id="node7" class="node">
<title>tmpl</title>
<polygon fill="#94ddf4" stroke="#000000" points="246,-265.1 246,-301.1 300,-301.1 300,-265.1 246,-265.1"/>
<text text-anchor="middle" x="272.8359" y="-278.9" font-family="Times,serif" font-size="14.00" fill="#000000">tmpl</text>
</g>
<!-- tmpl&#45;&gt;hapJson -->
<g id="edge6" class="edge">
<title>tmpl&#45;&gt;hapJson</title>
<path fill="none" stroke="#000000" d="M264.6504,-265.0556C260.2294,-255.5013 254.7057,-243.564 249.7601,-232.8761"/>
<polygon fill="#000000" stroke="#000000" points="252.805,-231.1218 245.429,-223.5161 246.4521,-234.0614 252.805,-231.1218"/>
</g>
<!-- outdir -->
<g id="node9" class="node">
<title>outdir</title>
<polygon fill="#94ddf4" stroke="#000000" points="24,-41.3 24,-77.3 78,-77.3 78,-41.3 24,-41.3"/>
<text text-anchor="middle" x="50.7209" y="-55.1" font-family="Times,serif" font-size="14.00" fill="#000000">outdir</text>
</g>
<!-- mvOut -->
<g id="node10" class="node">
<title>mvOut</title>
<ellipse fill="none" stroke="#000000" cx="46" cy="-132.3" rx="37.7217" ry="18"/>
<text text-anchor="middle" x="46" y="-128.1" font-family="Times,serif" font-size="14.00" fill="#000000">mvOut</text>
</g>
<!-- mvOut&#45;&gt;outdir -->
<g id="edge8" class="edge">
<title>mvOut&#45;&gt;outdir</title>
<path fill="none" stroke="#000000" d="M47.236,-114.2551C47.7888,-106.1828 48.4537,-96.4764 49.0697,-87.4817"/>
<polygon fill="#000000" stroke="#000000" points="52.5693,-87.6062 49.7609,-77.3904 45.5857,-87.1278 52.5693,-87.6062"/>
</g>
</g>
</svg>

