<?xml version="1.0" encoding="UTF-8" standalone="no"?>
<!DOCTYPE svg PUBLIC "-//W3C//DTD SVG 1.1//EN"
 "http://www.w3.org/Graphics/SVG/1.1/DTD/svg11.dtd">
<!-- Generated by graphviz version 2.40.1 (20161225.0304)
 -->
<!-- Title: G Pages: 1 -->
<svg width="179pt" height="326pt"
 viewBox="0.00 0.00 179.00 325.60" xmlns="http://www.w3.org/2000/svg" xmlns:xlink="http://www.w3.org/1999/xlink">
<g id="graph0" class="graph" transform="scale(1 1) rotate(0) translate(4 321.6)">
<title>G</title>
<polygon fill="#eeeeee" stroke="transparent" points="-4,4 -4,-321.6 175,-321.6 175,4 -4,4"/>
<g id="clust1" class="cluster">
<title>cluster_inputs</title>
<polygon fill="#eeeeee" stroke="#000000" stroke-dasharray="5,2" points="21,-231.8 21,-309.6 163,-309.6 163,-231.8 21,-231.8"/>
<text text-anchor="middle" x="106.9856" y="-240" font-family="Times,serif" font-size="14.00" fill="#000000">Workflow Inputs</text>
</g>
<g id="clust2" class="cluster">
<title>cluster_outputs</title>
<polygon fill="#eeeeee" stroke="#000000" stroke-dasharray="5,2" points="8,-8 8,-85.8 129,-85.8 129,-8 8,-8"/>
<text text-anchor="middle" x="68.3173" y="-16.2" font-family="Times,serif" font-size="14.00" fill="#000000">Workflow Outputs</text>
</g>
<!-- indelq -->
<g id="node1" class="node">
<title>indelq</title>
<polygon fill="#fafad2" stroke="#000000" points="41,-187.3 41,-223.3 95,-223.3 95,-187.3 41,-187.3"/>
<text text-anchor="middle" x="67.9979" y="-201.1" font-family="Times,serif" font-size="14.00" fill="#000000">indelq</text>
</g>
<!-- bamIdx -->
<g id="node2" class="node">
<title>bamIdx</title>
<polygon fill="#fafad2" stroke="#000000" points="38.6171,-114.3 38.6171,-150.3 97.3829,-150.3 97.3829,-114.3 38.6171,-114.3"/>
<text text-anchor="middle" x="68" y="-128.1" font-family="Times,serif" font-size="14.00" fill="#000000">bamIdx</text>
</g>
<!-- indelq&#45;&gt;bamIdx -->
<g id="edge1" class="edge">
<title>indelq&#45;&gt;bamIdx</title>
<path fill="none" stroke="#000000" d="M68,-187.2551C68,-179.1828 68,-169.4764 68,-160.4817"/>
<polygon fill="#000000" stroke="#000000" points="71.5001,-160.3903 68,-150.3904 64.5001,-160.3904 71.5001,-160.3903"/>
</g>
<!-- ibam -->
<g id="node5" class="node">
<title>ibam</title>
<polygon fill="#94ddf4" stroke="#000000" points="41,-41.3 41,-77.3 95,-77.3 95,-41.3 41,-41.3"/>
<text text-anchor="middle" x="67.9979" y="-55.1" font-family="Times,serif" font-size="14.00" fill="#000000">ibam</text>
</g>
<!-- bamIdx&#45;&gt;ibam -->
<g id="edge4" class="edge">
<title>bamIdx&#45;&gt;ibam</title>
<path fill="none" stroke="#000000" d="M68,-114.2551C68,-106.1828 68,-96.4764 68,-87.4817"/>
<polygon fill="#000000" stroke="#000000" points="71.5001,-87.3903 68,-77.3904 64.5001,-87.3904 71.5001,-87.3903"/>
</g>
<!-- bam -->
<g id="node3" class="node">
<title>bam</title>
<polygon fill="#94ddf4" stroke="#000000" points="101,-265.1 101,-301.1 155,-301.1 155,-265.1 101,-265.1"/>
<text text-anchor="middle" x="127.5526" y="-278.9" font-family="Times,serif" font-size="14.00" fill="#000000">bam</text>
</g>
<!-- bam&#45;&gt;indelq -->
<g id="edge2" class="edge">
<title>bam&#45;&gt;indelq</title>
<path fill="none" stroke="#000000" d="M115.872,-264.6566C109.1289,-254.7076 100.4195,-242.3422 92,-231.8 91.8644,-231.6302 91.7281,-231.4602 91.591,-231.2898"/>
<polygon fill="#000000" stroke="#000000" points="94.2083,-228.9644 85.0853,-223.5774 88.8577,-233.4778 94.2083,-228.9644"/>
</g>
<!-- ref -->
<g id="node4" class="node">
<title>ref</title>
<polygon fill="#94ddf4" stroke="#000000" points="29,-265.1 29,-301.1 83,-301.1 83,-265.1 29,-265.1"/>
<text text-anchor="middle" x="55.7679" y="-278.9" font-family="Times,serif" font-size="14.00" fill="#000000">ref</text>
</g>
<!-- ref&#45;&gt;indelq -->
<g id="edge3" class="edge">
<title>ref&#45;&gt;indelq</title>
<path fill="none" stroke="#000000" d="M58.7832,-265.0556C60.2268,-255.6963 62.0231,-244.0503 63.6455,-233.532"/>
<polygon fill="#000000" stroke="#000000" points="67.1249,-233.9328 65.1903,-223.5161 60.2068,-232.8656 67.1249,-233.9328"/>
</g>
</g>
</svg>

