<?xml version="1.0" encoding="UTF-8" standalone="no"?>
<!DOCTYPE svg PUBLIC "-//W3C//DTD SVG 1.1//EN"
 "http://www.w3.org/Graphics/SVG/1.1/DTD/svg11.dtd">
<!-- Generated by graphviz version 2.40.1 (20161225.0304)
 -->
<!-- Title: G Pages: 1 -->
<svg width="373pt" height="399pt"
 viewBox="0.00 0.00 372.99 398.60" xmlns="http://www.w3.org/2000/svg" xmlns:xlink="http://www.w3.org/1999/xlink">
<g id="graph0" class="graph" transform="scale(1 1) rotate(0) translate(4 394.6)">
<title>G</title>
<polygon fill="#eeeeee" stroke="transparent" points="-4,4 -4,-394.6 368.9909,-394.6 368.9909,4 -4,4"/>
<g id="clust1" class="cluster">
<title>cluster_inputs</title>
<polygon fill="#eeeeee" stroke="#000000" stroke-dasharray="5,2" points="150.9909,-304.8 150.9909,-382.6 292.9909,-382.6 292.9909,-304.8 150.9909,-304.8"/>
<text text-anchor="middle" x="236.9765" y="-313" font-family="Times,serif" font-size="14.00" fill="#000000">Workflow Inputs</text>
</g>
<g id="clust2" class="cluster">
<title>cluster_outputs</title>
<polygon fill="#eeeeee" stroke="#000000" stroke-dasharray="5,2" points="70.9909,-8 70.9909,-85.8 356.9909,-85.8 356.9909,-8 70.9909,-8"/>
<text text-anchor="middle" x="296.3082" y="-16.2" font-family="Times,serif" font-size="14.00" fill="#000000">Workflow Outputs</text>
</g>
<!-- mergeBam -->
<g id="node1" class="node">
<title>mergeBam</title>
<polygon fill="#fafad2" stroke="#000000" points="152.2798,-260.3 152.2798,-296.3 229.702,-296.3 229.702,-260.3 152.2798,-260.3"/>
<text text-anchor="middle" x="190.9909" y="-274.1" font-family="Times,serif" font-size="14.00" fill="#000000">mergeBam</text>
</g>
<!-- markdup -->
<g id="node2" class="node">
<title>markdup</title>
<polygon fill="#fafad2" stroke="#000000" points="191.108,-187.3 191.108,-223.3 256.8738,-223.3 256.8738,-187.3 191.108,-187.3"/>
<text text-anchor="middle" x="223.9909" y="-201.1" font-family="Times,serif" font-size="14.00" fill="#000000">markdup</text>
</g>
<!-- mergeBam&#45;&gt;markdup -->
<g id="edge1" class="edge">
<title>mergeBam&#45;&gt;markdup</title>
<path fill="none" stroke="#000000" d="M199.1482,-260.2551C202.9163,-251.9196 207.4721,-241.8416 211.6479,-232.6042"/>
<polygon fill="#000000" stroke="#000000" points="214.8831,-233.9443 215.8131,-223.3904 208.5045,-231.0608 214.8831,-233.9443"/>
</g>
<!-- samtools_flagstat -->
<g id="node3" class="node">
<title>samtools_flagstat</title>
<polygon fill="#fafad2" stroke="#000000" points="0,-114.3 0,-150.3 113.9818,-150.3 113.9818,-114.3 0,-114.3"/>
<text text-anchor="middle" x="56.9909" y="-128.1" font-family="Times,serif" font-size="14.00" fill="#000000">samtools_flagstat</text>
</g>
<!-- markdup&#45;&gt;samtools_flagstat -->
<g id="edge2" class="edge">
<title>markdup&#45;&gt;samtools_flagstat</title>
<path fill="none" stroke="#000000" d="M190.9971,-190.8775C167.1884,-180.4702 134.6045,-166.2269 107.5287,-154.3914"/>
<polygon fill="#000000" stroke="#000000" points="108.7695,-151.114 98.2048,-150.3157 105.9658,-157.528 108.7695,-151.114"/>
</g>
<!-- samtools_index -->
<g id="node4" class="node">
<title>samtools_index</title>
<polygon fill="#fafad2" stroke="#000000" points="132.0505,-114.3 132.0505,-150.3 235.9313,-150.3 235.9313,-114.3 132.0505,-114.3"/>
<text text-anchor="middle" x="183.9909" y="-128.1" font-family="Times,serif" font-size="14.00" fill="#000000">samtools_index</text>
</g>
<!-- markdup&#45;&gt;samtools_index -->
<g id="edge3" class="edge">
<title>markdup&#45;&gt;samtools_index</title>
<path fill="none" stroke="#000000" d="M214.1033,-187.2551C209.4878,-178.8319 203.8973,-168.6292 198.7924,-159.3128"/>
<polygon fill="#000000" stroke="#000000" points="201.7782,-157.4782 193.9034,-150.3904 195.6394,-160.842 201.7782,-157.4782"/>
</g>
<!-- matrix -->
<g id="node8" class="node">
<title>matrix</title>
<polygon fill="#94ddf4" stroke="#000000" points="222.9909,-41.3 222.9909,-77.3 276.9909,-77.3 276.9909,-41.3 222.9909,-41.3"/>
<text text-anchor="middle" x="249.7644" y="-55.1" font-family="Times,serif" font-size="14.00" fill="#000000">matrix</text>
</g>
<!-- markdup&#45;&gt;matrix -->
<g id="edge8" class="edge">
<title>markdup&#45;&gt;matrix</title>
<path fill="none" stroke="#000000" d="M232.6651,-187.0758C237.1836,-176.6902 242.3127,-163.2924 244.9909,-150.8 249.4583,-129.9621 250.6194,-105.8782 250.7112,-87.651"/>
<polygon fill="#000000" stroke="#000000" points="254.2099,-87.3833 250.6545,-77.4029 247.21,-87.4221 254.2099,-87.3833"/>
</g>
<!-- oBam -->
<g id="node9" class="node">
<title>oBam</title>
<polygon fill="#94ddf4" stroke="#000000" points="294.9909,-41.3 294.9909,-77.3 348.9909,-77.3 348.9909,-41.3 294.9909,-41.3"/>
<text text-anchor="middle" x="321.7118" y="-55.1" font-family="Times,serif" font-size="14.00" fill="#000000">oBam</text>
</g>
<!-- markdup&#45;&gt;oBam -->
<g id="edge9" class="edge">
<title>markdup&#45;&gt;oBam</title>
<path fill="none" stroke="#000000" d="M236.3625,-187.1592C243.5697,-176.5706 252.8197,-162.9456 260.9909,-150.8 275.6444,-129.0191 292.1545,-104.2391 304.2995,-85.9652"/>
<polygon fill="#000000" stroke="#000000" points="307.2659,-87.8251 309.8836,-77.5587 301.435,-83.9518 307.2659,-87.8251"/>
</g>
<!-- stat -->
<g id="node10" class="node">
<title>stat</title>
<polygon fill="#94ddf4" stroke="#000000" points="78.9909,-41.3 78.9909,-77.3 132.9909,-77.3 132.9909,-41.3 78.9909,-41.3"/>
<text text-anchor="middle" x="105.7111" y="-55.1" font-family="Times,serif" font-size="14.00" fill="#000000">stat</text>
</g>
<!-- samtools_flagstat&#45;&gt;stat -->
<g id="edge10" class="edge">
<title>samtools_flagstat&#45;&gt;stat</title>
<path fill="none" stroke="#000000" d="M69.1033,-114.2551C74.875,-105.6564 81.8914,-95.2034 88.2491,-85.7316"/>
<polygon fill="#000000" stroke="#000000" points="91.1808,-87.644 93.8481,-77.3904 85.3687,-83.7427 91.1808,-87.644"/>
</g>
<!-- Idx -->
<g id="node7" class="node">
<title>Idx</title>
<polygon fill="#94ddf4" stroke="#000000" points="150.9909,-41.3 150.9909,-77.3 204.9909,-77.3 204.9909,-41.3 150.9909,-41.3"/>
<text text-anchor="middle" x="177.8212" y="-55.1" font-family="Times,serif" font-size="14.00" fill="#000000">Idx</text>
</g>
<!-- samtools_index&#45;&gt;Idx -->
<g id="edge7" class="edge">
<title>samtools_index&#45;&gt;Idx</title>
<path fill="none" stroke="#000000" d="M182.5078,-114.2551C181.8443,-106.1828 181.0465,-96.4764 180.3072,-87.4817"/>
<polygon fill="#000000" stroke="#000000" points="183.7853,-87.07 179.4778,-77.3904 176.8088,-87.6435 183.7853,-87.07"/>
</g>
<!-- obam -->
<g id="node5" class="node">
<title>obam</title>
<polygon fill="#94ddf4" stroke="#000000" points="230.9909,-338.1 230.9909,-374.1 284.9909,-374.1 284.9909,-338.1 230.9909,-338.1"/>
<text text-anchor="middle" x="257.5435" y="-351.9" font-family="Times,serif" font-size="14.00" fill="#000000">obam</text>
</g>
<!-- obam&#45;&gt;mergeBam -->
<g id="edge5" class="edge">
<title>obam&#45;&gt;mergeBam</title>
<path fill="none" stroke="#000000" d="M246.7024,-337.6974C240.0767,-327.531 231.2116,-314.9451 221.9909,-304.8 221.6695,-304.4463 221.3434,-304.0929 221.0132,-303.7399"/>
<polygon fill="#000000" stroke="#000000" points="223.2139,-300.995 213.6315,-296.4752 218.3038,-305.9842 223.2139,-300.995"/>
</g>
<!-- obam&#45;&gt;markdup -->
<g id="edge4" class="edge">
<title>obam&#45;&gt;markdup</title>
<path fill="none" stroke="#000000" d="M254.8155,-337.9104C251.3278,-318.4835 245.3691,-286.8347 238.9909,-259.8 236.9403,-251.1082 234.4522,-241.7092 232.0967,-233.2041"/>
<polygon fill="#000000" stroke="#000000" points="235.4095,-232.056 229.3276,-223.3806 228.6721,-233.9552 235.4095,-232.056"/>
</g>
<!-- ibam -->
<g id="node6" class="node">
<title>ibam</title>
<polygon fill="#94ddf4" stroke="#000000" points="158.9909,-338.1 158.9909,-374.1 212.9909,-374.1 212.9909,-338.1 158.9909,-338.1"/>
<text text-anchor="middle" x="185.9888" y="-351.9" font-family="Times,serif" font-size="14.00" fill="#000000">ibam</text>
</g>
<!-- ibam&#45;&gt;mergeBam -->
<g id="edge6" class="edge">
<title>ibam&#45;&gt;mergeBam</title>
<path fill="none" stroke="#000000" d="M187.1506,-338.0556C187.7521,-328.6963 188.5005,-317.0503 189.1765,-306.532"/>
<polygon fill="#000000" stroke="#000000" points="192.6716,-306.72 189.8202,-296.5161 185.686,-306.271 192.6716,-306.72"/>
</g>
</g>
</svg>

