<?xml version="1.0" encoding="UTF-8" standalone="no"?>
<!DOCTYPE svg PUBLIC "-//W3C//DTD SVG 1.1//EN"
 "http://www.w3.org/Graphics/SVG/1.1/DTD/svg11.dtd">
<!-- Generated by graphviz version 2.40.1 (20161225.0304)
 -->
<!-- Title: G Pages: 1 -->
<svg width="454pt" height="472pt"
 viewBox="0.00 0.00 454.00 471.60" xmlns="http://www.w3.org/2000/svg" xmlns:xlink="http://www.w3.org/1999/xlink">
<g id="graph0" class="graph" transform="scale(1 1) rotate(0) translate(4 467.6)">
<title>G</title>
<polygon fill="#eeeeee" stroke="transparent" points="-4,4 -4,-467.6 450,-467.6 450,4 -4,4"/>
<g id="clust1" class="cluster">
<title>cluster_inputs</title>
<polygon fill="#eeeeee" stroke="#000000" stroke-dasharray="5,2" points="8,-377.8 8,-455.6 438,-455.6 438,-377.8 8,-377.8"/>
<text text-anchor="middle" x="381.9856" y="-386" font-family="Times,serif" font-size="14.00" fill="#000000">Workflow Inputs</text>
</g>
<g id="clust2" class="cluster">
<title>cluster_outputs</title>
<polygon fill="#eeeeee" stroke="#000000" stroke-dasharray="5,2" points="309,-8 309,-85.8 430,-85.8 430,-8 309,-8"/>
<text text-anchor="middle" x="369.3173" y="-16.2" font-family="Times,serif" font-size="14.00" fill="#000000">Workflow Outputs</text>
</g>
<!-- MuSEchr -->
<g id="node1" class="node">
<title>MuSEchr</title>
<polygon fill="#fafad2" stroke="#000000" points="224.1725,-333.3 224.1725,-369.3 293.8275,-369.3 293.8275,-333.3 224.1725,-333.3"/>
<text text-anchor="middle" x="259" y="-347.1" font-family="Times,serif" font-size="14.00" fill="#000000">MuSEchr</text>
</g>
<!-- mergeVcf -->
<g id="node2" class="node">
<title>mergeVcf</title>
<polygon fill="#fafad2" stroke="#000000" points="273.0189,-260.3 273.0189,-296.3 344.9811,-296.3 344.9811,-260.3 273.0189,-260.3"/>
<text text-anchor="middle" x="309" y="-274.1" font-family="Times,serif" font-size="14.00" fill="#000000">mergeVcf</text>
</g>
<!-- MuSEchr&#45;&gt;mergeVcf -->
<g id="edge1" class="edge">
<title>MuSEchr&#45;&gt;mergeVcf</title>
<path fill="none" stroke="#000000" d="M271.3596,-333.2551C277.2491,-324.6564 284.4087,-314.2034 290.8961,-304.7316"/>
<polygon fill="#000000" stroke="#000000" points="293.846,-306.6185 296.6093,-296.3904 288.0708,-302.6628 293.846,-306.6185"/>
</g>
<!-- sortVcf -->
<g id="node3" class="node">
<title>sortVcf</title>
<polygon fill="#fafad2" stroke="#000000" points="325.0112,-187.3 325.0112,-223.3 382.9888,-223.3 382.9888,-187.3 325.0112,-187.3"/>
<text text-anchor="middle" x="354" y="-201.1" font-family="Times,serif" font-size="14.00" fill="#000000">sortVcf</text>
</g>
<!-- mergeVcf&#45;&gt;sortVcf -->
<g id="edge3" class="edge">
<title>mergeVcf&#45;&gt;sortVcf</title>
<path fill="none" stroke="#000000" d="M320.1236,-260.2551C325.3701,-251.7441 331.7364,-241.4165 337.5276,-232.0219"/>
<polygon fill="#000000" stroke="#000000" points="340.5803,-233.7396 342.8484,-223.3904 334.6215,-230.0663 340.5803,-233.7396"/>
</g>
<!-- normVcf -->
<g id="node4" class="node">
<title>normVcf</title>
<polygon fill="#fafad2" stroke="#000000" points="335.7335,-114.3 335.7335,-150.3 402.2665,-150.3 402.2665,-114.3 335.7335,-114.3"/>
<text text-anchor="middle" x="369" y="-128.1" font-family="Times,serif" font-size="14.00" fill="#000000">normVcf</text>
</g>
<!-- sortVcf&#45;&gt;normVcf -->
<g id="edge2" class="edge">
<title>sortVcf&#45;&gt;normVcf</title>
<path fill="none" stroke="#000000" d="M357.7079,-187.2551C359.3846,-179.0951 361.4044,-169.2652 363.2694,-160.1887"/>
<polygon fill="#000000" stroke="#000000" points="366.6984,-160.8902 365.2828,-150.3904 359.8416,-159.4812 366.6984,-160.8902"/>
</g>
<!-- ovcf -->
<g id="node11" class="node">
<title>ovcf</title>
<polygon fill="#94ddf4" stroke="#000000" points="342,-41.3 342,-77.3 396,-77.3 396,-41.3 342,-41.3"/>
<text text-anchor="middle" x="368.9376" y="-55.1" font-family="Times,serif" font-size="14.00" fill="#000000">ovcf</text>
</g>
<!-- normVcf&#45;&gt;ovcf -->
<g id="edge13" class="edge">
<title>normVcf&#45;&gt;ovcf</title>
<path fill="none" stroke="#000000" d="M369,-114.2551C369,-106.1828 369,-96.4764 369,-87.4817"/>
<polygon fill="#000000" stroke="#000000" points="372.5001,-87.3903 369,-77.3904 365.5001,-87.3904 372.5001,-87.3903"/>
</g>
<!-- dbsnp -->
<g id="node5" class="node">
<title>dbsnp</title>
<polygon fill="#94ddf4" stroke="#000000" points="304,-411.1 304,-447.1 358,-447.1 358,-411.1 304,-411.1"/>
<text text-anchor="middle" x="330.7223" y="-424.9" font-family="Times,serif" font-size="14.00" fill="#000000">dbsnp</text>
</g>
<!-- dbsnp&#45;&gt;MuSEchr -->
<g id="edge4" class="edge">
<title>dbsnp&#45;&gt;MuSEchr</title>
<path fill="none" stroke="#000000" d="M320.3018,-410.9191C313.7357,-400.5837 304.7357,-387.7587 295,-377.8 294.471,-377.2589 293.9302,-376.7206 293.379,-376.1857"/>
<polygon fill="#000000" stroke="#000000" points="295.5849,-373.4642 285.7731,-369.4667 290.9504,-378.7104 295.5849,-373.4642"/>
</g>
<!-- nbam -->
<g id="node6" class="node">
<title>nbam</title>
<polygon fill="#94ddf4" stroke="#000000" points="232,-411.1 232,-447.1 286,-447.1 286,-411.1 232,-411.1"/>
<text text-anchor="middle" x="258.5526" y="-424.9" font-family="Times,serif" font-size="14.00" fill="#000000">nbam</text>
</g>
<!-- nbam&#45;&gt;MuSEchr -->
<g id="edge5" class="edge">
<title>nbam&#45;&gt;MuSEchr</title>
<path fill="none" stroke="#000000" d="M259,-411.0556C259,-401.6963 259,-390.0503 259,-379.532"/>
<polygon fill="#000000" stroke="#000000" points="262.5001,-379.516 259,-369.5161 255.5001,-379.5161 262.5001,-379.516"/>
</g>
<!-- ref -->
<g id="node7" class="node">
<title>ref</title>
<polygon fill="#94ddf4" stroke="#000000" points="160,-411.1 160,-447.1 214,-447.1 214,-411.1 160,-411.1"/>
<text text-anchor="middle" x="186.7679" y="-424.9" font-family="Times,serif" font-size="14.00" fill="#000000">ref</text>
</g>
<!-- ref&#45;&gt;MuSEchr -->
<g id="edge6" class="edge">
<title>ref&#45;&gt;MuSEchr</title>
<path fill="none" stroke="#000000" d="M197.6982,-410.9191C204.2643,-400.5837 213.2643,-387.7587 223,-377.8 223.529,-377.2589 224.0698,-376.7206 224.621,-376.1857"/>
<polygon fill="#000000" stroke="#000000" points="227.0496,-378.7104 232.2269,-369.4667 222.4151,-373.4642 227.0496,-378.7104"/>
</g>
<!-- tbam -->
<g id="node8" class="node">
<title>tbam</title>
<polygon fill="#94ddf4" stroke="#000000" points="88,-411.1 88,-447.1 142,-447.1 142,-411.1 88,-411.1"/>
<text text-anchor="middle" x="114.9979" y="-424.9" font-family="Times,serif" font-size="14.00" fill="#000000">tbam</text>
</g>
<!-- tbam&#45;&gt;MuSEchr -->
<g id="edge7" class="edge">
<title>tbam&#45;&gt;MuSEchr</title>
<path fill="none" stroke="#000000" d="M123.5353,-410.8592C129.6654,-399.6992 138.9648,-386.0294 151,-377.8 161.4001,-370.6886 189.2681,-363.9403 214.0892,-359.0333"/>
<polygon fill="#000000" stroke="#000000" points="214.9574,-362.4308 224.1215,-357.1139 213.6419,-355.5555 214.9574,-362.4308"/>
</g>
<!-- vcf -->
<g id="node9" class="node">
<title>vcf</title>
<polygon fill="#94ddf4" stroke="#000000" points="376,-411.1 376,-447.1 430,-447.1 430,-411.1 376,-411.1"/>
<text text-anchor="middle" x="402.9376" y="-424.9" font-family="Times,serif" font-size="14.00" fill="#000000">vcf</text>
</g>
<!-- vcf&#45;&gt;MuSEchr -->
<g id="edge8" class="edge">
<title>vcf&#45;&gt;MuSEchr</title>
<path fill="none" stroke="#000000" d="M394.9391,-411.0495C388.8988,-399.6709 379.5212,-385.6855 367,-377.8 348.6992,-366.2747 340.0476,-374.7752 319,-369.8 314.0224,-368.6234 308.8538,-367.2566 303.7314,-365.8089"/>
<polygon fill="#000000" stroke="#000000" points="304.5811,-362.4107 294.0002,-362.9538 302.6104,-369.1276 304.5811,-362.4107"/>
</g>
<!-- vcf&#45;&gt;mergeVcf -->
<g id="edge9" class="edge">
<title>vcf&#45;&gt;mergeVcf</title>
<path fill="none" stroke="#000000" d="M391.3997,-410.9699C384.6764,-400.8888 375.8176,-388.2974 367,-377.8 363.7659,-373.9498 362.014,-373.8249 359,-369.8 343.9388,-349.6871 330.5108,-324.4851 321.3727,-305.6255"/>
<polygon fill="#000000" stroke="#000000" points="324.4461,-303.938 316.9992,-296.4019 318.1211,-306.9371 324.4461,-303.938"/>
</g>
<!-- vcf&#45;&gt;sortVcf -->
<g id="edge11" class="edge">
<title>vcf&#45;&gt;sortVcf</title>
<path fill="none" stroke="#000000" d="M398.9901,-410.7855C390.4445,-371.7548 370.3892,-280.155 360.1903,-233.5735"/>
<polygon fill="#000000" stroke="#000000" points="363.5544,-232.5737 357.9966,-223.5537 356.7164,-234.0709 363.5544,-232.5737"/>
</g>
<!-- vcf&#45;&gt;normVcf -->
<g id="edge10" class="edge">
<title>vcf&#45;&gt;normVcf</title>
<path fill="none" stroke="#000000" d="M404.3363,-410.8763C406.8579,-370.1184 410.526,-268.7398 392,-186.8 389.9267,-177.6297 386.3949,-168.0486 382.713,-159.5231"/>
<polygon fill="#000000" stroke="#000000" points="385.8969,-158.0695 378.5619,-150.4244 379.5284,-160.9751 385.8969,-158.0695"/>
</g>
<!-- region -->
<g id="node10" class="node">
<title>region</title>
<polygon fill="#94ddf4" stroke="#000000" points="16,-411.1 16,-447.1 70,-447.1 70,-411.1 16,-411.1"/>
<text text-anchor="middle" x="42.8829" y="-424.9" font-family="Times,serif" font-size="14.00" fill="#000000">region</text>
</g>
<!-- region&#45;&gt;MuSEchr -->
<g id="edge12" class="edge">
<title>region&#45;&gt;MuSEchr</title>
<path fill="none" stroke="#000000" d="M51.012,-410.971C57.0316,-399.5592 66.4045,-385.5663 79,-377.8 100.9342,-364.2755 168.0265,-357.226 213.8046,-353.8917"/>
<polygon fill="#000000" stroke="#000000" points="214.0633,-357.3822 223.7967,-353.1977 213.5782,-350.3991 214.0633,-357.3822"/>
</g>
</g>
</svg>

