<?xml version="1.0" encoding="UTF-8" standalone="no"?>
<!DOCTYPE svg PUBLIC "-//W3C//DTD SVG 1.1//EN"
 "http://www.w3.org/Graphics/SVG/1.1/DTD/svg11.dtd">
<!-- Generated by graphviz version 2.40.1 (20161225.0304)
 -->
<!-- Title: G Pages: 1 -->
<svg width="554pt" height="691pt"
 viewBox="0.00 0.00 554.00 690.60" xmlns="http://www.w3.org/2000/svg" xmlns:xlink="http://www.w3.org/1999/xlink">
<g id="graph0" class="graph" transform="scale(1 1) rotate(0) translate(4 686.6)">
<title>G</title>
<polygon fill="#eeeeee" stroke="transparent" points="-4,4 -4,-686.6 550,-686.6 550,4 -4,4"/>
<g id="clust1" class="cluster">
<title>cluster_inputs</title>
<polygon fill="#eeeeee" stroke="#000000" stroke-dasharray="5,2" points="8,-596.8 8,-674.6 538,-674.6 538,-596.8 8,-596.8"/>
<text text-anchor="middle" x="481.9856" y="-605" font-family="Times,serif" font-size="14.00" fill="#000000">Workflow Inputs</text>
</g>
<g id="clust2" class="cluster">
<title>cluster_outputs</title>
<polygon fill="#eeeeee" stroke="#000000" stroke-dasharray="5,2" points="93,-8 93,-85.8 214,-85.8 214,-8 93,-8"/>
<text text-anchor="middle" x="153.3173" y="-16.2" font-family="Times,serif" font-size="14.00" fill="#000000">Workflow Outputs</text>
</g>
<!-- sortVcf -->
<g id="node1" class="node">
<title>sortVcf</title>
<polygon fill="#fafad2" stroke="#000000" points="181.0112,-333.3 181.0112,-369.3 238.9888,-369.3 238.9888,-333.3 181.0112,-333.3"/>
<text text-anchor="middle" x="210" y="-347.1" font-family="Times,serif" font-size="14.00" fill="#000000">sortVcf</text>
</g>
<!-- ReadBackedPhasing -->
<g id="node2" class="node">
<title>ReadBackedPhasing</title>
<polygon fill="#fafad2" stroke="#000000" points="87.4607,-260.3 87.4607,-296.3 218.5393,-296.3 218.5393,-260.3 87.4607,-260.3"/>
<text text-anchor="middle" x="153" y="-274.1" font-family="Times,serif" font-size="14.00" fill="#000000">ReadBackedPhasing</text>
</g>
<!-- sortVcf&#45;&gt;ReadBackedPhasing -->
<g id="edge1" class="edge">
<title>sortVcf&#45;&gt;ReadBackedPhasing</title>
<path fill="none" stroke="#000000" d="M189.9944,-333.2551C182.4298,-324.6564 174.0677,-314.2034 167.122,-304.7316"/>
<polygon fill="#000000" stroke="#000000" points="169.8456,-302.5217 161.2051,-296.3904 164.1362,-306.5717 169.8456,-302.5217"/>
</g>
<!-- sortVcf&#45;&gt;ReadBackedPhasing -->
<g id="edge2" class="edge">
<title>sortVcf&#45;&gt;ReadBackedPhasing</title>
<path fill="none" stroke="#000000" d="M201.8258,-333.2551C195.8427,-324.4809 187.6747,-313.7759 179.6746,-304.153"/>
<polygon fill="#000000" stroke="#000000" points="182.2011,-301.722 173.0456,-296.3904 176.878,-306.2678 182.2011,-301.722"/>
</g>
<!-- bgzip -->
<g id="node3" class="node">
<title>bgzip</title>
<polygon fill="#fafad2" stroke="#000000" points="126,-187.3 126,-223.3 180,-223.3 180,-187.3 126,-187.3"/>
<text text-anchor="middle" x="152.5526" y="-201.1" font-family="Times,serif" font-size="14.00" fill="#000000">bgzip</text>
</g>
<!-- ReadBackedPhasing&#45;&gt;bgzip -->
<g id="edge3" class="edge">
<title>ReadBackedPhasing&#45;&gt;bgzip</title>
<path fill="none" stroke="#000000" d="M153,-260.2551C153,-252.1828 153,-242.4764 153,-233.4817"/>
<polygon fill="#000000" stroke="#000000" points="156.5001,-233.3903 153,-223.3904 149.5001,-233.3904 156.5001,-233.3903"/>
</g>
<!-- tabixIndex -->
<g id="node8" class="node">
<title>tabixIndex</title>
<polygon fill="#fafad2" stroke="#000000" points="115.0645,-114.3 115.0645,-150.3 190.9355,-150.3 190.9355,-114.3 115.0645,-114.3"/>
<text text-anchor="middle" x="153" y="-128.1" font-family="Times,serif" font-size="14.00" fill="#000000">tabixIndex</text>
</g>
<!-- bgzip&#45;&gt;tabixIndex -->
<g id="edge8" class="edge">
<title>bgzip&#45;&gt;tabixIndex</title>
<path fill="none" stroke="#000000" d="M153,-187.2551C153,-179.1828 153,-169.4764 153,-160.4817"/>
<polygon fill="#000000" stroke="#000000" points="156.5001,-160.3903 153,-150.3904 149.5001,-160.3904 156.5001,-160.3903"/>
</g>
<!-- renameSVcf -->
<g id="node4" class="node">
<title>renameSVcf</title>
<polygon fill="#fafad2" stroke="#000000" points="219.0203,-552.3 219.0203,-588.3 304.9797,-588.3 304.9797,-552.3 219.0203,-552.3"/>
<text text-anchor="middle" x="262" y="-566.1" font-family="Times,serif" font-size="14.00" fill="#000000">renameSVcf</text>
</g>
<!-- combineVariants -->
<g id="node5" class="node">
<title>combineVariants</title>
<polygon fill="#fafad2" stroke="#000000" points="193.1837,-406.3 193.1837,-442.3 304.8163,-442.3 304.8163,-406.3 193.1837,-406.3"/>
<text text-anchor="middle" x="249" y="-420.1" font-family="Times,serif" font-size="14.00" fill="#000000">combineVariants</text>
</g>
<!-- renameSVcf&#45;&gt;combineVariants -->
<g id="edge4" class="edge">
<title>renameSVcf&#45;&gt;combineVariants</title>
<path fill="none" stroke="#000000" d="M260.3798,-552.1042C258.1612,-527.1868 254.1549,-482.1938 251.5366,-452.7877"/>
<polygon fill="#000000" stroke="#000000" points="255.0138,-452.3753 250.6406,-442.7251 248.0414,-452.9962 255.0138,-452.3753"/>
</g>
<!-- combineVariants&#45;&gt;sortVcf -->
<g id="edge7" class="edge">
<title>combineVariants&#45;&gt;sortVcf</title>
<path fill="none" stroke="#000000" d="M239.3595,-406.2551C234.8595,-397.8319 229.4088,-387.6292 224.4315,-378.3128"/>
<polygon fill="#000000" stroke="#000000" points="227.464,-376.5613 219.6647,-369.3904 221.2898,-379.8598 227.464,-376.5613"/>
</g>
<!-- renameGVcf -->
<g id="node6" class="node">
<title>renameGVcf</title>
<polygon fill="#fafad2" stroke="#000000" points="295.8583,-479.3 295.8583,-515.3 384.1417,-515.3 384.1417,-479.3 295.8583,-479.3"/>
<text text-anchor="middle" x="340" y="-493.1" font-family="Times,serif" font-size="14.00" fill="#000000">renameGVcf</text>
</g>
<!-- renameGVcf&#45;&gt;combineVariants -->
<g id="edge5" class="edge">
<title>renameGVcf&#45;&gt;combineVariants</title>
<path fill="none" stroke="#000000" d="M317.5056,-479.2551C306.0211,-470.0422 291.883,-458.7006 279.4389,-448.718"/>
<polygon fill="#000000" stroke="#000000" points="281.5414,-445.9177 271.551,-442.3904 277.1612,-451.3779 281.5414,-445.9177"/>
</g>
<!-- splitSample -->
<g id="node7" class="node">
<title>splitSample</title>
<polygon fill="#fafad2" stroke="#000000" points="377.9453,-552.3 377.9453,-588.3 460.0547,-588.3 460.0547,-552.3 377.9453,-552.3"/>
<text text-anchor="middle" x="419" y="-566.1" font-family="Times,serif" font-size="14.00" fill="#000000">splitSample</text>
</g>
<!-- splitSample&#45;&gt;renameGVcf -->
<g id="edge6" class="edge">
<title>splitSample&#45;&gt;renameGVcf</title>
<path fill="none" stroke="#000000" d="M399.4719,-552.2551C389.6917,-543.2177 377.6948,-532.1319 367.0439,-522.2899"/>
<polygon fill="#000000" stroke="#000000" points="369.2971,-519.6065 359.5772,-515.3904 364.5464,-524.7476 369.2971,-519.6065"/>
</g>
<!-- pvcf -->
<g id="node16" class="node">
<title>pvcf</title>
<polygon fill="#94ddf4" stroke="#000000" points="126,-41.3 126,-77.3 180,-77.3 180,-41.3 126,-41.3"/>
<text text-anchor="middle" x="152.9376" y="-55.1" font-family="Times,serif" font-size="14.00" fill="#000000">pvcf</text>
</g>
<!-- tabixIndex&#45;&gt;pvcf -->
<g id="edge18" class="edge">
<title>tabixIndex&#45;&gt;pvcf</title>
<path fill="none" stroke="#000000" d="M153,-114.2551C153,-106.1828 153,-96.4764 153,-87.4817"/>
<polygon fill="#000000" stroke="#000000" points="156.5001,-87.3903 153,-77.3904 149.5001,-87.3904 156.5001,-87.3903"/>
</g>
<!-- bam -->
<g id="node9" class="node">
<title>bam</title>
<polygon fill="#94ddf4" stroke="#000000" points="16,-630.1 16,-666.1 70,-666.1 70,-630.1 16,-630.1"/>
<text text-anchor="middle" x="42.5526" y="-643.9" font-family="Times,serif" font-size="14.00" fill="#000000">bam</text>
</g>
<!-- bam&#45;&gt;ReadBackedPhasing -->
<g id="edge9" class="edge">
<title>bam&#45;&gt;ReadBackedPhasing</title>
<path fill="none" stroke="#000000" d="M46.3587,-630.0682C51.313,-601.856 60,-545.5139 60,-497.3 60,-497.3 60,-497.3 60,-424.3 60,-375.9526 96.7266,-330.7132 124.0204,-303.7684"/>
<polygon fill="#000000" stroke="#000000" points="126.6326,-306.1127 131.4302,-296.6663 121.7889,-301.0592 126.6326,-306.1127"/>
</g>
<!-- outvcf -->
<g id="node10" class="node">
<title>outvcf</title>
<polygon fill="#94ddf4" stroke="#000000" points="88,-630.1 88,-666.1 142,-666.1 142,-630.1 88,-630.1"/>
<text text-anchor="middle" x="114.8829" y="-643.9" font-family="Times,serif" font-size="14.00" fill="#000000">outvcf</text>
</g>
<!-- outvcf&#45;&gt;ReadBackedPhasing -->
<g id="edge10" class="edge">
<title>outvcf&#45;&gt;ReadBackedPhasing</title>
<path fill="none" stroke="#000000" d="M115,-629.9941C115,-601.6829 115,-545.2104 115,-497.3 115,-497.3 115,-497.3 115,-424.3 115,-381.893 130.2003,-334.7265 141.3737,-305.784"/>
<polygon fill="#000000" stroke="#000000" points="144.6845,-306.93 145.1264,-296.3444 138.1796,-304.344 144.6845,-306.93"/>
</g>
<!-- ref -->
<g id="node11" class="node">
<title>ref</title>
<polygon fill="#94ddf4" stroke="#000000" points="160,-630.1 160,-666.1 214,-666.1 214,-630.1 160,-630.1"/>
<text text-anchor="middle" x="186.7679" y="-643.9" font-family="Times,serif" font-size="14.00" fill="#000000">ref</text>
</g>
<!-- ref&#45;&gt;ReadBackedPhasing -->
<g id="edge11" class="edge">
<title>ref&#45;&gt;ReadBackedPhasing</title>
<path fill="none" stroke="#000000" d="M180.1196,-629.8273C170.1847,-601.7575 153,-546.1447 153,-497.3 153,-497.3 153,-497.3 153,-424.3 153,-383.6187 153,-336.5612 153,-307.1124"/>
<polygon fill="#000000" stroke="#000000" points="156.5001,-306.7379 153,-296.738 149.5001,-306.738 156.5001,-306.7379"/>
</g>
<!-- ref&#45;&gt;combineVariants -->
<g id="edge12" class="edge">
<title>ref&#45;&gt;combineVariants</title>
<path fill="none" stroke="#000000" d="M190.9885,-629.9106C195.3312,-610.4839 202.6444,-578.8353 210,-551.8 219.4004,-517.2492 231.68,-477.9007 239.927,-452.1675"/>
<polygon fill="#000000" stroke="#000000" points="243.3532,-452.9461 243.0881,-442.3546 236.6904,-450.7998 243.3532,-452.9461"/>
</g>
<!-- tsample -->
<g id="node12" class="node">
<title>tsample</title>
<polygon fill="#94ddf4" stroke="#000000" points="310.2272,-630.1 310.2272,-666.1 369.7728,-666.1 369.7728,-630.1 310.2272,-630.1"/>
<text text-anchor="middle" x="340" y="-643.9" font-family="Times,serif" font-size="14.00" fill="#000000">tsample</text>
</g>
<!-- tsample&#45;&gt;renameSVcf -->
<g id="edge14" class="edge">
<title>tsample&#45;&gt;renameSVcf</title>
<path fill="none" stroke="#000000" d="M328.2938,-629.8398C321.1417,-619.4781 311.3917,-606.6531 301,-596.8 300.3243,-596.1593 299.6316,-595.5232 298.9249,-594.8926"/>
<polygon fill="#000000" stroke="#000000" points="300.9041,-591.9905 290.9418,-588.3845 296.481,-597.416 300.9041,-591.9905"/>
</g>
<!-- tsample&#45;&gt;renameGVcf -->
<g id="edge13" class="edge">
<title>tsample&#45;&gt;renameGVcf</title>
<path fill="none" stroke="#000000" d="M340,-629.91C340,-603.9825 340,-556.1606 340,-525.5858"/>
<polygon fill="#000000" stroke="#000000" points="343.5001,-525.5545 340,-515.5545 336.5001,-525.5545 343.5001,-525.5545"/>
</g>
<!-- svariant -->
<g id="node13" class="node">
<title>svariant</title>
<polygon fill="#94ddf4" stroke="#000000" points="231.8422,-630.1 231.8422,-666.1 292.1578,-666.1 292.1578,-630.1 231.8422,-630.1"/>
<text text-anchor="middle" x="262" y="-643.9" font-family="Times,serif" font-size="14.00" fill="#000000">svariant</text>
</g>
<!-- svariant&#45;&gt;renameSVcf -->
<g id="edge15" class="edge">
<title>svariant&#45;&gt;renameSVcf</title>
<path fill="none" stroke="#000000" d="M262,-630.0556C262,-620.6963 262,-609.0503 262,-598.532"/>
<polygon fill="#000000" stroke="#000000" points="265.5001,-598.516 262,-588.5161 258.5001,-598.5161 265.5001,-598.516"/>
</g>
<!-- nsample -->
<g id="node14" class="node">
<title>nsample</title>
<polygon fill="#94ddf4" stroke="#000000" points="387.6725,-630.1 387.6725,-666.1 450.3275,-666.1 450.3275,-630.1 387.6725,-630.1"/>
<text text-anchor="middle" x="419" y="-643.9" font-family="Times,serif" font-size="14.00" fill="#000000">nsample</text>
</g>
<!-- nsample&#45;&gt;splitSample -->
<g id="edge16" class="edge">
<title>nsample&#45;&gt;splitSample</title>
<path fill="none" stroke="#000000" d="M419,-630.0556C419,-620.6963 419,-609.0503 419,-598.532"/>
<polygon fill="#000000" stroke="#000000" points="422.5001,-598.516 419,-588.5161 415.5001,-598.5161 422.5001,-598.516"/>
</g>
<!-- gvariant -->
<g id="node15" class="node">
<title>gvariant</title>
<polygon fill="#94ddf4" stroke="#000000" points="468.0645,-630.1 468.0645,-666.1 529.9355,-666.1 529.9355,-630.1 468.0645,-630.1"/>
<text text-anchor="middle" x="499" y="-643.9" font-family="Times,serif" font-size="14.00" fill="#000000">gvariant</text>
</g>
<!-- gvariant&#45;&gt;splitSample -->
<g id="edge17" class="edge">
<title>gvariant&#45;&gt;splitSample</title>
<path fill="none" stroke="#000000" d="M486.9563,-629.815C479.6084,-619.4451 469.6084,-606.6201 459,-596.8 458.2053,-596.0644 457.3882,-595.3351 456.5529,-594.6135"/>
<polygon fill="#000000" stroke="#000000" points="458.674,-591.8286 448.6636,-588.3584 454.325,-597.3137 458.674,-591.8286"/>
</g>
</g>
</svg>

