<?xml version="1.0" encoding="UTF-8" standalone="no"?>
<!DOCTYPE svg PUBLIC "-//W3C//DTD SVG 1.1//EN"
 "http://www.w3.org/Graphics/SVG/1.1/DTD/svg11.dtd">
<!-- Generated by graphviz version 2.40.1 (20161225.0304)
 -->
<!-- Title: %0 Pages: 1 -->
<svg width="116pt" height="188pt"
 viewBox="0.00 0.00 116.00 188.00" xmlns="http://www.w3.org/2000/svg" xmlns:xlink="http://www.w3.org/1999/xlink">
<g id="graph0" class="graph" transform="scale(1 1) rotate(0) translate(4 184)">
<title>%0</title>
<polygon fill="#ffffff" stroke="transparent" points="-4,4 -4,-184 112,-184 112,4 -4,4"/>
<!-- 1&#45;&gt;4 -->
<g id="edge1" class="edge">
<title>1&#45;&gt;4</title>
<path fill="none" stroke="#cccccc" d="M27.0843,-143.8314C32.7708,-132.4585 40.0454,-117.9091 45.5979,-106.8041"/>
<polygon fill="#cccccc" stroke="#cccccc" points="47.1916,-107.5298 47.8625,-102.275 44.0611,-105.9645 47.1916,-107.5298"/>
</g>
<!-- 2&#45;&gt;4 -->
<g id="edge2" class="edge">
<title>2&#45;&gt;4</title>
<path fill="none" stroke="#cccccc" d="M80.9157,-143.8314C75.2292,-132.4585 67.9546,-117.9091 62.4021,-106.8041"/>
<polygon fill="#cccccc" stroke="#cccccc" points="63.9389,-105.9645 60.1375,-102.275 60.8084,-107.5298 63.9389,-105.9645"/>
</g>
<!-- 4&#45;&gt;3 -->
<g id="edge3" class="edge">
<title>4&#45;&gt;3</title>
<path fill="none" stroke="#cccccc" d="M54,-71.8314C54,-62.6078 54,-51.295 54,-41.4246"/>
<polygon fill="#cccccc" stroke="#cccccc" points="55.7501,-41.4132 54,-36.4133 52.2501,-41.4133 55.7501,-41.4132"/>
</g>
<!-- 1 -->
<g id="node1" class="node">
<title>1</title>
<polygon fill="#f0f8ff" stroke="#b3b3b3" points="36,-180 0,-180 0,-144 36,-144 36,-180"/>
<text text-anchor="middle" x="18" y="-159" font-family="Helvetica,sans-Serif" font-size="10.00" fill="#000000">species</text>
</g>
<!-- 2 -->
<g id="node2" class="node">
<title>2</title>
<polygon fill="#f0f8ff" stroke="#b3b3b3" points="108,-180 72,-180 72,-144 108,-144 108,-180"/>
<text text-anchor="middle" x="90" y="-159" font-family="Helvetica,sans-Serif" font-size="10.00" fill="#000000">version</text>
</g>
<!-- 3 -->
<g id="node3" class="node">
<title>3</title>
<ellipse fill="#f0f8ff" stroke="#b3b3b3" cx="54" cy="-18" rx="18" ry="18"/>
<text text-anchor="middle" x="54" y="-15" font-family="Helvetica,sans-Serif" font-size="10.00" fill="#000000">transcripts</text>
</g>
<!-- 4 -->
<g id="node4" class="node">
<title>4</title>
<polygon fill="#f0f8ff" stroke="#b3b3b3" points="54,-108 36,-90 54,-72 72,-90 54,-108"/>
<text text-anchor="middle" x="54" y="-87" font-family="Helvetica,sans-Serif" font-size="10.00" fill="#000000">bash</text>
</g>
</g>
</svg>

