<?xml version="1.0" encoding="UTF-8" standalone="no"?>
<!DOCTYPE svg PUBLIC "-//W3C//DTD SVG 1.1//EN"
 "http://www.w3.org/Graphics/SVG/1.1/DTD/svg11.dtd">
<!-- Generated by graphviz version 2.40.1 (20161225.0304)
 -->
<!-- Title: G Pages: 1 -->
<svg width="792pt" height="472pt"
 viewBox="0.00 0.00 792.26 471.60" xmlns="http://www.w3.org/2000/svg" xmlns:xlink="http://www.w3.org/1999/xlink">
<g id="graph0" class="graph" transform="scale(1 1) rotate(0) translate(4 467.6)">
<title>G</title>
<polygon fill="#eeeeee" stroke="transparent" points="-4,4 -4,-467.6 788.2637,-467.6 788.2637,4 -4,4"/>
<g id="clust1" class="cluster">
<title>cluster_inputs</title>
<polygon fill="#eeeeee" stroke="#000000" stroke-dasharray="5,2" points="105.2637,-377.8 105.2637,-455.6 776.2637,-455.6 776.2637,-377.8 105.2637,-377.8"/>
<text text-anchor="middle" x="720.2493" y="-386" font-family="Times,serif" font-size="14.00" fill="#000000">Workflow Inputs</text>
</g>
<g id="clust2" class="cluster">
<title>cluster_outputs</title>
<polygon fill="#eeeeee" stroke="#000000" stroke-dasharray="5,2" points="14.2637,-8 14.2637,-85.8 641.2637,-85.8 641.2637,-8 14.2637,-8"/>
<text text-anchor="middle" x="580.581" y="-16.2" font-family="Times,serif" font-size="14.00" fill="#000000">Workflow Outputs</text>
</g>
<!-- samtools_index -->
<g id="node1" class="node">
<title>samtools_index</title>
<polygon fill="#fafad2" stroke="#000000" points="180.3233,-187.3 180.3233,-223.3 284.2041,-223.3 284.2041,-187.3 180.3233,-187.3"/>
<text text-anchor="middle" x="232.2637" y="-201.1" font-family="Times,serif" font-size="14.00" fill="#000000">samtools_index</text>
</g>
<!-- featureCounts -->
<g id="node2" class="node">
<title>featureCounts</title>
<polygon fill="#fafad2" stroke="#000000" points="0,-114.3 0,-150.3 94.5274,-150.3 94.5274,-114.3 0,-114.3"/>
<text text-anchor="middle" x="47.2637" y="-128.1" font-family="Times,serif" font-size="14.00" fill="#000000">featureCounts</text>
</g>
<!-- samtools_index&#45;&gt;featureCounts -->
<g id="edge1" class="edge">
<title>samtools_index&#45;&gt;featureCounts</title>
<path fill="none" stroke="#000000" d="M186.5334,-187.2551C161.1845,-177.2525 129.4764,-164.7407 102.7213,-154.1833"/>
<polygon fill="#000000" stroke="#000000" points="103.6958,-150.8052 93.1091,-150.3904 101.1264,-157.3166 103.6958,-150.8052"/>
</g>
<!-- r_distribution -->
<g id="node5" class="node">
<title>r_distribution</title>
<polygon fill="#fafad2" stroke="#000000" points="112.1543,-114.3 112.1543,-150.3 204.3731,-150.3 204.3731,-114.3 112.1543,-114.3"/>
<text text-anchor="middle" x="158.2637" y="-128.1" font-family="Times,serif" font-size="14.00" fill="#000000">r_distribution</text>
</g>
<!-- samtools_index&#45;&gt;r_distribution -->
<g id="edge3" class="edge">
<title>samtools_index&#45;&gt;r_distribution</title>
<path fill="none" stroke="#000000" d="M213.9716,-187.2551C204.8993,-178.3054 193.7908,-167.347 183.8869,-157.5769"/>
<polygon fill="#000000" stroke="#000000" points="186.1789,-154.9215 176.6019,-150.3904 181.2629,-159.9049 186.1789,-154.9215"/>
</g>
<!-- out_BAM -->
<g id="node17" class="node">
<title>out_BAM</title>
<polygon fill="#94ddf4" stroke="#000000" points="195.8745,-41.3 195.8745,-77.3 268.6529,-77.3 268.6529,-41.3 195.8745,-41.3"/>
<text text-anchor="middle" x="232.2637" y="-55.1" font-family="Times,serif" font-size="14.00" fill="#000000">out_BAM</text>
</g>
<!-- samtools_index&#45;&gt;out_BAM -->
<g id="edge21" class="edge">
<title>samtools_index&#45;&gt;out_BAM</title>
<path fill="none" stroke="#000000" d="M232.2637,-187.1042C232.2637,-162.1868 232.2637,-117.1938 232.2637,-87.7877"/>
<polygon fill="#000000" stroke="#000000" points="235.7638,-87.7251 232.2637,-77.7251 228.7638,-87.7251 235.7638,-87.7251"/>
</g>
<!-- out_count -->
<g id="node19" class="node">
<title>out_count</title>
<polygon fill="#94ddf4" stroke="#000000" points="22.2658,-41.3 22.2658,-77.3 94.2616,-77.3 94.2616,-41.3 22.2658,-41.3"/>
<text text-anchor="middle" x="58.2637" y="-55.1" font-family="Times,serif" font-size="14.00" fill="#000000">out_count</text>
</g>
<!-- featureCounts&#45;&gt;out_count -->
<g id="edge23" class="edge">
<title>featureCounts&#45;&gt;out_count</title>
<path fill="none" stroke="#000000" d="M49.9828,-114.2551C51.1992,-106.1828 52.6618,-96.4764 54.0171,-87.4817"/>
<polygon fill="#000000" stroke="#000000" points="57.5086,-87.8003 55.5378,-77.3904 50.5867,-86.7572 57.5086,-87.8003"/>
</g>
<!-- gtfToGenePred -->
<g id="node3" class="node">
<title>gtfToGenePred</title>
<polygon fill="#fafad2" stroke="#000000" points="101.115,-333.3 101.115,-369.3 203.4124,-369.3 203.4124,-333.3 101.115,-333.3"/>
<text text-anchor="middle" x="152.2637" y="-347.1" font-family="Times,serif" font-size="14.00" fill="#000000">gtfToGenePred</text>
</g>
<!-- genePredToBed -->
<g id="node4" class="node">
<title>genePredToBed</title>
<polygon fill="#fafad2" stroke="#000000" points="99.1683,-260.3 99.1683,-296.3 205.3591,-296.3 205.3591,-260.3 99.1683,-260.3"/>
<text text-anchor="middle" x="152.2637" y="-274.1" font-family="Times,serif" font-size="14.00" fill="#000000">genePredToBed</text>
</g>
<!-- gtfToGenePred&#45;&gt;genePredToBed -->
<g id="edge2" class="edge">
<title>gtfToGenePred&#45;&gt;genePredToBed</title>
<path fill="none" stroke="#000000" d="M152.2637,-333.2551C152.2637,-325.1828 152.2637,-315.4764 152.2637,-306.4817"/>
<polygon fill="#000000" stroke="#000000" points="155.7638,-306.3903 152.2637,-296.3904 148.7638,-306.3904 155.7638,-306.3903"/>
</g>
<!-- genePredToBed&#45;&gt;r_distribution -->
<g id="edge4" class="edge">
<title>genePredToBed&#45;&gt;r_distribution</title>
<path fill="none" stroke="#000000" d="M153.0115,-260.1042C154.0355,-235.1868 155.8845,-190.1938 157.093,-160.7877"/>
<polygon fill="#000000" stroke="#000000" points="160.5928,-160.8604 157.5065,-150.7251 153.5987,-160.5729 160.5928,-160.8604"/>
</g>
<!-- out_rdist -->
<g id="node21" class="node">
<title>out_rdist</title>
<polygon fill="#94ddf4" stroke="#000000" points="112.3752,-41.3 112.3752,-77.3 178.1522,-77.3 178.1522,-41.3 112.3752,-41.3"/>
<text text-anchor="middle" x="145.2637" y="-55.1" font-family="Times,serif" font-size="14.00" fill="#000000">out_rdist</text>
</g>
<!-- r_distribution&#45;&gt;out_rdist -->
<g id="edge25" class="edge">
<title>r_distribution&#45;&gt;out_rdist</title>
<path fill="none" stroke="#000000" d="M155.0502,-114.2551C153.6127,-106.1828 151.8842,-96.4764 150.2824,-87.4817"/>
<polygon fill="#000000" stroke="#000000" points="153.6844,-86.6218 148.4853,-77.3904 146.7928,-87.8491 153.6844,-86.6218"/>
</g>
<!-- sortBam -->
<g id="node6" class="node">
<title>sortBam</title>
<polygon fill="#fafad2" stroke="#000000" points="285.5449,-260.3 285.5449,-296.3 348.9825,-296.3 348.9825,-260.3 285.5449,-260.3"/>
<text text-anchor="middle" x="317.2637" y="-274.1" font-family="Times,serif" font-size="14.00" fill="#000000">sortBam</text>
</g>
<!-- sortBam&#45;&gt;samtools_index -->
<g id="edge6" class="edge">
<title>sortBam&#45;&gt;samtools_index</title>
<path fill="none" stroke="#000000" d="M296.2525,-260.2551C285.6273,-251.1299 272.5705,-239.9165 261.0282,-230.0036"/>
<polygon fill="#000000" stroke="#000000" points="263.1945,-227.2505 253.3278,-223.3904 258.6338,-232.5609 263.1945,-227.2505"/>
</g>
<!-- samtools_flagstat -->
<g id="node7" class="node">
<title>samtools_flagstat</title>
<polygon fill="#fafad2" stroke="#000000" points="260.2728,-114.3 260.2728,-150.3 374.2546,-150.3 374.2546,-114.3 260.2728,-114.3"/>
<text text-anchor="middle" x="317.2637" y="-128.1" font-family="Times,serif" font-size="14.00" fill="#000000">samtools_flagstat</text>
</g>
<!-- sortBam&#45;&gt;samtools_flagstat -->
<g id="edge5" class="edge">
<title>sortBam&#45;&gt;samtools_flagstat</title>
<path fill="none" stroke="#000000" d="M317.2637,-260.1042C317.2637,-235.1868 317.2637,-190.1938 317.2637,-160.7877"/>
<polygon fill="#000000" stroke="#000000" points="320.7638,-160.7251 317.2637,-150.7251 313.7638,-160.7251 320.7638,-160.7251"/>
</g>
<!-- out_stat -->
<g id="node23" class="node">
<title>out_stat</title>
<polygon fill="#94ddf4" stroke="#000000" points="287.0982,-41.3 287.0982,-77.3 347.4292,-77.3 347.4292,-41.3 287.0982,-41.3"/>
<text text-anchor="middle" x="317.2637" y="-55.1" font-family="Times,serif" font-size="14.00" fill="#000000">out_stat</text>
</g>
<!-- samtools_flagstat&#45;&gt;out_stat -->
<g id="edge27" class="edge">
<title>samtools_flagstat&#45;&gt;out_stat</title>
<path fill="none" stroke="#000000" d="M317.2637,-114.2551C317.2637,-106.1828 317.2637,-96.4764 317.2637,-87.4817"/>
<polygon fill="#000000" stroke="#000000" points="320.7638,-87.3903 317.2637,-77.3904 313.7638,-87.3904 320.7638,-87.3903"/>
</g>
<!-- STAR -->
<g id="node8" class="node">
<title>STAR</title>
<polygon fill="#fafad2" stroke="#000000" points="375.2637,-333.3 375.2637,-369.3 429.2637,-369.3 429.2637,-333.3 375.2637,-333.3"/>
<text text-anchor="middle" x="402.1529" y="-347.1" font-family="Times,serif" font-size="14.00" fill="#000000">STAR</text>
</g>
<!-- STAR&#45;&gt;sortBam -->
<g id="edge7" class="edge">
<title>STAR&#45;&gt;sortBam</title>
<path fill="none" stroke="#000000" d="M381.2525,-333.2551C370.6273,-324.1299 357.5705,-312.9165 346.0282,-303.0036"/>
<polygon fill="#000000" stroke="#000000" points="348.1945,-300.2505 338.3278,-296.3904 343.6338,-305.5609 348.1945,-300.2505"/>
</g>
<!-- out_Log -->
<g id="node18" class="node">
<title>out_Log</title>
<polygon fill="#94ddf4" stroke="#000000" points="365.5421,-41.3 365.5421,-77.3 428.9853,-77.3 428.9853,-41.3 365.5421,-41.3"/>
<text text-anchor="middle" x="397.2637" y="-55.1" font-family="Times,serif" font-size="14.00" fill="#000000">out_Log</text>
</g>
<!-- STAR&#45;&gt;out_Log -->
<g id="edge22" class="edge">
<title>STAR&#45;&gt;out_Log</title>
<path fill="none" stroke="#000000" d="M401.9509,-333.0341C401.1056,-283.6675 398.7706,-147.3016 397.7508,-87.747"/>
<polygon fill="#000000" stroke="#000000" points="401.2471,-87.4976 397.5764,-77.559 394.2482,-87.6175 401.2471,-87.4976"/>
</g>
<!-- out_junction -->
<g id="node20" class="node">
<title>out_junction</title>
<polygon fill="#94ddf4" stroke="#000000" points="446.8752,-41.3 446.8752,-77.3 533.6522,-77.3 533.6522,-41.3 446.8752,-41.3"/>
<text text-anchor="middle" x="490.2637" y="-55.1" font-family="Times,serif" font-size="14.00" fill="#000000">out_junction</text>
</g>
<!-- STAR&#45;&gt;out_junction -->
<g id="edge24" class="edge">
<title>STAR&#45;&gt;out_junction</title>
<path fill="none" stroke="#000000" d="M407.7685,-333.0341C422.677,-283.565 463.9133,-146.7354 481.802,-87.3773"/>
<polygon fill="#000000" stroke="#000000" points="485.2265,-88.1436 484.761,-77.559 478.5243,-86.1237 485.2265,-88.1436"/>
</g>
<!-- in_genomeDir -->
<g id="node9" class="node">
<title>in_genomeDir</title>
<polygon fill="#94ddf4" stroke="#000000" points="209.8296,-411.1 209.8296,-447.1 306.6978,-447.1 306.6978,-411.1 209.8296,-411.1"/>
<text text-anchor="middle" x="258.2637" y="-424.9" font-family="Times,serif" font-size="14.00" fill="#000000">in_genomeDir</text>
</g>
<!-- in_genomeDir&#45;&gt;STAR -->
<g id="edge8" class="edge">
<title>in_genomeDir&#45;&gt;STAR</title>
<path fill="none" stroke="#000000" d="M274.6585,-410.7362C285.2864,-399.8131 299.9628,-386.4441 315.2637,-377.8 330.6004,-369.1356 349.0924,-362.9903 365.077,-358.8139"/>
<polygon fill="#000000" stroke="#000000" points="366.2788,-362.1231 375.1607,-356.347 364.6154,-355.3236 366.2788,-362.1231"/>
</g>
<!-- in_prefix -->
<g id="node10" class="node">
<title>in_prefix</title>
<polygon fill="#94ddf4" stroke="#000000" points="396.6052,-411.1 396.6052,-447.1 463.9222,-447.1 463.9222,-411.1 396.6052,-411.1"/>
<text text-anchor="middle" x="430.2637" y="-424.9" font-family="Times,serif" font-size="14.00" fill="#000000">in_prefix</text>
</g>
<!-- in_prefix&#45;&gt;STAR -->
<g id="edge9" class="edge">
<title>in_prefix&#45;&gt;STAR</title>
<path fill="none" stroke="#000000" d="M423.7696,-411.0556C420.3661,-401.5988 416.1224,-389.8074 412.3061,-379.2037"/>
<polygon fill="#000000" stroke="#000000" points="415.4992,-377.74 408.8196,-369.5161 408.9128,-380.1105 415.4992,-377.74"/>
</g>
<!-- salmon -->
<g id="node16" class="node">
<title>salmon</title>
<ellipse fill="none" stroke="#000000" cx="548.2637" cy="-351.3" rx="38.8632" ry="18"/>
<text text-anchor="middle" x="548.2637" y="-347.1" font-family="Times,serif" font-size="14.00" fill="#000000">salmon</text>
</g>
<!-- in_prefix&#45;&gt;salmon -->
<g id="edge10" class="edge">
<title>in_prefix&#45;&gt;salmon</title>
<path fill="none" stroke="#000000" d="M441.8842,-410.8055C449.6204,-399.9085 460.6589,-386.5426 473.2637,-377.8 482.3859,-371.4728 493.1749,-366.5062 503.6841,-362.6696"/>
<polygon fill="#000000" stroke="#000000" points="504.8456,-365.9717 513.2011,-359.4573 502.6069,-359.3393 504.8456,-365.9717"/>
</g>
<!-- in_fq1 -->
<g id="node11" class="node">
<title>in_fq1</title>
<polygon fill="#94ddf4" stroke="#000000" points="324.2637,-411.1 324.2637,-447.1 378.2637,-447.1 378.2637,-411.1 324.2637,-411.1"/>
<text text-anchor="middle" x="351.0393" y="-424.9" font-family="Times,serif" font-size="14.00" fill="#000000">in_fq1</text>
</g>
<!-- in_fq1&#45;&gt;STAR -->
<g id="edge11" class="edge">
<title>in_fq1&#45;&gt;STAR</title>
<path fill="none" stroke="#000000" d="M363.0923,-411.0556C369.5471,-401.2089 377.6612,-388.8309 384.8279,-377.8982"/>
<polygon fill="#000000" stroke="#000000" points="387.7673,-379.7982 390.3226,-369.5161 381.913,-375.9605 387.7673,-379.7982"/>
</g>
<!-- in_fq1&#45;&gt;salmon -->
<g id="edge12" class="edge">
<title>in_fq1&#45;&gt;salmon</title>
<path fill="none" stroke="#000000" d="M359.2999,-411.01C365.3297,-399.6147 374.7049,-385.6256 387.2637,-377.8 406.7365,-365.6662 415.617,-373.4805 438.2637,-369.8 459.0987,-366.414 482.1332,-362.5575 501.7171,-359.245"/>
<polygon fill="#000000" stroke="#000000" points="502.3392,-362.6896 511.6138,-357.5678 501.1695,-355.788 502.3392,-362.6896"/>
</g>
<!-- in_fq2 -->
<g id="node12" class="node">
<title>in_fq2</title>
<polygon fill="#94ddf4" stroke="#000000" points="602.2637,-411.1 602.2637,-447.1 656.2637,-447.1 656.2637,-411.1 602.2637,-411.1"/>
<text text-anchor="middle" x="629.0393" y="-424.9" font-family="Times,serif" font-size="14.00" fill="#000000">in_fq2</text>
</g>
<!-- in_fq2&#45;&gt;STAR -->
<g id="edge13" class="edge">
<title>in_fq2&#45;&gt;STAR</title>
<path fill="none" stroke="#000000" d="M621.5332,-410.9718C615.5839,-399.406 606.1821,-385.237 593.2637,-377.8 575.2868,-367.4509 520.8146,-372.6164 500.2637,-369.8 480.0943,-367.0359 457.7793,-362.9083 439.5442,-359.2528"/>
<polygon fill="#000000" stroke="#000000" points="440.098,-355.7938 429.6004,-357.2258 438.6998,-362.6527 440.098,-355.7938"/>
</g>
<!-- in_fq2&#45;&gt;salmon -->
<g id="edge14" class="edge">
<title>in_fq2&#45;&gt;salmon</title>
<path fill="none" stroke="#000000" d="M619.238,-411.0245C612.777,-400.4743 603.6559,-387.3953 593.2637,-377.8 590.3494,-375.1092 587.1169,-372.5641 583.7601,-370.1935"/>
<polygon fill="#000000" stroke="#000000" points="585.5626,-367.1907 575.2703,-364.6768 581.7484,-373.0604 585.5626,-367.1907"/>
</g>
<!-- in_runThreadN -->
<g id="node13" class="node">
<title>in_runThreadN</title>
<polygon fill="#94ddf4" stroke="#000000" points="482.1136,-411.1 482.1136,-447.1 584.4138,-447.1 584.4138,-411.1 482.1136,-411.1"/>
<text text-anchor="middle" x="533.2637" y="-424.9" font-family="Times,serif" font-size="14.00" fill="#000000">in_runThreadN</text>
</g>
<!-- in_runThreadN&#45;&gt;STAR -->
<g id="edge15" class="edge">
<title>in_runThreadN&#45;&gt;STAR</title>
<path fill="none" stroke="#000000" d="M515.3829,-410.8689C504.082,-400.1315 488.7332,-386.9119 473.2637,-377.8 462.742,-371.6025 450.5171,-366.4155 439.2072,-362.3211"/>
<polygon fill="#000000" stroke="#000000" points="440.1641,-358.949 429.5694,-359.0061 437.8873,-365.5684 440.1641,-358.949"/>
</g>
<!-- in_runThreadN&#45;&gt;salmon -->
<g id="edge16" class="edge">
<title>in_runThreadN&#45;&gt;salmon</title>
<path fill="none" stroke="#000000" d="M536.7427,-411.0556C538.5602,-401.629 540.8249,-389.8826 542.8643,-379.3051"/>
<polygon fill="#000000" stroke="#000000" points="546.347,-379.7284 544.8036,-369.2466 539.4736,-378.4031 546.347,-379.7284"/>
</g>
<!-- in_GTFfile -->
<g id="node14" class="node">
<title>in_GTFfile</title>
<polygon fill="#94ddf4" stroke="#000000" points="112.7693,-411.1 112.7693,-447.1 191.7581,-447.1 191.7581,-411.1 112.7693,-411.1"/>
<text text-anchor="middle" x="152.2637" y="-424.9" font-family="Times,serif" font-size="14.00" fill="#000000">in_GTFfile</text>
</g>
<!-- in_GTFfile&#45;&gt;featureCounts -->
<g id="edge18" class="edge">
<title>in_GTFfile&#45;&gt;featureCounts</title>
<path fill="none" stroke="#000000" d="M127.6655,-410.8463C115.1426,-400.2439 100.7987,-385.8301 92.2637,-369.8 55.6541,-301.0415 48.4759,-207.1314 47.296,-160.6919"/>
<polygon fill="#000000" stroke="#000000" points="50.7917,-160.4124 47.1159,-150.4757 43.7928,-160.5359 50.7917,-160.4124"/>
</g>
<!-- in_GTFfile&#45;&gt;gtfToGenePred -->
<g id="edge19" class="edge">
<title>in_GTFfile&#45;&gt;gtfToGenePred</title>
<path fill="none" stroke="#000000" d="M152.2637,-411.0556C152.2637,-401.6963 152.2637,-390.0503 152.2637,-379.532"/>
<polygon fill="#000000" stroke="#000000" points="155.7638,-379.516 152.2637,-369.5161 148.7638,-379.5161 155.7638,-379.516"/>
</g>
<!-- in_GTFfile&#45;&gt;STAR -->
<g id="edge17" class="edge">
<title>in_GTFfile&#45;&gt;STAR</title>
<path fill="none" stroke="#000000" d="M164.6243,-410.8491C173.432,-399.3859 186.3276,-385.3815 201.2637,-377.8 229.1003,-363.6703 314.8635,-356.3986 364.9137,-353.2649"/>
<polygon fill="#000000" stroke="#000000" points="365.246,-356.7513 375.0181,-352.658 364.8263,-349.7639 365.246,-356.7513"/>
</g>
<!-- salmon_index -->
<g id="node15" class="node">
<title>salmon_index</title>
<polygon fill="#94ddf4" stroke="#000000" points="673.9909,-411.1 673.9909,-447.1 768.5365,-447.1 768.5365,-411.1 673.9909,-411.1"/>
<text text-anchor="middle" x="721.2637" y="-424.9" font-family="Times,serif" font-size="14.00" fill="#000000">salmon_index</text>
</g>
<!-- salmon_index&#45;&gt;salmon -->
<g id="edge20" class="edge">
<title>salmon_index&#45;&gt;salmon</title>
<path fill="none" stroke="#000000" d="M706.1277,-411.0839C695.7446,-399.8686 681.034,-386.0539 665.2637,-377.8 644.1569,-366.753 618.5535,-360.2874 596.6855,-356.5145"/>
<polygon fill="#000000" stroke="#000000" points="597.0343,-353.0262 586.6096,-354.9171 595.9382,-359.9399 597.0343,-353.0262"/>
</g>
<!-- out_salmon -->
<g id="node22" class="node">
<title>out_salmon</title>
<polygon fill="#94ddf4" stroke="#000000" points="551.5982,-41.3 551.5982,-77.3 632.9292,-77.3 632.9292,-41.3 551.5982,-41.3"/>
<text text-anchor="middle" x="592.2637" y="-55.1" font-family="Times,serif" font-size="14.00" fill="#000000">out_salmon</text>
</g>
<!-- salmon&#45;&gt;out_salmon -->
<g id="edge26" class="edge">
<title>salmon&#45;&gt;out_salmon</title>
<path fill="none" stroke="#000000" d="M551.0161,-333.0341C558.4549,-283.6675 579.0032,-147.3016 587.9772,-87.747"/>
<polygon fill="#000000" stroke="#000000" points="591.4832,-87.9689 589.5123,-77.559 584.5613,-86.9258 591.4832,-87.9689"/>
</g>
</g>
</svg>

