<?xml version="1.0" encoding="UTF-8" standalone="no"?>
<!DOCTYPE svg PUBLIC "-//W3C//DTD SVG 1.1//EN"
 "http://www.w3.org/Graphics/SVG/1.1/DTD/svg11.dtd">
<!-- Generated by graphviz version 2.40.1 (20161225.0304)
 -->
<!-- Title: G Pages: 1 -->
<svg width="869pt" height="472pt"
 viewBox="0.00 0.00 869.00 471.60" xmlns="http://www.w3.org/2000/svg" xmlns:xlink="http://www.w3.org/1999/xlink">
<g id="graph0" class="graph" transform="scale(1 1) rotate(0) translate(4 467.6)">
<title>G</title>
<polygon fill="#eeeeee" stroke="transparent" points="-4,4 -4,-467.6 865,-467.6 865,4 -4,4"/>
<g id="clust1" class="cluster">
<title>cluster_inputs</title>
<polygon fill="#eeeeee" stroke="#000000" stroke-dasharray="5,2" points="343,-377.8 343,-455.6 853,-455.6 853,-377.8 343,-377.8"/>
<text text-anchor="middle" x="796.9856" y="-386" font-family="Times,serif" font-size="14.00" fill="#000000">Workflow Inputs</text>
</g>
<g id="clust2" class="cluster">
<title>cluster_outputs</title>
<polygon fill="#eeeeee" stroke="#000000" stroke-dasharray="5,2" points="8,-8 8,-85.8 849,-85.8 849,-8 8,-8"/>
<text text-anchor="middle" x="788.3173" y="-16.2" font-family="Times,serif" font-size="14.00" fill="#000000">Workflow Outputs</text>
</g>
<!-- samtools_index -->
<g id="node1" class="node">
<title>samtools_index</title>
<polygon fill="#fafad2" stroke="#000000" points="229.0596,-187.3 229.0596,-223.3 332.9404,-223.3 332.9404,-187.3 229.0596,-187.3"/>
<text text-anchor="middle" x="281" y="-201.1" font-family="Times,serif" font-size="14.00" fill="#000000">samtools_index</text>
</g>
<!-- featureCounts -->
<g id="node2" class="node">
<title>featureCounts</title>
<polygon fill="#fafad2" stroke="#000000" points="131.7363,-114.3 131.7363,-150.3 226.2637,-150.3 226.2637,-114.3 131.7363,-114.3"/>
<text text-anchor="middle" x="179" y="-128.1" font-family="Times,serif" font-size="14.00" fill="#000000">featureCounts</text>
</g>
<!-- samtools_index&#45;&gt;featureCounts -->
<g id="edge1" class="edge">
<title>samtools_index&#45;&gt;featureCounts</title>
<path fill="none" stroke="#000000" d="M255.7865,-187.2551C242.7912,-177.9545 226.7645,-166.4844 212.7204,-156.4332"/>
<polygon fill="#000000" stroke="#000000" points="214.4459,-153.3641 204.2769,-150.3904 210.3719,-159.0565 214.4459,-153.3641"/>
</g>
<!-- gCoverage -->
<g id="node3" class="node">
<title>gCoverage</title>
<polygon fill="#fafad2" stroke="#000000" points="281.6795,-114.3 281.6795,-150.3 358.3205,-150.3 358.3205,-114.3 281.6795,-114.3"/>
<text text-anchor="middle" x="320" y="-128.1" font-family="Times,serif" font-size="14.00" fill="#000000">gCoverage</text>
</g>
<!-- samtools_index&#45;&gt;gCoverage -->
<g id="edge2" class="edge">
<title>samtools_index&#45;&gt;gCoverage</title>
<path fill="none" stroke="#000000" d="M290.6405,-187.2551C295.1405,-178.8319 300.5912,-168.6292 305.5685,-159.3128"/>
<polygon fill="#000000" stroke="#000000" points="308.7102,-160.8598 310.3353,-150.3904 302.536,-157.5613 308.7102,-160.8598"/>
</g>
<!-- r_distribution -->
<g id="node6" class="node">
<title>r_distribution</title>
<polygon fill="#fafad2" stroke="#000000" points="375.8906,-114.3 375.8906,-150.3 468.1094,-150.3 468.1094,-114.3 375.8906,-114.3"/>
<text text-anchor="middle" x="422" y="-128.1" font-family="Times,serif" font-size="14.00" fill="#000000">r_distribution</text>
</g>
<!-- samtools_index&#45;&gt;r_distribution -->
<g id="edge6" class="edge">
<title>samtools_index&#45;&gt;r_distribution</title>
<path fill="none" stroke="#000000" d="M315.8539,-187.2551C334.6655,-177.5157 358.072,-165.3975 378.1148,-155.0207"/>
<polygon fill="#000000" stroke="#000000" points="379.7871,-158.0962 387.0583,-150.3904 376.5687,-151.8799 379.7871,-158.0962"/>
</g>
<!-- out_BAM -->
<g id="node16" class="node">
<title>out_BAM</title>
<polygon fill="#94ddf4" stroke="#000000" points="105.6108,-41.3 105.6108,-77.3 178.3892,-77.3 178.3892,-41.3 105.6108,-41.3"/>
<text text-anchor="middle" x="142" y="-55.1" font-family="Times,serif" font-size="14.00" fill="#000000">out_BAM</text>
</g>
<!-- samtools_index&#45;&gt;out_BAM -->
<g id="edge18" class="edge">
<title>samtools_index&#45;&gt;out_BAM</title>
<path fill="none" stroke="#000000" d="M275.4351,-187.2999C268.5522,-167.3968 255.2105,-135.3093 235,-113.8 218.088,-95.8011 208.3076,-98.2885 187,-85.8 185.2987,-84.8029 183.5617,-83.7839 181.8073,-82.7539"/>
<polygon fill="#000000" stroke="#000000" points="183.3701,-79.6128 172.9753,-77.5637 179.8235,-85.6478 183.3701,-79.6128"/>
</g>
<!-- out_count -->
<g id="node19" class="node">
<title>out_count</title>
<polygon fill="#94ddf4" stroke="#000000" points="16.0021,-41.3 16.0021,-77.3 87.9979,-77.3 87.9979,-41.3 16.0021,-41.3"/>
<text text-anchor="middle" x="52" y="-55.1" font-family="Times,serif" font-size="14.00" fill="#000000">out_count</text>
</g>
<!-- featureCounts&#45;&gt;out_count -->
<g id="edge21" class="edge">
<title>featureCounts&#45;&gt;out_count</title>
<path fill="none" stroke="#000000" d="M146.6052,-114.0908C131.4974,-105.5574 113.2951,-95.2174 97,-85.8 95.0866,-84.6942 93.1296,-83.5587 91.1547,-82.4092"/>
<polygon fill="#000000" stroke="#000000" points="92.8602,-79.3521 82.4603,-77.3285 89.3283,-85.3958 92.8602,-79.3521"/>
</g>
<!-- out_gCovP -->
<g id="node22" class="node">
<title>out_gCovP</title>
<polygon fill="#94ddf4" stroke="#000000" points="293.4951,-41.3 293.4951,-77.3 372.5049,-77.3 372.5049,-41.3 293.4951,-41.3"/>
<text text-anchor="middle" x="333" y="-55.1" font-family="Times,serif" font-size="14.00" fill="#000000">out_gCovP</text>
</g>
<!-- gCoverage&#45;&gt;out_gCovP -->
<g id="edge24" class="edge">
<title>gCoverage&#45;&gt;out_gCovP</title>
<path fill="none" stroke="#000000" d="M323.2135,-114.2551C324.651,-106.1828 326.3795,-96.4764 327.9813,-87.4817"/>
<polygon fill="#000000" stroke="#000000" points="331.4709,-87.8491 329.7784,-77.3904 324.5793,-86.6218 331.4709,-87.8491"/>
</g>
<!-- out_gCovT -->
<g id="node23" class="node">
<title>out_gCovT</title>
<polygon fill="#94ddf4" stroke="#000000" points="196.1101,-41.3 196.1101,-77.3 275.8899,-77.3 275.8899,-41.3 196.1101,-41.3"/>
<text text-anchor="middle" x="236" y="-55.1" font-family="Times,serif" font-size="14.00" fill="#000000">out_gCovT</text>
</g>
<!-- gCoverage&#45;&gt;out_gCovT -->
<g id="edge25" class="edge">
<title>gCoverage&#45;&gt;out_gCovT</title>
<path fill="none" stroke="#000000" d="M299.2359,-114.2551C288.7358,-105.1299 275.8326,-93.9165 264.4261,-84.0036"/>
<polygon fill="#000000" stroke="#000000" points="266.6602,-81.3082 256.8163,-77.3904 262.0685,-86.5918 266.6602,-81.3082"/>
</g>
<!-- genePredToBed -->
<g id="node4" class="node">
<title>genePredToBed</title>
<polygon fill="#fafad2" stroke="#000000" points="350.9046,-187.3 350.9046,-223.3 457.0954,-223.3 457.0954,-187.3 350.9046,-187.3"/>
<text text-anchor="middle" x="404" y="-201.1" font-family="Times,serif" font-size="14.00" fill="#000000">genePredToBed</text>
</g>
<!-- genePredToBed&#45;&gt;gCoverage -->
<g id="edge3" class="edge">
<title>genePredToBed&#45;&gt;gCoverage</title>
<path fill="none" stroke="#000000" d="M383.2359,-187.2551C372.7358,-178.1299 359.8326,-166.9165 348.4261,-157.0036"/>
<polygon fill="#000000" stroke="#000000" points="350.6602,-154.3082 340.8163,-150.3904 346.0685,-159.5918 350.6602,-154.3082"/>
</g>
<!-- genePredToBed&#45;&gt;r_distribution -->
<g id="edge5" class="edge">
<title>genePredToBed&#45;&gt;r_distribution</title>
<path fill="none" stroke="#000000" d="M408.4494,-187.2551C410.4615,-179.0951 412.8853,-169.2652 415.1233,-160.1887"/>
<polygon fill="#000000" stroke="#000000" points="418.5435,-160.9375 417.5394,-150.3904 411.747,-159.2616 418.5435,-160.9375"/>
</g>
<!-- gtfToGenePred -->
<g id="node5" class="node">
<title>gtfToGenePred</title>
<polygon fill="#fafad2" stroke="#000000" points="343.8513,-260.3 343.8513,-296.3 446.1487,-296.3 446.1487,-260.3 343.8513,-260.3"/>
<text text-anchor="middle" x="395" y="-274.1" font-family="Times,serif" font-size="14.00" fill="#000000">gtfToGenePred</text>
</g>
<!-- gtfToGenePred&#45;&gt;genePredToBed -->
<g id="edge4" class="edge">
<title>gtfToGenePred&#45;&gt;genePredToBed</title>
<path fill="none" stroke="#000000" d="M397.2247,-260.2551C398.2199,-252.1828 399.4166,-242.4764 400.5255,-233.4817"/>
<polygon fill="#000000" stroke="#000000" points="404.0197,-233.7435 401.7697,-223.3904 397.0723,-232.8869 404.0197,-233.7435"/>
</g>
<!-- out_distribution -->
<g id="node20" class="node">
<title>out_distribution</title>
<polygon fill="#94ddf4" stroke="#000000" points="390.2756,-41.3 390.2756,-77.3 495.7244,-77.3 495.7244,-41.3 390.2756,-41.3"/>
<text text-anchor="middle" x="443" y="-55.1" font-family="Times,serif" font-size="14.00" fill="#000000">out_distribution</text>
</g>
<!-- r_distribution&#45;&gt;out_distribution -->
<g id="edge22" class="edge">
<title>r_distribution&#45;&gt;out_distribution</title>
<path fill="none" stroke="#000000" d="M427.191,-114.2551C429.5384,-106.0951 432.3662,-96.2652 434.9772,-87.1887"/>
<polygon fill="#000000" stroke="#000000" points="438.3948,-87.9683 437.7959,-77.3904 431.6677,-86.033 438.3948,-87.9683"/>
</g>
<!-- sortBam -->
<g id="node7" class="node">
<title>sortBam</title>
<polygon fill="#fafad2" stroke="#000000" points="512.2812,-260.3 512.2812,-296.3 575.7188,-296.3 575.7188,-260.3 512.2812,-260.3"/>
<text text-anchor="middle" x="544" y="-274.1" font-family="Times,serif" font-size="14.00" fill="#000000">sortBam</text>
</g>
<!-- sortBam&#45;&gt;samtools_index -->
<g id="edge8" class="edge">
<title>sortBam&#45;&gt;samtools_index</title>
<path fill="none" stroke="#000000" d="M512.0782,-270.0136C474.0604,-260.0734 408.4102,-242.6838 342.8767,-224.0139"/>
<polygon fill="#000000" stroke="#000000" points="343.7889,-220.6345 333.212,-221.2507 341.8647,-227.3648 343.7889,-220.6345"/>
</g>
<!-- samtools_flagstat -->
<g id="node8" class="node">
<title>samtools_flagstat</title>
<polygon fill="#fafad2" stroke="#000000" points="487.0091,-114.3 487.0091,-150.3 600.9909,-150.3 600.9909,-114.3 487.0091,-114.3"/>
<text text-anchor="middle" x="544" y="-128.1" font-family="Times,serif" font-size="14.00" fill="#000000">samtools_flagstat</text>
</g>
<!-- sortBam&#45;&gt;samtools_flagstat -->
<g id="edge7" class="edge">
<title>sortBam&#45;&gt;samtools_flagstat</title>
<path fill="none" stroke="#000000" d="M544,-260.1042C544,-235.1868 544,-190.1938 544,-160.7877"/>
<polygon fill="#000000" stroke="#000000" points="547.5001,-160.7251 544,-150.7251 540.5001,-160.7251 547.5001,-160.7251"/>
</g>
<!-- out_stat -->
<g id="node24" class="node">
<title>out_stat</title>
<polygon fill="#94ddf4" stroke="#000000" points="513.8345,-41.3 513.8345,-77.3 574.1655,-77.3 574.1655,-41.3 513.8345,-41.3"/>
<text text-anchor="middle" x="544" y="-55.1" font-family="Times,serif" font-size="14.00" fill="#000000">out_stat</text>
</g>
<!-- samtools_flagstat&#45;&gt;out_stat -->
<g id="edge26" class="edge">
<title>samtools_flagstat&#45;&gt;out_stat</title>
<path fill="none" stroke="#000000" d="M544,-114.2551C544,-106.1828 544,-96.4764 544,-87.4817"/>
<polygon fill="#000000" stroke="#000000" points="547.5001,-87.3903 544,-77.3904 540.5001,-87.3904 547.5001,-87.3903"/>
</g>
<!-- STAR -->
<g id="node9" class="node">
<title>STAR</title>
<polygon fill="#fafad2" stroke="#000000" points="595,-333.3 595,-369.3 649,-369.3 649,-333.3 595,-333.3"/>
<text text-anchor="middle" x="621.8892" y="-347.1" font-family="Times,serif" font-size="14.00" fill="#000000">STAR</text>
</g>
<!-- STAR&#45;&gt;sortBam -->
<g id="edge9" class="edge">
<title>STAR&#45;&gt;sortBam</title>
<path fill="none" stroke="#000000" d="M602.7191,-333.2551C593.0627,-324.2177 581.2176,-313.1319 570.7016,-303.2899"/>
<polygon fill="#000000" stroke="#000000" points="573.0223,-300.6681 563.3294,-296.3904 568.239,-305.779 573.0223,-300.6681"/>
</g>
<!-- out_Count -->
<g id="node17" class="node">
<title>out_Count</title>
<polygon fill="#94ddf4" stroke="#000000" points="592.4411,-41.3 592.4411,-77.3 667.5589,-77.3 667.5589,-41.3 592.4411,-41.3"/>
<text text-anchor="middle" x="630" y="-55.1" font-family="Times,serif" font-size="14.00" fill="#000000">out_Count</text>
</g>
<!-- STAR&#45;&gt;out_Count -->
<g id="edge19" class="edge">
<title>STAR&#45;&gt;out_Count</title>
<path fill="none" stroke="#000000" d="M622.5004,-333.0341C623.8529,-283.6675 627.589,-147.3016 629.2206,-87.747"/>
<polygon fill="#000000" stroke="#000000" points="632.7245,-87.6511 629.4998,-77.559 625.7271,-87.4594 632.7245,-87.6511"/>
</g>
<!-- out_Log -->
<g id="node18" class="node">
<title>out_Log</title>
<polygon fill="#94ddf4" stroke="#000000" points="685.2784,-41.3 685.2784,-77.3 748.7216,-77.3 748.7216,-41.3 685.2784,-41.3"/>
<text text-anchor="middle" x="717" y="-55.1" font-family="Times,serif" font-size="14.00" fill="#000000">out_Log</text>
</g>
<!-- STAR&#45;&gt;out_Log -->
<g id="edge20" class="edge">
<title>STAR&#45;&gt;out_Log</title>
<path fill="none" stroke="#000000" d="M627.9427,-333.0341C644.0371,-283.565 688.5535,-146.7354 707.8653,-87.3773"/>
<polygon fill="#000000" stroke="#000000" points="711.294,-88.1512 711.0596,-77.559 704.6374,-85.9855 711.294,-88.1512"/>
</g>
<!-- in_genomeDir -->
<g id="node10" class="node">
<title>in_genomeDir</title>
<polygon fill="#94ddf4" stroke="#000000" points="447.5659,-411.1 447.5659,-447.1 544.4341,-447.1 544.4341,-411.1 447.5659,-411.1"/>
<text text-anchor="middle" x="496" y="-424.9" font-family="Times,serif" font-size="14.00" fill="#000000">in_genomeDir</text>
</g>
<!-- in_genomeDir&#45;&gt;STAR -->
<g id="edge10" class="edge">
<title>in_genomeDir&#45;&gt;STAR</title>
<path fill="none" stroke="#000000" d="M513.4788,-410.6667C524.3585,-399.9896 539.0821,-386.903 554,-377.8 563.5897,-371.9484 574.6936,-366.9713 585.1125,-362.9649"/>
<polygon fill="#000000" stroke="#000000" points="586.6247,-366.139 594.8201,-359.4243 584.2262,-359.5627 586.6247,-366.139"/>
</g>
<!-- in_prefix -->
<g id="node11" class="node">
<title>in_prefix</title>
<polygon fill="#94ddf4" stroke="#000000" points="683.3415,-411.1 683.3415,-447.1 750.6585,-447.1 750.6585,-411.1 683.3415,-411.1"/>
<text text-anchor="middle" x="717" y="-424.9" font-family="Times,serif" font-size="14.00" fill="#000000">in_prefix</text>
</g>
<!-- in_prefix&#45;&gt;STAR -->
<g id="edge11" class="edge">
<title>in_prefix&#45;&gt;STAR</title>
<path fill="none" stroke="#000000" d="M704.5943,-410.8885C696.7243,-400.2901 685.8205,-387.2082 674,-377.8 669.2259,-374.0002 663.8205,-370.5217 658.345,-367.4237"/>
<polygon fill="#000000" stroke="#000000" points="659.6408,-364.1501 649.163,-362.5794 656.3744,-370.3413 659.6408,-364.1501"/>
</g>
<!-- in_seqfiles -->
<g id="node12" class="node">
<title>in_seqfiles</title>
<polygon fill="#94ddf4" stroke="#000000" points="768.6746,-411.1 768.6746,-447.1 845.3254,-447.1 845.3254,-411.1 768.6746,-411.1"/>
<text text-anchor="middle" x="807" y="-424.9" font-family="Times,serif" font-size="14.00" fill="#000000">in_seqfiles</text>
</g>
<!-- in_seqfiles&#45;&gt;STAR -->
<g id="edge12" class="edge">
<title>in_seqfiles&#45;&gt;STAR</title>
<path fill="none" stroke="#000000" d="M794.9671,-410.8817C786.5279,-399.5834 774.2362,-385.7522 760,-377.8 743.111,-368.3659 694.1848,-360.4504 659.3978,-355.7926"/>
<polygon fill="#000000" stroke="#000000" points="659.4749,-352.2732 649.1069,-354.4536 658.5717,-359.2147 659.4749,-352.2732"/>
</g>
<!-- fastqc -->
<g id="node15" class="node">
<title>fastqc</title>
<ellipse fill="none" stroke="#000000" cx="805" cy="-132.3" rx="34.1852" ry="18"/>
<text text-anchor="middle" x="805" y="-128.1" font-family="Times,serif" font-size="14.00" fill="#000000">fastqc</text>
</g>
<!-- in_seqfiles&#45;&gt;fastqc -->
<g id="edge13" class="edge">
<title>in_seqfiles&#45;&gt;fastqc</title>
<path fill="none" stroke="#000000" d="M806.8779,-410.9806C806.5418,-361.0988 805.6008,-221.4546 805.1928,-160.9053"/>
<polygon fill="#000000" stroke="#000000" points="808.6904,-160.5355 805.123,-150.5594 801.6906,-160.5828 808.6904,-160.5355"/>
</g>
<!-- in_runThreadN -->
<g id="node13" class="node">
<title>in_runThreadN</title>
<polygon fill="#94ddf4" stroke="#000000" points="562.8499,-411.1 562.8499,-447.1 665.1501,-447.1 665.1501,-411.1 562.8499,-411.1"/>
<text text-anchor="middle" x="614" y="-424.9" font-family="Times,serif" font-size="14.00" fill="#000000">in_runThreadN</text>
</g>
<!-- in_runThreadN&#45;&gt;STAR -->
<g id="edge14" class="edge">
<title>in_runThreadN&#45;&gt;STAR</title>
<path fill="none" stroke="#000000" d="M615.8555,-411.0556C616.8179,-401.6963 618.0154,-390.0503 619.097,-379.532"/>
<polygon fill="#000000" stroke="#000000" points="622.5855,-379.8217 620.1269,-369.5161 615.6223,-379.1056 622.5855,-379.8217"/>
</g>
<!-- in_GTFfile -->
<g id="node14" class="node">
<title>in_GTFfile</title>
<polygon fill="#94ddf4" stroke="#000000" points="350.5056,-411.1 350.5056,-447.1 429.4944,-447.1 429.4944,-411.1 350.5056,-411.1"/>
<text text-anchor="middle" x="390" y="-424.9" font-family="Times,serif" font-size="14.00" fill="#000000">in_GTFfile</text>
</g>
<!-- in_GTFfile&#45;&gt;featureCounts -->
<g id="edge16" class="edge">
<title>in_GTFfile&#45;&gt;featureCounts</title>
<path fill="none" stroke="#000000" d="M371.9766,-410.9002C338.713,-376.5992 266.8051,-299.0493 220,-223.8 207.3749,-203.5024 196.4971,-178.6528 189.1248,-159.9749"/>
<polygon fill="#000000" stroke="#000000" points="192.3606,-158.6381 185.4997,-150.5647 185.8285,-161.1544 192.3606,-158.6381"/>
</g>
<!-- in_GTFfile&#45;&gt;gtfToGenePred -->
<g id="edge17" class="edge">
<title>in_GTFfile&#45;&gt;gtfToGenePred</title>
<path fill="none" stroke="#000000" d="M390.6031,-410.91C391.4628,-384.9825 393.0484,-337.1606 394.0621,-306.5858"/>
<polygon fill="#000000" stroke="#000000" points="397.5613,-306.665 394.3947,-296.5545 390.5652,-306.433 397.5613,-306.665"/>
</g>
<!-- in_GTFfile&#45;&gt;STAR -->
<g id="edge15" class="edge">
<title>in_GTFfile&#45;&gt;STAR</title>
<path fill="none" stroke="#000000" d="M402.3926,-410.9116C411.2138,-399.4748 424.1125,-385.4763 439,-377.8 463.6839,-365.0724 538.5958,-357.444 584.5651,-353.836"/>
<polygon fill="#000000" stroke="#000000" points="585.0359,-357.3105 594.7431,-353.0655 584.5074,-350.3304 585.0359,-357.3105"/>
</g>
<!-- out_fastqc -->
<g id="node21" class="node">
<title>out_fastqc</title>
<polygon fill="#94ddf4" stroke="#000000" points="766.8422,-41.3 766.8422,-77.3 841.1578,-77.3 841.1578,-41.3 766.8422,-41.3"/>
<text text-anchor="middle" x="804" y="-55.1" font-family="Times,serif" font-size="14.00" fill="#000000">out_fastqc</text>
</g>
<!-- fastqc&#45;&gt;out_fastqc -->
<g id="edge23" class="edge">
<title>fastqc&#45;&gt;out_fastqc</title>
<path fill="none" stroke="#000000" d="M804.7528,-114.2551C804.6422,-106.1828 804.5093,-96.4764 804.3861,-87.4817"/>
<polygon fill="#000000" stroke="#000000" points="807.8846,-87.3414 804.2478,-77.3904 800.8852,-87.4374 807.8846,-87.3414"/>
</g>
</g>
</svg>

