<?xml version="1.0" encoding="UTF-8" standalone="no"?>
<!DOCTYPE svg PUBLIC "-//W3C//DTD SVG 1.1//EN"
 "http://www.w3.org/Graphics/SVG/1.1/DTD/svg11.dtd">
<!-- Generated by graphviz version 2.40.1 (20161225.0304)
 -->
<!-- Title: G Pages: 1 -->
<svg width="266pt" height="399pt"
 viewBox="0.00 0.00 266.00 398.60" xmlns="http://www.w3.org/2000/svg" xmlns:xlink="http://www.w3.org/1999/xlink">
<g id="graph0" class="graph" transform="scale(1 1) rotate(0) translate(4 394.6)">
<title>G</title>
<polygon fill="#eeeeee" stroke="transparent" points="-4,4 -4,-394.6 262,-394.6 262,4 -4,4"/>
<g id="clust1" class="cluster">
<title>cluster_inputs</title>
<polygon fill="#eeeeee" stroke="#000000" stroke-dasharray="5,2" points="62,-304.8 62,-382.6 204,-382.6 204,-304.8 62,-304.8"/>
<text text-anchor="middle" x="147.9856" y="-313" font-family="Times,serif" font-size="14.00" fill="#000000">Workflow Inputs</text>
</g>
<g id="clust2" class="cluster">
<title>cluster_outputs</title>
<polygon fill="#eeeeee" stroke="#000000" stroke-dasharray="5,2" points="8,-8 8,-85.8 250,-85.8 250,-8 8,-8"/>
<text text-anchor="middle" x="189.3173" y="-16.2" font-family="Times,serif" font-size="14.00" fill="#000000">Workflow Outputs</text>
</g>
<!-- genePredToBed -->
<g id="node1" class="node">
<title>genePredToBed</title>
<polygon fill="#fafad2" stroke="#000000" points="34.9046,-187.3 34.9046,-223.3 141.0954,-223.3 141.0954,-187.3 34.9046,-187.3"/>
<text text-anchor="middle" x="88" y="-201.1" font-family="Times,serif" font-size="14.00" fill="#000000">genePredToBed</text>
</g>
<!-- gCoverage -->
<g id="node2" class="node">
<title>gCoverage</title>
<polygon fill="#fafad2" stroke="#000000" points="57.6795,-114.3 57.6795,-150.3 134.3205,-150.3 134.3205,-114.3 57.6795,-114.3"/>
<text text-anchor="middle" x="96" y="-128.1" font-family="Times,serif" font-size="14.00" fill="#000000">gCoverage</text>
</g>
<!-- genePredToBed&#45;&gt;gCoverage -->
<g id="edge1" class="edge">
<title>genePredToBed&#45;&gt;gCoverage</title>
<path fill="none" stroke="#000000" d="M89.9775,-187.2551C90.8622,-179.1828 91.9259,-169.4764 92.9116,-160.4817"/>
<polygon fill="#000000" stroke="#000000" points="96.4072,-160.7122 94.0175,-150.3904 89.4489,-159.9495 96.4072,-160.7122"/>
</g>
<!-- r_distribution -->
<g id="node4" class="node">
<title>r_distribution</title>
<polygon fill="#fafad2" stroke="#000000" points="155.8906,-114.3 155.8906,-150.3 248.1094,-150.3 248.1094,-114.3 155.8906,-114.3"/>
<text text-anchor="middle" x="202" y="-128.1" font-family="Times,serif" font-size="14.00" fill="#000000">r_distribution</text>
</g>
<!-- genePredToBed&#45;&gt;r_distribution -->
<g id="edge3" class="edge">
<title>genePredToBed&#45;&gt;r_distribution</title>
<path fill="none" stroke="#000000" d="M116.1798,-187.2551C130.978,-177.779 149.2933,-166.0508 165.1986,-155.8658"/>
<polygon fill="#000000" stroke="#000000" points="167.2154,-158.7305 173.7493,-150.3904 163.4405,-152.8356 167.2154,-158.7305"/>
</g>
<!-- gCovP -->
<g id="node8" class="node">
<title>gCovP</title>
<polygon fill="#94ddf4" stroke="#000000" points="15.9404,-41.3 15.9404,-77.3 70.0596,-77.3 70.0596,-41.3 15.9404,-41.3"/>
<text text-anchor="middle" x="43" y="-55.1" font-family="Times,serif" font-size="14.00" fill="#000000">gCovP</text>
</g>
<!-- gCoverage&#45;&gt;gCovP -->
<g id="edge8" class="edge">
<title>gCoverage&#45;&gt;gCovP</title>
<path fill="none" stroke="#000000" d="M82.8989,-114.2551C76.656,-105.6564 69.0668,-95.2034 62.1901,-85.7316"/>
<polygon fill="#000000" stroke="#000000" points="64.8415,-83.4262 56.1341,-77.3904 59.177,-87.5388 64.8415,-83.4262"/>
</g>
<!-- gCovT -->
<g id="node9" class="node">
<title>gCovT</title>
<polygon fill="#94ddf4" stroke="#000000" points="88.5554,-41.3 88.5554,-77.3 143.4446,-77.3 143.4446,-41.3 88.5554,-41.3"/>
<text text-anchor="middle" x="116" y="-55.1" font-family="Times,serif" font-size="14.00" fill="#000000">gCovT</text>
</g>
<!-- gCoverage&#45;&gt;gCovT -->
<g id="edge9" class="edge">
<title>gCoverage&#45;&gt;gCovT</title>
<path fill="none" stroke="#000000" d="M100.9438,-114.2551C103.1794,-106.0951 105.8726,-96.2652 108.3593,-87.1887"/>
<polygon fill="#000000" stroke="#000000" points="111.7769,-87.9598 111.0437,-77.3904 105.0257,-86.1101 111.7769,-87.9598"/>
</g>
<!-- gtfToGenePred -->
<g id="node3" class="node">
<title>gtfToGenePred</title>
<polygon fill="#fafad2" stroke="#000000" points="37.8513,-260.3 37.8513,-296.3 140.1487,-296.3 140.1487,-260.3 37.8513,-260.3"/>
<text text-anchor="middle" x="89" y="-274.1" font-family="Times,serif" font-size="14.00" fill="#000000">gtfToGenePred</text>
</g>
<!-- gtfToGenePred&#45;&gt;genePredToBed -->
<g id="edge2" class="edge">
<title>gtfToGenePred&#45;&gt;genePredToBed</title>
<path fill="none" stroke="#000000" d="M88.7528,-260.2551C88.6422,-252.1828 88.5093,-242.4764 88.3861,-233.4817"/>
<polygon fill="#000000" stroke="#000000" points="91.8846,-233.3414 88.2478,-223.3904 84.8852,-233.4374 91.8846,-233.3414"/>
</g>
<!-- distribution -->
<g id="node7" class="node">
<title>distribution</title>
<polygon fill="#94ddf4" stroke="#000000" points="161.7209,-41.3 161.7209,-77.3 242.2791,-77.3 242.2791,-41.3 161.7209,-41.3"/>
<text text-anchor="middle" x="202" y="-55.1" font-family="Times,serif" font-size="14.00" fill="#000000">distribution</text>
</g>
<!-- r_distribution&#45;&gt;distribution -->
<g id="edge7" class="edge">
<title>r_distribution&#45;&gt;distribution</title>
<path fill="none" stroke="#000000" d="M202,-114.2551C202,-106.1828 202,-96.4764 202,-87.4817"/>
<polygon fill="#000000" stroke="#000000" points="205.5001,-87.3903 202,-77.3904 198.5001,-87.3904 205.5001,-87.3903"/>
</g>
<!-- bam -->
<g id="node5" class="node">
<title>bam</title>
<polygon fill="#94ddf4" stroke="#000000" points="142,-338.1 142,-374.1 196,-374.1 196,-338.1 142,-338.1"/>
<text text-anchor="middle" x="168.5526" y="-351.9" font-family="Times,serif" font-size="14.00" fill="#000000">bam</text>
</g>
<!-- bam&#45;&gt;gCoverage -->
<g id="edge4" class="edge">
<title>bam&#45;&gt;gCoverage</title>
<path fill="none" stroke="#000000" d="M170.7169,-337.9979C172.9789,-305.8343 174.1908,-237.3589 150,-186.8 144.7532,-175.8342 136.3842,-165.7604 127.7861,-157.3363"/>
<polygon fill="#000000" stroke="#000000" points="129.9667,-154.5861 120.2438,-150.377 125.2197,-159.7306 129.9667,-154.5861"/>
</g>
<!-- bam&#45;&gt;r_distribution -->
<g id="edge5" class="edge">
<title>bam&#45;&gt;r_distribution</title>
<path fill="none" stroke="#000000" d="M173.8417,-338.0461C176.833,-326.3551 180.5542,-310.7621 183,-296.8 191.2896,-249.4785 196.8529,-193.8421 199.7169,-160.9104"/>
<polygon fill="#000000" stroke="#000000" points="203.2287,-160.9171 200.5847,-150.6575 196.2537,-160.3267 203.2287,-160.9171"/>
</g>
<!-- gtf -->
<g id="node6" class="node">
<title>gtf</title>
<polygon fill="#94ddf4" stroke="#000000" points="70,-338.1 70,-374.1 124,-374.1 124,-338.1 70,-338.1"/>
<text text-anchor="middle" x="96.7756" y="-351.9" font-family="Times,serif" font-size="14.00" fill="#000000">gtf</text>
</g>
<!-- gtf&#45;&gt;gtfToGenePred -->
<g id="edge6" class="edge">
<title>gtf&#45;&gt;gtfToGenePred</title>
<path fill="none" stroke="#000000" d="M95.1445,-338.0556C94.1821,-328.6963 92.9846,-317.0503 91.903,-306.532"/>
<polygon fill="#000000" stroke="#000000" points="95.3777,-306.1056 90.8731,-296.5161 88.4145,-306.8217 95.3777,-306.1056"/>
</g>
</g>
</svg>

