<?xml version="1.0" encoding="UTF-8" standalone="no"?>
<!DOCTYPE svg PUBLIC "-//W3C//DTD SVG 1.1//EN"
 "http://www.w3.org/Graphics/SVG/1.1/DTD/svg11.dtd">
<!-- Generated by graphviz version 2.40.1 (20161225.0304)
 -->
<!-- Title: G Pages: 1 -->
<svg width="536pt" height="399pt"
 viewBox="0.00 0.00 536.00 398.60" xmlns="http://www.w3.org/2000/svg" xmlns:xlink="http://www.w3.org/1999/xlink">
<g id="graph0" class="graph" transform="scale(1 1) rotate(0) translate(4 394.6)">
<title>G</title>
<polygon fill="#eeeeee" stroke="transparent" points="-4,4 -4,-394.6 532,-394.6 532,4 -4,4"/>
<g id="clust1" class="cluster">
<title>cluster_inputs</title>
<polygon fill="#eeeeee" stroke="#000000" stroke-dasharray="5,2" points="8,-304.8 8,-382.6 520,-382.6 520,-304.8 8,-304.8"/>
<text text-anchor="middle" x="463.9856" y="-313" font-family="Times,serif" font-size="14.00" fill="#000000">Workflow Inputs</text>
</g>
<g id="clust2" class="cluster">
<title>cluster_outputs</title>
<polygon fill="#eeeeee" stroke="#000000" stroke-dasharray="5,2" points="327,-8 327,-85.8 469,-85.8 469,-8 327,-8"/>
<text text-anchor="middle" x="408.3173" y="-16.2" font-family="Times,serif" font-size="14.00" fill="#000000">Workflow Outputs</text>
</g>
<!-- seqz_binning -->
<g id="node1" class="node">
<title>seqz_binning</title>
<polygon fill="#fafad2" stroke="#000000" points="316.6725,-187.3 316.6725,-223.3 407.3275,-223.3 407.3275,-187.3 316.6725,-187.3"/>
<text text-anchor="middle" x="362" y="-201.1" font-family="Times,serif" font-size="14.00" fill="#000000">seqz_binning</text>
</g>
<!-- hrd -->
<g id="node2" class="node">
<title>hrd</title>
<polygon fill="#fafad2" stroke="#000000" points="407,-114.3 407,-150.3 461,-150.3 461,-114.3 407,-114.3"/>
<text text-anchor="middle" x="433.8303" y="-128.1" font-family="Times,serif" font-size="14.00" fill="#000000">hrd</text>
</g>
<!-- seqz_binning&#45;&gt;hrd -->
<g id="edge1" class="edge">
<title>seqz_binning&#45;&gt;hrd</title>
<path fill="none" stroke="#000000" d="M379.7978,-187.2551C388.6248,-178.3054 399.4331,-167.347 409.0693,-157.5769"/>
<polygon fill="#000000" stroke="#000000" points="411.6272,-159.9678 416.1575,-150.3904 406.6434,-155.0523 411.6272,-159.9678"/>
</g>
<!-- segs -->
<g id="node12" class="node">
<title>segs</title>
<polygon fill="#94ddf4" stroke="#000000" points="335,-41.3 335,-77.3 389,-77.3 389,-41.3 335,-41.3"/>
<text text-anchor="middle" x="361.5519" y="-55.1" font-family="Times,serif" font-size="14.00" fill="#000000">segs</text>
</g>
<!-- seqz_binning&#45;&gt;segs -->
<g id="edge12" class="edge">
<title>seqz_binning&#45;&gt;segs</title>
<path fill="none" stroke="#000000" d="M362,-187.1042C362,-162.1868 362,-117.1938 362,-87.7877"/>
<polygon fill="#000000" stroke="#000000" points="365.5001,-87.7251 362,-77.7251 358.5001,-87.7251 365.5001,-87.7251"/>
</g>
<!-- score -->
<g id="node11" class="node">
<title>score</title>
<polygon fill="#94ddf4" stroke="#000000" points="407,-41.3 407,-77.3 461,-77.3 461,-41.3 407,-41.3"/>
<text text-anchor="middle" x="433.7672" y="-55.1" font-family="Times,serif" font-size="14.00" fill="#000000">score</text>
</g>
<!-- hrd&#45;&gt;score -->
<g id="edge11" class="edge">
<title>hrd&#45;&gt;score</title>
<path fill="none" stroke="#000000" d="M434,-114.2551C434,-106.1828 434,-96.4764 434,-87.4817"/>
<polygon fill="#000000" stroke="#000000" points="437.5001,-87.3903 434,-77.3904 430.5001,-87.3904 437.5001,-87.3903"/>
</g>
<!-- bam2seqz -->
<g id="node3" class="node">
<title>bam2seqz</title>
<polygon fill="#fafad2" stroke="#000000" points="189.0105,-260.3 189.0105,-296.3 260.9895,-296.3 260.9895,-260.3 189.0105,-260.3"/>
<text text-anchor="middle" x="225" y="-274.1" font-family="Times,serif" font-size="14.00" fill="#000000">bam2seqz</text>
</g>
<!-- bam2seqz&#45;&gt;seqz_binning -->
<g id="edge2" class="edge">
<title>bam2seqz&#45;&gt;seqz_binning</title>
<path fill="none" stroke="#000000" d="M258.8652,-260.2551C277.0607,-250.5596 299.6807,-238.5066 319.0964,-228.161"/>
<polygon fill="#000000" stroke="#000000" points="320.8702,-231.1818 328.0496,-223.3904 317.5784,-225.0041 320.8702,-231.1818"/>
</g>
<!-- gc -->
<g id="node4" class="node">
<title>gc</title>
<polygon fill="#94ddf4" stroke="#000000" points="234,-338.1 234,-374.1 288,-374.1 288,-338.1 234,-338.1"/>
<text text-anchor="middle" x="260.6073" y="-351.9" font-family="Times,serif" font-size="14.00" fill="#000000">gc</text>
</g>
<!-- gc&#45;&gt;bam2seqz -->
<g id="edge3" class="edge">
<title>gc&#45;&gt;bam2seqz</title>
<path fill="none" stroke="#000000" d="M252.6504,-338.0556C248.2294,-328.5013 242.7057,-316.564 237.7601,-305.8761"/>
<polygon fill="#000000" stroke="#000000" points="240.805,-304.1218 233.429,-296.5161 234.4521,-307.0614 240.805,-304.1218"/>
</g>
<!-- normal -->
<g id="node5" class="node">
<title>normal</title>
<polygon fill="#94ddf4" stroke="#000000" points="160.1718,-338.1 160.1718,-374.1 215.8282,-374.1 215.8282,-338.1 160.1718,-338.1"/>
<text text-anchor="middle" x="188" y="-351.9" font-family="Times,serif" font-size="14.00" fill="#000000">normal</text>
</g>
<!-- normal&#45;&gt;bam2seqz -->
<g id="edge4" class="edge">
<title>normal&#45;&gt;bam2seqz</title>
<path fill="none" stroke="#000000" d="M196.5815,-338.0556C201.1717,-328.4038 206.9184,-316.3202 212.0408,-305.5493"/>
<polygon fill="#000000" stroke="#000000" points="215.2027,-307.0501 216.3368,-296.5161 208.8812,-304.0436 215.2027,-307.0501"/>
</g>
<!-- out -->
<g id="node6" class="node">
<title>out</title>
<polygon fill="#94ddf4" stroke="#000000" points="306,-338.1 306,-374.1 360,-374.1 360,-338.1 306,-338.1"/>
<text text-anchor="middle" x="332.9453" y="-351.9" font-family="Times,serif" font-size="14.00" fill="#000000">out</text>
</g>
<!-- out&#45;&gt;seqz_binning -->
<g id="edge6" class="edge">
<title>out&#45;&gt;seqz_binning</title>
<path fill="none" stroke="#000000" d="M336.4981,-337.91C341.4841,-311.9825 350.6806,-264.1606 356.5604,-233.5858"/>
<polygon fill="#000000" stroke="#000000" points="360.038,-234.0356 358.4895,-223.5545 353.1639,-232.7136 360.038,-234.0356"/>
</g>
<!-- out&#45;&gt;bam2seqz -->
<g id="edge5" class="edge">
<title>out&#45;&gt;bam2seqz</title>
<path fill="none" stroke="#000000" d="M323.8555,-337.8162C317.5986,-326.9232 308.3831,-313.5577 297,-304.8 289.2432,-298.8322 280.0077,-294.107 270.7815,-290.4028"/>
<polygon fill="#000000" stroke="#000000" points="271.8261,-287.0581 261.2324,-286.903 269.4172,-293.6306 271.8261,-287.0581"/>
</g>
<!-- ref -->
<g id="node7" class="node">
<title>ref</title>
<polygon fill="#94ddf4" stroke="#000000" points="16,-338.1 16,-374.1 70,-374.1 70,-338.1 16,-338.1"/>
<text text-anchor="middle" x="42.7679" y="-351.9" font-family="Times,serif" font-size="14.00" fill="#000000">ref</text>
</g>
<!-- ref&#45;&gt;bam2seqz -->
<g id="edge7" class="edge">
<title>ref&#45;&gt;bam2seqz</title>
<path fill="none" stroke="#000000" d="M51.2327,-337.8579C57.2928,-326.55 66.6275,-312.7168 79,-304.8 95.2643,-294.3929 142.5433,-287.0873 178.9374,-282.8195"/>
<polygon fill="#000000" stroke="#000000" points="179.3351,-286.2969 188.8789,-281.6962 178.5492,-279.3411 179.3351,-286.2969"/>
</g>
<!-- tumor -->
<g id="node8" class="node">
<title>tumor</title>
<polygon fill="#94ddf4" stroke="#000000" points="88,-338.1 88,-374.1 142,-374.1 142,-338.1 88,-338.1"/>
<text text-anchor="middle" x="114.7209" y="-351.9" font-family="Times,serif" font-size="14.00" fill="#000000">tumor</text>
</g>
<!-- tumor&#45;&gt;bam2seqz -->
<g id="edge8" class="edge">
<title>tumor&#45;&gt;bam2seqz</title>
<path fill="none" stroke="#000000" d="M124.1175,-337.7809C130.3642,-326.8746 139.5786,-313.5076 151,-304.8 159.3883,-298.4048 169.4575,-293.4556 179.4278,-289.6622"/>
<polygon fill="#000000" stroke="#000000" points="180.6022,-292.9595 188.8985,-286.3699 178.3037,-286.3476 180.6022,-292.9595"/>
</g>
<!-- build -->
<g id="node9" class="node">
<title>build</title>
<polygon fill="#94ddf4" stroke="#000000" points="458,-338.1 458,-374.1 512,-374.1 512,-338.1 458,-338.1"/>
<text text-anchor="middle" x="484.8906" y="-351.9" font-family="Times,serif" font-size="14.00" fill="#000000">build</text>
</g>
<!-- build&#45;&gt;hrd -->
<g id="edge9" class="edge">
<title>build&#45;&gt;hrd</title>
<path fill="none" stroke="#000000" d="M480.8265,-337.7855C471.9321,-298.7548 451.0581,-207.155 440.443,-160.5735"/>
<polygon fill="#000000" stroke="#000000" points="443.7941,-159.526 438.1597,-150.5537 436.9691,-161.0814 443.7941,-159.526"/>
</g>
<!-- window -->
<g id="node10" class="node">
<title>window</title>
<polygon fill="#94ddf4" stroke="#000000" points="378.4481,-338.1 378.4481,-374.1 439.5519,-374.1 439.5519,-338.1 378.4481,-338.1"/>
<text text-anchor="middle" x="409" y="-351.9" font-family="Times,serif" font-size="14.00" fill="#000000">window</text>
</g>
<!-- window&#45;&gt;seqz_binning -->
<g id="edge10" class="edge">
<title>window&#45;&gt;seqz_binning</title>
<path fill="none" stroke="#000000" d="M403.3307,-337.91C395.2146,-311.8693 380.2149,-263.7426 370.6913,-233.1862"/>
<polygon fill="#000000" stroke="#000000" points="374.0065,-232.0601 367.6894,-223.5545 367.3235,-234.143 374.0065,-232.0601"/>
</g>
</g>
</svg>

