<?xml version="1.0" encoding="UTF-8" standalone="no"?>
<!DOCTYPE svg PUBLIC "-//W3C//DTD SVG 1.1//EN"
 "http://www.w3.org/Graphics/SVG/1.1/DTD/svg11.dtd">
<!-- Generated by graphviz version 2.40.1 (20161225.0304)
 -->
<!-- Title: G Pages: 1 -->
<svg width="685pt" height="383pt"
 viewBox="0.00 0.00 684.94 382.60" xmlns="http://www.w3.org/2000/svg" xmlns:xlink="http://www.w3.org/1999/xlink">
<g id="graph0" class="graph" transform="scale(1 1) rotate(0) translate(4 378.6)">
<title>G</title>
<polygon fill="#eeeeee" stroke="transparent" points="-4,4 -4,-378.6 680.9355,-378.6 680.9355,4 -4,4"/>
<g id="clust1" class="cluster">
<title>cluster_inputs</title>
<polygon fill="#eeeeee" stroke="#000000" stroke-dasharray="5,2" points="85.9355,-231.8 85.9355,-309.6 668.9355,-309.6 668.9355,-231.8 85.9355,-231.8"/>
<text text-anchor="middle" x="612.9211" y="-240" font-family="Times,serif" font-size="14.00" fill="#000000">Workflow Inputs</text>
</g>
<g id="clust2" class="cluster">
<title>cluster_outputs</title>
<polygon fill="#eeeeee" stroke="#000000" stroke-dasharray="5,2" points="63.9355,-8 63.9355,-85.8 649.9355,-85.8 649.9355,-8 63.9355,-8"/>
<text text-anchor="middle" x="589.2528" y="-16.2" font-family="Times,serif" font-size="14.00" fill="#000000">Workflow Outputs</text>
</g>
<!-- mantaStrelka -->
<g id="node1" class="node">
<title>mantaStrelka</title>
<polygon fill="#f3cea1" stroke="#000000" points="179.0035,-187.3 179.0035,-223.3 268.8675,-223.3 268.8675,-187.3 179.0035,-187.3"/>
<text text-anchor="middle" x="223.9355" y="-201.1" font-family="Times,serif" font-size="14.00" fill="#000000">mantaStrelka</text>
</g>
<!-- combine -->
<g id="node2" class="node">
<title>combine</title>
<polygon fill="#fafad2" stroke="#000000" points="356.8303,-114.3 356.8303,-150.3 421.0407,-150.3 421.0407,-114.3 356.8303,-114.3"/>
<text text-anchor="middle" x="388.9355" y="-128.1" font-family="Times,serif" font-size="14.00" fill="#000000">combine</text>
</g>
<!-- mantaStrelka&#45;&gt;combine -->
<g id="edge1" class="edge">
<title>mantaStrelka&#45;&gt;combine</title>
<path fill="none" stroke="#000000" d="M258.8063,-187.2551C284.6834,-175.2825 319.9471,-159.7148 347.2957,-148.2067"/>
<polygon fill="#000000" stroke="#000000" points="348.731,-151.4004 356.6108,-144.318 346.0343,-144.9406 348.731,-151.4004"/>
</g>
<!-- mantaStrelka&#45;&gt;combine -->
<g id="edge5" class="edge">
<title>mantaStrelka&#45;&gt;combine</title>
<path fill="none" stroke="#000000" d="M268.8781,-188C293.4373,-177.6153 323.5752,-164.3317 347.5558,-153.3417"/>
<polygon fill="#000000" stroke="#000000" points="349.1388,-156.4659 356.7527,-149.0985 346.2063,-150.1098 349.1388,-156.4659"/>
</g>
<!-- strelka2indel -->
<g id="node20" class="node">
<title>strelka2indel</title>
<polygon fill="#94ddf4" stroke="#000000" points="71.7798,-41.3 71.7798,-77.3 160.0912,-77.3 160.0912,-41.3 71.7798,-41.3"/>
<text text-anchor="middle" x="115.9355" y="-55.1" font-family="Times,serif" font-size="14.00" fill="#000000">strelka2indel</text>
</g>
<!-- mantaStrelka&#45;&gt;strelka2indel -->
<g id="edge40" class="edge">
<title>mantaStrelka&#45;&gt;strelka2indel</title>
<path fill="none" stroke="#000000" d="M210.4756,-187.1042C191.6393,-161.6403 157.2942,-115.2108 135.5944,-85.8759"/>
<polygon fill="#000000" stroke="#000000" points="138.3259,-83.6831 129.565,-77.7251 132.6983,-87.8461 138.3259,-83.6831"/>
</g>
<!-- strelka2snv -->
<g id="node21" class="node">
<title>strelka2snv</title>
<polygon fill="#94ddf4" stroke="#000000" points="178.0554,-41.3 178.0554,-77.3 257.8156,-77.3 257.8156,-41.3 178.0554,-41.3"/>
<text text-anchor="middle" x="217.9355" y="-55.1" font-family="Times,serif" font-size="14.00" fill="#000000">strelka2snv</text>
</g>
<!-- mantaStrelka&#45;&gt;strelka2snv -->
<g id="edge41" class="edge">
<title>mantaStrelka&#45;&gt;strelka2snv</title>
<path fill="none" stroke="#000000" d="M223.1877,-187.1042C222.1637,-162.1868 220.3147,-117.1938 219.1062,-87.7877"/>
<polygon fill="#000000" stroke="#000000" points="222.6005,-87.5729 218.6927,-77.7251 215.6064,-87.8604 222.6005,-87.5729"/>
</g>
<!-- combineVcf -->
<g id="node18" class="node">
<title>combineVcf</title>
<polygon fill="#94ddf4" stroke="#000000" points="363.3394,-41.3 363.3394,-77.3 448.5316,-77.3 448.5316,-41.3 363.3394,-41.3"/>
<text text-anchor="middle" x="405.9355" y="-55.1" font-family="Times,serif" font-size="14.00" fill="#000000">combineVcf</text>
</g>
<!-- combine&#45;&gt;combineVcf -->
<g id="edge38" class="edge">
<title>combine&#45;&gt;combineVcf</title>
<path fill="none" stroke="#000000" d="M393.1377,-114.2551C395.038,-106.0951 397.3272,-96.2652 399.4409,-87.1887"/>
<polygon fill="#000000" stroke="#000000" points="402.8633,-87.9236 401.7227,-77.3904 396.0457,-86.3359 402.8633,-87.9236"/>
</g>
<!-- MuSE -->
<g id="node3" class="node">
<title>MuSE</title>
<polygon fill="#fafad2" stroke="#000000" points="287.9355,-187.3 287.9355,-223.3 341.9355,-223.3 341.9355,-187.3 287.9355,-187.3"/>
<text text-anchor="middle" x="314.8254" y="-201.1" font-family="Times,serif" font-size="14.00" fill="#000000">MuSE</text>
</g>
<!-- MuSE&#45;&gt;combine -->
<g id="edge2" class="edge">
<title>MuSE&#45;&gt;combine</title>
<path fill="none" stroke="#000000" d="M333.2276,-187.2551C342.2999,-178.3054 353.4084,-167.347 363.3123,-157.5769"/>
<polygon fill="#000000" stroke="#000000" points="365.9363,-159.9049 370.5973,-150.3904 361.0203,-154.9215 365.9363,-159.9049"/>
</g>
<!-- MuSEout -->
<g id="node16" class="node">
<title>MuSEout</title>
<polygon fill="#94ddf4" stroke="#000000" points="276.1003,-41.3 276.1003,-77.3 345.7707,-77.3 345.7707,-41.3 276.1003,-41.3"/>
<text text-anchor="middle" x="310.9355" y="-55.1" font-family="Times,serif" font-size="14.00" fill="#000000">MuSEout</text>
</g>
<!-- MuSE&#45;&gt;MuSEout -->
<g id="edge36" class="edge">
<title>MuSE&#45;&gt;MuSEout</title>
<path fill="none" stroke="#000000" d="M314.437,-187.1042C313.7543,-162.1868 312.5216,-117.1938 311.716,-87.7877"/>
<polygon fill="#000000" stroke="#000000" points="315.213,-87.6255 311.4403,-77.7251 308.2156,-87.8172 315.213,-87.6255"/>
</g>
<!-- Mutect2 -->
<g id="node4" class="node">
<title>Mutect2</title>
<polygon fill="#fafad2" stroke="#000000" points="477.608,-187.3 477.608,-223.3 540.263,-223.3 540.263,-187.3 477.608,-187.3"/>
<text text-anchor="middle" x="508.9355" y="-201.1" font-family="Times,serif" font-size="14.00" fill="#000000">Mutect2</text>
</g>
<!-- Mutect2&#45;&gt;combine -->
<g id="edge3" class="edge">
<title>Mutect2&#45;&gt;combine</title>
<path fill="none" stroke="#000000" d="M479.2726,-187.2551C463.6955,-177.779 444.4162,-166.0508 427.6738,-155.8658"/>
<polygon fill="#000000" stroke="#000000" points="429.0355,-152.5974 418.6731,-150.3904 425.3974,-158.5778 429.0355,-152.5974"/>
</g>
<!-- mutect2out -->
<g id="node19" class="node">
<title>mutect2out</title>
<polygon fill="#94ddf4" stroke="#000000" points="563.4397,-41.3 563.4397,-77.3 642.4313,-77.3 642.4313,-41.3 563.4397,-41.3"/>
<text text-anchor="middle" x="602.9355" y="-55.1" font-family="Times,serif" font-size="14.00" fill="#000000">mutect2out</text>
</g>
<!-- Mutect2&#45;&gt;mutect2out -->
<g id="edge39" class="edge">
<title>Mutect2&#45;&gt;mutect2out</title>
<path fill="none" stroke="#000000" d="M520.6506,-187.1042C536.9748,-161.7496 566.6818,-115.6089 585.5812,-86.2546"/>
<polygon fill="#000000" stroke="#000000" points="588.6021,-88.0279 591.0728,-77.7251 582.7165,-84.2385 588.6021,-88.0279"/>
</g>
<!-- VarDict -->
<g id="node5" class="node">
<title>VarDict</title>
<polygon fill="#fafad2" stroke="#000000" points="398.3934,-187.3 398.3934,-223.3 459.4776,-223.3 459.4776,-187.3 398.3934,-187.3"/>
<text text-anchor="middle" x="428.9355" y="-201.1" font-family="Times,serif" font-size="14.00" fill="#000000">VarDict</text>
</g>
<!-- VarDict&#45;&gt;combine -->
<g id="edge4" class="edge">
<title>VarDict&#45;&gt;combine</title>
<path fill="none" stroke="#000000" d="M419.0479,-187.2551C414.4324,-178.8319 408.8419,-168.6292 403.737,-159.3128"/>
<polygon fill="#000000" stroke="#000000" points="406.7228,-157.4782 398.848,-150.3904 400.584,-160.842 406.7228,-157.4782"/>
</g>
<!-- VarDictout -->
<g id="node17" class="node">
<title>VarDictout</title>
<polygon fill="#94ddf4" stroke="#000000" points="466.4481,-41.3 466.4481,-77.3 545.4229,-77.3 545.4229,-41.3 466.4481,-41.3"/>
<text text-anchor="middle" x="505.9355" y="-55.1" font-family="Times,serif" font-size="14.00" fill="#000000">VarDictout</text>
</g>
<!-- VarDict&#45;&gt;VarDictout -->
<g id="edge37" class="edge">
<title>VarDict&#45;&gt;VarDictout</title>
<path fill="none" stroke="#000000" d="M438.5319,-187.1042C451.8462,-161.8589 476.0287,-116.0063 491.519,-86.6351"/>
<polygon fill="#000000" stroke="#000000" points="494.649,-88.2031 496.2181,-77.7251 488.4573,-84.9376 494.649,-88.2031"/>
</g>
<!-- tabixIndex -->
<g id="node6" class="node">
<title>tabixIndex</title>
<polygon fill="#fafad2" stroke="#000000" points="0,-265.1 0,-301.1 75.871,-301.1 75.871,-265.1 0,-265.1"/>
<text text-anchor="middle" x="37.9355" y="-278.9" font-family="Times,serif" font-size="14.00" fill="#000000">tabixIndex</text>
</g>
<!-- tabixIndex&#45;&gt;mantaStrelka -->
<g id="edge6" class="edge">
<title>tabixIndex&#45;&gt;mantaStrelka</title>
<path fill="none" stroke="#000000" d="M48.9364,-264.8562C56.7285,-253.5475 68.2141,-239.7142 81.9355,-231.8 96.6025,-223.3403 135.3041,-216.4322 168.6048,-211.7925"/>
<polygon fill="#000000" stroke="#000000" points="169.2911,-215.2317 178.7335,-210.4262 168.3553,-208.2945 169.2911,-215.2317"/>
</g>
<!-- bgzip -->
<g id="node7" class="node">
<title>bgzip</title>
<polygon fill="#fafad2" stroke="#000000" points="232.9355,-338.1 232.9355,-374.1 286.9355,-374.1 286.9355,-338.1 232.9355,-338.1"/>
<text text-anchor="middle" x="259.4881" y="-351.9" font-family="Times,serif" font-size="14.00" fill="#000000">bgzip</text>
</g>
<!-- bgzip&#45;&gt;tabixIndex -->
<g id="edge7" class="edge">
<title>bgzip&#45;&gt;tabixIndex</title>
<path fill="none" stroke="#000000" d="M232.9169,-351.5428C197.343,-344.986 133.2967,-331.243 81.9355,-309.6 79.3162,-308.4962 76.6669,-307.2565 74.0359,-305.9318"/>
<polygon fill="#000000" stroke="#000000" points="75.6922,-302.8485 65.2305,-301.1744 72.3648,-309.0071 75.6922,-302.8485"/>
</g>
<!-- dbsnp -->
<g id="node8" class="node">
<title>dbsnp</title>
<polygon fill="#94ddf4" stroke="#000000" points="93.9355,-265.1 93.9355,-301.1 147.9355,-301.1 147.9355,-265.1 93.9355,-265.1"/>
<text text-anchor="middle" x="120.6578" y="-278.9" font-family="Times,serif" font-size="14.00" fill="#000000">dbsnp</text>
</g>
<!-- dbsnp&#45;&gt;MuSE -->
<g id="edge8" class="edge">
<title>dbsnp&#45;&gt;MuSE</title>
<path fill="none" stroke="#000000" d="M128.6187,-264.8887C134.5475,-253.2868 143.9441,-239.1088 156.9355,-231.8 180.4215,-218.5871 251.9274,-230.8535 277.9355,-223.8 278.0351,-223.773 278.1348,-223.7457 278.2346,-223.7181"/>
<polygon fill="#000000" stroke="#000000" points="279.2373,-227.0752 287.5268,-220.4771 276.9319,-220.4657 279.2373,-227.0752"/>
</g>
<!-- nbam -->
<g id="node9" class="node">
<title>nbam</title>
<polygon fill="#94ddf4" stroke="#000000" points="165.9355,-265.1 165.9355,-301.1 219.9355,-301.1 219.9355,-265.1 165.9355,-265.1"/>
<text text-anchor="middle" x="192.4881" y="-278.9" font-family="Times,serif" font-size="14.00" fill="#000000">nbam</text>
</g>
<!-- nbam&#45;&gt;mantaStrelka -->
<g id="edge12" class="edge">
<title>nbam&#45;&gt;mantaStrelka</title>
<path fill="none" stroke="#000000" d="M200.1254,-265.0556C203.9324,-255.5013 208.6889,-243.564 212.9476,-232.8761"/>
<polygon fill="#000000" stroke="#000000" points="216.2269,-234.1014 216.6772,-223.5161 209.7242,-231.5102 216.2269,-234.1014"/>
</g>
<!-- nbam&#45;&gt;MuSE -->
<g id="edge9" class="edge">
<title>nbam&#45;&gt;MuSE</title>
<path fill="none" stroke="#000000" d="M200.9879,-265.0358C207.0245,-253.6514 216.4012,-239.6648 228.9355,-231.8 247.6268,-220.0719 256.9397,-230.5891 277.9355,-223.8 278.038,-223.7669 278.1406,-223.7335 278.2432,-223.6998"/>
<polygon fill="#000000" stroke="#000000" points="279.7779,-226.8592 287.8461,-219.9922 277.2566,-220.329 279.7779,-226.8592"/>
</g>
<!-- nbam&#45;&gt;Mutect2 -->
<g id="edge10" class="edge">
<title>nbam&#45;&gt;Mutect2</title>
<path fill="none" stroke="#000000" d="M200.4138,-265.0053C206.3011,-253.296 215.7307,-238.9472 228.9355,-231.8 250.6588,-220.0421 415.6085,-228.4841 467.344,-222.8739"/>
<polygon fill="#000000" stroke="#000000" points="468.1588,-226.2877 477.4717,-221.2361 467.0412,-219.3775 468.1588,-226.2877"/>
</g>
<!-- nbam&#45;&gt;VarDict -->
<g id="edge11" class="edge">
<title>nbam&#45;&gt;VarDict</title>
<path fill="none" stroke="#000000" d="M200.6174,-264.8864C206.5456,-253.2836 215.9421,-239.1053 228.9355,-231.8 252.6183,-218.4847 324.0679,-227.8381 350.9355,-223.8 363.193,-221.9578 376.3624,-219.1582 388.3256,-216.2904"/>
<polygon fill="#000000" stroke="#000000" points="389.1784,-219.6851 398.0446,-213.885 387.4966,-212.8901 389.1784,-219.6851"/>
</g>
<!-- Ref -->
<g id="node10" class="node">
<title>Ref</title>
<polygon fill="#94ddf4" stroke="#000000" points="309.9355,-265.1 309.9355,-301.1 363.9355,-301.1 363.9355,-265.1 309.9355,-265.1"/>
<text text-anchor="middle" x="336.5414" y="-278.9" font-family="Times,serif" font-size="14.00" fill="#000000">Ref</text>
</g>
<!-- Ref&#45;&gt;mantaStrelka -->
<g id="edge16" class="edge">
<title>Ref&#45;&gt;mantaStrelka</title>
<path fill="none" stroke="#000000" d="M327.8559,-264.7308C321.6235,-253.8057 312.4108,-240.4365 300.9355,-231.8 300.311,-231.33 290.9255,-228.0211 278.9077,-223.8912"/>
<polygon fill="#000000" stroke="#000000" points="279.9007,-220.5318 269.3061,-220.6065 277.6348,-227.155 279.9007,-220.5318"/>
</g>
<!-- Ref&#45;&gt;MuSE -->
<g id="edge13" class="edge">
<title>Ref&#45;&gt;MuSE</title>
<path fill="none" stroke="#000000" d="M331.833,-265.0556C329.1588,-255.5988 325.8245,-243.8074 322.826,-233.2037"/>
<polygon fill="#000000" stroke="#000000" points="326.1756,-232.1864 320.0866,-223.5161 319.4398,-234.0912 326.1756,-232.1864"/>
</g>
<!-- Ref&#45;&gt;Mutect2 -->
<g id="edge14" class="edge">
<title>Ref&#45;&gt;Mutect2</title>
<path fill="none" stroke="#000000" d="M344.6595,-264.9606C350.6061,-253.39 360.0072,-239.2197 372.9355,-231.8 389.5441,-222.2681 436.6946,-227.7613 467.3537,-223.1693"/>
<polygon fill="#000000" stroke="#000000" points="468.3502,-226.5373 477.4334,-221.0833 466.9315,-219.6826 468.3502,-226.5373"/>
</g>
<!-- Ref&#45;&gt;VarDict -->
<g id="edge15" class="edge">
<title>Ref&#45;&gt;VarDict</title>
<path fill="none" stroke="#000000" d="M346.6544,-264.6768C353.0067,-254.0034 362.1212,-240.917 372.9355,-231.8 377.7925,-227.7054 383.3891,-224.0895 389.1256,-220.9495"/>
<polygon fill="#000000" stroke="#000000" points="390.8043,-224.0231 398.1689,-216.4065 387.6619,-217.768 390.8043,-224.0231"/>
</g>
<!-- interval -->
<g id="node11" class="node">
<title>interval</title>
<polygon fill="#94ddf4" stroke="#000000" points="453.5547,-265.1 453.5547,-301.1 512.3163,-301.1 512.3163,-265.1 453.5547,-265.1"/>
<text text-anchor="middle" x="482.9355" y="-278.9" font-family="Times,serif" font-size="14.00" fill="#000000">interval</text>
</g>
<!-- interval&#45;&gt;MuSE -->
<g id="edge17" class="edge">
<title>interval&#45;&gt;MuSE</title>
<path fill="none" stroke="#000000" d="M474.2492,-264.9394C467.7984,-253.5143 457.883,-239.5185 444.9355,-231.8 423.34,-218.9262 413.6082,-228.6331 388.9355,-223.8 376.8739,-221.4373 363.8315,-218.3561 352.1048,-215.388"/>
<polygon fill="#000000" stroke="#000000" points="352.7535,-211.9407 342.196,-212.8296 351.0035,-218.7185 352.7535,-211.9407"/>
</g>
<!-- interval&#45;&gt;Mutect2 -->
<g id="edge18" class="edge">
<title>interval&#45;&gt;Mutect2</title>
<path fill="none" stroke="#000000" d="M488.9658,-265.0556C492.1261,-255.5988 496.0667,-243.8074 499.6104,-233.2037"/>
<polygon fill="#000000" stroke="#000000" points="502.9977,-234.1099 502.8479,-223.5161 496.3587,-231.8911 502.9977,-234.1099"/>
</g>
<!-- interval&#45;&gt;VarDict -->
<g id="edge19" class="edge">
<title>interval&#45;&gt;VarDict</title>
<path fill="none" stroke="#000000" d="M470.4111,-265.0556C463.5766,-255.2089 454.9852,-242.8309 447.3969,-231.8982"/>
<polygon fill="#000000" stroke="#000000" points="450.1564,-229.7355 441.5791,-223.5161 444.4058,-233.7269 450.1564,-229.7355"/>
</g>
<!-- interval&#45;&gt;bgzip -->
<g id="edge20" class="edge">
<title>interval&#45;&gt;bgzip</title>
<path fill="none" stroke="#000000" d="M459.6067,-301.3145C454.9263,-304.3991 449.9123,-307.332 444.9355,-309.6 396.3176,-331.7563 335.5041,-344.4544 297.1754,-350.816"/>
<polygon fill="#000000" stroke="#000000" points="296.3116,-347.4096 286.9898,-352.4449 297.417,-354.3218 296.3116,-347.4096"/>
</g>
<!-- tbam -->
<g id="node12" class="node">
<title>tbam</title>
<polygon fill="#94ddf4" stroke="#000000" points="237.9355,-265.1 237.9355,-301.1 291.9355,-301.1 291.9355,-265.1 237.9355,-265.1"/>
<text text-anchor="middle" x="264.9334" y="-278.9" font-family="Times,serif" font-size="14.00" fill="#000000">tbam</text>
</g>
<!-- tbam&#45;&gt;mantaStrelka -->
<g id="edge24" class="edge">
<title>tbam&#45;&gt;mantaStrelka</title>
<path fill="none" stroke="#000000" d="M255.4262,-265.0556C250.3398,-255.4038 243.9718,-243.3202 238.2957,-232.5493"/>
<polygon fill="#000000" stroke="#000000" points="241.2938,-230.731 233.5352,-223.5161 235.1011,-233.9946 241.2938,-230.731"/>
</g>
<!-- tbam&#45;&gt;MuSE -->
<g id="edge21" class="edge">
<title>tbam&#45;&gt;MuSE</title>
<path fill="none" stroke="#000000" d="M276.5322,-265.0556C282.7977,-255.3063 290.658,-243.0758 297.6326,-232.2233"/>
<polygon fill="#000000" stroke="#000000" points="300.7664,-233.8209 303.2285,-223.5161 294.8776,-230.0363 300.7664,-233.8209"/>
</g>
<!-- tbam&#45;&gt;Mutect2 -->
<g id="edge22" class="edge">
<title>tbam&#45;&gt;Mutect2</title>
<path fill="none" stroke="#000000" d="M272.4465,-265.0652C278.3484,-253.3827 287.782,-239.0412 300.9355,-231.8 315.8037,-223.6148 427.2661,-227.3685 467.588,-222.8401"/>
<polygon fill="#000000" stroke="#000000" points="468.1738,-226.2908 477.4611,-221.1922 467.0213,-219.3863 468.1738,-226.2908"/>
</g>
<!-- tbam&#45;&gt;VarDict -->
<g id="edge23" class="edge">
<title>tbam&#45;&gt;VarDict</title>
<path fill="none" stroke="#000000" d="M272.9796,-265.0227C279.0127,-253.6327 288.3887,-239.6448 300.9355,-231.8 320.0175,-219.8691 328.8605,-228.1776 350.9355,-223.8 363.2005,-221.3678 376.4637,-218.3641 388.5138,-215.4897"/>
<polygon fill="#000000" stroke="#000000" points="389.4059,-218.875 398.3021,-213.121 387.7594,-212.0714 389.4059,-218.875"/>
</g>
<!-- normal -->
<g id="node13" class="node">
<title>normal</title>
<polygon fill="#94ddf4" stroke="#000000" points="605.1073,-265.1 605.1073,-301.1 660.7637,-301.1 660.7637,-265.1 605.1073,-265.1"/>
<text text-anchor="middle" x="632.9355" y="-278.9" font-family="Times,serif" font-size="14.00" fill="#000000">normal</text>
</g>
<!-- normal&#45;&gt;combine -->
<g id="edge29" class="edge">
<title>normal&#45;&gt;combine</title>
<path fill="none" stroke="#000000" d="M622.0264,-264.8155C607.9448,-242.8487 581.3571,-206.499 548.9355,-186.8 512.003,-164.3603 464.6147,-149.7026 431.0217,-141.2994"/>
<polygon fill="#000000" stroke="#000000" points="431.6087,-137.8405 421.0661,-138.8906 429.9625,-144.6442 431.6087,-137.8405"/>
</g>
<!-- normal&#45;&gt;MuSE -->
<g id="edge25" class="edge">
<title>normal&#45;&gt;MuSE</title>
<path fill="none" stroke="#000000" d="M625.111,-265.015C618.9984,-253.31 609.2899,-238.9624 595.9355,-231.8 575.6516,-220.921 411.7216,-227.053 388.9355,-223.8 376.7681,-222.063 363.6965,-219.1538 351.9758,-216.1507"/>
<polygon fill="#000000" stroke="#000000" points="352.6441,-212.7067 342.0801,-213.5145 350.8421,-219.4708 352.6441,-212.7067"/>
</g>
<!-- normal&#45;&gt;Mutect2 -->
<g id="edge26" class="edge">
<title>normal&#45;&gt;Mutect2</title>
<path fill="none" stroke="#000000" d="M616.181,-265.084C608.481,-254.0137 598.9045,-240.3594 586.9355,-231.8 583.4463,-229.3047 567.242,-224.1527 550.435,-219.049"/>
<polygon fill="#000000" stroke="#000000" points="551.1459,-215.6078 540.5612,-216.0702 549.124,-222.3094 551.1459,-215.6078"/>
</g>
<!-- normal&#45;&gt;Mutect2 -->
<g id="edge27" class="edge">
<title>normal&#45;&gt;Mutect2</title>
<path fill="none" stroke="#000000" d="M631.5995,-265.084C626.481,-254.0137 616.9045,-240.3594 604.9355,-231.8 600.3921,-228.5509 574.2901,-220.7971 550.3308,-214.5112"/>
<polygon fill="#000000" stroke="#000000" points="551.1682,-211.1127 540.6116,-212.0122 549.425,-217.8922 551.1682,-211.1127"/>
</g>
<!-- normal&#45;&gt;VarDict -->
<g id="edge28" class="edge">
<title>normal&#45;&gt;VarDict</title>
<path fill="none" stroke="#000000" d="M624.921,-264.8641C618.7763,-253.2516 609.1058,-239.0709 595.9355,-231.8 573.3069,-219.3074 508.8399,-228.7695 469.8072,-222.9066"/>
<polygon fill="#000000" stroke="#000000" points="470.0253,-219.3793 459.5283,-220.8155 468.6298,-226.2388 470.0253,-219.3793"/>
</g>
<!-- tumor -->
<g id="node14" class="node">
<title>tumor</title>
<polygon fill="#94ddf4" stroke="#000000" points="381.9355,-265.1 381.9355,-301.1 435.9355,-301.1 435.9355,-265.1 381.9355,-265.1"/>
<text text-anchor="middle" x="408.6564" y="-278.9" font-family="Times,serif" font-size="14.00" fill="#000000">tumor</text>
</g>
<!-- tumor&#45;&gt;combine -->
<g id="edge33" class="edge">
<title>tumor&#45;&gt;combine</title>
<path fill="none" stroke="#000000" d="M401.1416,-265.0619C396.5823,-253.5084 391.2754,-238.0596 388.9355,-223.8 385.4897,-202.8012 385.6501,-178.7248 386.5861,-160.5412"/>
<polygon fill="#000000" stroke="#000000" points="390.0941,-160.5218 387.2246,-150.323 383.1077,-160.0852 390.0941,-160.5218"/>
</g>
<!-- tumor&#45;&gt;MuSE -->
<g id="edge30" class="edge">
<title>tumor&#45;&gt;MuSE</title>
<path fill="none" stroke="#000000" d="M399.2609,-264.624C392.9243,-253.9318 383.8107,-240.8442 372.9355,-231.8 372.3814,-231.3392 362.6771,-226.8667 351.3601,-221.7231"/>
<polygon fill="#000000" stroke="#000000" points="352.6353,-218.4584 342.0823,-217.5181 349.7456,-224.8341 352.6353,-218.4584"/>
</g>
<!-- tumor&#45;&gt;Mutect2 -->
<g id="edge31" class="edge">
<title>tumor&#45;&gt;Mutect2</title>
<path fill="none" stroke="#000000" d="M417.9856,-264.6916C424.207,-253.7517 433.4184,-240.3807 444.9355,-231.8 452.1908,-226.3945 456.5422,-227.1917 467.7163,-223.7612"/>
<polygon fill="#000000" stroke="#000000" points="468.9625,-227.0326 477.1977,-220.3669 466.6031,-220.4422 468.9625,-227.0326"/>
</g>
<!-- tumor&#45;&gt;VarDict -->
<g id="edge32" class="edge">
<title>tumor&#45;&gt;VarDict</title>
<path fill="none" stroke="#000000" d="M413.5742,-265.0556C416.0052,-255.5988 419.0364,-243.8074 421.7623,-233.2037"/>
<polygon fill="#000000" stroke="#000000" points="425.1527,-234.0726 424.2527,-223.5161 418.3731,-232.3297 425.1527,-234.0726"/>
</g>
<!-- threads -->
<g id="node15" class="node">
<title>threads</title>
<polygon fill="#94ddf4" stroke="#000000" points="530.723,-265.1 530.723,-301.1 587.148,-301.1 587.148,-265.1 530.723,-265.1"/>
<text text-anchor="middle" x="558.9355" y="-278.9" font-family="Times,serif" font-size="14.00" fill="#000000">threads</text>
</g>
<!-- threads&#45;&gt;Mutect2 -->
<g id="edge34" class="edge">
<title>threads&#45;&gt;Mutect2</title>
<path fill="none" stroke="#000000" d="M547.3388,-265.0556C541.0733,-255.3063 533.213,-243.0758 526.2384,-232.2233"/>
<polygon fill="#000000" stroke="#000000" points="528.9934,-230.0363 520.6425,-223.5161 523.1046,-233.8209 528.9934,-230.0363"/>
</g>
<!-- threads&#45;&gt;VarDict -->
<g id="edge35" class="edge">
<title>threads&#45;&gt;VarDict</title>
<path fill="none" stroke="#000000" d="M550.2217,-264.9852C543.7593,-253.5794 533.8414,-239.588 520.9355,-231.8 503.1831,-221.0874 493.6296,-228.3916 469.5824,-223.1927"/>
<polygon fill="#000000" stroke="#000000" points="470.1739,-219.7279 459.609,-220.5243 468.3646,-226.49 470.1739,-219.7279"/>
</g>
</g>
</svg>

