<?xml version="1.0" encoding="UTF-8" standalone="no"?>
<!DOCTYPE svg PUBLIC "-//W3C//DTD SVG 1.1//EN"
 "http://www.w3.org/Graphics/SVG/1.1/DTD/svg11.dtd">
<!-- Generated by graphviz version 2.40.1 (20161225.0304)
 -->
<!-- Title: %0 Pages: 1 -->
<svg width="332pt" height="188pt"
 viewBox="0.00 0.00 332.00 188.00" xmlns="http://www.w3.org/2000/svg" xmlns:xlink="http://www.w3.org/1999/xlink">
<g id="graph0" class="graph" transform="scale(1 1) rotate(0) translate(4 184)">
<title>%0</title>
<polygon fill="#ffffff" stroke="transparent" points="-4,4 -4,-184 328,-184 328,4 -4,4"/>
<!-- 1&#45;&gt;7 -->
<g id="edge1" class="edge">
<title>1&#45;&gt;7</title>
<path fill="none" stroke="#cccccc" d="M36.2377,-152.8811C64.3086,-138.8457 117.7101,-112.145 145.009,-98.4955"/>
<polygon fill="#cccccc" stroke="#cccccc" points="146.1011,-99.9061 149.7906,-96.1047 144.5358,-96.7756 146.1011,-99.9061"/>
</g>
<!-- 2&#45;&gt;7 -->
<g id="edge2" class="edge">
<title>2&#45;&gt;7</title>
<path fill="none" stroke="#cccccc" d="M108.1686,-143.8314C120.8942,-131.1058 137.5966,-114.4034 149.0008,-102.9992"/>
<polygon fill="#cccccc" stroke="#cccccc" points="150.3537,-104.1211 152.6519,-99.3481 147.8788,-101.6463 150.3537,-104.1211"/>
</g>
<!-- 3&#45;&gt;7 -->
<g id="edge3" class="edge">
<title>3&#45;&gt;7</title>
<path fill="none" stroke="#cccccc" d="M162,-143.8314C162,-134.6078 162,-123.295 162,-113.4246"/>
<polygon fill="#cccccc" stroke="#cccccc" points="163.7501,-113.4132 162,-108.4133 160.2501,-113.4133 163.7501,-113.4132"/>
</g>
<!-- 4&#45;&gt;7 -->
<g id="edge4" class="edge">
<title>4&#45;&gt;7</title>
<path fill="none" stroke="#cccccc" d="M215.8314,-143.8314C203.1058,-131.1058 186.4034,-114.4034 174.9992,-102.9992"/>
<polygon fill="#cccccc" stroke="#cccccc" points="176.1212,-101.6463 171.3481,-99.3481 173.6463,-104.1211 176.1212,-101.6463"/>
</g>
<!-- 5&#45;&gt;7 -->
<g id="edge5" class="edge">
<title>5&#45;&gt;7</title>
<path fill="none" stroke="#cccccc" d="M287.7623,-152.8811C259.6914,-138.8457 206.2899,-112.145 178.991,-98.4955"/>
<polygon fill="#cccccc" stroke="#cccccc" points="179.4642,-96.7756 174.2094,-96.1047 177.8989,-99.9061 179.4642,-96.7756"/>
</g>
<!-- 7&#45;&gt;6 -->
<g id="edge6" class="edge">
<title>7&#45;&gt;6</title>
<path fill="none" stroke="#cccccc" d="M162,-71.8314C162,-62.6078 162,-51.295 162,-41.4246"/>
<polygon fill="#cccccc" stroke="#cccccc" points="163.7501,-41.4132 162,-36.4133 160.2501,-41.4133 163.7501,-41.4132"/>
</g>
<!-- 1 -->
<g id="node1" class="node">
<title>1</title>
<polygon fill="#f0f8ff" stroke="#b3b3b3" points="36,-180 0,-180 0,-144 36,-144 36,-180"/>
<text text-anchor="middle" x="18" y="-159" font-family="Helvetica,sans-Serif" font-size="10.00" fill="#000000">ref</text>
</g>
<!-- 2 -->
<g id="node2" class="node">
<title>2</title>
<polygon fill="#f0f8ff" stroke="#b3b3b3" points="108,-180 72,-180 72,-144 108,-144 108,-180"/>
<text text-anchor="middle" x="90" y="-159" font-family="Helvetica,sans-Serif" font-size="10.00" fill="#000000">gtf</text>
</g>
<!-- 3 -->
<g id="node3" class="node">
<title>3</title>
<polygon fill="#f0f8ff" stroke="#b3b3b3" points="180,-180 144,-180 144,-144 180,-144 180,-180"/>
<text text-anchor="middle" x="162" y="-159" font-family="Helvetica,sans-Serif" font-size="10.00" fill="#000000">genomeDir</text>
</g>
<!-- 4 -->
<g id="node4" class="node">
<title>4</title>
<polygon fill="#f0f8ff" stroke="#b3b3b3" points="252,-180 216,-180 216,-144 252,-144 252,-180"/>
<text text-anchor="middle" x="234" y="-159" font-family="Helvetica,sans-Serif" font-size="10.00" fill="#000000">threads</text>
</g>
<!-- 5 -->
<g id="node5" class="node">
<title>5</title>
<polygon fill="#f0f8ff" stroke="#b3b3b3" points="324,-180 288,-180 288,-144 324,-144 324,-180"/>
<text text-anchor="middle" x="306" y="-159" font-family="Helvetica,sans-Serif" font-size="10.00" fill="#000000">sjdb</text>
</g>
<!-- 6 -->
<g id="node6" class="node">
<title>6</title>
<ellipse fill="#f0f8ff" stroke="#b3b3b3" cx="162" cy="-18" rx="18" ry="18"/>
<text text-anchor="middle" x="162" y="-15" font-family="Helvetica,sans-Serif" font-size="10.00" fill="#000000">idx</text>
</g>
<!-- 7 -->
<g id="node7" class="node">
<title>7</title>
<polygon fill="#f0f8ff" stroke="#b3b3b3" points="162,-108 144,-90 162,-72 180,-90 162,-108"/>
<text text-anchor="middle" x="162" y="-87" font-family="Helvetica,sans-Serif" font-size="10.00" fill="#000000">bash</text>
</g>
</g>
</svg>

