<?xml version="1.0" encoding="UTF-8" standalone="no"?>
<!DOCTYPE svg PUBLIC "-//W3C//DTD SVG 1.1//EN"
 "http://www.w3.org/Graphics/SVG/1.1/DTD/svg11.dtd">
<!-- Generated by graphviz version 2.40.1 (20161225.0304)
 -->
<!-- Title: G Pages: 1 -->
<svg width="557pt" height="545pt"
 viewBox="0.00 0.00 556.89 544.60" xmlns="http://www.w3.org/2000/svg" xmlns:xlink="http://www.w3.org/1999/xlink">
<g id="graph0" class="graph" transform="scale(1 1) rotate(0) translate(4 540.6)">
<title>G</title>
<polygon fill="#eeeeee" stroke="transparent" points="-4,4 -4,-540.6 552.8878,-540.6 552.8878,4 -4,4"/>
<g id="clust1" class="cluster">
<title>cluster_inputs</title>
<polygon fill="#eeeeee" stroke="#000000" stroke-dasharray="5,2" points="9.8878,-450.8 9.8878,-528.6 540.8878,-528.6 540.8878,-450.8 9.8878,-450.8"/>
<text text-anchor="middle" x="484.8734" y="-459" font-family="Times,serif" font-size="14.00" fill="#000000">Workflow Inputs</text>
</g>
<g id="clust2" class="cluster">
<title>cluster_outputs</title>
<polygon fill="#eeeeee" stroke="#000000" stroke-dasharray="5,2" points="237.8878,-8 237.8878,-85.8 358.8878,-85.8 358.8878,-8 237.8878,-8"/>
<text text-anchor="middle" x="298.2051" y="-16.2" font-family="Times,serif" font-size="14.00" fill="#000000">Workflow Outputs</text>
</g>
<!-- mergeEvents -->
<g id="node1" class="node">
<title>mergeEvents</title>
<polygon fill="#fafad2" stroke="#000000" points="136.3464,-333.3 136.3464,-369.3 225.4292,-369.3 225.4292,-333.3 136.3464,-333.3"/>
<text text-anchor="middle" x="180.8878" y="-347.1" font-family="Times,serif" font-size="14.00" fill="#000000">mergeEvents</text>
</g>
<!-- diffSplice -->
<g id="node2" class="node">
<title>diffSplice</title>
<polygon fill="#fafad2" stroke="#000000" points="262.2854,-114.3 262.2854,-150.3 333.4902,-150.3 333.4902,-114.3 262.2854,-114.3"/>
<text text-anchor="middle" x="297.8878" y="-128.1" font-family="Times,serif" font-size="14.00" fill="#000000">diffSplice</text>
</g>
<!-- mergeEvents&#45;&gt;diffSplice -->
<g id="edge1" class="edge">
<title>mergeEvents&#45;&gt;diffSplice</title>
<path fill="none" stroke="#000000" d="M175.6818,-333.2315C167.5143,-300.9327 155.467,-232.4129 184.8878,-186.8 199.9334,-163.4739 228.003,-149.8657 252.4009,-142.0808"/>
<polygon fill="#000000" stroke="#000000" points="253.6292,-145.3677 262.2325,-139.1844 251.651,-138.653 253.6292,-145.3677"/>
</g>
<!-- psiPerEvent -->
<g id="node8" class="node">
<title>psiPerEvent</title>
<polygon fill="#fafad2" stroke="#000000" points="210.0624,-260.3 210.0624,-296.3 293.7132,-296.3 293.7132,-260.3 210.0624,-260.3"/>
<text text-anchor="middle" x="251.8878" y="-274.1" font-family="Times,serif" font-size="14.00" fill="#000000">psiPerEvent</text>
</g>
<!-- mergeEvents&#45;&gt;psiPerEvent -->
<g id="edge7" class="edge">
<title>mergeEvents&#45;&gt;psiPerEvent</title>
<path fill="none" stroke="#000000" d="M198.4384,-333.2551C207.1428,-324.3054 217.801,-313.347 227.3034,-303.5769"/>
<polygon fill="#000000" stroke="#000000" points="229.8299,-305.9992 234.2931,-296.3904 224.8118,-301.1187 229.8299,-305.9992"/>
</g>
<!-- res -->
<g id="node17" class="node">
<title>res</title>
<polygon fill="#94ddf4" stroke="#000000" points="270.8878,-41.3 270.8878,-77.3 324.8878,-77.3 324.8878,-41.3 270.8878,-41.3"/>
<text text-anchor="middle" x="297.5477" y="-55.1" font-family="Times,serif" font-size="14.00" fill="#000000">res</text>
</g>
<!-- diffSplice&#45;&gt;res -->
<g id="edge22" class="edge">
<title>diffSplice&#45;&gt;res</title>
<path fill="none" stroke="#000000" d="M297.8878,-114.2551C297.8878,-106.1828 297.8878,-96.4764 297.8878,-87.4817"/>
<polygon fill="#000000" stroke="#000000" points="301.3879,-87.3903 297.8878,-77.3904 294.3879,-87.3904 301.3879,-87.3903"/>
</g>
<!-- splitExpG2 -->
<g id="node3" class="node">
<title>splitExpG2</title>
<polygon fill="#fafad2" stroke="#000000" points="0,-333.3 0,-369.3 79.7756,-369.3 79.7756,-333.3 0,-333.3"/>
<text text-anchor="middle" x="39.8878" y="-347.1" font-family="Times,serif" font-size="14.00" fill="#000000">splitExpG2</text>
</g>
<!-- splitExpG2&#45;&gt;diffSplice -->
<g id="edge2" class="edge">
<title>splitExpG2&#45;&gt;diffSplice</title>
<path fill="none" stroke="#000000" d="M48.6916,-333.0894C66.1335,-298.9823 108.4194,-225.4389 165.8878,-186.8 192.4332,-168.9522 225.7489,-155.2516 252.2686,-146.0512"/>
<polygon fill="#000000" stroke="#000000" points="253.7137,-149.2576 262.0714,-142.7461 251.4773,-142.6245 253.7137,-149.2576"/>
</g>
<!-- splitEventsG1 -->
<g id="node4" class="node">
<title>splitEventsG1</title>
<polygon fill="#fafad2" stroke="#000000" points="307.2251,-187.3 307.2251,-223.3 402.5505,-223.3 402.5505,-187.3 307.2251,-187.3"/>
<text text-anchor="middle" x="354.8878" y="-201.1" font-family="Times,serif" font-size="14.00" fill="#000000">splitEventsG1</text>
</g>
<!-- splitEventsG1&#45;&gt;diffSplice -->
<g id="edge3" class="edge">
<title>splitEventsG1&#45;&gt;diffSplice</title>
<path fill="none" stroke="#000000" d="M340.7979,-187.2551C334.0154,-178.5686 325.7552,-167.9898 318.3001,-158.442"/>
<polygon fill="#000000" stroke="#000000" points="320.9262,-156.1182 312.0131,-150.3904 315.4089,-160.4263 320.9262,-156.1182"/>
</g>
<!-- splitEventsG2 -->
<g id="node5" class="node">
<title>splitEventsG2</title>
<polygon fill="#fafad2" stroke="#000000" points="194.2251,-187.3 194.2251,-223.3 289.5505,-223.3 289.5505,-187.3 194.2251,-187.3"/>
<text text-anchor="middle" x="241.8878" y="-201.1" font-family="Times,serif" font-size="14.00" fill="#000000">splitEventsG2</text>
</g>
<!-- splitEventsG2&#45;&gt;diffSplice -->
<g id="edge4" class="edge">
<title>splitEventsG2&#45;&gt;diffSplice</title>
<path fill="none" stroke="#000000" d="M255.7305,-187.2551C262.394,-178.5686 270.5093,-167.9898 277.8337,-158.442"/>
<polygon fill="#000000" stroke="#000000" points="280.7006,-160.455 284.0103,-150.3904 275.1466,-156.1944 280.7006,-160.455"/>
</g>
<!-- splitExpG1 -->
<g id="node6" class="node">
<title>splitExpG1</title>
<polygon fill="#fafad2" stroke="#000000" points="389,-333.3 389,-369.3 468.7756,-369.3 468.7756,-333.3 389,-333.3"/>
<text text-anchor="middle" x="428.8878" y="-347.1" font-family="Times,serif" font-size="14.00" fill="#000000">splitExpG1</text>
</g>
<!-- splitExpG1&#45;&gt;diffSplice -->
<g id="edge5" class="edge">
<title>splitExpG1&#45;&gt;diffSplice</title>
<path fill="none" stroke="#000000" d="M432.3065,-333.2843C437.4247,-300.7688 443.3957,-231.5075 411.8878,-186.8 395.8382,-164.0268 367.6558,-150.4359 343.3288,-142.5214"/>
<polygon fill="#000000" stroke="#000000" points="344.1199,-139.1043 333.535,-139.5642 342.0964,-145.8054 344.1199,-139.1043"/>
</g>
<!-- genEvents -->
<g id="node7" class="node">
<title>genEvents</title>
<polygon fill="#fafad2" stroke="#000000" points="135.7293,-406.3 135.7293,-442.3 210.0463,-442.3 210.0463,-406.3 135.7293,-406.3"/>
<text text-anchor="middle" x="172.8878" y="-420.1" font-family="Times,serif" font-size="14.00" fill="#000000">genEvents</text>
</g>
<!-- genEvents&#45;&gt;mergeEvents -->
<g id="edge6" class="edge">
<title>genEvents&#45;&gt;mergeEvents</title>
<path fill="none" stroke="#000000" d="M174.8653,-406.2551C175.75,-398.1828 176.8137,-388.4764 177.7994,-379.4817"/>
<polygon fill="#000000" stroke="#000000" points="181.295,-379.7122 178.9053,-369.3904 174.3367,-378.9495 181.295,-379.7122"/>
</g>
<!-- psiPerEvent&#45;&gt;splitEventsG1 -->
<g id="edge9" class="edge">
<title>psiPerEvent&#45;&gt;splitEventsG1</title>
<path fill="none" stroke="#000000" d="M277.3485,-260.2551C290.4712,-250.9545 306.655,-239.4844 320.8368,-229.4332"/>
<polygon fill="#000000" stroke="#000000" points="323.2282,-232.0283 329.363,-223.3904 319.1805,-226.3172 323.2282,-232.0283"/>
</g>
<!-- psiPerEvent&#45;&gt;splitEventsG2 -->
<g id="edge10" class="edge">
<title>psiPerEvent&#45;&gt;splitEventsG2</title>
<path fill="none" stroke="#000000" d="M249.4159,-260.2551C248.3101,-252.1828 246.9805,-242.4764 245.7483,-233.4817"/>
<polygon fill="#000000" stroke="#000000" points="249.1908,-232.8228 244.3659,-223.3904 242.2556,-233.7729 249.1908,-232.8228"/>
</g>
<!-- quantMerge -->
<g id="node9" class="node">
<title>quantMerge</title>
<polygon fill="#fafad2" stroke="#000000" points="228.068,-406.3 228.068,-442.3 311.7076,-442.3 311.7076,-406.3 228.068,-406.3"/>
<text text-anchor="middle" x="269.8878" y="-420.1" font-family="Times,serif" font-size="14.00" fill="#000000">quantMerge</text>
</g>
<!-- quantMerge&#45;&gt;splitExpG2 -->
<g id="edge12" class="edge">
<title>quantMerge&#45;&gt;splitExpG2</title>
<path fill="none" stroke="#000000" d="M227.924,-408.8806C224.8724,-407.8199 221.8365,-406.7829 218.8878,-405.8 175.5071,-391.3389 125.7124,-376.303 89.6737,-365.6966"/>
<polygon fill="#000000" stroke="#000000" points="90.4714,-362.2832 79.8905,-362.8268 88.5009,-369.0002 90.4714,-362.2832"/>
</g>
<!-- quantMerge&#45;&gt;splitExpG1 -->
<g id="edge11" class="edge">
<title>quantMerge&#45;&gt;splitExpG1</title>
<path fill="none" stroke="#000000" d="M309.1912,-406.2551C330.6908,-396.3841 357.5131,-384.0695 380.3144,-373.601"/>
<polygon fill="#000000" stroke="#000000" points="381.8579,-376.7437 389.4855,-369.3904 378.9372,-370.3821 381.8579,-376.7437"/>
</g>
<!-- quantMerge&#45;&gt;psiPerEvent -->
<g id="edge8" class="edge">
<title>quantMerge&#45;&gt;psiPerEvent</title>
<path fill="none" stroke="#000000" d="M267.6445,-406.1042C264.5725,-381.1868 259.0254,-336.1938 255.4,-306.7877"/>
<polygon fill="#000000" stroke="#000000" points="258.8568,-306.2217 254.1594,-296.7251 251.9094,-307.0783 258.8568,-306.2217"/>
</g>
<!-- method -->
<g id="node10" class="node">
<title>method</title>
<polygon fill="#94ddf4" stroke="#000000" points="474.8899,-484.1 474.8899,-520.1 532.8857,-520.1 532.8857,-484.1 474.8899,-484.1"/>
<text text-anchor="middle" x="503.8878" y="-497.9" font-family="Times,serif" font-size="14.00" fill="#000000">method</text>
</g>
<!-- method&#45;&gt;diffSplice -->
<g id="edge13" class="edge">
<title>method&#45;&gt;diffSplice</title>
<path fill="none" stroke="#000000" d="M503.0975,-483.9983C501.9318,-455.6926 499.8878,-399.2273 499.8878,-351.3 499.8878,-351.3 499.8878,-351.3 499.8878,-278.3 499.8878,-201.6045 403.0545,-161.1235 343.4764,-143.4753"/>
<polygon fill="#000000" stroke="#000000" points="344.1129,-140.0173 333.5364,-140.639 342.1922,-146.7486 344.1129,-140.0173"/>
</g>
<!-- gtf -->
<g id="node11" class="node">
<title>gtf</title>
<polygon fill="#94ddf4" stroke="#000000" points="91.8878,-484.1 91.8878,-520.1 145.8878,-520.1 145.8878,-484.1 91.8878,-484.1"/>
<text text-anchor="middle" x="118.6634" y="-497.9" font-family="Times,serif" font-size="14.00" fill="#000000">gtf</text>
</g>
<!-- gtf&#45;&gt;genEvents -->
<g id="edge14" class="edge">
<title>gtf&#45;&gt;genEvents</title>
<path fill="none" stroke="#000000" d="M131.4122,-484.0556C138.2467,-474.2089 146.8381,-461.8309 154.4264,-450.8982"/>
<polygon fill="#000000" stroke="#000000" points="157.4175,-452.7269 160.2442,-442.5161 151.6669,-448.7355 157.4175,-452.7269"/>
</g>
<!-- qcnames -->
<g id="node12" class="node">
<title>qcnames</title>
<polygon fill="#94ddf4" stroke="#000000" points="318.3983,-484.1 318.3983,-520.1 383.3773,-520.1 383.3773,-484.1 318.3983,-484.1"/>
<text text-anchor="middle" x="350.8878" y="-497.9" font-family="Times,serif" font-size="14.00" fill="#000000">qcnames</text>
</g>
<!-- qcnames&#45;&gt;quantMerge -->
<g id="edge15" class="edge">
<title>qcnames&#45;&gt;quantMerge</title>
<path fill="none" stroke="#000000" d="M338.042,-483.9073C330.2601,-473.5681 319.7601,-460.7431 308.8878,-450.8 308.2007,-450.1716 307.4976,-449.5467 306.7814,-448.9263"/>
<polygon fill="#000000" stroke="#000000" points="308.7268,-446.0007 298.7301,-442.4914 304.3565,-451.4688 308.7268,-446.0007"/>
</g>
<!-- qcolumn -->
<g id="node13" class="node">
<title>qcolumn</title>
<polygon fill="#94ddf4" stroke="#000000" points="235.3899,-484.1 235.3899,-520.1 300.3857,-520.1 300.3857,-484.1 235.3899,-484.1"/>
<text text-anchor="middle" x="267.8878" y="-497.9" font-family="Times,serif" font-size="14.00" fill="#000000">qcolumn</text>
</g>
<!-- qcolumn&#45;&gt;quantMerge -->
<g id="edge16" class="edge">
<title>qcolumn&#45;&gt;quantMerge</title>
<path fill="none" stroke="#000000" d="M268.3517,-484.0556C268.5923,-474.6963 268.8916,-463.0503 269.162,-452.532"/>
<polygon fill="#000000" stroke="#000000" points="272.6613,-452.6028 269.4195,-442.5161 265.6636,-452.4228 272.6613,-452.6028"/>
</g>
<!-- quant -->
<g id="node14" class="node">
<title>quant</title>
<polygon fill="#94ddf4" stroke="#000000" points="163.8878,-484.1 163.8878,-520.1 217.8878,-520.1 217.8878,-484.1 163.8878,-484.1"/>
<text text-anchor="middle" x="190.4404" y="-497.9" font-family="Times,serif" font-size="14.00" fill="#000000">quant</text>
</g>
<!-- quant&#45;&gt;quantMerge -->
<g id="edge17" class="edge">
<title>quant&#45;&gt;quantMerge</title>
<path fill="none" stroke="#000000" d="M201.2851,-483.6125C207.7509,-473.1751 216.7509,-460.3501 226.8878,-450.8 227.6856,-450.0484 228.5081,-449.3069 229.3508,-448.5765"/>
<polygon fill="#000000" stroke="#000000" points="231.6363,-451.2327 237.3674,-442.3217 227.3302,-445.7138 231.6363,-451.2327"/>
</g>
<!-- group1 -->
<g id="node15" class="node">
<title>group1</title>
<polygon fill="#94ddf4" stroke="#000000" points="401.0575,-484.1 401.0575,-520.1 456.7181,-520.1 456.7181,-484.1 401.0575,-484.1"/>
<text text-anchor="middle" x="428.8878" y="-497.9" font-family="Times,serif" font-size="14.00" fill="#000000">group1</text>
</g>
<!-- group1&#45;&gt;splitEventsG1 -->
<g id="edge18" class="edge">
<title>group1&#45;&gt;splitEventsG1</title>
<path fill="none" stroke="#000000" d="M420.8664,-484.0712C410.0034,-458.9521 390.7297,-411.7759 379.8878,-369.8 367.7508,-322.8098 360.7767,-266.6463 357.4164,-233.5888"/>
<polygon fill="#000000" stroke="#000000" points="360.8682,-232.9231 356.4131,-223.3105 353.9013,-233.6033 360.8682,-232.9231"/>
</g>
<!-- group1&#45;&gt;splitExpG1 -->
<g id="edge19" class="edge">
<title>group1&#45;&gt;splitExpG1</title>
<path fill="none" stroke="#000000" d="M428.8878,-483.91C428.8878,-457.9825 428.8878,-410.1606 428.8878,-379.5858"/>
<polygon fill="#000000" stroke="#000000" points="432.3879,-379.5545 428.8878,-369.5545 425.3879,-379.5545 432.3879,-379.5545"/>
</g>
<!-- group2 -->
<g id="node16" class="node">
<title>group2</title>
<polygon fill="#94ddf4" stroke="#000000" points="18.0575,-484.1 18.0575,-520.1 73.7181,-520.1 73.7181,-484.1 18.0575,-484.1"/>
<text text-anchor="middle" x="45.8878" y="-497.9" font-family="Times,serif" font-size="14.00" fill="#000000">group2</text>
</g>
<!-- group2&#45;&gt;splitExpG2 -->
<g id="edge21" class="edge">
<title>group2&#45;&gt;splitExpG2</title>
<path fill="none" stroke="#000000" d="M45.1641,-483.91C44.1325,-457.9825 42.2297,-410.1606 41.0132,-379.5858"/>
<polygon fill="#000000" stroke="#000000" points="44.509,-379.4074 40.6141,-369.5545 37.5145,-379.6858 44.509,-379.4074"/>
</g>
<!-- group2&#45;&gt;splitEventsG2 -->
<g id="edge20" class="edge">
<title>group2&#45;&gt;splitEventsG2</title>
<path fill="none" stroke="#000000" d="M52.5871,-483.8952C64.802,-451.8621 92.622,-383.9686 126.8878,-332.8 152.8924,-293.9677 190.1778,-254.8783 215.1732,-230.4114"/>
<polygon fill="#000000" stroke="#000000" points="217.7626,-232.776 222.5098,-223.3042 212.8921,-227.7483 217.7626,-232.776"/>
</g>
</g>
</svg>

