<?xml version="1.0" encoding="UTF-8" standalone="no"?>
<!DOCTYPE svg PUBLIC "-//W3C//DTD SVG 1.1//EN"
 "http://www.w3.org/Graphics/SVG/1.1/DTD/svg11.dtd">
<!-- Generated by graphviz version 2.40.1 (20161225.0304)
 -->
<!-- Title: G Pages: 1 -->
<svg width="310pt" height="472pt"
 viewBox="0.00 0.00 310.00 471.60" xmlns="http://www.w3.org/2000/svg" xmlns:xlink="http://www.w3.org/1999/xlink">
<g id="graph0" class="graph" transform="scale(1 1) rotate(0) translate(4 467.6)">
<title>G</title>
<polygon fill="#eeeeee" stroke="transparent" points="-4,4 -4,-467.6 306,-467.6 306,4 -4,4"/>
<g id="clust1" class="cluster">
<title>cluster_inputs</title>
<polygon fill="#eeeeee" stroke="#000000" stroke-dasharray="5,2" points="8,-377.8 8,-455.6 294,-455.6 294,-377.8 8,-377.8"/>
<text text-anchor="middle" x="237.9856" y="-386" font-family="Times,serif" font-size="14.00" fill="#000000">Workflow Inputs</text>
</g>
<g id="clust2" class="cluster">
<title>cluster_outputs</title>
<polygon fill="#eeeeee" stroke="#000000" stroke-dasharray="5,2" points="52,-8 52,-85.8 266,-85.8 266,-8 52,-8"/>
<text text-anchor="middle" x="205.3173" y="-16.2" font-family="Times,serif" font-size="14.00" fill="#000000">Workflow Outputs</text>
</g>
<!-- somatic -->
<g id="node1" class="node">
<title>somatic</title>
<polygon fill="#fafad2" stroke="#000000" points="134.2272,-260.3 134.2272,-296.3 193.7728,-296.3 193.7728,-260.3 134.2272,-260.3"/>
<text text-anchor="middle" x="164" y="-274.1" font-family="Times,serif" font-size="14.00" fill="#000000">somatic</text>
</g>
<!-- processSomatic -->
<g id="node2" class="node">
<title>processSomatic</title>
<polygon fill="#fafad2" stroke="#000000" points="80.0687,-187.3 80.0687,-223.3 183.9313,-223.3 183.9313,-187.3 80.0687,-187.3"/>
<text text-anchor="middle" x="132" y="-201.1" font-family="Times,serif" font-size="14.00" fill="#000000">processSomatic</text>
</g>
<!-- somatic&#45;&gt;processSomatic -->
<g id="edge1" class="edge">
<title>somatic&#45;&gt;processSomatic</title>
<path fill="none" stroke="#000000" d="M156.0899,-260.2551C152.436,-251.9196 148.0182,-241.8416 143.969,-232.6042"/>
<polygon fill="#000000" stroke="#000000" points="147.1504,-231.1439 139.93,-223.3904 140.7393,-233.9542 147.1504,-231.1439"/>
</g>
<!-- somaticFilter -->
<g id="node5" class="node">
<title>somaticFilter</title>
<polygon fill="#fafad2" stroke="#000000" points="114.0624,-114.3 114.0624,-150.3 203.9376,-150.3 203.9376,-114.3 114.0624,-114.3"/>
<text text-anchor="middle" x="159" y="-128.1" font-family="Times,serif" font-size="14.00" fill="#000000">somaticFilter</text>
</g>
<!-- somatic&#45;&gt;somaticFilter -->
<g id="edge4" class="edge">
<title>somatic&#45;&gt;somaticFilter</title>
<path fill="none" stroke="#000000" d="M176.6134,-260.0582C182.8783,-249.8847 189.7828,-236.695 193,-223.8 196.9808,-207.8446 197.5269,-202.6091 193,-186.8 190.2202,-177.0923 185.1533,-167.4337 179.765,-159.0039"/>
<polygon fill="#000000" stroke="#000000" points="182.6393,-157.0065 174.1159,-150.7135 176.8546,-160.9483 182.6393,-157.0065"/>
</g>
<!-- sIndel -->
<g id="node10" class="node">
<title>sIndel</title>
<polygon fill="#94ddf4" stroke="#000000" points="60,-41.3 60,-77.3 114,-77.3 114,-41.3 60,-41.3"/>
<text text-anchor="middle" x="86.6052" y="-55.1" font-family="Times,serif" font-size="14.00" fill="#000000">sIndel</text>
</g>
<!-- somatic&#45;&gt;sIndel -->
<g id="edge14" class="edge">
<title>somatic&#45;&gt;sIndel</title>
<path fill="none" stroke="#000000" d="M133.867,-269.5588C112.1494,-261.5028 84.3984,-247.1813 71,-223.8 46.4591,-180.9742 62.1231,-121.4273 75.0412,-86.9675"/>
<polygon fill="#000000" stroke="#000000" points="78.3473,-88.1236 78.7451,-77.5362 71.8318,-85.5647 78.3473,-88.1236"/>
</g>
<!-- sSnp -->
<g id="node11" class="node">
<title>sSnp</title>
<polygon fill="#94ddf4" stroke="#000000" points="204,-41.3 204,-77.3 258,-77.3 258,-41.3 204,-41.3"/>
<text text-anchor="middle" x="230.6136" y="-55.1" font-family="Times,serif" font-size="14.00" fill="#000000">sSnp</text>
</g>
<!-- somatic&#45;&gt;sSnp -->
<g id="edge15" class="edge">
<title>somatic&#45;&gt;sSnp</title>
<path fill="none" stroke="#000000" d="M183.1456,-259.8346C192.1651,-250.0006 202.1958,-237.1887 208,-223.8 227.4573,-178.9171 231.2272,-121.2836 231.5564,-87.5069"/>
<polygon fill="#000000" stroke="#000000" points="235.0564,-87.4257 231.558,-77.4252 228.0564,-87.4246 235.0564,-87.4257"/>
</g>
<!-- processSomatic&#45;&gt;somaticFilter -->
<g id="edge5" class="edge">
<title>processSomatic&#45;&gt;somaticFilter</title>
<path fill="none" stroke="#000000" d="M138.6742,-187.2551C141.7247,-179.0074 145.4062,-169.0536 148.7932,-159.8962"/>
<polygon fill="#000000" stroke="#000000" points="152.1227,-160.9836 152.309,-150.3904 145.5574,-158.5552 152.1227,-160.9836"/>
</g>
<!-- mpileupT -->
<g id="node3" class="node">
<title>mpileupT</title>
<polygon fill="#fafad2" stroke="#000000" points="160.7805,-333.3 160.7805,-369.3 231.2195,-369.3 231.2195,-333.3 160.7805,-333.3"/>
<text text-anchor="middle" x="196" y="-347.1" font-family="Times,serif" font-size="14.00" fill="#000000">mpileupT</text>
</g>
<!-- mpileupT&#45;&gt;somatic -->
<g id="edge2" class="edge">
<title>mpileupT&#45;&gt;somatic</title>
<path fill="none" stroke="#000000" d="M188.0899,-333.2551C184.436,-324.9196 180.0182,-314.8416 175.969,-305.6042"/>
<polygon fill="#000000" stroke="#000000" points="179.1504,-304.1439 171.93,-296.3904 172.7393,-306.9542 179.1504,-304.1439"/>
</g>
<!-- mpileupN -->
<g id="node4" class="node">
<title>mpileupN</title>
<polygon fill="#fafad2" stroke="#000000" points="71.0035,-333.3 71.0035,-369.3 142.9965,-369.3 142.9965,-333.3 71.0035,-333.3"/>
<text text-anchor="middle" x="107" y="-347.1" font-family="Times,serif" font-size="14.00" fill="#000000">mpileupN</text>
</g>
<!-- mpileupN&#45;&gt;somatic -->
<g id="edge3" class="edge">
<title>mpileupN&#45;&gt;somatic</title>
<path fill="none" stroke="#000000" d="M121.0899,-333.2551C127.8724,-324.5686 136.1326,-313.9898 143.5877,-304.442"/>
<polygon fill="#000000" stroke="#000000" points="146.4789,-306.4263 149.8747,-296.3904 140.9616,-302.1182 146.4789,-306.4263"/>
</g>
<!-- sVcf -->
<g id="node12" class="node">
<title>sVcf</title>
<polygon fill="#94ddf4" stroke="#000000" points="132,-41.3 132,-77.3 186,-77.3 186,-41.3 132,-41.3"/>
<text text-anchor="middle" x="158.7132" y="-55.1" font-family="Times,serif" font-size="14.00" fill="#000000">sVcf</text>
</g>
<!-- somaticFilter&#45;&gt;sVcf -->
<g id="edge16" class="edge">
<title>somaticFilter&#45;&gt;sVcf</title>
<path fill="none" stroke="#000000" d="M159,-114.2551C159,-106.1828 159,-96.4764 159,-87.4817"/>
<polygon fill="#000000" stroke="#000000" points="162.5001,-87.3903 159,-77.3904 155.5001,-87.3904 162.5001,-87.3903"/>
</g>
<!-- nbam -->
<g id="node6" class="node">
<title>nbam</title>
<polygon fill="#94ddf4" stroke="#000000" points="16,-411.1 16,-447.1 70,-447.1 70,-411.1 16,-411.1"/>
<text text-anchor="middle" x="42.5526" y="-424.9" font-family="Times,serif" font-size="14.00" fill="#000000">nbam</text>
</g>
<!-- nbam&#45;&gt;mpileupN -->
<g id="edge6" class="edge">
<title>nbam&#45;&gt;mpileupN</title>
<path fill="none" stroke="#000000" d="M54.4893,-410.8753C61.1778,-400.7646 70.0388,-388.1751 79,-377.8 79.3062,-377.4454 79.6167,-377.0904 79.9308,-376.7353"/>
<polygon fill="#000000" stroke="#000000" points="82.5839,-379.0239 86.9194,-369.3567 77.5017,-374.2103 82.5839,-379.0239"/>
</g>
<!-- nbam&#45;&gt;somaticFilter -->
<g id="edge7" class="edge">
<title>nbam&#45;&gt;somaticFilter</title>
<path fill="none" stroke="#000000" d="M40.0921,-410.9446C34.2248,-368.1261 25.1527,-259.0143 71,-186.8 79.2962,-173.7327 91.9716,-163.2889 105.1403,-155.1826"/>
<polygon fill="#000000" stroke="#000000" points="106.8999,-158.2082 113.8241,-150.1891 103.4104,-152.14 106.8999,-158.2082"/>
</g>
<!-- ref -->
<g id="node7" class="node">
<title>ref</title>
<polygon fill="#94ddf4" stroke="#000000" points="88,-411.1 88,-447.1 142,-447.1 142,-411.1 88,-411.1"/>
<text text-anchor="middle" x="114.7679" y="-424.9" font-family="Times,serif" font-size="14.00" fill="#000000">ref</text>
</g>
<!-- ref&#45;&gt;mpileupT -->
<g id="edge9" class="edge">
<title>ref&#45;&gt;mpileupT</title>
<path fill="none" stroke="#000000" d="M125.0257,-411.0245C131.4867,-400.4743 140.6078,-387.3953 151,-377.8 151.7994,-377.0619 152.6226,-376.3348 153.4659,-375.6193"/>
<polygon fill="#000000" stroke="#000000" points="155.6532,-378.3529 161.4852,-369.5076 151.4102,-372.7854 155.6532,-378.3529"/>
</g>
<!-- ref&#45;&gt;mpileupN -->
<g id="edge8" class="edge">
<title>ref&#45;&gt;mpileupN</title>
<path fill="none" stroke="#000000" d="M113.1445,-411.0556C112.1821,-401.6963 110.9846,-390.0503 109.903,-379.532"/>
<polygon fill="#000000" stroke="#000000" points="113.3777,-379.1056 108.8731,-369.5161 106.4145,-379.8217 113.3777,-379.1056"/>
</g>
<!-- region -->
<g id="node8" class="node">
<title>region</title>
<polygon fill="#94ddf4" stroke="#000000" points="160,-411.1 160,-447.1 214,-447.1 214,-411.1 160,-411.1"/>
<text text-anchor="middle" x="186.8829" y="-424.9" font-family="Times,serif" font-size="14.00" fill="#000000">region</text>
</g>
<!-- region&#45;&gt;mpileupT -->
<g id="edge11" class="edge">
<title>region&#45;&gt;mpileupT</title>
<path fill="none" stroke="#000000" d="M189.0874,-411.0556C190.1701,-401.6963 191.5173,-390.0503 192.7341,-379.532"/>
<polygon fill="#000000" stroke="#000000" points="196.2203,-379.8521 193.8927,-369.5161 189.2667,-379.0476 196.2203,-379.8521"/>
</g>
<!-- region&#45;&gt;mpileupN -->
<g id="edge10" class="edge">
<title>region&#45;&gt;mpileupN</title>
<path fill="none" stroke="#000000" d="M176.9398,-411.0617C170.4665,-400.5248 161.3447,-387.4466 151,-377.8 150.3152,-377.1614 149.6126,-376.5307 148.8947,-375.9081"/>
<polygon fill="#000000" stroke="#000000" points="150.7841,-372.9439 140.7397,-369.5731 146.4897,-378.4719 150.7841,-372.9439"/>
</g>
<!-- tbam -->
<g id="node9" class="node">
<title>tbam</title>
<polygon fill="#94ddf4" stroke="#000000" points="232,-411.1 232,-447.1 286,-447.1 286,-411.1 232,-411.1"/>
<text text-anchor="middle" x="258.9979" y="-424.9" font-family="Times,serif" font-size="14.00" fill="#000000">tbam</text>
</g>
<!-- tbam&#45;&gt;mpileupT -->
<g id="edge12" class="edge">
<title>tbam&#45;&gt;mpileupT</title>
<path fill="none" stroke="#000000" d="M247.4375,-410.9379C240.7261,-400.8468 231.8666,-388.2561 223,-377.8 222.777,-377.537 222.5518,-377.2737 222.3245,-377.0101"/>
<polygon fill="#000000" stroke="#000000" points="224.6808,-374.4019 215.3335,-369.414 219.5301,-379.1422 224.6808,-374.4019"/>
</g>
<!-- tbam&#45;&gt;somaticFilter -->
<g id="edge13" class="edge">
<title>tbam&#45;&gt;somaticFilter</title>
<path fill="none" stroke="#000000" d="M258.4111,-410.999C256.3879,-369.2041 247.4424,-263.6776 208,-186.8 202.6638,-176.3991 194.8465,-166.4441 187.0164,-157.9546"/>
<polygon fill="#000000" stroke="#000000" points="189.364,-155.3476 179.8927,-150.5993 184.3357,-160.2176 189.364,-155.3476"/>
</g>
</g>
</svg>

