<?xml version="1.0" encoding="UTF-8" standalone="no"?>
<!DOCTYPE svg PUBLIC "-//W3C//DTD SVG 1.1//EN"
 "http://www.w3.org/Graphics/SVG/1.1/DTD/svg11.dtd">
<!-- Generated by graphviz version 2.40.1 (20161225.0304)
 -->
<!-- Title: G Pages: 1 -->
<svg width="334pt" height="618pt"
 viewBox="0.00 0.00 334.00 617.60" xmlns="http://www.w3.org/2000/svg" xmlns:xlink="http://www.w3.org/1999/xlink">
<g id="graph0" class="graph" transform="scale(1 1) rotate(0) translate(4 613.6)">
<title>G</title>
<polygon fill="#eeeeee" stroke="transparent" points="-4,4 -4,-613.6 330,-613.6 330,4 -4,4"/>
<g id="clust1" class="cluster">
<title>cluster_inputs</title>
<polygon fill="#eeeeee" stroke="#000000" stroke-dasharray="5,2" points="8,-523.8 8,-601.6 318,-601.6 318,-523.8 8,-523.8"/>
<text text-anchor="middle" x="261.9856" y="-532" font-family="Times,serif" font-size="14.00" fill="#000000">Workflow Inputs</text>
</g>
<g id="clust2" class="cluster">
<title>cluster_outputs</title>
<polygon fill="#eeeeee" stroke="#000000" stroke-dasharray="5,2" points="57,-8 57,-85.8 178,-85.8 178,-8 57,-8"/>
<text text-anchor="middle" x="117.3173" y="-16.2" font-family="Times,serif" font-size="14.00" fill="#000000">Workflow Outputs</text>
</g>
<!-- kallistoQuant -->
<g id="node1" class="node">
<title>kallistoQuant</title>
<polygon fill="#fafad2" stroke="#000000" points="154.2833,-479.3 154.2833,-515.3 245.7167,-515.3 245.7167,-479.3 154.2833,-479.3"/>
<text text-anchor="middle" x="200" y="-493.1" font-family="Times,serif" font-size="14.00" fill="#000000">kallistoQuant</text>
</g>
<!-- T2Gene -->
<g id="node2" class="node">
<title>T2Gene</title>
<polygon fill="#fafad2" stroke="#000000" points="182.4558,-406.3 182.4558,-442.3 243.5442,-442.3 243.5442,-406.3 182.4558,-406.3"/>
<text text-anchor="middle" x="213" y="-420.1" font-family="Times,serif" font-size="14.00" fill="#000000">T2Gene</text>
</g>
<!-- kallistoQuant&#45;&gt;T2Gene -->
<g id="edge1" class="edge">
<title>kallistoQuant&#45;&gt;T2Gene</title>
<path fill="none" stroke="#000000" d="M203.2135,-479.2551C204.651,-471.1828 206.3795,-461.4764 207.9813,-452.4817"/>
<polygon fill="#000000" stroke="#000000" points="211.4709,-452.8491 209.7784,-442.3904 204.5793,-451.6218 211.4709,-452.8491"/>
</g>
<!-- cleanExp -->
<g id="node5" class="node">
<title>cleanExp</title>
<polygon fill="#fafad2" stroke="#000000" points="95.9565,-406.3 95.9565,-442.3 164.0435,-442.3 164.0435,-406.3 95.9565,-406.3"/>
<text text-anchor="middle" x="130" y="-420.1" font-family="Times,serif" font-size="14.00" fill="#000000">cleanExp</text>
</g>
<!-- kallistoQuant&#45;&gt;cleanExp -->
<g id="edge3" class="edge">
<title>kallistoQuant&#45;&gt;cleanExp</title>
<path fill="none" stroke="#000000" d="M182.6966,-479.2551C174.1989,-470.3932 163.8125,-459.5616 154.514,-449.8646"/>
<polygon fill="#000000" stroke="#000000" points="156.7944,-447.1858 147.3469,-442.3904 151.7419,-452.0306 156.7944,-447.1858"/>
</g>
<!-- vcfgExpAnn -->
<g id="node3" class="node">
<title>vcfgExpAnn</title>
<polygon fill="#fafad2" stroke="#000000" points="70.2328,-260.3 70.2328,-296.3 157.7672,-296.3 157.7672,-260.3 70.2328,-260.3"/>
<text text-anchor="middle" x="114" y="-274.1" font-family="Times,serif" font-size="14.00" fill="#000000">vcfgExpAnn</text>
</g>
<!-- T2Gene&#45;&gt;vcfgExpAnn -->
<g id="edge6" class="edge">
<title>T2Gene&#45;&gt;vcfgExpAnn</title>
<path fill="none" stroke="#000000" d="M204.5821,-406.0299C195.4694,-387.0165 179.9488,-356.7322 163,-332.8 155.9474,-322.8415 147.3019,-312.6955 139.2469,-303.9002"/>
<polygon fill="#000000" stroke="#000000" points="141.7636,-301.4672 132.3751,-296.5573 136.6526,-306.2503 141.7636,-301.4672"/>
</g>
<!-- bgzip -->
<g id="node4" class="node">
<title>bgzip</title>
<polygon fill="#fafad2" stroke="#000000" points="87,-187.3 87,-223.3 141,-223.3 141,-187.3 87,-187.3"/>
<text text-anchor="middle" x="113.5526" y="-201.1" font-family="Times,serif" font-size="14.00" fill="#000000">bgzip</text>
</g>
<!-- vcfgExpAnn&#45;&gt;bgzip -->
<g id="edge2" class="edge">
<title>vcfgExpAnn&#45;&gt;bgzip</title>
<path fill="none" stroke="#000000" d="M114,-260.2551C114,-252.1828 114,-242.4764 114,-233.4817"/>
<polygon fill="#000000" stroke="#000000" points="117.5001,-233.3903 114,-223.3904 110.5001,-233.3904 117.5001,-233.3903"/>
</g>
<!-- tabixIndex -->
<g id="node6" class="node">
<title>tabixIndex</title>
<polygon fill="#fafad2" stroke="#000000" points="76.0645,-114.3 76.0645,-150.3 151.9355,-150.3 151.9355,-114.3 76.0645,-114.3"/>
<text text-anchor="middle" x="114" y="-128.1" font-family="Times,serif" font-size="14.00" fill="#000000">tabixIndex</text>
</g>
<!-- bgzip&#45;&gt;tabixIndex -->
<g id="edge4" class="edge">
<title>bgzip&#45;&gt;tabixIndex</title>
<path fill="none" stroke="#000000" d="M114,-187.2551C114,-179.1828 114,-169.4764 114,-160.4817"/>
<polygon fill="#000000" stroke="#000000" points="117.5001,-160.3903 114,-150.3904 110.5001,-160.3904 117.5001,-160.3903"/>
</g>
<!-- vcfExpAnn -->
<g id="node7" class="node">
<title>vcfExpAnn</title>
<polygon fill="#fafad2" stroke="#000000" points="73.7328,-333.3 73.7328,-369.3 154.2672,-369.3 154.2672,-333.3 73.7328,-333.3"/>
<text text-anchor="middle" x="114" y="-347.1" font-family="Times,serif" font-size="14.00" fill="#000000">vcfExpAnn</text>
</g>
<!-- cleanExp&#45;&gt;vcfExpAnn -->
<g id="edge5" class="edge">
<title>cleanExp&#45;&gt;vcfExpAnn</title>
<path fill="none" stroke="#000000" d="M126.0449,-406.2551C124.2565,-398.0951 122.102,-388.2652 120.1126,-379.1887"/>
<polygon fill="#000000" stroke="#000000" points="123.5249,-378.4091 117.965,-369.3904 116.6872,-379.9079 123.5249,-378.4091"/>
</g>
<!-- ExpVcf -->
<g id="node12" class="node">
<title>ExpVcf</title>
<polygon fill="#94ddf4" stroke="#000000" points="84.2328,-41.3 84.2328,-77.3 143.7672,-77.3 143.7672,-41.3 84.2328,-41.3"/>
<text text-anchor="middle" x="114" y="-55.1" font-family="Times,serif" font-size="14.00" fill="#000000">ExpVcf</text>
</g>
<!-- tabixIndex&#45;&gt;ExpVcf -->
<g id="edge13" class="edge">
<title>tabixIndex&#45;&gt;ExpVcf</title>
<path fill="none" stroke="#000000" d="M114,-114.2551C114,-106.1828 114,-96.4764 114,-87.4817"/>
<polygon fill="#000000" stroke="#000000" points="117.5001,-87.3903 114,-77.3904 110.5001,-87.3904 117.5001,-87.3903"/>
</g>
<!-- vcfExpAnn&#45;&gt;vcfgExpAnn -->
<g id="edge7" class="edge">
<title>vcfExpAnn&#45;&gt;vcfgExpAnn</title>
<path fill="none" stroke="#000000" d="M114,-333.2551C114,-325.1828 114,-315.4764 114,-306.4817"/>
<polygon fill="#000000" stroke="#000000" points="117.5001,-306.3903 114,-296.3904 110.5001,-306.3904 117.5001,-306.3903"/>
</g>
<!-- rnafqs -->
<g id="node8" class="node">
<title>rnafqs</title>
<polygon fill="#94ddf4" stroke="#000000" points="256,-557.1 256,-593.1 310,-593.1 310,-557.1 256,-557.1"/>
<text text-anchor="middle" x="282.9902" y="-570.9" font-family="Times,serif" font-size="14.00" fill="#000000">rnafqs</text>
</g>
<!-- rnafqs&#45;&gt;kallistoQuant -->
<g id="edge8" class="edge">
<title>rnafqs&#45;&gt;kallistoQuant</title>
<path fill="none" stroke="#000000" d="M273.0396,-556.9532C266.6017,-546.3777 257.482,-533.2972 247,-523.8 246.167,-523.0452 245.3088,-522.303 244.4296,-521.5738"/>
<polygon fill="#000000" stroke="#000000" points="246.1821,-518.5163 236.0636,-515.3754 242.0149,-524.1408 246.1821,-518.5163"/>
</g>
<!-- kallistoIdx -->
<g id="node9" class="node">
<title>kallistoIdx</title>
<polygon fill="#94ddf4" stroke="#000000" points="162.0589,-557.1 162.0589,-593.1 237.9411,-593.1 237.9411,-557.1 162.0589,-557.1"/>
<text text-anchor="middle" x="200" y="-570.9" font-family="Times,serif" font-size="14.00" fill="#000000">kallistoIdx</text>
</g>
<!-- kallistoIdx&#45;&gt;kallistoQuant -->
<g id="edge9" class="edge">
<title>kallistoIdx&#45;&gt;kallistoQuant</title>
<path fill="none" stroke="#000000" d="M200,-557.0556C200,-547.6963 200,-536.0503 200,-525.532"/>
<polygon fill="#000000" stroke="#000000" points="203.5001,-525.516 200,-515.5161 196.5001,-525.5161 203.5001,-525.516"/>
</g>
<!-- threads -->
<g id="node10" class="node">
<title>threads</title>
<polygon fill="#94ddf4" stroke="#000000" points="87.7875,-557.1 87.7875,-593.1 144.2125,-593.1 144.2125,-557.1 87.7875,-557.1"/>
<text text-anchor="middle" x="116" y="-570.9" font-family="Times,serif" font-size="14.00" fill="#000000">threads</text>
</g>
<!-- threads&#45;&gt;kallistoQuant -->
<g id="edge10" class="edge">
<title>threads&#45;&gt;kallistoQuant</title>
<path fill="none" stroke="#000000" d="M126.3333,-556.9671C132.9842,-546.3966 142.3592,-533.3164 153,-523.8 153.8379,-523.0507 154.7005,-522.3133 155.5836,-521.5886"/>
<polygon fill="#000000" stroke="#000000" points="157.992,-524.1621 163.975,-515.4182 153.8451,-518.5226 157.992,-524.1621"/>
</g>
<!-- svcf -->
<g id="node11" class="node">
<title>svcf</title>
<polygon fill="#94ddf4" stroke="#000000" points="16,-557.1 16,-593.1 70,-593.1 70,-557.1 16,-557.1"/>
<text text-anchor="middle" x="42.6599" y="-570.9" font-family="Times,serif" font-size="14.00" fill="#000000">svcf</text>
</g>
<!-- svcf&#45;&gt;vcfgExpAnn -->
<g id="edge12" class="edge">
<title>svcf&#45;&gt;vcfgExpAnn</title>
<path fill="none" stroke="#000000" d="M40.8505,-556.8058C36.7348,-515.0478 30.9353,-410.3362 65,-332.8 69.6629,-322.1866 77.2132,-312.2247 85.0051,-303.7948"/>
<polygon fill="#000000" stroke="#000000" points="87.6481,-306.0985 92.1529,-296.509 82.6513,-301.1962 87.6481,-306.0985"/>
</g>
<!-- svcf&#45;&gt;vcfExpAnn -->
<g id="edge11" class="edge">
<title>svcf&#45;&gt;vcfExpAnn</title>
<path fill="none" stroke="#000000" d="M46.4396,-556.9327C52.6675,-525.5218 67.0415,-459.2912 87,-405.8 90.3793,-396.7432 94.7944,-387.1944 99.0725,-378.6636"/>
<polygon fill="#000000" stroke="#000000" points="102.3027,-380.0363 103.7817,-369.5452 96.0832,-376.8242 102.3027,-380.0363"/>
</g>
</g>
</svg>

