<?xml version="1.0" encoding="UTF-8" standalone="no"?>
<!DOCTYPE svg PUBLIC "-//W3C//DTD SVG 1.1//EN"
 "http://www.w3.org/Graphics/SVG/1.1/DTD/svg11.dtd">
<!-- Generated by graphviz version 2.40.1 (20161225.0304)
 -->
<!-- Title: G Pages: 1 -->
<svg width="310pt" height="399pt"
 viewBox="0.00 0.00 310.00 398.60" xmlns="http://www.w3.org/2000/svg" xmlns:xlink="http://www.w3.org/1999/xlink">
<g id="graph0" class="graph" transform="scale(1 1) rotate(0) translate(4 394.6)">
<title>G</title>
<polygon fill="#eeeeee" stroke="transparent" points="-4,4 -4,-394.6 306,-394.6 306,4 -4,4"/>
<g id="clust1" class="cluster">
<title>cluster_inputs</title>
<polygon fill="#eeeeee" stroke="#000000" stroke-dasharray="5,2" points="8,-304.8 8,-382.6 294,-382.6 294,-304.8 8,-304.8"/>
<text text-anchor="middle" x="237.9856" y="-313" font-family="Times,serif" font-size="14.00" fill="#000000">Workflow Inputs</text>
</g>
<g id="clust2" class="cluster">
<title>cluster_outputs</title>
<polygon fill="#eeeeee" stroke="#000000" stroke-dasharray="5,2" points="77,-8 77,-85.8 198,-85.8 198,-8 77,-8"/>
<text text-anchor="middle" x="137.3173" y="-16.2" font-family="Times,serif" font-size="14.00" fill="#000000">Workflow Outputs</text>
</g>
<!-- subBam -->
<g id="node1" class="node">
<title>subBam</title>
<polygon fill="#fafad2" stroke="#000000" points="89.0568,-187.3 89.0568,-223.3 150.9432,-223.3 150.9432,-187.3 89.0568,-187.3"/>
<text text-anchor="middle" x="120" y="-201.1" font-family="Times,serif" font-size="14.00" fill="#000000">subBam</text>
</g>
<!-- idxBam -->
<g id="node2" class="node">
<title>idxBam</title>
<polygon fill="#fafad2" stroke="#000000" points="89.8338,-114.3 89.8338,-150.3 150.1662,-150.3 150.1662,-114.3 89.8338,-114.3"/>
<text text-anchor="middle" x="120" y="-128.1" font-family="Times,serif" font-size="14.00" fill="#000000">idxBam</text>
</g>
<!-- subBam&#45;&gt;idxBam -->
<g id="edge1" class="edge">
<title>subBam&#45;&gt;idxBam</title>
<path fill="none" stroke="#000000" d="M120,-187.2551C120,-179.1828 120,-169.4764 120,-160.4817"/>
<polygon fill="#000000" stroke="#000000" points="123.5001,-160.3903 120,-150.3904 116.5001,-160.3904 123.5001,-160.3903"/>
</g>
<!-- outBam -->
<g id="node8" class="node">
<title>outBam</title>
<polygon fill="#94ddf4" stroke="#000000" points="89.8338,-41.3 89.8338,-77.3 150.1662,-77.3 150.1662,-41.3 89.8338,-41.3"/>
<text text-anchor="middle" x="120" y="-55.1" font-family="Times,serif" font-size="14.00" fill="#000000">outBam</text>
</g>
<!-- idxBam&#45;&gt;outBam -->
<g id="edge7" class="edge">
<title>idxBam&#45;&gt;outBam</title>
<path fill="none" stroke="#000000" d="M120,-114.2551C120,-106.1828 120,-96.4764 120,-87.4817"/>
<polygon fill="#000000" stroke="#000000" points="123.5001,-87.3903 120,-77.3904 116.5001,-87.3904 123.5001,-87.3903"/>
</g>
<!-- vcf2bed -->
<g id="node3" class="node">
<title>vcf2bed</title>
<polygon fill="#fafad2" stroke="#000000" points="120.4551,-260.3 120.4551,-296.3 181.5449,-296.3 181.5449,-260.3 120.4551,-260.3"/>
<text text-anchor="middle" x="151" y="-274.1" font-family="Times,serif" font-size="14.00" fill="#000000">vcf2bed</text>
</g>
<!-- vcf2bed&#45;&gt;subBam -->
<g id="edge2" class="edge">
<title>vcf2bed&#45;&gt;subBam</title>
<path fill="none" stroke="#000000" d="M143.3371,-260.2551C139.7974,-251.9196 135.5177,-241.8416 131.5949,-232.6042"/>
<polygon fill="#000000" stroke="#000000" points="134.8126,-231.2267 127.6822,-223.3904 128.3694,-233.9629 134.8126,-231.2267"/>
</g>
<!-- bam -->
<g id="node4" class="node">
<title>bam</title>
<polygon fill="#94ddf4" stroke="#000000" points="16,-338.1 16,-374.1 70,-374.1 70,-338.1 16,-338.1"/>
<text text-anchor="middle" x="42.5526" y="-351.9" font-family="Times,serif" font-size="14.00" fill="#000000">bam</text>
</g>
<!-- bam&#45;&gt;subBam -->
<g id="edge3" class="edge">
<title>bam&#45;&gt;subBam</title>
<path fill="none" stroke="#000000" d="M52.288,-337.91C65.6425,-311.7561 90.3725,-263.3236 105.964,-232.7887"/>
<polygon fill="#000000" stroke="#000000" points="109.2486,-234.0523 110.6791,-223.5545 103.0143,-230.869 109.2486,-234.0523"/>
</g>
<!-- fai -->
<g id="node5" class="node">
<title>fai</title>
<polygon fill="#94ddf4" stroke="#000000" points="160,-338.1 160,-374.1 214,-374.1 214,-338.1 160,-338.1"/>
<text text-anchor="middle" x="186.8829" y="-351.9" font-family="Times,serif" font-size="14.00" fill="#000000">fai</text>
</g>
<!-- fai&#45;&gt;vcf2bed -->
<g id="edge4" class="edge">
<title>fai&#45;&gt;vcf2bed</title>
<path fill="none" stroke="#000000" d="M178.6504,-338.0556C174.2294,-328.5013 168.7057,-316.564 163.7601,-305.8761"/>
<polygon fill="#000000" stroke="#000000" points="166.805,-304.1218 159.429,-296.5161 160.4521,-307.0614 166.805,-304.1218"/>
</g>
<!-- vcf -->
<g id="node6" class="node">
<title>vcf</title>
<polygon fill="#94ddf4" stroke="#000000" points="88,-338.1 88,-374.1 142,-374.1 142,-338.1 88,-338.1"/>
<text text-anchor="middle" x="114.9376" y="-351.9" font-family="Times,serif" font-size="14.00" fill="#000000">vcf</text>
</g>
<!-- vcf&#45;&gt;vcf2bed -->
<g id="edge5" class="edge">
<title>vcf&#45;&gt;vcf2bed</title>
<path fill="none" stroke="#000000" d="M123.3496,-338.0556C127.7706,-328.5013 133.2943,-316.564 138.2399,-305.8761"/>
<polygon fill="#000000" stroke="#000000" points="141.5479,-307.0614 142.571,-296.5161 135.195,-304.1218 141.5479,-307.0614"/>
</g>
<!-- win -->
<g id="node7" class="node">
<title>win</title>
<polygon fill="#94ddf4" stroke="#000000" points="232,-338.1 232,-374.1 286,-374.1 286,-338.1 232,-338.1"/>
<text text-anchor="middle" x="258.9986" y="-351.9" font-family="Times,serif" font-size="14.00" fill="#000000">win</text>
</g>
<!-- win&#45;&gt;vcf2bed -->
<g id="edge6" class="edge">
<title>win&#45;&gt;vcf2bed</title>
<path fill="none" stroke="#000000" d="M249.8555,-337.8162C243.5986,-326.9232 234.3831,-313.5577 223,-304.8 213.7858,-297.7109 202.4853,-292.3754 191.592,-288.4217"/>
<polygon fill="#000000" stroke="#000000" points="192.3675,-284.9916 181.7741,-285.1686 190.1657,-291.6363 192.3675,-284.9916"/>
</g>
</g>
</svg>

