<?xml version="1.0" encoding="UTF-8" standalone="no"?>
<!DOCTYPE svg PUBLIC "-//W3C//DTD SVG 1.1//EN"
 "http://www.w3.org/Graphics/SVG/1.1/DTD/svg11.dtd">
<!-- Generated by graphviz version 2.40.1 (20161225.0304)
 -->
<!-- Title: G Pages: 1 -->
<svg width="456pt" height="326pt"
 viewBox="0.00 0.00 456.00 325.60" xmlns="http://www.w3.org/2000/svg" xmlns:xlink="http://www.w3.org/1999/xlink">
<g id="graph0" class="graph" transform="scale(1 1) rotate(0) translate(4 321.6)">
<title>G</title>
<polygon fill="#eeeeee" stroke="transparent" points="-4,4 -4,-321.6 452,-321.6 452,4 -4,4"/>
<g id="clust1" class="cluster">
<title>cluster_inputs</title>
<polygon fill="#eeeeee" stroke="#000000" stroke-dasharray="5,2" points="8,-231.8 8,-309.6 440,-309.6 440,-231.8 8,-231.8"/>
<text text-anchor="middle" x="383.9856" y="-240" font-family="Times,serif" font-size="14.00" fill="#000000">Workflow Inputs</text>
</g>
<g id="clust2" class="cluster">
<title>cluster_outputs</title>
<polygon fill="#eeeeee" stroke="#000000" stroke-dasharray="5,2" points="97,-8 97,-85.8 383,-85.8 383,-8 97,-8"/>
<text text-anchor="middle" x="322.3173" y="-16.2" font-family="Times,serif" font-size="14.00" fill="#000000">Workflow Outputs</text>
</g>
<!-- bwaAlign -->
<g id="node1" class="node">
<title>bwaAlign</title>
<polygon fill="#f3cea1" stroke="#000000" points="172.3955,-187.3 172.3955,-223.3 243.6045,-223.3 243.6045,-187.3 172.3955,-187.3"/>
<text text-anchor="middle" x="208" y="-201.1" font-family="Times,serif" font-size="14.00" fill="#000000">bwaAlign</text>
</g>
<!-- mergeBamDup -->
<g id="node2" class="node">
<title>mergeBamDup</title>
<polygon fill="#f3cea1" stroke="#000000" points="189.2356,-114.3 189.2356,-150.3 290.7644,-150.3 290.7644,-114.3 189.2356,-114.3"/>
<text text-anchor="middle" x="240" y="-128.1" font-family="Times,serif" font-size="14.00" fill="#000000">mergeBamDup</text>
</g>
<!-- bwaAlign&#45;&gt;mergeBamDup -->
<g id="edge1" class="edge">
<title>bwaAlign&#45;&gt;mergeBamDup</title>
<path fill="none" stroke="#000000" d="M215.9101,-187.2551C219.564,-178.9196 223.9818,-168.8416 228.031,-159.6042"/>
<polygon fill="#000000" stroke="#000000" points="231.2607,-160.9542 232.07,-150.3904 224.8496,-158.1439 231.2607,-160.9542"/>
</g>
<!-- Idx -->
<g id="node9" class="node">
<title>Idx</title>
<polygon fill="#94ddf4" stroke="#000000" points="321,-41.3 321,-77.3 375,-77.3 375,-41.3 321,-41.3"/>
<text text-anchor="middle" x="347.8303" y="-55.1" font-family="Times,serif" font-size="14.00" fill="#000000">Idx</text>
</g>
<!-- mergeBamDup&#45;&gt;Idx -->
<g id="edge8" class="edge">
<title>mergeBamDup&#45;&gt;Idx</title>
<path fill="none" stroke="#000000" d="M268.9951,-114.1434C282.2329,-105.709 298.0378,-95.4342 312,-85.8 313.0779,-85.0562 314.1701,-84.2953 315.2701,-83.5229"/>
<polygon fill="#000000" stroke="#000000" points="317.6454,-86.1273 323.7454,-77.4647 313.5747,-80.4325 317.6454,-86.1273"/>
</g>
<!-- matrix -->
<g id="node10" class="node">
<title>matrix</title>
<polygon fill="#94ddf4" stroke="#000000" points="249,-41.3 249,-77.3 303,-77.3 303,-41.3 249,-41.3"/>
<text text-anchor="middle" x="275.7735" y="-55.1" font-family="Times,serif" font-size="14.00" fill="#000000">matrix</text>
</g>
<!-- mergeBamDup&#45;&gt;matrix -->
<g id="edge9" class="edge">
<title>mergeBamDup&#45;&gt;matrix</title>
<path fill="none" stroke="#000000" d="M248.8989,-114.2551C253.0095,-105.9196 257.9795,-95.8416 262.5349,-86.6042"/>
<polygon fill="#000000" stroke="#000000" points="265.7948,-87.9071 267.0787,-77.3904 259.5167,-84.811 265.7948,-87.9071"/>
</g>
<!-- oBam -->
<g id="node11" class="node">
<title>oBam</title>
<polygon fill="#94ddf4" stroke="#000000" points="177,-41.3 177,-77.3 231,-77.3 231,-41.3 177,-41.3"/>
<text text-anchor="middle" x="203.7209" y="-55.1" font-family="Times,serif" font-size="14.00" fill="#000000">oBam</text>
</g>
<!-- mergeBamDup&#45;&gt;oBam -->
<g id="edge10" class="edge">
<title>mergeBamDup&#45;&gt;oBam</title>
<path fill="none" stroke="#000000" d="M231.1011,-114.2551C226.9905,-105.9196 222.0205,-95.8416 217.4651,-86.6042"/>
<polygon fill="#000000" stroke="#000000" points="220.4833,-84.811 212.9213,-77.3904 214.2052,-87.9071 220.4833,-84.811"/>
</g>
<!-- stat -->
<g id="node12" class="node">
<title>stat</title>
<polygon fill="#94ddf4" stroke="#000000" points="105,-41.3 105,-77.3 159,-77.3 159,-41.3 105,-41.3"/>
<text text-anchor="middle" x="131.7202" y="-55.1" font-family="Times,serif" font-size="14.00" fill="#000000">stat</text>
</g>
<!-- mergeBamDup&#45;&gt;stat -->
<g id="edge11" class="edge">
<title>mergeBamDup&#45;&gt;stat</title>
<path fill="none" stroke="#000000" d="M211.0049,-114.1434C197.7671,-105.709 181.9622,-95.4342 168,-85.8 166.9221,-85.0562 165.8299,-84.2953 164.7299,-83.5229"/>
<polygon fill="#000000" stroke="#000000" points="166.4253,-80.4325 156.2546,-77.4647 162.3546,-86.1273 166.4253,-80.4325"/>
</g>
<!-- Ref -->
<g id="node3" class="node">
<title>Ref</title>
<polygon fill="#94ddf4" stroke="#000000" points="306,-265.1 306,-301.1 360,-301.1 360,-265.1 306,-265.1"/>
<text text-anchor="middle" x="332.6059" y="-278.9" font-family="Times,serif" font-size="14.00" fill="#000000">Ref</text>
</g>
<!-- Ref&#45;&gt;bwaAlign -->
<g id="edge2" class="edge">
<title>Ref&#45;&gt;bwaAlign</title>
<path fill="none" stroke="#000000" d="M324.3256,-265.0575C318.1399,-253.9766 308.831,-240.3205 297,-231.8 284.3511,-222.6905 268.5613,-216.6819 253.8074,-212.7313"/>
<polygon fill="#000000" stroke="#000000" points="254.3528,-209.2623 243.8101,-210.3123 252.7064,-216.066 254.3528,-209.2623"/>
</g>
<!-- threads -->
<g id="node4" class="node">
<title>threads</title>
<polygon fill="#94ddf4" stroke="#000000" points="231.7875,-265.1 231.7875,-301.1 288.2125,-301.1 288.2125,-265.1 231.7875,-265.1"/>
<text text-anchor="middle" x="260" y="-278.9" font-family="Times,serif" font-size="14.00" fill="#000000">threads</text>
</g>
<!-- threads&#45;&gt;bwaAlign -->
<g id="edge3" class="edge">
<title>threads&#45;&gt;bwaAlign</title>
<path fill="none" stroke="#000000" d="M247.9395,-265.0556C241.3581,-255.2089 233.0849,-242.8309 225.7777,-231.8982"/>
<polygon fill="#000000" stroke="#000000" points="228.6421,-229.8851 220.1753,-223.5161 222.8223,-233.7749 228.6421,-229.8851"/>
</g>
<!-- idBam -->
<g id="node5" class="node">
<title>idBam</title>
<polygon fill="#94ddf4" stroke="#000000" points="378,-265.1 378,-301.1 432,-301.1 432,-265.1 378,-265.1"/>
<text text-anchor="middle" x="404.6662" y="-278.9" font-family="Times,serif" font-size="14.00" fill="#000000">idBam</text>
</g>
<!-- idBam&#45;&gt;mergeBamDup -->
<g id="edge4" class="edge">
<title>idBam&#45;&gt;mergeBamDup</title>
<path fill="none" stroke="#000000" d="M394.2175,-265.0006C387.6233,-254.6924 378.6233,-241.8674 369,-231.8 340.9603,-202.4662 303.8317,-174.7598 276.6089,-156.0702"/>
<polygon fill="#000000" stroke="#000000" points="278.3832,-153.0446 268.1425,-150.3284 274.4542,-158.838 278.3832,-153.0446"/>
</g>
<!-- FQ1s -->
<g id="node6" class="node">
<title>FQ1s</title>
<polygon fill="#94ddf4" stroke="#000000" points="88,-265.1 88,-301.1 142,-301.1 142,-265.1 88,-265.1"/>
<text text-anchor="middle" x="114.6669" y="-278.9" font-family="Times,serif" font-size="14.00" fill="#000000">FQ1s</text>
</g>
<!-- FQ1s&#45;&gt;bwaAlign -->
<g id="edge5" class="edge">
<title>FQ1s&#45;&gt;bwaAlign</title>
<path fill="none" stroke="#000000" d="M124.6964,-264.6501C131.0407,-253.9671 140.1547,-240.8801 151,-231.8 154.7262,-228.6803 158.8807,-225.8441 163.2019,-223.2872"/>
<polygon fill="#000000" stroke="#000000" points="165.077,-226.2527 172.2219,-218.4295 161.7579,-220.0896 165.077,-226.2527"/>
</g>
<!-- FQ2s -->
<g id="node7" class="node">
<title>FQ2s</title>
<polygon fill="#94ddf4" stroke="#000000" points="16,-265.1 16,-301.1 70,-301.1 70,-265.1 16,-265.1"/>
<text text-anchor="middle" x="42.6669" y="-278.9" font-family="Times,serif" font-size="14.00" fill="#000000">FQ2s</text>
</g>
<!-- FQ2s&#45;&gt;bwaAlign -->
<g id="edge6" class="edge">
<title>FQ2s&#45;&gt;bwaAlign</title>
<path fill="none" stroke="#000000" d="M51.2944,-264.9532C57.3799,-253.6843 66.7196,-239.8589 79,-231.8 92.5243,-222.9248 130.5111,-215.7645 161.7851,-211.135"/>
<polygon fill="#000000" stroke="#000000" points="162.6841,-214.5422 172.0887,-209.6632 161.6942,-207.6125 162.6841,-214.5422"/>
</g>
<!-- RG -->
<g id="node8" class="node">
<title>RG</title>
<polygon fill="#94ddf4" stroke="#000000" points="160,-265.1 160,-301.1 214,-301.1 214,-265.1 160,-265.1"/>
<text text-anchor="middle" x="186.7216" y="-278.9" font-family="Times,serif" font-size="14.00" fill="#000000">RG</text>
</g>
<!-- RG&#45;&gt;bwaAlign -->
<g id="edge7" class="edge">
<title>RG&#45;&gt;bwaAlign</title>
<path fill="none" stroke="#000000" d="M191.8706,-265.0556C194.4232,-255.5988 197.606,-243.8074 200.4682,-233.2037"/>
<polygon fill="#000000" stroke="#000000" points="203.8561,-234.0827 203.0831,-223.5161 197.098,-232.2584 203.8561,-234.0827"/>
</g>
</g>
</svg>

