<?xml version="1.0" encoding="UTF-8" standalone="no"?>
<!DOCTYPE svg PUBLIC "-//W3C//DTD SVG 1.1//EN"
 "http://www.w3.org/Graphics/SVG/1.1/DTD/svg11.dtd">
<!-- Generated by graphviz version 2.40.1 (20161225.0304)
 -->
<!-- Title: G Pages: 1 -->
<svg width="360pt" height="399pt"
 viewBox="0.00 0.00 359.82 398.60" xmlns="http://www.w3.org/2000/svg" xmlns:xlink="http://www.w3.org/1999/xlink">
<g id="graph0" class="graph" transform="scale(1 1) rotate(0) translate(4 394.6)">
<title>G</title>
<polygon fill="#eeeeee" stroke="transparent" points="-4,4 -4,-394.6 355.8212,-394.6 355.8212,4 -4,4"/>
<g id="clust1" class="cluster">
<title>cluster_inputs</title>
<polygon fill="#eeeeee" stroke="#000000" stroke-dasharray="5,2" points="24.9909,-304.8 24.9909,-382.6 330.9909,-382.6 330.9909,-304.8 24.9909,-304.8"/>
<text text-anchor="middle" x="274.9765" y="-313" font-family="Times,serif" font-size="14.00" fill="#000000">Workflow Inputs</text>
</g>
<g id="clust2" class="cluster">
<title>cluster_outputs</title>
<polygon fill="#eeeeee" stroke="#000000" stroke-dasharray="5,2" points="72.9909,-8 72.9909,-85.8 290.9909,-85.8 290.9909,-8 72.9909,-8"/>
<text text-anchor="middle" x="230.3082" y="-16.2" font-family="Times,serif" font-size="14.00" fill="#000000">Workflow Outputs</text>
</g>
<!-- BaseRecalibrator -->
<g id="node1" class="node">
<title>BaseRecalibrator</title>
<polygon fill="#fafad2" stroke="#000000" points="86.7917,-260.3 86.7917,-296.3 199.1901,-296.3 199.1901,-260.3 86.7917,-260.3"/>
<text text-anchor="middle" x="142.9909" y="-274.1" font-family="Times,serif" font-size="14.00" fill="#000000">BaseRecalibrator</text>
</g>
<!-- ApplyBQSR -->
<g id="node2" class="node">
<title>ApplyBQSR</title>
<polygon fill="#fafad2" stroke="#000000" points="140.2111,-187.3 140.2111,-223.3 227.7707,-223.3 227.7707,-187.3 140.2111,-187.3"/>
<text text-anchor="middle" x="183.9909" y="-201.1" font-family="Times,serif" font-size="14.00" fill="#000000">ApplyBQSR</text>
</g>
<!-- BaseRecalibrator&#45;&gt;ApplyBQSR -->
<g id="edge1" class="edge">
<title>BaseRecalibrator&#45;&gt;ApplyBQSR</title>
<path fill="none" stroke="#000000" d="M153.1257,-260.2551C157.8566,-251.8319 163.5868,-241.6292 168.8194,-232.3128"/>
<polygon fill="#000000" stroke="#000000" points="171.9852,-233.8233 173.8306,-223.3904 165.8819,-230.3954 171.9852,-233.8233"/>
</g>
<!-- samtools_flagstat -->
<g id="node3" class="node">
<title>samtools_flagstat</title>
<polygon fill="#fafad2" stroke="#000000" points="0,-114.3 0,-150.3 113.9818,-150.3 113.9818,-114.3 0,-114.3"/>
<text text-anchor="middle" x="56.9909" y="-128.1" font-family="Times,serif" font-size="14.00" fill="#000000">samtools_flagstat</text>
</g>
<!-- ApplyBQSR&#45;&gt;samtools_flagstat -->
<g id="edge2" class="edge">
<title>ApplyBQSR&#45;&gt;samtools_flagstat</title>
<path fill="none" stroke="#000000" d="M152.5976,-187.2551C135.9592,-177.6912 115.3298,-165.8334 97.4975,-155.5833"/>
<polygon fill="#000000" stroke="#000000" points="98.8772,-152.3394 88.4632,-150.3904 95.3888,-158.4083 98.8772,-152.3394"/>
</g>
<!-- samtools_index -->
<g id="node4" class="node">
<title>samtools_index</title>
<polygon fill="#fafad2" stroke="#000000" points="132.0505,-114.3 132.0505,-150.3 235.9313,-150.3 235.9313,-114.3 132.0505,-114.3"/>
<text text-anchor="middle" x="183.9909" y="-128.1" font-family="Times,serif" font-size="14.00" fill="#000000">samtools_index</text>
</g>
<!-- ApplyBQSR&#45;&gt;samtools_index -->
<g id="edge3" class="edge">
<title>ApplyBQSR&#45;&gt;samtools_index</title>
<path fill="none" stroke="#000000" d="M183.9909,-187.2551C183.9909,-179.1828 183.9909,-169.4764 183.9909,-160.4817"/>
<polygon fill="#000000" stroke="#000000" points="187.491,-160.3903 183.9909,-150.3904 180.491,-160.3904 187.491,-160.3903"/>
</g>
<!-- samtools_stats -->
<g id="node5" class="node">
<title>samtools_stats</title>
<polygon fill="#fafad2" stroke="#000000" points="254.1606,-114.3 254.1606,-150.3 351.8212,-150.3 351.8212,-114.3 254.1606,-114.3"/>
<text text-anchor="middle" x="302.9909" y="-128.1" font-family="Times,serif" font-size="14.00" fill="#000000">samtools_stats</text>
</g>
<!-- ApplyBQSR&#45;&gt;samtools_stats -->
<g id="edge4" class="edge">
<title>ApplyBQSR&#45;&gt;samtools_stats</title>
<path fill="none" stroke="#000000" d="M213.4066,-187.2551C228.8539,-177.779 247.9725,-166.0508 264.5754,-155.8658"/>
<polygon fill="#000000" stroke="#000000" points="266.8073,-158.6028 273.5011,-150.3904 263.147,-152.636 266.8073,-158.6028"/>
</g>
<!-- flagstat -->
<g id="node10" class="node">
<title>flagstat</title>
<polygon fill="#94ddf4" stroke="#000000" points="81.3878,-41.3 81.3878,-77.3 138.594,-77.3 138.594,-41.3 81.3878,-41.3"/>
<text text-anchor="middle" x="109.9909" y="-55.1" font-family="Times,serif" font-size="14.00" fill="#000000">flagstat</text>
</g>
<!-- samtools_flagstat&#45;&gt;flagstat -->
<g id="edge11" class="edge">
<title>samtools_flagstat&#45;&gt;flagstat</title>
<path fill="none" stroke="#000000" d="M70.092,-114.2551C76.3349,-105.6564 83.9241,-95.2034 90.8008,-85.7316"/>
<polygon fill="#000000" stroke="#000000" points="93.8139,-87.5388 96.8568,-77.3904 88.1494,-83.4262 93.8139,-87.5388"/>
</g>
<!-- rcBam -->
<g id="node11" class="node">
<title>rcBam</title>
<polygon fill="#94ddf4" stroke="#000000" points="156.9909,-41.3 156.9909,-77.3 210.9909,-77.3 210.9909,-41.3 156.9909,-41.3"/>
<text text-anchor="middle" x="183.6494" y="-55.1" font-family="Times,serif" font-size="14.00" fill="#000000">rcBam</text>
</g>
<!-- samtools_index&#45;&gt;rcBam -->
<g id="edge12" class="edge">
<title>samtools_index&#45;&gt;rcBam</title>
<path fill="none" stroke="#000000" d="M183.9909,-114.2551C183.9909,-106.1828 183.9909,-96.4764 183.9909,-87.4817"/>
<polygon fill="#000000" stroke="#000000" points="187.491,-87.3903 183.9909,-77.3904 180.491,-87.3904 187.491,-87.3903"/>
</g>
<!-- stats -->
<g id="node12" class="node">
<title>stats</title>
<polygon fill="#94ddf4" stroke="#000000" points="228.9909,-41.3 228.9909,-77.3 282.9909,-77.3 282.9909,-41.3 228.9909,-41.3"/>
<text text-anchor="middle" x="255.9334" y="-55.1" font-family="Times,serif" font-size="14.00" fill="#000000">stats</text>
</g>
<!-- samtools_stats&#45;&gt;stats -->
<g id="edge13" class="edge">
<title>samtools_stats&#45;&gt;stats</title>
<path fill="none" stroke="#000000" d="M291.3729,-114.2551C285.8933,-105.7441 279.244,-95.4165 273.1954,-86.0219"/>
<polygon fill="#000000" stroke="#000000" points="275.9944,-83.9037 267.6381,-77.3904 270.1087,-87.6931 275.9944,-83.9037"/>
</g>
<!-- bam -->
<g id="node6" class="node">
<title>bam</title>
<polygon fill="#94ddf4" stroke="#000000" points="32.9909,-338.1 32.9909,-374.1 86.9909,-374.1 86.9909,-338.1 32.9909,-338.1"/>
<text text-anchor="middle" x="59.5435" y="-351.9" font-family="Times,serif" font-size="14.00" fill="#000000">bam</text>
</g>
<!-- bam&#45;&gt;BaseRecalibrator -->
<g id="edge6" class="edge">
<title>bam&#45;&gt;BaseRecalibrator</title>
<path fill="none" stroke="#000000" d="M69.9513,-337.9532C76.3892,-327.3777 85.5089,-314.2972 95.9909,-304.8 96.8239,-304.0452 97.6821,-303.303 98.5613,-302.5738"/>
<polygon fill="#000000" stroke="#000000" points="100.976,-305.1408 106.9273,-296.3754 96.8088,-299.5163 100.976,-305.1408"/>
</g>
<!-- bam&#45;&gt;ApplyBQSR -->
<g id="edge5" class="edge">
<title>bam&#45;&gt;ApplyBQSR</title>
<path fill="none" stroke="#000000" d="M58.8576,-337.9082C58.502,-317.0258 60.9189,-282.7133 77.9909,-259.8 91.0592,-242.2603 111.4074,-229.9134 130.7958,-221.4613"/>
<polygon fill="#000000" stroke="#000000" points="132.2668,-224.6412 140.2005,-217.6193 129.6195,-218.1611 132.2668,-224.6412"/>
</g>
<!-- oBam -->
<g id="node7" class="node">
<title>oBam</title>
<polygon fill="#94ddf4" stroke="#000000" points="268.9909,-338.1 268.9909,-374.1 322.9909,-374.1 322.9909,-338.1 268.9909,-338.1"/>
<text text-anchor="middle" x="295.7118" y="-351.9" font-family="Times,serif" font-size="14.00" fill="#000000">oBam</text>
</g>
<!-- oBam&#45;&gt;ApplyBQSR -->
<g id="edge7" class="edge">
<title>oBam&#45;&gt;ApplyBQSR</title>
<path fill="none" stroke="#000000" d="M283.4827,-337.9466C276.6283,-328.0826 267.9338,-315.7059 259.9909,-304.8 241.6272,-279.5859 219.9708,-251.375 204.4832,-231.4496"/>
<polygon fill="#000000" stroke="#000000" points="207.1578,-229.1877 198.2509,-223.4503 201.6359,-233.4899 207.1578,-229.1877"/>
</g>
<!-- ref -->
<g id="node8" class="node">
<title>ref</title>
<polygon fill="#94ddf4" stroke="#000000" points="196.9909,-338.1 196.9909,-374.1 250.9909,-374.1 250.9909,-338.1 196.9909,-338.1"/>
<text text-anchor="middle" x="223.7588" y="-351.9" font-family="Times,serif" font-size="14.00" fill="#000000">ref</text>
</g>
<!-- ref&#45;&gt;BaseRecalibrator -->
<g id="edge9" class="edge">
<title>ref&#45;&gt;BaseRecalibrator</title>
<path fill="none" stroke="#000000" d="M213.9652,-338.0245C207.5042,-327.4743 198.3831,-314.3953 187.9909,-304.8 187.1915,-304.0619 186.3683,-303.3348 185.525,-302.6193"/>
<polygon fill="#000000" stroke="#000000" points="187.5807,-299.7854 177.5057,-296.5076 183.3377,-305.3529 187.5807,-299.7854"/>
</g>
<!-- ref&#45;&gt;ApplyBQSR -->
<g id="edge8" class="edge">
<title>ref&#45;&gt;ApplyBQSR</title>
<path fill="none" stroke="#000000" d="M222.3535,-338.0479C220.2647,-318.4663 215.9316,-286.4362 207.9909,-259.8 205.2869,-250.7298 201.4477,-241.1772 197.631,-232.647"/>
<polygon fill="#000000" stroke="#000000" points="200.7825,-231.1235 193.393,-223.531 194.4349,-234.0745 200.7825,-231.1235"/>
</g>
<!-- knowSites -->
<g id="node9" class="node">
<title>knowSites</title>
<polygon fill="#94ddf4" stroke="#000000" points="104.8261,-338.1 104.8261,-374.1 179.1557,-374.1 179.1557,-338.1 104.8261,-338.1"/>
<text text-anchor="middle" x="141.9909" y="-351.9" font-family="Times,serif" font-size="14.00" fill="#000000">knowSites</text>
</g>
<!-- knowSites&#45;&gt;BaseRecalibrator -->
<g id="edge10" class="edge">
<title>knowSites&#45;&gt;BaseRecalibrator</title>
<path fill="none" stroke="#000000" d="M142.2228,-338.0556C142.3431,-328.6963 142.4928,-317.0503 142.628,-306.532"/>
<polygon fill="#000000" stroke="#000000" points="146.1278,-306.5603 142.7568,-296.5161 139.1284,-306.4702 146.1278,-306.5603"/>
</g>
</g>
</svg>

