<?xml version="1.0" encoding="UTF-8" standalone="no"?>
<!DOCTYPE svg PUBLIC "-//W3C//DTD SVG 1.1//EN"
 "http://www.w3.org/Graphics/SVG/1.1/DTD/svg11.dtd">
<!-- Generated by graphviz version 2.40.1 (20161225.0304)
 -->
<!-- Title: G Pages: 1 -->
<svg width="462pt" height="545pt"
 viewBox="0.00 0.00 462.00 544.60" xmlns="http://www.w3.org/2000/svg" xmlns:xlink="http://www.w3.org/1999/xlink">
<g id="graph0" class="graph" transform="scale(1 1) rotate(0) translate(4 540.6)">
<title>G</title>
<polygon fill="#eeeeee" stroke="transparent" points="-4,4 -4,-540.6 458,-540.6 458,4 -4,4"/>
<g id="clust1" class="cluster">
<title>cluster_inputs</title>
<polygon fill="#eeeeee" stroke="#000000" stroke-dasharray="5,2" points="8,-450.8 8,-528.6 446,-528.6 446,-450.8 8,-450.8"/>
<text text-anchor="middle" x="389.9856" y="-459" font-family="Times,serif" font-size="14.00" fill="#000000">Workflow Inputs</text>
</g>
<g id="clust2" class="cluster">
<title>cluster_outputs</title>
<polygon fill="#eeeeee" stroke="#000000" stroke-dasharray="5,2" points="82,-8 82,-85.8 444,-85.8 444,-8 82,-8"/>
<text text-anchor="middle" x="383.3173" y="-16.2" font-family="Times,serif" font-size="14.00" fill="#000000">Workflow Outputs</text>
</g>
<!-- bwaAlign -->
<g id="node1" class="node">
<title>bwaAlign</title>
<polygon fill="#f3cea1" stroke="#000000" points="224.3955,-406.3 224.3955,-442.3 295.6045,-442.3 295.6045,-406.3 224.3955,-406.3"/>
<text text-anchor="middle" x="260" y="-420.1" font-family="Times,serif" font-size="14.00" fill="#000000">bwaAlign</text>
</g>
<!-- markdup -->
<g id="node2" class="node">
<title>markdup</title>
<polygon fill="#fafad2" stroke="#000000" points="375.1171,-260.3 375.1171,-296.3 440.8829,-296.3 440.8829,-260.3 375.1171,-260.3"/>
<text text-anchor="middle" x="408" y="-274.1" font-family="Times,serif" font-size="14.00" fill="#000000">markdup</text>
</g>
<!-- bwaAlign&#45;&gt;markdup -->
<g id="edge1" class="edge">
<title>bwaAlign&#45;&gt;markdup</title>
<path fill="none" stroke="#000000" d="M260.2503,-406.0126C261.4635,-385.8521 266.3001,-353.5345 284,-332.8 304.6454,-308.615 338.0783,-294.7736 365.029,-287.0964"/>
<polygon fill="#000000" stroke="#000000" points="366.2346,-290.3976 375.0006,-284.4472 364.4371,-283.6323 366.2346,-290.3976"/>
</g>
<!-- mergeBam -->
<g id="node3" class="node">
<title>mergeBam</title>
<polygon fill="#fafad2" stroke="#000000" points="293.2889,-333.3 293.2889,-369.3 370.7111,-369.3 370.7111,-333.3 293.2889,-333.3"/>
<text text-anchor="middle" x="332" y="-347.1" font-family="Times,serif" font-size="14.00" fill="#000000">mergeBam</text>
</g>
<!-- bwaAlign&#45;&gt;mergeBam -->
<g id="edge4" class="edge">
<title>bwaAlign&#45;&gt;mergeBam</title>
<path fill="none" stroke="#000000" d="M277.7978,-406.2551C286.6248,-397.3054 297.4331,-386.347 307.0693,-376.5769"/>
<polygon fill="#000000" stroke="#000000" points="309.6272,-378.9678 314.1575,-369.3904 304.6434,-374.0523 309.6272,-378.9678"/>
</g>
<!-- samtools_index -->
<g id="node4" class="node">
<title>samtools_index</title>
<polygon fill="#fafad2" stroke="#000000" points="242.0596,-187.3 242.0596,-223.3 345.9404,-223.3 345.9404,-187.3 242.0596,-187.3"/>
<text text-anchor="middle" x="294" y="-201.1" font-family="Times,serif" font-size="14.00" fill="#000000">samtools_index</text>
</g>
<!-- bwaAlign&#45;&gt;samtools_index -->
<g id="edge8" class="edge">
<title>bwaAlign&#45;&gt;samtools_index</title>
<path fill="none" stroke="#000000" d="M259.2012,-405.9781C258.6737,-387.4386 258.6066,-357.9952 262,-332.8 266.6854,-298.012 277.292,-259.0015 285.0134,-233.4002"/>
<polygon fill="#000000" stroke="#000000" points="288.4244,-234.215 288.0175,-223.628 281.7335,-232.158 288.4244,-234.215"/>
</g>
<!-- markdup&#45;&gt;samtools_index -->
<g id="edge7" class="edge">
<title>markdup&#45;&gt;samtools_index</title>
<path fill="none" stroke="#000000" d="M379.8202,-260.2551C365.022,-250.779 346.7067,-239.0508 330.8014,-228.8658"/>
<polygon fill="#000000" stroke="#000000" points="332.5595,-225.8356 322.2507,-223.3904 328.7846,-231.7305 332.5595,-225.8356"/>
</g>
<!-- matrix -->
<g id="node16" class="node">
<title>matrix</title>
<polygon fill="#94ddf4" stroke="#000000" points="382,-41.3 382,-77.3 436,-77.3 436,-41.3 382,-41.3"/>
<text text-anchor="middle" x="408.7735" y="-55.1" font-family="Times,serif" font-size="14.00" fill="#000000">matrix</text>
</g>
<!-- markdup&#45;&gt;matrix -->
<g id="edge21" class="edge">
<title>markdup&#45;&gt;matrix</title>
<path fill="none" stroke="#000000" d="M408.0835,-260.0049C408.2582,-221.7458 408.6632,-133.0623 408.8714,-87.4742"/>
<polygon fill="#000000" stroke="#000000" points="412.3716,-87.405 408.9174,-77.389 405.3717,-87.3729 412.3716,-87.405"/>
</g>
<!-- mergeBam&#45;&gt;markdup -->
<g id="edge2" class="edge">
<title>mergeBam&#45;&gt;markdup</title>
<path fill="none" stroke="#000000" d="M350.7865,-333.2551C360.1039,-324.3054 371.5127,-313.347 381.6843,-303.5769"/>
<polygon fill="#000000" stroke="#000000" points="384.3788,-305.8419 389.1662,-296.3904 379.5296,-300.7935 384.3788,-305.8419"/>
</g>
<!-- mergeBam&#45;&gt;samtools_index -->
<g id="edge6" class="edge">
<title>mergeBam&#45;&gt;samtools_index</title>
<path fill="none" stroke="#000000" d="M327.2641,-333.1042C320.7787,-308.1868 309.0683,-263.1938 301.4146,-233.7877"/>
<polygon fill="#000000" stroke="#000000" points="304.7016,-232.5211 298.7956,-223.7251 297.9273,-234.2843 304.7016,-232.5211"/>
</g>
<!-- md5sum -->
<g id="node5" class="node">
<title>md5sum</title>
<polygon fill="#fafad2" stroke="#000000" points="30.8871,-114.3 30.8871,-150.3 95.1129,-150.3 95.1129,-114.3 30.8871,-114.3"/>
<text text-anchor="middle" x="63" y="-128.1" font-family="Times,serif" font-size="14.00" fill="#000000">md5sum</text>
</g>
<!-- samtools_index&#45;&gt;md5sum -->
<g id="edge3" class="edge">
<title>samtools_index&#45;&gt;md5sum</title>
<path fill="none" stroke="#000000" d="M241.7397,-192.487C205.4612,-183.0997 155.961,-169.3155 105.0226,-150.9561"/>
<polygon fill="#000000" stroke="#000000" points="106.0912,-147.6203 95.4973,-147.4748 103.6882,-154.1949 106.0912,-147.6203"/>
</g>
<!-- samtools_flagstat -->
<g id="node6" class="node">
<title>samtools_flagstat</title>
<polygon fill="#fafad2" stroke="#000000" points="113.0091,-114.3 113.0091,-150.3 226.9909,-150.3 226.9909,-114.3 113.0091,-114.3"/>
<text text-anchor="middle" x="170" y="-128.1" font-family="Times,serif" font-size="14.00" fill="#000000">samtools_flagstat</text>
</g>
<!-- samtools_index&#45;&gt;samtools_flagstat -->
<g id="edge5" class="edge">
<title>samtools_index&#45;&gt;samtools_flagstat</title>
<path fill="none" stroke="#000000" d="M263.3483,-187.2551C247.1029,-177.6912 226.9609,-165.8334 209.5497,-155.5833"/>
<polygon fill="#000000" stroke="#000000" points="211.122,-152.4475 200.7288,-150.3904 207.5707,-158.4798 211.122,-152.4475"/>
</g>
<!-- samtools_stats -->
<g id="node7" class="node">
<title>samtools_stats</title>
<polygon fill="#fafad2" stroke="#000000" points="245.1697,-114.3 245.1697,-150.3 342.8303,-150.3 342.8303,-114.3 245.1697,-114.3"/>
<text text-anchor="middle" x="294" y="-128.1" font-family="Times,serif" font-size="14.00" fill="#000000">samtools_stats</text>
</g>
<!-- samtools_index&#45;&gt;samtools_stats -->
<g id="edge9" class="edge">
<title>samtools_index&#45;&gt;samtools_stats</title>
<path fill="none" stroke="#000000" d="M294,-187.2551C294,-179.1828 294,-169.4764 294,-160.4817"/>
<polygon fill="#000000" stroke="#000000" points="297.5001,-160.3903 294,-150.3904 290.5001,-160.3904 297.5001,-160.3903"/>
</g>
<!-- BAM -->
<g id="node14" class="node">
<title>BAM</title>
<polygon fill="#94ddf4" stroke="#000000" points="310,-41.3 310,-77.3 364,-77.3 364,-41.3 310,-41.3"/>
<text text-anchor="middle" x="336.9439" y="-55.1" font-family="Times,serif" font-size="14.00" fill="#000000">BAM</text>
</g>
<!-- samtools_index&#45;&gt;BAM -->
<g id="edge19" class="edge">
<title>samtools_index&#45;&gt;BAM</title>
<path fill="none" stroke="#000000" d="M321.6617,-187.1856C333.3467,-177.8632 345.6916,-165.3841 352,-150.8 360.7758,-130.5116 355.8208,-105.6613 349.3405,-86.9809"/>
<polygon fill="#000000" stroke="#000000" points="352.5894,-85.6772 345.7696,-77.5691 346.0446,-88.1604 352.5894,-85.6772"/>
</g>
<!-- md5s -->
<g id="node17" class="node">
<title>md5s</title>
<polygon fill="#94ddf4" stroke="#000000" points="90,-41.3 90,-77.3 144,-77.3 144,-41.3 90,-41.3"/>
<text text-anchor="middle" x="116.6676" y="-55.1" font-family="Times,serif" font-size="14.00" fill="#000000">md5s</text>
</g>
<!-- md5sum&#45;&gt;md5s -->
<g id="edge22" class="edge">
<title>md5sum&#45;&gt;md5s</title>
<path fill="none" stroke="#000000" d="M76.3483,-114.2551C82.7739,-105.5686 90.5993,-94.9898 97.6621,-85.442"/>
<polygon fill="#000000" stroke="#000000" points="100.4849,-87.5113 103.6181,-77.3904 94.8572,-83.3484 100.4849,-87.5113"/>
</g>
<!-- flagstat -->
<g id="node15" class="node">
<title>flagstat</title>
<polygon fill="#94ddf4" stroke="#000000" points="162.3969,-41.3 162.3969,-77.3 219.6031,-77.3 219.6031,-41.3 162.3969,-41.3"/>
<text text-anchor="middle" x="191" y="-55.1" font-family="Times,serif" font-size="14.00" fill="#000000">flagstat</text>
</g>
<!-- samtools_flagstat&#45;&gt;flagstat -->
<g id="edge20" class="edge">
<title>samtools_flagstat&#45;&gt;flagstat</title>
<path fill="none" stroke="#000000" d="M175.191,-114.2551C177.5384,-106.0951 180.3662,-96.2652 182.9772,-87.1887"/>
<polygon fill="#000000" stroke="#000000" points="186.3948,-87.9683 185.7959,-77.3904 179.6677,-86.033 186.3948,-87.9683"/>
</g>
<!-- stats -->
<g id="node18" class="node">
<title>stats</title>
<polygon fill="#94ddf4" stroke="#000000" points="238,-41.3 238,-77.3 292,-77.3 292,-41.3 238,-41.3"/>
<text text-anchor="middle" x="264.9425" y="-55.1" font-family="Times,serif" font-size="14.00" fill="#000000">stats</text>
</g>
<!-- samtools_stats&#45;&gt;stats -->
<g id="edge23" class="edge">
<title>samtools_stats&#45;&gt;stats</title>
<path fill="none" stroke="#000000" d="M286.8315,-114.2551C283.555,-106.0074 279.6007,-96.0536 275.9629,-86.8962"/>
<polygon fill="#000000" stroke="#000000" points="279.1313,-85.3917 272.1866,-77.3904 272.6259,-87.9761 279.1313,-85.3917"/>
</g>
<!-- Ref -->
<g id="node8" class="node">
<title>Ref</title>
<polygon fill="#94ddf4" stroke="#000000" points="306,-484.1 306,-520.1 360,-520.1 360,-484.1 306,-484.1"/>
<text text-anchor="middle" x="332.6059" y="-497.9" font-family="Times,serif" font-size="14.00" fill="#000000">Ref</text>
</g>
<!-- Ref&#45;&gt;bwaAlign -->
<g id="edge10" class="edge">
<title>Ref&#45;&gt;bwaAlign</title>
<path fill="none" stroke="#000000" d="M322.3503,-483.8713C315.8003,-473.5201 306.8003,-460.6951 297,-450.8 296.4579,-450.2527 295.9034,-449.7086 295.3383,-449.1683"/>
<polygon fill="#000000" stroke="#000000" points="297.3816,-446.3076 287.5325,-442.4029 292.7969,-451.5973 297.3816,-446.3076"/>
</g>
<!-- outBam -->
<g id="node9" class="node">
<title>outBam</title>
<polygon fill="#94ddf4" stroke="#000000" points="377.8338,-484.1 377.8338,-520.1 438.1662,-520.1 438.1662,-484.1 377.8338,-484.1"/>
<text text-anchor="middle" x="408" y="-497.9" font-family="Times,serif" font-size="14.00" fill="#000000">outBam</text>
</g>
<!-- outBam&#45;&gt;bwaAlign -->
<g id="edge11" class="edge">
<title>outBam&#45;&gt;bwaAlign</title>
<path fill="none" stroke="#000000" d="M398.6373,-483.9876C391.8899,-472.7329 381.7412,-458.9103 369,-450.8 354.807,-441.7655 348.3728,-446.672 332,-442.8 323.4222,-440.7715 314.2967,-438.5086 305.5263,-436.2807"/>
<polygon fill="#000000" stroke="#000000" points="306.379,-432.8862 295.8232,-433.7947 304.6416,-439.6672 306.379,-432.8862"/>
</g>
<!-- outBam&#45;&gt;markdup -->
<g id="edge12" class="edge">
<title>outBam&#45;&gt;markdup</title>
<path fill="none" stroke="#000000" d="M404.0882,-483.7855C400.5757,-444.7548 400.3235,-353.155 403.3314,-306.5735"/>
<polygon fill="#000000" stroke="#000000" points="406.8249,-306.7904 404.0937,-296.5537 399.8451,-306.2593 406.8249,-306.7904"/>
</g>
<!-- outBam&#45;&gt;markdup -->
<g id="edge13" class="edge">
<title>outBam&#45;&gt;markdup</title>
<path fill="none" stroke="#000000" d="M411.9118,-483.7855C415.4243,-444.7548 415.6765,-353.155 412.6686,-306.5735"/>
<polygon fill="#000000" stroke="#000000" points="416.1549,-306.2593 411.9063,-296.5537 409.1751,-306.7904 416.1549,-306.2593"/>
</g>
<!-- outBam&#45;&gt;mergeBam -->
<g id="edge14" class="edge">
<title>outBam&#45;&gt;mergeBam</title>
<path fill="none" stroke="#000000" d="M398.8326,-483.91C385.6516,-457.7561 361.2427,-409.3236 345.8537,-378.7887"/>
<polygon fill="#000000" stroke="#000000" points="348.826,-376.9093 341.1999,-369.5545 342.575,-380.0597 348.826,-376.9093"/>
</g>
<!-- threads -->
<g id="node10" class="node">
<title>threads</title>
<polygon fill="#94ddf4" stroke="#000000" points="231.7875,-484.1 231.7875,-520.1 288.2125,-520.1 288.2125,-484.1 231.7875,-484.1"/>
<text text-anchor="middle" x="260" y="-497.9" font-family="Times,serif" font-size="14.00" fill="#000000">threads</text>
</g>
<!-- threads&#45;&gt;bwaAlign -->
<g id="edge15" class="edge">
<title>threads&#45;&gt;bwaAlign</title>
<path fill="none" stroke="#000000" d="M260,-484.0556C260,-474.6963 260,-463.0503 260,-452.532"/>
<polygon fill="#000000" stroke="#000000" points="263.5001,-452.516 260,-442.5161 256.5001,-452.5161 263.5001,-452.516"/>
</g>
<!-- FQ1s -->
<g id="node11" class="node">
<title>FQ1s</title>
<polygon fill="#94ddf4" stroke="#000000" points="160,-484.1 160,-520.1 214,-520.1 214,-484.1 160,-484.1"/>
<text text-anchor="middle" x="186.6669" y="-497.9" font-family="Times,serif" font-size="14.00" fill="#000000">FQ1s</text>
</g>
<!-- FQ1s&#45;&gt;bwaAlign -->
<g id="edge16" class="edge">
<title>FQ1s&#45;&gt;bwaAlign</title>
<path fill="none" stroke="#000000" d="M197.6497,-483.8713C204.1997,-473.5201 213.1997,-460.6951 223,-450.8 223.5421,-450.2527 224.0966,-449.7086 224.6617,-449.1683"/>
<polygon fill="#000000" stroke="#000000" points="227.2031,-451.5973 232.4675,-442.4029 222.6184,-446.3076 227.2031,-451.5973"/>
</g>
<!-- FQ2s -->
<g id="node12" class="node">
<title>FQ2s</title>
<polygon fill="#94ddf4" stroke="#000000" points="88,-484.1 88,-520.1 142,-520.1 142,-484.1 88,-484.1"/>
<text text-anchor="middle" x="114.6669" y="-497.9" font-family="Times,serif" font-size="14.00" fill="#000000">FQ2s</text>
</g>
<!-- FQ2s&#45;&gt;bwaAlign -->
<g id="edge17" class="edge">
<title>FQ2s&#45;&gt;bwaAlign</title>
<path fill="none" stroke="#000000" d="M123.3927,-484.1C129.5184,-472.8913 138.8662,-459.0779 151,-450.8 161.4279,-443.6859 189.2466,-436.9812 214.1685,-432.0957"/>
<polygon fill="#000000" stroke="#000000" points="215.0787,-435.4856 224.2515,-430.1837 213.7745,-428.6081 215.0787,-435.4856"/>
</g>
<!-- RG -->
<g id="node13" class="node">
<title>RG</title>
<polygon fill="#94ddf4" stroke="#000000" points="16,-484.1 16,-520.1 70,-520.1 70,-484.1 16,-484.1"/>
<text text-anchor="middle" x="42.7216" y="-497.9" font-family="Times,serif" font-size="14.00" fill="#000000">RG</text>
</g>
<!-- RG&#45;&gt;bwaAlign -->
<g id="edge18" class="edge">
<title>RG&#45;&gt;bwaAlign</title>
<path fill="none" stroke="#000000" d="M51.01,-483.9677C57.0287,-472.5545 66.4014,-458.5613 79,-450.8 100.996,-437.2494 168.1391,-430.2192 214.1607,-426.8945"/>
<polygon fill="#000000" stroke="#000000" points="214.4754,-430.3812 224.2114,-426.2026 213.9946,-423.3978 214.4754,-430.3812"/>
</g>
</g>
</svg>

