<?xml version="1.0" encoding="UTF-8" standalone="no"?>
<!DOCTYPE svg PUBLIC "-//W3C//DTD SVG 1.1//EN"
 "http://www.w3.org/Graphics/SVG/1.1/DTD/svg11.dtd">
<!-- Generated by graphviz version 2.40.1 (20161225.0304)
 -->
<!-- Title: G Pages: 1 -->
<svg width="554pt" height="399pt"
 viewBox="0.00 0.00 554.00 398.60" xmlns="http://www.w3.org/2000/svg" xmlns:xlink="http://www.w3.org/1999/xlink">
<g id="graph0" class="graph" transform="scale(1 1) rotate(0) translate(4 394.6)">
<title>G</title>
<polygon fill="#eeeeee" stroke="transparent" points="-4,4 -4,-394.6 550,-394.6 550,4 -4,4"/>
<g id="clust1" class="cluster">
<title>cluster_inputs</title>
<polygon fill="#eeeeee" stroke="#000000" stroke-dasharray="5,2" points="8,-304.8 8,-382.6 538,-382.6 538,-304.8 8,-304.8"/>
<text text-anchor="middle" x="481.9856" y="-313" font-family="Times,serif" font-size="14.00" fill="#000000">Workflow Inputs</text>
</g>
<g id="clust2" class="cluster">
<title>cluster_outputs</title>
<polygon fill="#eeeeee" stroke="#000000" stroke-dasharray="5,2" points="24,-8 24,-85.8 314,-85.8 314,-8 24,-8"/>
<text text-anchor="middle" x="253.3173" y="-16.2" font-family="Times,serif" font-size="14.00" fill="#000000">Workflow Outputs</text>
</g>
<!-- markdup -->
<g id="node1" class="node">
<title>markdup</title>
<polygon fill="#fafad2" stroke="#000000" points="243.1171,-187.3 243.1171,-223.3 308.8829,-223.3 308.8829,-187.3 243.1171,-187.3"/>
<text text-anchor="middle" x="276" y="-201.1" font-family="Times,serif" font-size="14.00" fill="#000000">markdup</text>
</g>
<!-- BaseRecal -->
<g id="node2" class="node">
<title>BaseRecal</title>
<polygon fill="#f3cea1" stroke="#000000" points="99.4593,-114.3 99.4593,-150.3 174.5407,-150.3 174.5407,-114.3 99.4593,-114.3"/>
<text text-anchor="middle" x="137" y="-128.1" font-family="Times,serif" font-size="14.00" fill="#000000">BaseRecal</text>
</g>
<!-- markdup&#45;&gt;BaseRecal -->
<g id="edge1" class="edge">
<title>markdup&#45;&gt;BaseRecal</title>
<path fill="none" stroke="#000000" d="M243.0589,-188C224.401,-178.2012 200.8288,-165.8216 180.6481,-155.2231"/>
<polygon fill="#000000" stroke="#000000" points="182.125,-152.0455 171.6443,-150.4945 178.8703,-158.2428 182.125,-152.0455"/>
</g>
<!-- matrix -->
<g id="node13" class="node">
<title>matrix</title>
<polygon fill="#94ddf4" stroke="#000000" points="252,-41.3 252,-77.3 306,-77.3 306,-41.3 252,-41.3"/>
<text text-anchor="middle" x="278.7735" y="-55.1" font-family="Times,serif" font-size="14.00" fill="#000000">matrix</text>
</g>
<!-- markdup&#45;&gt;matrix -->
<g id="edge14" class="edge">
<title>markdup&#45;&gt;matrix</title>
<path fill="none" stroke="#000000" d="M276.3739,-187.1042C276.8859,-162.1868 277.8104,-117.1938 278.4146,-87.7877"/>
<polygon fill="#000000" stroke="#000000" points="281.9151,-87.7949 278.6214,-77.7251 274.9166,-87.6511 281.9151,-87.7949"/>
</g>
<!-- BAM -->
<g id="node11" class="node">
<title>BAM</title>
<polygon fill="#94ddf4" stroke="#000000" points="180,-41.3 180,-77.3 234,-77.3 234,-41.3 180,-41.3"/>
<text text-anchor="middle" x="206.9439" y="-55.1" font-family="Times,serif" font-size="14.00" fill="#000000">BAM</text>
</g>
<!-- BaseRecal&#45;&gt;BAM -->
<g id="edge12" class="edge">
<title>BaseRecal&#45;&gt;BAM</title>
<path fill="none" stroke="#000000" d="M154.3034,-114.2551C162.8011,-105.3932 173.1875,-94.5616 182.486,-84.8646"/>
<polygon fill="#000000" stroke="#000000" points="185.2581,-87.0306 189.6531,-77.3904 180.2056,-82.1858 185.2581,-87.0306"/>
</g>
<!-- flagstat -->
<g id="node12" class="node">
<title>flagstat</title>
<polygon fill="#94ddf4" stroke="#000000" points="104.3969,-41.3 104.3969,-77.3 161.6031,-77.3 161.6031,-41.3 104.3969,-41.3"/>
<text text-anchor="middle" x="133" y="-55.1" font-family="Times,serif" font-size="14.00" fill="#000000">flagstat</text>
</g>
<!-- BaseRecal&#45;&gt;flagstat -->
<g id="edge13" class="edge">
<title>BaseRecal&#45;&gt;flagstat</title>
<path fill="none" stroke="#000000" d="M136.0112,-114.2551C135.5689,-106.1828 135.0371,-96.4764 134.5442,-87.4817"/>
<polygon fill="#000000" stroke="#000000" points="138.0332,-87.1839 133.9913,-77.3904 131.0437,-87.5669 138.0332,-87.1839"/>
</g>
<!-- stats -->
<g id="node14" class="node">
<title>stats</title>
<polygon fill="#94ddf4" stroke="#000000" points="32,-41.3 32,-77.3 86,-77.3 86,-41.3 32,-41.3"/>
<text text-anchor="middle" x="58.9425" y="-55.1" font-family="Times,serif" font-size="14.00" fill="#000000">stats</text>
</g>
<!-- BaseRecal&#45;&gt;stats -->
<g id="edge15" class="edge">
<title>BaseRecal&#45;&gt;stats</title>
<path fill="none" stroke="#000000" d="M117.7191,-114.2551C108.0627,-105.2177 96.2176,-94.1319 85.7016,-84.2899"/>
<polygon fill="#000000" stroke="#000000" points="88.0223,-81.6681 78.3294,-77.3904 83.239,-86.779 88.0223,-81.6681"/>
</g>
<!-- bwaAlign -->
<g id="node3" class="node">
<title>bwaAlign</title>
<polygon fill="#f3cea1" stroke="#000000" points="285.3955,-260.3 285.3955,-296.3 356.6045,-296.3 356.6045,-260.3 285.3955,-260.3"/>
<text text-anchor="middle" x="321" y="-274.1" font-family="Times,serif" font-size="14.00" fill="#000000">bwaAlign</text>
</g>
<!-- bwaAlign&#45;&gt;markdup -->
<g id="edge2" class="edge">
<title>bwaAlign&#45;&gt;markdup</title>
<path fill="none" stroke="#000000" d="M309.8764,-260.2551C304.6299,-251.7441 298.2636,-241.4165 292.4724,-232.0219"/>
<polygon fill="#000000" stroke="#000000" points="295.3785,-230.0663 287.1516,-223.3904 289.4197,-233.7396 295.3785,-230.0663"/>
</g>
<!-- knowSites -->
<g id="node4" class="node">
<title>knowSites</title>
<polygon fill="#94ddf4" stroke="#000000" points="15.8352,-338.1 15.8352,-374.1 90.1648,-374.1 90.1648,-338.1 15.8352,-338.1"/>
<text text-anchor="middle" x="53" y="-351.9" font-family="Times,serif" font-size="14.00" fill="#000000">knowSites</text>
</g>
<!-- knowSites&#45;&gt;BaseRecal -->
<g id="edge3" class="edge">
<title>knowSites&#45;&gt;BaseRecal</title>
<path fill="none" stroke="#000000" d="M59.8741,-337.7855C74.5853,-298.5905 109.1942,-206.3827 126.6079,-159.9875"/>
<polygon fill="#000000" stroke="#000000" points="129.9115,-161.1459 130.1488,-150.5537 123.3579,-158.686 129.9115,-161.1459"/>
</g>
<!-- outBam -->
<g id="node5" class="node">
<title>outBam</title>
<polygon fill="#94ddf4" stroke="#000000" points="107.8338,-338.1 107.8338,-374.1 168.1662,-374.1 168.1662,-338.1 107.8338,-338.1"/>
<text text-anchor="middle" x="138" y="-351.9" font-family="Times,serif" font-size="14.00" fill="#000000">outBam</text>
</g>
<!-- outBam&#45;&gt;markdup -->
<g id="edge5" class="edge">
<title>outBam&#45;&gt;markdup</title>
<path fill="none" stroke="#000000" d="M150.7953,-338.0731C158.1503,-328.0243 167.7426,-315.4308 177,-304.8 199.9879,-278.4015 228.349,-250.2999 248.8152,-230.7185"/>
<polygon fill="#000000" stroke="#000000" points="251.4109,-233.08 256.2448,-223.6522 246.5867,-228.0078 251.4109,-233.08"/>
</g>
<!-- outBam&#45;&gt;BaseRecal -->
<g id="edge4" class="edge">
<title>outBam&#45;&gt;BaseRecal</title>
<path fill="none" stroke="#000000" d="M137.9182,-337.7855C137.7438,-298.7548 137.3345,-207.155 137.1263,-160.5735"/>
<polygon fill="#000000" stroke="#000000" points="140.6263,-160.5379 137.0816,-150.5537 133.6264,-160.5693 140.6263,-160.5379"/>
</g>
<!-- Ref -->
<g id="node6" class="node">
<title>Ref</title>
<polygon fill="#94ddf4" stroke="#000000" points="186,-338.1 186,-374.1 240,-374.1 240,-338.1 186,-338.1"/>
<text text-anchor="middle" x="212.6059" y="-351.9" font-family="Times,serif" font-size="14.00" fill="#000000">Ref</text>
</g>
<!-- Ref&#45;&gt;BaseRecal -->
<g id="edge6" class="edge">
<title>Ref&#45;&gt;BaseRecal</title>
<path fill="none" stroke="#000000" d="M206.7806,-337.7855C193.4983,-298.6726 162.2889,-206.7691 146.5017,-160.2799"/>
<polygon fill="#000000" stroke="#000000" points="149.7285,-158.8971 143.1987,-150.5537 143.1002,-161.1481 149.7285,-158.8971"/>
</g>
<!-- Ref&#45;&gt;bwaAlign -->
<g id="edge7" class="edge">
<title>Ref&#45;&gt;bwaAlign</title>
<path fill="none" stroke="#000000" d="M222.1445,-337.8162C228.4014,-326.9232 237.6169,-313.5577 249,-304.8 256.8352,-298.7719 266.179,-294.0117 275.4981,-290.2909"/>
<polygon fill="#000000" stroke="#000000" points="276.9382,-293.4914 285.1364,-286.7802 274.5424,-286.9141 276.9382,-293.4914"/>
</g>
<!-- FQ1s -->
<g id="node7" class="node">
<title>FQ1s</title>
<polygon fill="#94ddf4" stroke="#000000" points="402,-338.1 402,-374.1 456,-374.1 456,-338.1 402,-338.1"/>
<text text-anchor="middle" x="428.6669" y="-351.9" font-family="Times,serif" font-size="14.00" fill="#000000">FQ1s</text>
</g>
<!-- FQ1s&#45;&gt;bwaAlign -->
<g id="edge8" class="edge">
<title>FQ1s&#45;&gt;bwaAlign</title>
<path fill="none" stroke="#000000" d="M419.8555,-337.8162C413.5986,-326.9232 404.3831,-313.5577 393,-304.8 385.1648,-298.7719 375.821,-294.0117 366.5019,-290.2909"/>
<polygon fill="#000000" stroke="#000000" points="367.4576,-286.9141 356.8636,-286.7802 365.0618,-293.4914 367.4576,-286.9141"/>
</g>
<!-- FQ2s -->
<g id="node8" class="node">
<title>FQ2s</title>
<polygon fill="#94ddf4" stroke="#000000" points="330,-338.1 330,-374.1 384,-374.1 384,-338.1 330,-338.1"/>
<text text-anchor="middle" x="356.6669" y="-351.9" font-family="Times,serif" font-size="14.00" fill="#000000">FQ2s</text>
</g>
<!-- FQ2s&#45;&gt;bwaAlign -->
<g id="edge9" class="edge">
<title>FQ2s&#45;&gt;bwaAlign</title>
<path fill="none" stroke="#000000" d="M348.6504,-338.0556C344.2294,-328.5013 338.7057,-316.564 333.7601,-305.8761"/>
<polygon fill="#000000" stroke="#000000" points="336.805,-304.1218 329.429,-296.5161 330.4521,-307.0614 336.805,-304.1218"/>
</g>
<!-- RG -->
<g id="node9" class="node">
<title>RG</title>
<polygon fill="#94ddf4" stroke="#000000" points="258,-338.1 258,-374.1 312,-374.1 312,-338.1 258,-338.1"/>
<text text-anchor="middle" x="284.7216" y="-351.9" font-family="Times,serif" font-size="14.00" fill="#000000">RG</text>
</g>
<!-- RG&#45;&gt;bwaAlign -->
<g id="edge10" class="edge">
<title>RG&#45;&gt;bwaAlign</title>
<path fill="none" stroke="#000000" d="M293.3496,-338.0556C297.7706,-328.5013 303.2943,-316.564 308.2399,-305.8761"/>
<polygon fill="#000000" stroke="#000000" points="311.5479,-307.0614 312.571,-296.5161 305.195,-304.1218 311.5479,-307.0614"/>
</g>
<!-- threads -->
<g id="node10" class="node">
<title>threads</title>
<polygon fill="#94ddf4" stroke="#000000" points="473.7875,-338.1 473.7875,-374.1 530.2125,-374.1 530.2125,-338.1 473.7875,-338.1"/>
<text text-anchor="middle" x="502" y="-351.9" font-family="Times,serif" font-size="14.00" fill="#000000">threads</text>
</g>
<!-- threads&#45;&gt;bwaAlign -->
<g id="edge11" class="edge">
<title>threads&#45;&gt;bwaAlign</title>
<path fill="none" stroke="#000000" d="M493.413,-337.863C487.1329,-326.5571 477.5287,-312.7244 465,-304.8 449.0153,-294.6897 402.9566,-287.3792 367.1887,-283.0296"/>
<polygon fill="#000000" stroke="#000000" points="367.2755,-279.516 356.9361,-281.8283 366.4608,-286.4684 367.2755,-279.516"/>
</g>
</g>
</svg>

