<?xml version="1.0" encoding="UTF-8" standalone="no"?>
<!DOCTYPE svg PUBLIC "-//W3C//DTD SVG 1.1//EN"
 "http://www.w3.org/Graphics/SVG/1.1/DTD/svg11.dtd">
<!-- Generated by graphviz version 2.40.1 (20161225.0304)
 -->
<!-- Title: G Pages: 1 -->
<svg width="238pt" height="326pt"
 viewBox="0.00 0.00 238.00 325.60" xmlns="http://www.w3.org/2000/svg" xmlns:xlink="http://www.w3.org/1999/xlink">
<g id="graph0" class="graph" transform="scale(1 1) rotate(0) translate(4 321.6)">
<title>G</title>
<polygon fill="#eeeeee" stroke="transparent" points="-4,4 -4,-321.6 234,-321.6 234,4 -4,4"/>
<g id="clust1" class="cluster">
<title>cluster_inputs</title>
<polygon fill="#eeeeee" stroke="#000000" stroke-dasharray="5,2" points="8,-231.8 8,-309.6 222,-309.6 222,-231.8 8,-231.8"/>
<text text-anchor="middle" x="165.9856" y="-240" font-family="Times,serif" font-size="14.00" fill="#000000">Workflow Inputs</text>
</g>
<g id="clust2" class="cluster">
<title>cluster_outputs</title>
<polygon fill="#eeeeee" stroke="#000000" stroke-dasharray="5,2" points="55,-8 55,-85.8 176,-85.8 176,-8 55,-8"/>
<text text-anchor="middle" x="115.3173" y="-16.2" font-family="Times,serif" font-size="14.00" fill="#000000">Workflow Outputs</text>
</g>
<!-- CombineGVCFs -->
<g id="node1" class="node">
<title>CombineGVCFs</title>
<polygon fill="#fafad2" stroke="#000000" points="59.9453,-187.3 59.9453,-223.3 170.0547,-223.3 170.0547,-187.3 59.9453,-187.3"/>
<text text-anchor="middle" x="115" y="-201.1" font-family="Times,serif" font-size="14.00" fill="#000000">CombineGVCFs</text>
</g>
<!-- GenotypeGVCFs -->
<g id="node2" class="node">
<title>GenotypeGVCFs</title>
<polygon fill="#fafad2" stroke="#000000" points="58.3983,-114.3 58.3983,-150.3 171.6017,-150.3 171.6017,-114.3 58.3983,-114.3"/>
<text text-anchor="middle" x="115" y="-128.1" font-family="Times,serif" font-size="14.00" fill="#000000">GenotypeGVCFs</text>
</g>
<!-- CombineGVCFs&#45;&gt;GenotypeGVCFs -->
<g id="edge1" class="edge">
<title>CombineGVCFs&#45;&gt;GenotypeGVCFs</title>
<path fill="none" stroke="#000000" d="M115,-187.2551C115,-179.1828 115,-169.4764 115,-160.4817"/>
<polygon fill="#000000" stroke="#000000" points="118.5001,-160.3903 115,-150.3904 111.5001,-160.3904 118.5001,-160.3903"/>
</g>
<!-- VCF -->
<g id="node6" class="node">
<title>VCF</title>
<polygon fill="#94ddf4" stroke="#000000" points="88,-41.3 88,-77.3 142,-77.3 142,-41.3 88,-41.3"/>
<text text-anchor="middle" x="114.6129" y="-55.1" font-family="Times,serif" font-size="14.00" fill="#000000">VCF</text>
</g>
<!-- GenotypeGVCFs&#45;&gt;VCF -->
<g id="edge7" class="edge">
<title>GenotypeGVCFs&#45;&gt;VCF</title>
<path fill="none" stroke="#000000" d="M115,-114.2551C115,-106.1828 115,-96.4764 115,-87.4817"/>
<polygon fill="#000000" stroke="#000000" points="118.5001,-87.3903 115,-77.3904 111.5001,-87.3904 118.5001,-87.3903"/>
</g>
<!-- Ref -->
<g id="node3" class="node">
<title>Ref</title>
<polygon fill="#94ddf4" stroke="#000000" points="16,-265.1 16,-301.1 70,-301.1 70,-265.1 16,-265.1"/>
<text text-anchor="middle" x="42.6059" y="-278.9" font-family="Times,serif" font-size="14.00" fill="#000000">Ref</text>
</g>
<!-- Ref&#45;&gt;CombineGVCFs -->
<g id="edge2" class="edge">
<title>Ref&#45;&gt;CombineGVCFs</title>
<path fill="none" stroke="#000000" d="M53.6982,-264.9191C60.2643,-254.5837 69.2643,-241.7587 79,-231.8 79.529,-231.2589 80.0698,-230.7206 80.621,-230.1857"/>
<polygon fill="#000000" stroke="#000000" points="83.0496,-232.7104 88.2269,-223.4667 78.4151,-227.4642 83.0496,-232.7104"/>
</g>
<!-- Ref&#45;&gt;GenotypeGVCFs -->
<g id="edge3" class="edge">
<title>Ref&#45;&gt;GenotypeGVCFs</title>
<path fill="none" stroke="#000000" d="M40.5565,-264.9488C38.696,-244.7124 38.285,-211.5766 51,-186.8 56.9938,-175.1205 66.6773,-164.9199 76.7175,-156.6009"/>
<polygon fill="#000000" stroke="#000000" points="79.0293,-159.2371 84.7823,-150.3403 74.7368,-153.7076 79.0293,-159.2371"/>
</g>
<!-- out -->
<g id="node4" class="node">
<title>out</title>
<polygon fill="#94ddf4" stroke="#000000" points="160,-265.1 160,-301.1 214,-301.1 214,-265.1 160,-265.1"/>
<text text-anchor="middle" x="186.9453" y="-278.9" font-family="Times,serif" font-size="14.00" fill="#000000">out</text>
</g>
<!-- out&#45;&gt;CombineGVCFs -->
<g id="edge4" class="edge">
<title>out&#45;&gt;CombineGVCFs</title>
<path fill="none" stroke="#000000" d="M176.3018,-264.9191C169.7357,-254.5837 160.7357,-241.7587 151,-231.8 150.471,-231.2589 149.9302,-230.7206 149.379,-230.1857"/>
<polygon fill="#000000" stroke="#000000" points="151.5849,-227.4642 141.7731,-223.4667 146.9504,-232.7104 151.5849,-227.4642"/>
</g>
<!-- out&#45;&gt;GenotypeGVCFs -->
<g id="edge5" class="edge">
<title>out&#45;&gt;GenotypeGVCFs</title>
<path fill="none" stroke="#000000" d="M189.4435,-264.9488C191.304,-244.7124 191.715,-211.5766 179,-186.8 173.0062,-175.1205 163.3227,-164.9199 153.2825,-156.6009"/>
<polygon fill="#000000" stroke="#000000" points="155.2632,-153.7076 145.2177,-150.3403 150.9707,-159.2371 155.2632,-153.7076"/>
</g>
<!-- vcfs -->
<g id="node5" class="node">
<title>vcfs</title>
<polygon fill="#94ddf4" stroke="#000000" points="88,-265.1 88,-301.1 142,-301.1 142,-265.1 88,-265.1"/>
<text text-anchor="middle" x="114.6599" y="-278.9" font-family="Times,serif" font-size="14.00" fill="#000000">vcfs</text>
</g>
<!-- vcfs&#45;&gt;CombineGVCFs -->
<g id="edge6" class="edge">
<title>vcfs&#45;&gt;CombineGVCFs</title>
<path fill="none" stroke="#000000" d="M115,-265.0556C115,-255.6963 115,-244.0503 115,-233.532"/>
<polygon fill="#000000" stroke="#000000" points="118.5001,-233.516 115,-223.5161 111.5001,-233.5161 118.5001,-233.516"/>
</g>
</g>
</svg>

