<?xml version="1.0" encoding="UTF-8" standalone="no"?>
<!DOCTYPE svg PUBLIC "-//W3C//DTD SVG 1.1//EN"
 "http://www.w3.org/Graphics/SVG/1.1/DTD/svg11.dtd">
<!-- Generated by graphviz version 2.40.1 (20161225.0304)
 -->
<!-- Title: G Pages: 1 -->
<svg width="394pt" height="472pt"
 viewBox="0.00 0.00 394.00 471.60" xmlns="http://www.w3.org/2000/svg" xmlns:xlink="http://www.w3.org/1999/xlink">
<g id="graph0" class="graph" transform="scale(1 1) rotate(0) translate(4 467.6)">
<title>G</title>
<polygon fill="#eeeeee" stroke="transparent" points="-4,4 -4,-467.6 390,-467.6 390,4 -4,4"/>
<g id="clust1" class="cluster">
<title>cluster_inputs</title>
<polygon fill="#eeeeee" stroke="#000000" stroke-dasharray="5,2" points="8,-377.8 8,-455.6 378,-455.6 378,-377.8 8,-377.8"/>
<text text-anchor="middle" x="321.9856" y="-386" font-family="Times,serif" font-size="14.00" fill="#000000">Workflow Inputs</text>
</g>
<g id="clust2" class="cluster">
<title>cluster_outputs</title>
<polygon fill="#eeeeee" stroke="#000000" stroke-dasharray="5,2" points="186,-8 186,-85.8 307,-85.8 307,-8 186,-8"/>
<text text-anchor="middle" x="246.3173" y="-16.2" font-family="Times,serif" font-size="14.00" fill="#000000">Workflow Outputs</text>
</g>
<!-- fpaste -->
<g id="node1" class="node">
<title>fpaste</title>
<polygon fill="#fafad2" stroke="#000000" points="219,-187.3 219,-223.3 273,-223.3 273,-187.3 219,-187.3"/>
<text text-anchor="middle" x="245.7125" y="-201.1" font-family="Times,serif" font-size="14.00" fill="#000000">fpaste</text>
</g>
<!-- dellyFilter -->
<g id="node2" class="node">
<title>dellyFilter</title>
<polygon fill="#fafad2" stroke="#000000" points="208.8373,-114.3 208.8373,-150.3 283.1627,-150.3 283.1627,-114.3 208.8373,-114.3"/>
<text text-anchor="middle" x="246" y="-128.1" font-family="Times,serif" font-size="14.00" fill="#000000">dellyFilter</text>
</g>
<!-- fpaste&#45;&gt;dellyFilter -->
<g id="edge1" class="edge">
<title>fpaste&#45;&gt;dellyFilter</title>
<path fill="none" stroke="#000000" d="M246,-187.2551C246,-179.1828 246,-169.4764 246,-160.4817"/>
<polygon fill="#000000" stroke="#000000" points="249.5001,-160.3903 246,-150.3904 242.5001,-160.3904 249.5001,-160.3903"/>
</g>
<!-- bcf -->
<g id="node11" class="node">
<title>bcf</title>
<polygon fill="#94ddf4" stroke="#000000" points="219,-41.3 219,-77.3 273,-77.3 273,-41.3 219,-41.3"/>
<text text-anchor="middle" x="245.9376" y="-55.1" font-family="Times,serif" font-size="14.00" fill="#000000">bcf</text>
</g>
<!-- dellyFilter&#45;&gt;bcf -->
<g id="edge12" class="edge">
<title>dellyFilter&#45;&gt;bcf</title>
<path fill="none" stroke="#000000" d="M246,-114.2551C246,-106.1828 246,-96.4764 246,-87.4817"/>
<polygon fill="#000000" stroke="#000000" points="249.5001,-87.3903 246,-77.3904 242.5001,-87.3904 249.5001,-87.3903"/>
</g>
<!-- dellyCall -->
<g id="node3" class="node">
<title>dellyCall</title>
<polygon fill="#fafad2" stroke="#000000" points="156.3359,-333.3 156.3359,-369.3 223.6641,-369.3 223.6641,-333.3 156.3359,-333.3"/>
<text text-anchor="middle" x="190" y="-347.1" font-family="Times,serif" font-size="14.00" fill="#000000">dellyCall</text>
</g>
<!-- dellyCall&#45;&gt;dellyFilter -->
<g id="edge2" class="edge">
<title>dellyCall&#45;&gt;dellyFilter</title>
<path fill="none" stroke="#000000" d="M176.0973,-333.2449C169.1888,-323.126 161.5695,-309.929 158,-296.8 153.6857,-280.9316 153.108,-275.4999 158,-259.8 170.2924,-220.3499 199.5243,-182.3304 220.9368,-158.2325"/>
<polygon fill="#000000" stroke="#000000" points="223.7271,-160.3663 227.8629,-150.612 218.5469,-155.6582 223.7271,-160.3663"/>
</g>
<!-- listSample -->
<g id="node4" class="node">
<title>listSample</title>
<polygon fill="#fafad2" stroke="#000000" points="167.4453,-260.3 167.4453,-296.3 242.5547,-296.3 242.5547,-260.3 167.4453,-260.3"/>
<text text-anchor="middle" x="205" y="-274.1" font-family="Times,serif" font-size="14.00" fill="#000000">listSample</text>
</g>
<!-- dellyCall&#45;&gt;listSample -->
<g id="edge5" class="edge">
<title>dellyCall&#45;&gt;listSample</title>
<path fill="none" stroke="#000000" d="M193.7079,-333.2551C195.3846,-325.0951 197.4044,-315.2652 199.2694,-306.1887"/>
<polygon fill="#000000" stroke="#000000" points="202.6984,-306.8902 201.2828,-296.3904 195.8416,-305.4812 202.6984,-306.8902"/>
</g>
<!-- listSample&#45;&gt;fpaste -->
<g id="edge3" class="edge">
<title>listSample&#45;&gt;fpaste</title>
<path fill="none" stroke="#000000" d="M215.1348,-260.2551C219.8657,-251.8319 225.5959,-241.6292 230.8285,-232.3128"/>
<polygon fill="#000000" stroke="#000000" points="233.9943,-233.8233 235.8397,-223.3904 227.891,-230.3954 233.9943,-233.8233"/>
</g>
<!-- echo -->
<g id="node5" class="node">
<title>echo</title>
<polygon fill="#fafad2" stroke="#000000" points="261,-260.3 261,-296.3 315,-296.3 315,-260.3 261,-260.3"/>
<text text-anchor="middle" x="287.7146" y="-274.1" font-family="Times,serif" font-size="14.00" fill="#000000">echo</text>
</g>
<!-- echo&#45;&gt;fpaste -->
<g id="edge4" class="edge">
<title>echo&#45;&gt;fpaste</title>
<path fill="none" stroke="#000000" d="M277.618,-260.2551C272.7718,-251.8319 266.9018,-241.6292 261.5416,-232.3128"/>
<polygon fill="#000000" stroke="#000000" points="264.4289,-230.3127 256.4082,-223.3904 258.3614,-233.8036 264.4289,-230.3127"/>
</g>
<!-- exclude -->
<g id="node6" class="node">
<title>exclude</title>
<polygon fill="#94ddf4" stroke="#000000" points="238.2328,-411.1 238.2328,-447.1 297.7672,-447.1 297.7672,-411.1 238.2328,-411.1"/>
<text text-anchor="middle" x="268" y="-424.9" font-family="Times,serif" font-size="14.00" fill="#000000">exclude</text>
</g>
<!-- exclude&#45;&gt;dellyCall -->
<g id="edge6" class="edge">
<title>exclude&#45;&gt;dellyCall</title>
<path fill="none" stroke="#000000" d="M256.2938,-410.8398C249.1417,-400.4781 239.3917,-387.6531 229,-377.8 228.3243,-377.1593 227.6316,-376.5232 226.9249,-375.8926"/>
<polygon fill="#000000" stroke="#000000" points="228.9041,-372.9905 218.9418,-369.3845 224.481,-378.416 228.9041,-372.9905"/>
</g>
<!-- genome -->
<g id="node7" class="node">
<title>genome</title>
<polygon fill="#94ddf4" stroke="#000000" points="159.8401,-411.1 159.8401,-447.1 220.1599,-447.1 220.1599,-411.1 159.8401,-411.1"/>
<text text-anchor="middle" x="190" y="-424.9" font-family="Times,serif" font-size="14.00" fill="#000000">genome</text>
</g>
<!-- genome&#45;&gt;dellyCall -->
<g id="edge7" class="edge">
<title>genome&#45;&gt;dellyCall</title>
<path fill="none" stroke="#000000" d="M190,-411.0556C190,-401.6963 190,-390.0503 190,-379.532"/>
<polygon fill="#000000" stroke="#000000" points="193.5001,-379.516 190,-369.5161 186.5001,-379.5161 193.5001,-379.516"/>
</g>
<!-- nbam -->
<g id="node8" class="node">
<title>nbam</title>
<polygon fill="#94ddf4" stroke="#000000" points="88,-411.1 88,-447.1 142,-447.1 142,-411.1 88,-411.1"/>
<text text-anchor="middle" x="114.5526" y="-424.9" font-family="Times,serif" font-size="14.00" fill="#000000">nbam</text>
</g>
<!-- nbam&#45;&gt;dellyCall -->
<g id="edge8" class="edge">
<title>nbam&#45;&gt;dellyCall</title>
<path fill="none" stroke="#000000" d="M125.5587,-410.78C132.0782,-400.3983 141.0782,-387.5733 151,-377.8 151.5467,-377.2614 152.1057,-376.7268 152.6754,-376.1965"/>
<polygon fill="#000000" stroke="#000000" points="155.142,-378.6954 160.5464,-369.5826 150.6388,-373.3362 155.142,-378.6954"/>
</g>
<!-- outbcf -->
<g id="node9" class="node">
<title>outbcf</title>
<polygon fill="#94ddf4" stroke="#000000" points="316,-411.1 316,-447.1 370,-447.1 370,-411.1 316,-411.1"/>
<text text-anchor="middle" x="342.8829" y="-424.9" font-family="Times,serif" font-size="14.00" fill="#000000">outbcf</text>
</g>
<!-- outbcf&#45;&gt;dellyFilter -->
<g id="edge10" class="edge">
<title>outbcf&#45;&gt;dellyFilter</title>
<path fill="none" stroke="#000000" d="M343.3585,-410.7938C343.4528,-379.1734 341.329,-312.6353 324,-259.8 311.4852,-221.6427 285.5975,-183.0259 267.0782,-158.449"/>
<polygon fill="#000000" stroke="#000000" points="269.7362,-156.1637 260.869,-150.3651 264.1848,-160.4277 269.7362,-156.1637"/>
</g>
<!-- outbcf&#45;&gt;dellyCall -->
<g id="edge9" class="edge">
<title>outbcf&#45;&gt;dellyCall</title>
<path fill="none" stroke="#000000" d="M334.6508,-411.0357C328.5428,-399.8007 319.1987,-385.9821 307,-377.8 295.0228,-369.7665 261.7628,-362.6693 233.7526,-357.8466"/>
<polygon fill="#000000" stroke="#000000" points="234.159,-354.3662 223.7198,-356.1752 233.0087,-361.271 234.159,-354.3662"/>
</g>
<!-- tbam -->
<g id="node10" class="node">
<title>tbam</title>
<polygon fill="#94ddf4" stroke="#000000" points="16,-411.1 16,-447.1 70,-447.1 70,-411.1 16,-411.1"/>
<text text-anchor="middle" x="42.9979" y="-424.9" font-family="Times,serif" font-size="14.00" fill="#000000">tbam</text>
</g>
<!-- tbam&#45;&gt;dellyCall -->
<g id="edge11" class="edge">
<title>tbam&#45;&gt;dellyCall</title>
<path fill="none" stroke="#000000" d="M51.3812,-411.0831C57.5023,-399.8676 66.8491,-386.0528 79,-377.8 89.9964,-370.3314 119.9625,-363.4114 145.9904,-358.517"/>
<polygon fill="#000000" stroke="#000000" points="146.8819,-361.9123 156.0937,-356.6784 145.6286,-355.0254 146.8819,-361.9123"/>
</g>
</g>
</svg>

