<?xml version="1.0" encoding="UTF-8" standalone="no"?>
<!DOCTYPE svg PUBLIC "-//W3C//DTD SVG 1.1//EN"
 "http://www.w3.org/Graphics/SVG/1.1/DTD/svg11.dtd">
<!-- Generated by graphviz version 2.40.1 (20161225.0304)
 -->
<!-- Title: G Pages: 1 -->
<svg width="384pt" height="326pt"
 viewBox="0.00 0.00 384.00 325.60" xmlns="http://www.w3.org/2000/svg" xmlns:xlink="http://www.w3.org/1999/xlink">
<g id="graph0" class="graph" transform="scale(1 1) rotate(0) translate(4 321.6)">
<title>G</title>
<polygon fill="#eeeeee" stroke="transparent" points="-4,4 -4,-321.6 380,-321.6 380,4 -4,4"/>
<g id="clust1" class="cluster">
<title>cluster_inputs</title>
<polygon fill="#eeeeee" stroke="#000000" stroke-dasharray="5,2" points="8,-231.8 8,-309.6 368,-309.6 368,-231.8 8,-231.8"/>
<text text-anchor="middle" x="311.9856" y="-240" font-family="Times,serif" font-size="14.00" fill="#000000">Workflow Inputs</text>
</g>
<g id="clust2" class="cluster">
<title>cluster_outputs</title>
<polygon fill="#eeeeee" stroke="#000000" stroke-dasharray="5,2" points="83,-8 83,-85.8 204,-85.8 204,-8 83,-8"/>
<text text-anchor="middle" x="143.3173" y="-16.2" font-family="Times,serif" font-size="14.00" fill="#000000">Workflow Outputs</text>
</g>
<!-- glnexus -->
<g id="node1" class="node">
<title>glnexus</title>
<polygon fill="#fafad2" stroke="#000000" points="157.2251,-187.3 157.2251,-223.3 216.7749,-223.3 216.7749,-187.3 157.2251,-187.3"/>
<text text-anchor="middle" x="187" y="-201.1" font-family="Times,serif" font-size="14.00" fill="#000000">glnexus</text>
</g>
<!-- bcf -->
<g id="node2" class="node">
<title>bcf</title>
<polygon fill="#fafad2" stroke="#000000" points="116,-114.3 116,-150.3 170,-150.3 170,-114.3 116,-114.3"/>
<text text-anchor="middle" x="142.9376" y="-128.1" font-family="Times,serif" font-size="14.00" fill="#000000">bcf</text>
</g>
<!-- glnexus&#45;&gt;bcf -->
<g id="edge1" class="edge">
<title>glnexus&#45;&gt;bcf</title>
<path fill="none" stroke="#000000" d="M176.1236,-187.2551C170.9937,-178.7441 164.7688,-168.4165 159.1064,-159.0219"/>
<polygon fill="#000000" stroke="#000000" points="162.0636,-157.1481 153.9038,-150.3904 156.0684,-160.7617 162.0636,-157.1481"/>
</g>
<!-- outVcf -->
<g id="node8" class="node">
<title>outVcf</title>
<polygon fill="#94ddf4" stroke="#000000" points="115.5638,-41.3 115.5638,-77.3 170.4362,-77.3 170.4362,-41.3 115.5638,-41.3"/>
<text text-anchor="middle" x="143" y="-55.1" font-family="Times,serif" font-size="14.00" fill="#000000">outVcf</text>
</g>
<!-- bcf&#45;&gt;outVcf -->
<g id="edge7" class="edge">
<title>bcf&#45;&gt;outVcf</title>
<path fill="none" stroke="#000000" d="M143,-114.2551C143,-106.1828 143,-96.4764 143,-87.4817"/>
<polygon fill="#000000" stroke="#000000" points="146.5001,-87.3903 143,-77.3904 139.5001,-87.3904 146.5001,-87.3903"/>
</g>
<!-- ovcf -->
<g id="node3" class="node">
<title>ovcf</title>
<polygon fill="#94ddf4" stroke="#000000" points="16,-265.1 16,-301.1 70,-301.1 70,-265.1 16,-265.1"/>
<text text-anchor="middle" x="42.9376" y="-278.9" font-family="Times,serif" font-size="14.00" fill="#000000">ovcf</text>
</g>
<!-- ovcf&#45;&gt;bcf -->
<g id="edge2" class="edge">
<title>ovcf&#45;&gt;bcf</title>
<path fill="none" stroke="#000000" d="M55.0623,-264.91C72.556,-238.5296 105.08,-189.4833 125.2947,-158.9996"/>
<polygon fill="#000000" stroke="#000000" points="128.2852,-160.8229 130.8949,-150.5545 122.4513,-156.9543 128.2852,-160.8229"/>
</g>
<!-- bed -->
<g id="node4" class="node">
<title>bed</title>
<polygon fill="#94ddf4" stroke="#000000" points="232,-265.1 232,-301.1 286,-301.1 286,-265.1 232,-265.1"/>
<text text-anchor="middle" x="258.6073" y="-278.9" font-family="Times,serif" font-size="14.00" fill="#000000">bed</text>
</g>
<!-- bed&#45;&gt;glnexus -->
<g id="edge3" class="edge">
<title>bed&#45;&gt;glnexus</title>
<path fill="none" stroke="#000000" d="M248.3018,-264.9191C241.7357,-254.5837 232.7357,-241.7587 223,-231.8 222.471,-231.2589 221.9302,-230.7206 221.379,-230.1857"/>
<polygon fill="#000000" stroke="#000000" points="223.5849,-227.4642 213.7731,-223.4667 218.9504,-232.7104 223.5849,-227.4642"/>
</g>
<!-- config -->
<g id="node5" class="node">
<title>config</title>
<polygon fill="#94ddf4" stroke="#000000" points="160,-265.1 160,-301.1 214,-301.1 214,-265.1 160,-265.1"/>
<text text-anchor="middle" x="186.8829" y="-278.9" font-family="Times,serif" font-size="14.00" fill="#000000">config</text>
</g>
<!-- config&#45;&gt;glnexus -->
<g id="edge4" class="edge">
<title>config&#45;&gt;glnexus</title>
<path fill="none" stroke="#000000" d="M187,-265.0556C187,-255.6963 187,-244.0503 187,-233.532"/>
<polygon fill="#000000" stroke="#000000" points="190.5001,-233.516 187,-223.5161 183.5001,-233.5161 190.5001,-233.516"/>
</g>
<!-- gvcfs -->
<g id="node6" class="node">
<title>gvcfs</title>
<polygon fill="#94ddf4" stroke="#000000" points="88,-265.1 88,-301.1 142,-301.1 142,-265.1 88,-265.1"/>
<text text-anchor="middle" x="114.6599" y="-278.9" font-family="Times,serif" font-size="14.00" fill="#000000">gvcfs</text>
</g>
<!-- gvcfs&#45;&gt;glnexus -->
<g id="edge5" class="edge">
<title>gvcfs&#45;&gt;glnexus</title>
<path fill="none" stroke="#000000" d="M125.6982,-264.9191C132.2643,-254.5837 141.2643,-241.7587 151,-231.8 151.529,-231.2589 152.0698,-230.7206 152.621,-230.1857"/>
<polygon fill="#000000" stroke="#000000" points="155.0496,-232.7104 160.2269,-223.4667 150.4151,-227.4642 155.0496,-232.7104"/>
</g>
<!-- threads -->
<g id="node7" class="node">
<title>threads</title>
<polygon fill="#94ddf4" stroke="#000000" points="303.7875,-265.1 303.7875,-301.1 360.2125,-301.1 360.2125,-265.1 303.7875,-265.1"/>
<text text-anchor="middle" x="332" y="-278.9" font-family="Times,serif" font-size="14.00" fill="#000000">threads</text>
</g>
<!-- threads&#45;&gt;glnexus -->
<g id="edge6" class="edge">
<title>threads&#45;&gt;glnexus</title>
<path fill="none" stroke="#000000" d="M323.1121,-264.8574C316.7657,-253.6967 307.2,-240.0268 295,-231.8 283.8364,-224.2721 252.7757,-217.0804 226.8144,-212.0933"/>
<polygon fill="#000000" stroke="#000000" points="227.2758,-208.6191 216.8038,-210.2283 225.9936,-215.5007 227.2758,-208.6191"/>
</g>
</g>
</svg>

