<?xml version="1.0" encoding="UTF-8" standalone="no"?>
<!DOCTYPE svg PUBLIC "-//W3C//DTD SVG 1.1//EN"
 "http://www.w3.org/Graphics/SVG/1.1/DTD/svg11.dtd">
<!-- Generated by graphviz version 2.40.1 (20161225.0304)
 -->
<!-- Title: G Pages: 1 -->
<svg width="761pt" height="326pt"
 viewBox="0.00 0.00 761.00 325.60" xmlns="http://www.w3.org/2000/svg" xmlns:xlink="http://www.w3.org/1999/xlink">
<g id="graph0" class="graph" transform="scale(1 1) rotate(0) translate(4 321.6)">
<title>G</title>
<polygon fill="#eeeeee" stroke="transparent" points="-4,4 -4,-321.6 757,-321.6 757,4 -4,4"/>
<g id="clust1" class="cluster">
<title>cluster_inputs</title>
<polygon fill="#eeeeee" stroke="#000000" stroke-dasharray="5,2" points="8,-231.8 8,-309.6 745,-309.6 745,-231.8 8,-231.8"/>
<text text-anchor="middle" x="688.9856" y="-240" font-family="Times,serif" font-size="14.00" fill="#000000">Workflow Inputs</text>
</g>
<g id="clust2" class="cluster">
<title>cluster_outputs</title>
<polygon fill="#eeeeee" stroke="#000000" stroke-dasharray="5,2" points="16,-8 16,-85.8 158,-85.8 158,-8 16,-8"/>
<text text-anchor="middle" x="97.3173" y="-16.2" font-family="Times,serif" font-size="14.00" fill="#000000">Workflow Outputs</text>
</g>
<!-- jdJson -->
<g id="node1" class="node">
<title>jdJson</title>
<polygon fill="#fafad2" stroke="#000000" points="364,-187.3 364,-223.3 418,-223.3 418,-187.3 364,-187.3"/>
<text text-anchor="middle" x="390.8899" y="-201.1" font-family="Times,serif" font-size="14.00" fill="#000000">jdJson</text>
</g>
<!-- JD -->
<g id="node2" class="node">
<title>JD</title>
<polygon fill="#fafad2" stroke="#000000" points="102,-114.3 102,-150.3 156,-150.3 156,-114.3 102,-114.3"/>
<text text-anchor="middle" x="128.7756" y="-128.1" font-family="Times,serif" font-size="14.00" fill="#000000">JD</text>
</g>
<!-- jdJson&#45;&gt;JD -->
<g id="edge1" class="edge">
<title>jdJson&#45;&gt;JD</title>
<path fill="none" stroke="#000000" d="M363.9482,-197.7627C316.7826,-184.6211 219.4425,-157.4996 166.048,-142.6225"/>
<polygon fill="#000000" stroke="#000000" points="166.8696,-139.2182 156.2971,-139.9057 164.9908,-145.9614 166.8696,-139.2182"/>
</g>
<!-- hclog -->
<g id="node11" class="node">
<title>hclog</title>
<polygon fill="#94ddf4" stroke="#000000" points="96,-41.3 96,-77.3 150,-77.3 150,-41.3 96,-41.3"/>
<text text-anchor="middle" x="122.5526" y="-55.1" font-family="Times,serif" font-size="14.00" fill="#000000">hclog</text>
</g>
<!-- JD&#45;&gt;hclog -->
<g id="edge10" class="edge">
<title>JD&#45;&gt;hclog</title>
<path fill="none" stroke="#000000" d="M127.5169,-114.2551C126.8534,-106.1828 126.0556,-96.4764 125.3163,-87.4817"/>
<polygon fill="#000000" stroke="#000000" points="128.7944,-87.07 124.4869,-77.3904 121.8179,-87.6435 128.7944,-87.07"/>
</g>
<!-- cromwell -->
<g id="node3" class="node">
<title>cromwell</title>
<polygon fill="#94ddf4" stroke="#000000" points="15.5659,-265.1 15.5659,-301.1 84.4341,-301.1 84.4341,-265.1 15.5659,-265.1"/>
<text text-anchor="middle" x="50" y="-278.9" font-family="Times,serif" font-size="14.00" fill="#000000">cromwell</text>
</g>
<!-- cromwell&#45;&gt;JD -->
<g id="edge2" class="edge">
<title>cromwell&#45;&gt;JD</title>
<path fill="none" stroke="#000000" d="M59.5292,-264.91C73.2306,-238.7561 98.603,-190.3236 114.5994,-159.7887"/>
<polygon fill="#000000" stroke="#000000" points="117.8967,-161.0368 119.437,-150.5545 111.6961,-157.7884 117.8967,-161.0368"/>
</g>
<!-- wdl -->
<g id="node4" class="node">
<title>wdl</title>
<polygon fill="#94ddf4" stroke="#000000" points="102,-265.1 102,-301.1 156,-301.1 156,-265.1 102,-265.1"/>
<text text-anchor="middle" x="128.9986" y="-278.9" font-family="Times,serif" font-size="14.00" fill="#000000">wdl</text>
</g>
<!-- wdl&#45;&gt;JD -->
<g id="edge3" class="edge">
<title>wdl&#45;&gt;JD</title>
<path fill="none" stroke="#000000" d="M129,-264.91C129,-238.9825 129,-191.1606 129,-160.5858"/>
<polygon fill="#000000" stroke="#000000" points="132.5001,-160.5545 129,-150.5545 125.5001,-160.5545 132.5001,-160.5545"/>
</g>
<!-- callsetName -->
<g id="node5" class="node">
<title>callsetName</title>
<polygon fill="#94ddf4" stroke="#000000" points="436.4067,-265.1 436.4067,-301.1 521.5933,-301.1 521.5933,-265.1 436.4067,-265.1"/>
<text text-anchor="middle" x="479" y="-278.9" font-family="Times,serif" font-size="14.00" fill="#000000">callsetName</text>
</g>
<!-- callsetName&#45;&gt;jdJson -->
<g id="edge4" class="edge">
<title>callsetName&#45;&gt;jdJson</title>
<path fill="none" stroke="#000000" d="M461.7926,-264.8745C451.94,-254.7635 439.1532,-242.1741 427,-231.8 426.1736,-231.0946 425.33,-230.3871 424.4734,-229.6798"/>
<polygon fill="#000000" stroke="#000000" points="426.5435,-226.8545 416.5332,-223.3841 422.1944,-232.3396 426.5435,-226.8545"/>
</g>
<!-- gvcf -->
<g id="node6" class="node">
<title>gvcf</title>
<polygon fill="#94ddf4" stroke="#000000" points="364,-265.1 364,-301.1 418,-301.1 418,-265.1 364,-265.1"/>
<text text-anchor="middle" x="390.9376" y="-278.9" font-family="Times,serif" font-size="14.00" fill="#000000">gvcf</text>
</g>
<!-- gvcf&#45;&gt;jdJson -->
<g id="edge5" class="edge">
<title>gvcf&#45;&gt;jdJson</title>
<path fill="none" stroke="#000000" d="M391,-265.0556C391,-255.6963 391,-244.0503 391,-233.532"/>
<polygon fill="#000000" stroke="#000000" points="394.5001,-233.516 391,-223.5161 387.5001,-233.5161 394.5001,-233.516"/>
</g>
<!-- intervals -->
<g id="node7" class="node">
<title>intervals</title>
<polygon fill="#94ddf4" stroke="#000000" points="281.8969,-265.1 281.8969,-301.1 346.1031,-301.1 346.1031,-265.1 281.8969,-265.1"/>
<text text-anchor="middle" x="314" y="-278.9" font-family="Times,serif" font-size="14.00" fill="#000000">intervals</text>
</g>
<!-- intervals&#45;&gt;jdJson -->
<g id="edge6" class="edge">
<title>intervals&#45;&gt;jdJson</title>
<path fill="none" stroke="#000000" d="M326.6084,-265.0342C334.2279,-254.7373 344.4779,-241.9123 355,-231.8 355.661,-231.1648 356.3376,-230.5317 357.027,-229.9021"/>
<polygon fill="#000000" stroke="#000000" points="359.4082,-232.4719 364.7736,-223.336 354.8821,-227.132 359.4082,-232.4719"/>
</g>
<!-- sampleName -->
<g id="node8" class="node">
<title>sampleName</title>
<polygon fill="#94ddf4" stroke="#000000" points="174.4593,-265.1 174.4593,-301.1 263.5407,-301.1 263.5407,-265.1 174.4593,-265.1"/>
<text text-anchor="middle" x="219" y="-278.9" font-family="Times,serif" font-size="14.00" fill="#000000">sampleName</text>
</g>
<!-- sampleName&#45;&gt;jdJson -->
<g id="edge7" class="edge">
<title>sampleName&#45;&gt;jdJson</title>
<path fill="none" stroke="#000000" d="M233.4661,-265.0617C243.4252,-253.8374 257.6,-240.0209 273,-231.8 298.0089,-218.4497 329.4617,-211.8103 353.6043,-208.5165"/>
<polygon fill="#000000" stroke="#000000" points="354.2995,-211.9575 363.7976,-207.2631 353.4451,-205.0098 354.2995,-211.9575"/>
</g>
<!-- tmpl -->
<g id="node9" class="node">
<title>tmpl</title>
<polygon fill="#94ddf4" stroke="#000000" points="683,-265.1 683,-301.1 737,-301.1 737,-265.1 683,-265.1"/>
<text text-anchor="middle" x="709.8359" y="-278.9" font-family="Times,serif" font-size="14.00" fill="#000000">tmpl</text>
</g>
<!-- tmpl&#45;&gt;jdJson -->
<g id="edge8" class="edge">
<title>tmpl&#45;&gt;jdJson</title>
<path fill="none" stroke="#000000" d="M702.2513,-265.0034C696.294,-253.4513 686.8902,-239.2858 674,-231.8 653.2061,-219.7243 500.0201,-210.6749 428.0986,-207.0438"/>
<polygon fill="#000000" stroke="#000000" points="428.2636,-203.5478 418.1023,-206.5477 427.9165,-210.5392 428.2636,-203.5478"/>
</g>
<!-- unpadded_intervals -->
<g id="node10" class="node">
<title>unpadded_intervals</title>
<polygon fill="#94ddf4" stroke="#000000" points="539.1823,-265.1 539.1823,-301.1 664.8177,-301.1 664.8177,-265.1 539.1823,-265.1"/>
<text text-anchor="middle" x="602" y="-278.9" font-family="Times,serif" font-size="14.00" fill="#000000">unpadded_intervals</text>
</g>
<!-- unpadded_intervals&#45;&gt;jdJson -->
<g id="edge9" class="edge">
<title>unpadded_intervals&#45;&gt;jdJson</title>
<path fill="none" stroke="#000000" d="M582.0479,-264.9909C568.571,-253.7375 549.8578,-239.9152 531,-231.8 497.9122,-217.5611 457.1688,-210.9467 428.1847,-207.89"/>
<polygon fill="#000000" stroke="#000000" points="428.3636,-204.3911 418.0744,-206.9172 427.6932,-211.3589 428.3636,-204.3911"/>
</g>
<!-- outdir -->
<g id="node12" class="node">
<title>outdir</title>
<polygon fill="#94ddf4" stroke="#000000" points="24,-41.3 24,-77.3 78,-77.3 78,-41.3 24,-41.3"/>
<text text-anchor="middle" x="50.7209" y="-55.1" font-family="Times,serif" font-size="14.00" fill="#000000">outdir</text>
</g>
<!-- mvOut -->
<g id="node13" class="node">
<title>mvOut</title>
<ellipse fill="none" stroke="#000000" cx="46" cy="-132.3" rx="37.7217" ry="18"/>
<text text-anchor="middle" x="46" y="-128.1" font-family="Times,serif" font-size="14.00" fill="#000000">mvOut</text>
</g>
<!-- mvOut&#45;&gt;outdir -->
<g id="edge11" class="edge">
<title>mvOut&#45;&gt;outdir</title>
<path fill="none" stroke="#000000" d="M47.236,-114.2551C47.7888,-106.1828 48.4537,-96.4764 49.0697,-87.4817"/>
<polygon fill="#000000" stroke="#000000" points="52.5693,-87.6062 49.7609,-77.3904 45.5857,-87.1278 52.5693,-87.6062"/>
</g>
</g>
</svg>

