<?xml version="1.0" encoding="UTF-8" standalone="no"?>
<!DOCTYPE svg PUBLIC "-//W3C//DTD SVG 1.1//EN"
 "http://www.w3.org/Graphics/SVG/1.1/DTD/svg11.dtd">
<!-- Generated by graphviz version 2.40.1 (20161225.0304)
 -->
<!-- Title: G Pages: 1 -->
<svg width="384pt" height="326pt"
 viewBox="0.00 0.00 384.00 325.60" xmlns="http://www.w3.org/2000/svg" xmlns:xlink="http://www.w3.org/1999/xlink">
<g id="graph0" class="graph" transform="scale(1 1) rotate(0) translate(4 321.6)">
<title>G</title>
<polygon fill="#eeeeee" stroke="transparent" points="-4,4 -4,-321.6 380,-321.6 380,4 -4,4"/>
<g id="clust1" class="cluster">
<title>cluster_inputs</title>
<polygon fill="#eeeeee" stroke="#000000" stroke-dasharray="5,2" points="8,-231.8 8,-309.6 368,-309.6 368,-231.8 8,-231.8"/>
<text text-anchor="middle" x="311.9856" y="-240" font-family="Times,serif" font-size="14.00" fill="#000000">Workflow Inputs</text>
</g>
<g id="clust2" class="cluster">
<title>cluster_outputs</title>
<polygon fill="#eeeeee" stroke="#000000" stroke-dasharray="5,2" points="198,-8 198,-85.8 319,-85.8 319,-8 198,-8"/>
<text text-anchor="middle" x="258.3173" y="-16.2" font-family="Times,serif" font-size="14.00" fill="#000000">Workflow Outputs</text>
</g>
<!-- lancet_bed -->
<g id="node1" class="node">
<title>lancet_bed</title>
<polygon fill="#fafad2" stroke="#000000" points="186.6802,-187.3 186.6802,-223.3 263.3198,-223.3 263.3198,-187.3 186.6802,-187.3"/>
<text text-anchor="middle" x="225" y="-201.1" font-family="Times,serif" font-size="14.00" fill="#000000">lancet_bed</text>
</g>
<!-- mergeVcf -->
<g id="node2" class="node">
<title>mergeVcf</title>
<polygon fill="#fafad2" stroke="#000000" points="222.0189,-114.3 222.0189,-150.3 293.9811,-150.3 293.9811,-114.3 222.0189,-114.3"/>
<text text-anchor="middle" x="258" y="-128.1" font-family="Times,serif" font-size="14.00" fill="#000000">mergeVcf</text>
</g>
<!-- lancet_bed&#45;&gt;mergeVcf -->
<g id="edge1" class="edge">
<title>lancet_bed&#45;&gt;mergeVcf</title>
<path fill="none" stroke="#000000" d="M233.1573,-187.2551C236.9254,-178.9196 241.4812,-168.8416 245.657,-159.6042"/>
<polygon fill="#000000" stroke="#000000" points="248.8922,-160.9443 249.8222,-150.3904 242.5136,-158.0608 248.8922,-160.9443"/>
</g>
<!-- ovcf -->
<g id="node8" class="node">
<title>ovcf</title>
<polygon fill="#94ddf4" stroke="#000000" points="231,-41.3 231,-77.3 285,-77.3 285,-41.3 231,-41.3"/>
<text text-anchor="middle" x="257.9376" y="-55.1" font-family="Times,serif" font-size="14.00" fill="#000000">ovcf</text>
</g>
<!-- mergeVcf&#45;&gt;ovcf -->
<g id="edge8" class="edge">
<title>mergeVcf&#45;&gt;ovcf</title>
<path fill="none" stroke="#000000" d="M258,-114.2551C258,-106.1828 258,-96.4764 258,-87.4817"/>
<polygon fill="#000000" stroke="#000000" points="261.5001,-87.3903 258,-77.3904 254.5001,-87.3904 261.5001,-87.3903"/>
</g>
<!-- nbam -->
<g id="node3" class="node">
<title>nbam</title>
<polygon fill="#94ddf4" stroke="#000000" points="234,-265.1 234,-301.1 288,-301.1 288,-265.1 234,-265.1"/>
<text text-anchor="middle" x="260.5526" y="-278.9" font-family="Times,serif" font-size="14.00" fill="#000000">nbam</text>
</g>
<!-- nbam&#45;&gt;lancet_bed -->
<g id="edge2" class="edge">
<title>nbam&#45;&gt;lancet_bed</title>
<path fill="none" stroke="#000000" d="M252.6504,-265.0556C248.2294,-255.5013 242.7057,-243.564 237.7601,-232.8761"/>
<polygon fill="#000000" stroke="#000000" points="240.805,-231.1218 233.429,-223.5161 234.4521,-234.0614 240.805,-231.1218"/>
</g>
<!-- ref -->
<g id="node4" class="node">
<title>ref</title>
<polygon fill="#94ddf4" stroke="#000000" points="162,-265.1 162,-301.1 216,-301.1 216,-265.1 162,-265.1"/>
<text text-anchor="middle" x="188.7679" y="-278.9" font-family="Times,serif" font-size="14.00" fill="#000000">ref</text>
</g>
<!-- ref&#45;&gt;lancet_bed -->
<g id="edge3" class="edge">
<title>ref&#45;&gt;lancet_bed</title>
<path fill="none" stroke="#000000" d="M197.3496,-265.0556C201.7706,-255.5013 207.2943,-243.564 212.2399,-232.8761"/>
<polygon fill="#000000" stroke="#000000" points="215.5479,-234.0614 216.571,-223.5161 209.195,-231.1218 215.5479,-234.0614"/>
</g>
<!-- tbam -->
<g id="node5" class="node">
<title>tbam</title>
<polygon fill="#94ddf4" stroke="#000000" points="306,-265.1 306,-301.1 360,-301.1 360,-265.1 306,-265.1"/>
<text text-anchor="middle" x="332.9979" y="-278.9" font-family="Times,serif" font-size="14.00" fill="#000000">tbam</text>
</g>
<!-- tbam&#45;&gt;lancet_bed -->
<g id="edge4" class="edge">
<title>tbam&#45;&gt;lancet_bed</title>
<path fill="none" stroke="#000000" d="M323.8555,-264.8162C317.5986,-253.9232 308.3831,-240.5577 297,-231.8 289.8667,-226.3119 281.4829,-221.8747 273.0058,-218.316"/>
<polygon fill="#000000" stroke="#000000" points="274.0472,-214.9671 263.4568,-214.6622 271.5456,-221.5048 274.0472,-214.9671"/>
</g>
<!-- tbam&#45;&gt;mergeVcf -->
<g id="edge5" class="edge">
<title>tbam&#45;&gt;mergeVcf</title>
<path fill="none" stroke="#000000" d="M323.9532,-264.91C310.9457,-238.7561 286.8579,-190.3236 271.6714,-159.7887"/>
<polygon fill="#000000" stroke="#000000" points="274.6658,-157.9497 267.0788,-150.5545 268.3982,-161.0669 274.6658,-157.9497"/>
</g>
<!-- threads -->
<g id="node6" class="node">
<title>threads</title>
<polygon fill="#94ddf4" stroke="#000000" points="15.7875,-265.1 15.7875,-301.1 72.2125,-301.1 72.2125,-265.1 15.7875,-265.1"/>
<text text-anchor="middle" x="44" y="-278.9" font-family="Times,serif" font-size="14.00" fill="#000000">threads</text>
</g>
<!-- threads&#45;&gt;lancet_bed -->
<g id="edge6" class="edge">
<title>threads&#45;&gt;lancet_bed</title>
<path fill="none" stroke="#000000" d="M52.587,-264.863C58.8671,-253.5571 68.4713,-239.7244 81,-231.8 96.5936,-221.9371 140.8077,-214.7385 176.1683,-210.3542"/>
<polygon fill="#000000" stroke="#000000" points="176.8309,-213.8 186.345,-209.1382 176.0004,-206.8494 176.8309,-213.8"/>
</g>
<!-- bed -->
<g id="node7" class="node">
<title>bed</title>
<polygon fill="#94ddf4" stroke="#000000" points="90,-265.1 90,-301.1 144,-301.1 144,-265.1 90,-265.1"/>
<text text-anchor="middle" x="116.6073" y="-278.9" font-family="Times,serif" font-size="14.00" fill="#000000">bed</text>
</g>
<!-- bed&#45;&gt;lancet_bed -->
<g id="edge7" class="edge">
<title>bed&#45;&gt;lancet_bed</title>
<path fill="none" stroke="#000000" d="M126.1445,-264.8162C132.4014,-253.9232 141.6169,-240.5577 153,-231.8 160.1333,-226.3119 168.5171,-221.8747 176.9942,-218.316"/>
<polygon fill="#000000" stroke="#000000" points="178.4544,-221.5048 186.5432,-214.6622 175.9528,-214.9671 178.4544,-221.5048"/>
</g>
</g>
</svg>

