<?xml version="1.0" encoding="UTF-8" standalone="no"?>
<!DOCTYPE svg PUBLIC "-//W3C//DTD SVG 1.1//EN"
 "http://www.w3.org/Graphics/SVG/1.1/DTD/svg11.dtd">
<!-- Generated by graphviz version 2.40.1 (20161225.0304)
 -->
<!-- Title: G Pages: 1 -->
<svg width="528pt" height="326pt"
 viewBox="0.00 0.00 528.00 325.60" xmlns="http://www.w3.org/2000/svg" xmlns:xlink="http://www.w3.org/1999/xlink">
<g id="graph0" class="graph" transform="scale(1 1) rotate(0) translate(4 321.6)">
<title>G</title>
<polygon fill="#eeeeee" stroke="transparent" points="-4,4 -4,-321.6 524,-321.6 524,4 -4,4"/>
<g id="clust1" class="cluster">
<title>cluster_inputs</title>
<polygon fill="#eeeeee" stroke="#000000" stroke-dasharray="5,2" points="8,-231.8 8,-309.6 512,-309.6 512,-231.8 8,-231.8"/>
<text text-anchor="middle" x="455.9856" y="-240" font-family="Times,serif" font-size="14.00" fill="#000000">Workflow Inputs</text>
</g>
<g id="clust2" class="cluster">
<title>cluster_outputs</title>
<polygon fill="#eeeeee" stroke="#000000" stroke-dasharray="5,2" points="115,-8 115,-85.8 405,-85.8 405,-8 115,-8"/>
<text text-anchor="middle" x="344.3173" y="-16.2" font-family="Times,serif" font-size="14.00" fill="#000000">Workflow Outputs</text>
</g>
<!-- tbamR -->
<g id="node1" class="node">
<title>tbamR</title>
<polygon fill="#f3cea1" stroke="#000000" points="177,-187.3 177,-223.3 231,-223.3 231,-187.3 177,-187.3"/>
<text text-anchor="middle" x="203.6662" y="-201.1" font-family="Times,serif" font-size="14.00" fill="#000000">tbamR</text>
</g>
<!-- lofreqCall -->
<g id="node2" class="node">
<title>lofreqCall</title>
<polygon fill="#fafad2" stroke="#000000" points="222.6206,-114.3 222.6206,-150.3 295.3794,-150.3 295.3794,-114.3 222.6206,-114.3"/>
<text text-anchor="middle" x="259" y="-128.1" font-family="Times,serif" font-size="14.00" fill="#000000">lofreqCall</text>
</g>
<!-- tbamR&#45;&gt;lofreqCall -->
<g id="edge1" class="edge">
<title>tbamR&#45;&gt;lofreqCall</title>
<path fill="none" stroke="#000000" d="M217.5955,-187.2551C224.1401,-178.5686 232.1104,-167.9898 239.304,-158.442"/>
<polygon fill="#000000" stroke="#000000" points="242.1482,-160.4834 245.3703,-150.3904 236.5573,-156.2711 242.1482,-160.4834"/>
</g>
<!-- indel -->
<g id="node11" class="node">
<title>indel</title>
<polygon fill="#94ddf4" stroke="#000000" points="343,-41.3 343,-77.3 397,-77.3 397,-41.3 343,-41.3"/>
<text text-anchor="middle" x="369.9979" y="-55.1" font-family="Times,serif" font-size="14.00" fill="#000000">indel</text>
</g>
<!-- lofreqCall&#45;&gt;indel -->
<g id="edge12" class="edge">
<title>lofreqCall&#45;&gt;indel</title>
<path fill="none" stroke="#000000" d="M289.2752,-114.2837C303.079,-105.8776 319.534,-95.5862 334,-85.8 335.0847,-85.0662 336.1829,-84.314 337.288,-83.549"/>
<polygon fill="#000000" stroke="#000000" points="339.6515,-86.1639 345.788,-77.5271 335.6049,-80.452 339.6515,-86.1639"/>
</g>
<!-- indeldb -->
<g id="node12" class="node">
<title>indeldb</title>
<polygon fill="#94ddf4" stroke="#000000" points="267.0021,-41.3 267.0021,-77.3 324.9979,-77.3 324.9979,-41.3 267.0021,-41.3"/>
<text text-anchor="middle" x="296" y="-55.1" font-family="Times,serif" font-size="14.00" fill="#000000">indeldb</text>
</g>
<!-- lofreqCall&#45;&gt;indeldb -->
<g id="edge13" class="edge">
<title>lofreqCall&#45;&gt;indeldb</title>
<path fill="none" stroke="#000000" d="M268.1461,-114.2551C272.4154,-105.8319 277.5865,-95.6292 282.3086,-86.3128"/>
<polygon fill="#000000" stroke="#000000" points="285.4318,-87.8924 286.8309,-77.3904 279.188,-84.7277 285.4318,-87.8924"/>
</g>
<!-- snp -->
<g id="node13" class="node">
<title>snp</title>
<polygon fill="#94ddf4" stroke="#000000" points="195,-41.3 195,-77.3 249,-77.3 249,-41.3 195,-41.3"/>
<text text-anchor="middle" x="221.7223" y="-55.1" font-family="Times,serif" font-size="14.00" fill="#000000">snp</text>
</g>
<!-- lofreqCall&#45;&gt;snp -->
<g id="edge14" class="edge">
<title>lofreqCall&#45;&gt;snp</title>
<path fill="none" stroke="#000000" d="M249.8539,-114.2551C245.5846,-105.8319 240.4135,-95.6292 235.6914,-86.3128"/>
<polygon fill="#000000" stroke="#000000" points="238.812,-84.7277 231.1691,-77.3904 232.5682,-87.8924 238.812,-84.7277"/>
</g>
<!-- snpdb -->
<g id="node14" class="node">
<title>snpdb</title>
<polygon fill="#94ddf4" stroke="#000000" points="123,-41.3 123,-77.3 177,-77.3 177,-41.3 123,-41.3"/>
<text text-anchor="middle" x="149.7223" y="-55.1" font-family="Times,serif" font-size="14.00" fill="#000000">snpdb</text>
</g>
<!-- lofreqCall&#45;&gt;snpdb -->
<g id="edge15" class="edge">
<title>lofreqCall&#45;&gt;snpdb</title>
<path fill="none" stroke="#000000" d="M229.5778,-114.1899C216.1513,-105.7649 200.1297,-95.4846 186,-85.8 184.9198,-85.0596 183.8255,-84.3017 182.7238,-83.5317"/>
<polygon fill="#000000" stroke="#000000" points="184.415,-80.4391 174.24,-77.4859 180.3525,-86.1397 184.415,-80.4391"/>
</g>
<!-- nbamR -->
<g id="node3" class="node">
<title>nbamR</title>
<polygon fill="#f3cea1" stroke="#000000" points="286.7791,-187.3 286.7791,-223.3 343.2209,-223.3 343.2209,-187.3 286.7791,-187.3"/>
<text text-anchor="middle" x="315" y="-201.1" font-family="Times,serif" font-size="14.00" fill="#000000">nbamR</text>
</g>
<!-- nbamR&#45;&gt;lofreqCall -->
<g id="edge2" class="edge">
<title>nbamR&#45;&gt;lofreqCall</title>
<path fill="none" stroke="#000000" d="M301.1573,-187.2551C294.4938,-178.5686 286.3785,-167.9898 279.0541,-158.442"/>
<polygon fill="#000000" stroke="#000000" points="281.7412,-156.1944 272.8775,-150.3904 276.1872,-160.455 281.7412,-156.1944"/>
</g>
<!-- dbsnp -->
<g id="node4" class="node">
<title>dbsnp</title>
<polygon fill="#94ddf4" stroke="#000000" points="16,-265.1 16,-301.1 70,-301.1 70,-265.1 16,-265.1"/>
<text text-anchor="middle" x="42.7223" y="-278.9" font-family="Times,serif" font-size="14.00" fill="#000000">dbsnp</text>
</g>
<!-- dbsnp&#45;&gt;lofreqCall -->
<g id="edge3" class="edge">
<title>dbsnp&#45;&gt;lofreqCall</title>
<path fill="none" stroke="#000000" d="M53.7933,-265.0108C60.391,-254.7061 69.391,-241.8811 79,-231.8 116.553,-192.4019 173.2031,-164.6448 212.8939,-148.6341"/>
<polygon fill="#000000" stroke="#000000" points="214.3227,-151.8331 222.3456,-144.9133 211.7586,-145.3196 214.3227,-151.8331"/>
</g>
<!-- out -->
<g id="node5" class="node">
<title>out</title>
<polygon fill="#94ddf4" stroke="#000000" points="88,-265.1 88,-301.1 142,-301.1 142,-265.1 88,-265.1"/>
<text text-anchor="middle" x="114.9453" y="-278.9" font-family="Times,serif" font-size="14.00" fill="#000000">out</text>
</g>
<!-- out&#45;&gt;lofreqCall -->
<g id="edge4" class="edge">
<title>out&#45;&gt;lofreqCall</title>
<path fill="none" stroke="#000000" d="M121.5941,-264.9673C129.876,-244.1404 145.7472,-209.8799 168,-186.8 180.8218,-173.5016 197.5677,-162.257 213.1937,-153.4984"/>
<polygon fill="#000000" stroke="#000000" points="215.0828,-156.4563 222.2265,-148.6321 211.7627,-150.2938 215.0828,-156.4563"/>
</g>
<!-- ref -->
<g id="node6" class="node">
<title>ref</title>
<polygon fill="#94ddf4" stroke="#000000" points="232,-265.1 232,-301.1 286,-301.1 286,-265.1 232,-265.1"/>
<text text-anchor="middle" x="258.7679" y="-278.9" font-family="Times,serif" font-size="14.00" fill="#000000">ref</text>
</g>
<!-- ref&#45;&gt;tbamR -->
<g id="edge7" class="edge">
<title>ref&#45;&gt;tbamR</title>
<path fill="none" stroke="#000000" d="M246.3825,-265.0252C239.4961,-255.1842 230.8058,-242.8044 223,-231.8 222.9406,-231.7163 222.8812,-231.6325 222.8216,-231.5485"/>
<polygon fill="#000000" stroke="#000000" points="225.7608,-229.642 217.1069,-223.5295 220.0602,-233.7044 225.7608,-229.642"/>
</g>
<!-- ref&#45;&gt;lofreqCall -->
<g id="edge5" class="edge">
<title>ref&#45;&gt;lofreqCall</title>
<path fill="none" stroke="#000000" d="M259,-264.91C259,-238.9825 259,-191.1606 259,-160.5858"/>
<polygon fill="#000000" stroke="#000000" points="262.5001,-160.5545 259,-150.5545 255.5001,-160.5545 262.5001,-160.5545"/>
</g>
<!-- ref&#45;&gt;nbamR -->
<g id="edge6" class="edge">
<title>ref&#45;&gt;nbamR</title>
<path fill="none" stroke="#000000" d="M271.5105,-264.9483C278.3656,-255.0848 287.0601,-242.708 295,-231.8 295.0615,-231.7155 295.1231,-231.6309 295.1848,-231.5462"/>
<polygon fill="#000000" stroke="#000000" points="298.0142,-233.6066 301.1454,-223.485 292.3857,-229.4448 298.0142,-233.6066"/>
</g>
<!-- region -->
<g id="node7" class="node">
<title>region</title>
<polygon fill="#94ddf4" stroke="#000000" points="376,-265.1 376,-301.1 430,-301.1 430,-265.1 376,-265.1"/>
<text text-anchor="middle" x="402.8829" y="-278.9" font-family="Times,serif" font-size="14.00" fill="#000000">region</text>
</g>
<!-- region&#45;&gt;lofreqCall -->
<g id="edge8" class="edge">
<title>region&#45;&gt;lofreqCall</title>
<path fill="none" stroke="#000000" d="M396.8577,-264.9221C389.0788,-244.0528 373.9854,-209.7525 352,-186.8 338.6747,-172.8886 321.029,-161.3529 304.6918,-152.5317"/>
<polygon fill="#000000" stroke="#000000" points="306.2745,-149.4098 295.786,-147.9124 303.0514,-155.6237 306.2745,-149.4098"/>
</g>
<!-- threads -->
<g id="node8" class="node">
<title>threads</title>
<polygon fill="#94ddf4" stroke="#000000" points="447.7875,-265.1 447.7875,-301.1 504.2125,-301.1 504.2125,-265.1 447.7875,-265.1"/>
<text text-anchor="middle" x="476" y="-278.9" font-family="Times,serif" font-size="14.00" fill="#000000">threads</text>
</g>
<!-- threads&#45;&gt;lofreqCall -->
<g id="edge9" class="edge">
<title>threads&#45;&gt;lofreqCall</title>
<path fill="none" stroke="#000000" d="M464.9141,-264.9441C458.1354,-254.6172 448.8854,-241.7922 439,-231.8 400.9174,-193.3061 344.7894,-165.5024 305.359,-149.2316"/>
<polygon fill="#000000" stroke="#000000" points="306.2986,-145.8367 295.7152,-145.3439 303.6813,-152.329 306.2986,-145.8367"/>
</g>
<!-- nbam -->
<g id="node9" class="node">
<title>nbam</title>
<polygon fill="#94ddf4" stroke="#000000" points="304,-265.1 304,-301.1 358,-301.1 358,-265.1 304,-265.1"/>
<text text-anchor="middle" x="330.5526" y="-278.9" font-family="Times,serif" font-size="14.00" fill="#000000">nbam</text>
</g>
<!-- nbam&#45;&gt;nbamR -->
<g id="edge10" class="edge">
<title>nbam&#45;&gt;nbamR</title>
<path fill="none" stroke="#000000" d="M327.2891,-265.0556C325.3643,-255.6963 322.9692,-244.0503 320.8061,-233.532"/>
<polygon fill="#000000" stroke="#000000" points="324.189,-232.606 318.7462,-223.5161 317.3325,-234.0162 324.189,-232.606"/>
</g>
<!-- tbam -->
<g id="node10" class="node">
<title>tbam</title>
<polygon fill="#94ddf4" stroke="#000000" points="160,-265.1 160,-301.1 214,-301.1 214,-265.1 160,-265.1"/>
<text text-anchor="middle" x="186.9979" y="-278.9" font-family="Times,serif" font-size="14.00" fill="#000000">tbam</text>
</g>
<!-- tbam&#45;&gt;tbamR -->
<g id="edge11" class="edge">
<title>tbam&#45;&gt;tbamR</title>
<path fill="none" stroke="#000000" d="M190.9429,-265.0556C192.988,-255.6963 195.5327,-244.0503 197.8311,-233.532"/>
<polygon fill="#000000" stroke="#000000" points="201.3041,-234.0328 200.0196,-223.5161 194.4655,-232.5384 201.3041,-234.0328"/>
</g>
</g>
</svg>

