<?xml version="1.0" encoding="UTF-8" standalone="no"?>
<!DOCTYPE svg PUBLIC "-//W3C//DTD SVG 1.1//EN"
 "http://www.w3.org/Graphics/SVG/1.1/DTD/svg11.dtd">
<!-- Generated by graphviz version 2.40.1 (20161225.0304)
 -->
<!-- Title: G Pages: 1 -->
<svg width="166pt" height="472pt"
 viewBox="0.00 0.00 166.00 471.60" xmlns="http://www.w3.org/2000/svg" xmlns:xlink="http://www.w3.org/1999/xlink">
<g id="graph0" class="graph" transform="scale(1 1) rotate(0) translate(4 467.6)">
<title>G</title>
<polygon fill="#eeeeee" stroke="transparent" points="-4,4 -4,-467.6 162,-467.6 162,4 -4,4"/>
<g id="clust1" class="cluster">
<title>cluster_inputs</title>
<polygon fill="#eeeeee" stroke="#000000" stroke-dasharray="5,2" points="8,-377.8 8,-455.6 150,-455.6 150,-377.8 8,-377.8"/>
<text text-anchor="middle" x="93.9856" y="-386" font-family="Times,serif" font-size="14.00" fill="#000000">Workflow Inputs</text>
</g>
<g id="clust2" class="cluster">
<title>cluster_outputs</title>
<polygon fill="#eeeeee" stroke="#000000" stroke-dasharray="5,2" points="18,-8 18,-85.8 139,-85.8 139,-8 18,-8"/>
<text text-anchor="middle" x="78.3173" y="-16.2" font-family="Times,serif" font-size="14.00" fill="#000000">Workflow Outputs</text>
</g>
<!-- indelq -->
<g id="node1" class="node">
<title>indelq</title>
<polygon fill="#fafad2" stroke="#000000" points="26,-187.3 26,-223.3 80,-223.3 80,-187.3 26,-187.3"/>
<text text-anchor="middle" x="52.9979" y="-201.1" font-family="Times,serif" font-size="14.00" fill="#000000">indelq</text>
</g>
<!-- bamIdx -->
<g id="node2" class="node">
<title>bamIdx</title>
<polygon fill="#fafad2" stroke="#000000" points="23.6171,-114.3 23.6171,-150.3 82.3829,-150.3 82.3829,-114.3 23.6171,-114.3"/>
<text text-anchor="middle" x="53" y="-128.1" font-family="Times,serif" font-size="14.00" fill="#000000">bamIdx</text>
</g>
<!-- indelq&#45;&gt;bamIdx -->
<g id="edge1" class="edge">
<title>indelq&#45;&gt;bamIdx</title>
<path fill="none" stroke="#000000" d="M53,-187.2551C53,-179.1828 53,-169.4764 53,-160.4817"/>
<polygon fill="#000000" stroke="#000000" points="56.5001,-160.3903 53,-150.3904 49.5001,-160.3904 56.5001,-160.3903"/>
</g>
<!-- ibam -->
<g id="node7" class="node">
<title>ibam</title>
<polygon fill="#94ddf4" stroke="#000000" points="26,-41.3 26,-77.3 80,-77.3 80,-41.3 26,-41.3"/>
<text text-anchor="middle" x="52.9979" y="-55.1" font-family="Times,serif" font-size="14.00" fill="#000000">ibam</text>
</g>
<!-- bamIdx&#45;&gt;ibam -->
<g id="edge7" class="edge">
<title>bamIdx&#45;&gt;ibam</title>
<path fill="none" stroke="#000000" d="M53,-114.2551C53,-106.1828 53,-96.4764 53,-87.4817"/>
<polygon fill="#000000" stroke="#000000" points="56.5001,-87.3903 53,-77.3904 49.5001,-87.3904 56.5001,-87.3903"/>
</g>
<!-- sortBam -->
<g id="node3" class="node">
<title>sortBam</title>
<polygon fill="#fafad2" stroke="#000000" points="71.2812,-260.3 71.2812,-296.3 134.7188,-296.3 134.7188,-260.3 71.2812,-260.3"/>
<text text-anchor="middle" x="103" y="-274.1" font-family="Times,serif" font-size="14.00" fill="#000000">sortBam</text>
</g>
<!-- sortBam&#45;&gt;indelq -->
<g id="edge2" class="edge">
<title>sortBam&#45;&gt;indelq</title>
<path fill="none" stroke="#000000" d="M90.6404,-260.2551C84.7509,-251.6564 77.5913,-241.2034 71.1039,-231.7316"/>
<polygon fill="#000000" stroke="#000000" points="73.9292,-229.6628 65.3907,-223.3904 68.154,-233.6185 73.9292,-229.6628"/>
</g>
<!-- realign -->
<g id="node4" class="node">
<title>realign</title>
<polygon fill="#fafad2" stroke="#000000" points="75.5645,-333.3 75.5645,-369.3 130.4355,-369.3 130.4355,-333.3 75.5645,-333.3"/>
<text text-anchor="middle" x="103" y="-347.1" font-family="Times,serif" font-size="14.00" fill="#000000">realign</text>
</g>
<!-- realign&#45;&gt;sortBam -->
<g id="edge3" class="edge">
<title>realign&#45;&gt;sortBam</title>
<path fill="none" stroke="#000000" d="M103,-333.2551C103,-325.1828 103,-315.4764 103,-306.4817"/>
<polygon fill="#000000" stroke="#000000" points="106.5001,-306.3903 103,-296.3904 99.5001,-306.3904 106.5001,-306.3903"/>
</g>
<!-- ref -->
<g id="node5" class="node">
<title>ref</title>
<polygon fill="#94ddf4" stroke="#000000" points="16,-411.1 16,-447.1 70,-447.1 70,-411.1 16,-411.1"/>
<text text-anchor="middle" x="42.7679" y="-424.9" font-family="Times,serif" font-size="14.00" fill="#000000">ref</text>
</g>
<!-- ref&#45;&gt;indelq -->
<g id="edge4" class="edge">
<title>ref&#45;&gt;indelq</title>
<path fill="none" stroke="#000000" d="M43.8183,-410.7855C45.5623,-371.7548 49.6553,-280.155 51.7367,-233.5735"/>
<polygon fill="#000000" stroke="#000000" points="55.2344,-233.7 52.1844,-223.5537 48.2414,-233.3874 55.2344,-233.7"/>
</g>
<!-- ref&#45;&gt;realign -->
<g id="edge5" class="edge">
<title>ref&#45;&gt;realign</title>
<path fill="none" stroke="#000000" d="M55.128,-410.6566C61.8711,-400.7076 70.5805,-388.3422 79,-377.8 79.1356,-377.6302 79.2719,-377.4602 79.409,-377.2898"/>
<polygon fill="#000000" stroke="#000000" points="82.1423,-379.4778 85.9147,-369.5774 76.7917,-374.9644 82.1423,-379.4778"/>
</g>
<!-- bam -->
<g id="node6" class="node">
<title>bam</title>
<polygon fill="#94ddf4" stroke="#000000" points="88,-411.1 88,-447.1 142,-447.1 142,-411.1 88,-411.1"/>
<text text-anchor="middle" x="114.5526" y="-424.9" font-family="Times,serif" font-size="14.00" fill="#000000">bam</text>
</g>
<!-- bam&#45;&gt;realign -->
<g id="edge6" class="edge">
<title>bam&#45;&gt;realign</title>
<path fill="none" stroke="#000000" d="M112.2168,-411.0556C110.7732,-401.6963 108.9769,-390.0503 107.3545,-379.532"/>
<polygon fill="#000000" stroke="#000000" points="110.7932,-378.8656 105.8097,-369.5161 103.8751,-379.9328 110.7932,-378.8656"/>
</g>
</g>
</svg>

