<?xml version="1.0" encoding="UTF-8" standalone="no"?>
<!DOCTYPE svg PUBLIC "-//W3C//DTD SVG 1.1//EN"
 "http://www.w3.org/Graphics/SVG/1.1/DTD/svg11.dtd">
<!-- Generated by graphviz version 2.40.1 (20161225.0304)
 -->
<!-- Title: G Pages: 1 -->
<svg width="216pt" height="545pt"
 viewBox="0.00 0.00 215.88 544.60" xmlns="http://www.w3.org/2000/svg" xmlns:xlink="http://www.w3.org/1999/xlink">
<g id="graph0" class="graph" transform="scale(1 1) rotate(0) translate(4 540.6)">
<title>G</title>
<polygon fill="#eeeeee" stroke="transparent" points="-4,4 -4,-540.6 211.878,-540.6 211.878,4 -4,4"/>
<g id="clust1" class="cluster">
<title>cluster_inputs</title>
<polygon fill="#eeeeee" stroke="#000000" stroke-dasharray="5,2" points="75.0505,-450.8 75.0505,-528.6 187.0505,-528.6 187.0505,-450.8 75.0505,-450.8"/>
<text text-anchor="middle" x="131.0361" y="-459" font-family="Times,serif" font-size="14.00" fill="#000000">Workflow Inputs</text>
</g>
<g id="clust2" class="cluster">
<title>cluster_outputs</title>
<polygon fill="#eeeeee" stroke="#000000" stroke-dasharray="5,2" points="71.0505,-8 71.0505,-85.8 192.0505,-85.8 192.0505,-8 71.0505,-8"/>
<text text-anchor="middle" x="131.3678" y="-16.2" font-family="Times,serif" font-size="14.00" fill="#000000">Workflow Outputs</text>
</g>
<!-- discord -->
<g id="node1" class="node">
<title>discord</title>
<polygon fill="#fafad2" stroke="#000000" points="18.4453,-406.3 18.4453,-442.3 75.6557,-442.3 75.6557,-406.3 18.4453,-406.3"/>
<text text-anchor="middle" x="47.0505" y="-420.1" font-family="Times,serif" font-size="14.00" fill="#000000">discord</text>
</g>
<!-- discord_idx -->
<g id="node2" class="node">
<title>discord_idx</title>
<polygon fill="#fafad2" stroke="#000000" points="0,-333.3 0,-369.3 82.101,-369.3 82.101,-333.3 0,-333.3"/>
<text text-anchor="middle" x="41.0505" y="-347.1" font-family="Times,serif" font-size="14.00" fill="#000000">discord_idx</text>
</g>
<!-- discord&#45;&gt;discord_idx -->
<g id="edge1" class="edge">
<title>discord&#45;&gt;discord_idx</title>
<path fill="none" stroke="#000000" d="M45.5674,-406.2551C44.9039,-398.1828 44.1061,-388.4764 43.3668,-379.4817"/>
<polygon fill="#000000" stroke="#000000" points="46.8449,-379.07 42.5374,-369.3904 39.8684,-379.6435 46.8449,-379.07"/>
</g>
<!-- lumpy -->
<g id="node3" class="node">
<title>lumpy</title>
<polygon fill="#fafad2" stroke="#000000" points="83.0505,-114.3 83.0505,-150.3 137.0505,-150.3 137.0505,-114.3 83.0505,-114.3"/>
<text text-anchor="middle" x="109.9411" y="-128.1" font-family="Times,serif" font-size="14.00" fill="#000000">lumpy</text>
</g>
<!-- discord_idx&#45;&gt;lumpy -->
<g id="edge2" class="edge">
<title>discord_idx&#45;&gt;lumpy</title>
<path fill="none" stroke="#000000" d="M46.8147,-333.0049C58.8944,-294.6651 86.9283,-205.6879 101.2644,-160.1862"/>
<polygon fill="#000000" stroke="#000000" points="104.6843,-160.9786 104.3512,-150.389 98.0079,-158.8751 104.6843,-160.9786"/>
</g>
<!-- vcf -->
<g id="node9" class="node">
<title>vcf</title>
<polygon fill="#94ddf4" stroke="#000000" points="83.0505,-41.3 83.0505,-77.3 137.0505,-77.3 137.0505,-41.3 83.0505,-41.3"/>
<text text-anchor="middle" x="109.9881" y="-55.1" font-family="Times,serif" font-size="14.00" fill="#000000">vcf</text>
</g>
<!-- lumpy&#45;&gt;vcf -->
<g id="edge10" class="edge">
<title>lumpy&#45;&gt;vcf</title>
<path fill="none" stroke="#000000" d="M110.0505,-114.2551C110.0505,-106.1828 110.0505,-96.4764 110.0505,-87.4817"/>
<polygon fill="#000000" stroke="#000000" points="113.5506,-87.3903 110.0505,-77.3904 106.5506,-87.3904 113.5506,-87.3903"/>
</g>
<!-- split_idx -->
<g id="node4" class="node">
<title>split_idx</title>
<polygon fill="#fafad2" stroke="#000000" points="139.547,-187.3 139.547,-223.3 204.554,-223.3 204.554,-187.3 139.547,-187.3"/>
<text text-anchor="middle" x="172.0505" y="-201.1" font-family="Times,serif" font-size="14.00" fill="#000000">split_idx</text>
</g>
<!-- split_idx&#45;&gt;lumpy -->
<g id="edge3" class="edge">
<title>split_idx&#45;&gt;lumpy</title>
<path fill="none" stroke="#000000" d="M156.7247,-187.2551C149.2726,-178.4809 140.1807,-167.7759 132.0078,-158.153"/>
<polygon fill="#000000" stroke="#000000" points="134.5561,-155.7466 125.4149,-150.3904 129.2207,-160.2781 134.5561,-155.7466"/>
</g>
<!-- split -->
<g id="node5" class="node">
<title>split</title>
<polygon fill="#fafad2" stroke="#000000" points="144.0505,-333.3 144.0505,-369.3 198.0505,-369.3 198.0505,-333.3 144.0505,-333.3"/>
<text text-anchor="middle" x="170.6087" y="-347.1" font-family="Times,serif" font-size="14.00" fill="#000000">split</text>
</g>
<!-- sam2bam -->
<g id="node6" class="node">
<title>sam2bam</title>
<polygon fill="#fafad2" stroke="#000000" points="138.223,-260.3 138.223,-296.3 207.878,-296.3 207.878,-260.3 138.223,-260.3"/>
<text text-anchor="middle" x="173.0505" y="-274.1" font-family="Times,serif" font-size="14.00" fill="#000000">sam2bam</text>
</g>
<!-- split&#45;&gt;sam2bam -->
<g id="edge4" class="edge">
<title>split&#45;&gt;sam2bam</title>
<path fill="none" stroke="#000000" d="M171.5449,-333.2551C171.766,-325.1828 172.032,-315.4764 172.2784,-306.4817"/>
<polygon fill="#000000" stroke="#000000" points="175.7796,-306.4825 172.5549,-296.3904 168.7822,-306.2907 175.7796,-306.4825"/>
</g>
<!-- sam2bam&#45;&gt;split_idx -->
<g id="edge6" class="edge">
<title>sam2bam&#45;&gt;split_idx</title>
<path fill="none" stroke="#000000" d="M172.8033,-260.2551C172.6927,-252.1828 172.5598,-242.4764 172.4366,-233.4817"/>
<polygon fill="#000000" stroke="#000000" points="175.9351,-233.3414 172.2983,-223.3904 168.9357,-233.4374 175.9351,-233.3414"/>
</g>
<!-- sam -->
<g id="node7" class="node">
<title>sam</title>
<polygon fill="#fafad2" stroke="#000000" points="142.0505,-406.3 142.0505,-442.3 196.0505,-442.3 196.0505,-406.3 142.0505,-406.3"/>
<text text-anchor="middle" x="168.8254" y="-420.1" font-family="Times,serif" font-size="14.00" fill="#000000">sam</text>
</g>
<!-- sam&#45;&gt;split -->
<g id="edge5" class="edge">
<title>sam&#45;&gt;split</title>
<path fill="none" stroke="#000000" d="M169.5449,-406.2551C169.766,-398.1828 170.032,-388.4764 170.2784,-379.4817"/>
<polygon fill="#000000" stroke="#000000" points="173.7796,-379.4825 170.5549,-369.3904 166.7822,-379.2907 173.7796,-379.4825"/>
</g>
<!-- bam -->
<g id="node8" class="node">
<title>bam</title>
<polygon fill="#94ddf4" stroke="#000000" points="83.0505,-484.1 83.0505,-520.1 137.0505,-520.1 137.0505,-484.1 83.0505,-484.1"/>
<text text-anchor="middle" x="109.6031" y="-497.9" font-family="Times,serif" font-size="14.00" fill="#000000">bam</text>
</g>
<!-- bam&#45;&gt;discord -->
<g id="edge8" class="edge">
<title>bam&#45;&gt;discord</title>
<path fill="none" stroke="#000000" d="M95.4387,-484.0556C87.3862,-474.1114 77.2432,-461.5856 68.3262,-450.5738"/>
<polygon fill="#000000" stroke="#000000" points="70.8145,-448.085 61.8013,-442.5161 65.3744,-452.4902 70.8145,-448.085"/>
</g>
<!-- bam&#45;&gt;lumpy -->
<g id="edge7" class="edge">
<title>bam&#45;&gt;lumpy</title>
<path fill="none" stroke="#000000" d="M110.0505,-483.9941C110.0505,-455.6829 110.0505,-399.2104 110.0505,-351.3 110.0505,-351.3 110.0505,-351.3 110.0505,-278.3 110.0505,-237.6187 110.0505,-190.5612 110.0505,-161.1124"/>
<polygon fill="#000000" stroke="#000000" points="113.5506,-160.7379 110.0505,-150.738 106.5506,-160.738 113.5506,-160.7379"/>
</g>
<!-- bam&#45;&gt;sam -->
<g id="edge9" class="edge">
<title>bam&#45;&gt;sam</title>
<path fill="none" stroke="#000000" d="M123.7346,-484.0556C131.2758,-474.1114 140.7748,-461.5856 149.1256,-450.5738"/>
<polygon fill="#000000" stroke="#000000" points="151.9825,-452.5989 155.2362,-442.5161 146.4049,-448.3691 151.9825,-452.5989"/>
</g>
</g>
</svg>

