<?xml version="1.0" encoding="UTF-8" standalone="no"?>
<!DOCTYPE svg PUBLIC "-//W3C//DTD SVG 1.1//EN"
 "http://www.w3.org/Graphics/SVG/1.1/DTD/svg11.dtd">
<!-- Generated by graphviz version 2.40.1 (20161225.0304)
 -->
<!-- Title: G Pages: 1 -->
<svg width="386pt" height="326pt"
 viewBox="0.00 0.00 386.00 325.60" xmlns="http://www.w3.org/2000/svg" xmlns:xlink="http://www.w3.org/1999/xlink">
<g id="graph0" class="graph" transform="scale(1 1) rotate(0) translate(4 321.6)">
<title>G</title>
<polygon fill="#eeeeee" stroke="transparent" points="-4,4 -4,-321.6 382,-321.6 382,4 -4,4"/>
<g id="clust1" class="cluster">
<title>cluster_inputs</title>
<polygon fill="#eeeeee" stroke="#000000" stroke-dasharray="5,2" points="8,-231.8 8,-309.6 366,-309.6 366,-231.8 8,-231.8"/>
<text text-anchor="middle" x="309.9856" y="-240" font-family="Times,serif" font-size="14.00" fill="#000000">Workflow Inputs</text>
</g>
<g id="clust2" class="cluster">
<title>cluster_outputs</title>
<polygon fill="#eeeeee" stroke="#000000" stroke-dasharray="5,2" points="41,-8 41,-85.8 370,-85.8 370,-8 41,-8"/>
<text text-anchor="middle" x="309.3173" y="-16.2" font-family="Times,serif" font-size="14.00" fill="#000000">Workflow Outputs</text>
</g>
<!-- manta -->
<g id="node1" class="node">
<title>manta</title>
<polygon fill="#fafad2" stroke="#000000" points="179,-187.3 179,-223.3 233,-223.3 233,-187.3 179,-187.3"/>
<text text-anchor="middle" x="205.6052" y="-201.1" font-family="Times,serif" font-size="14.00" fill="#000000">manta</text>
</g>
<!-- strelka -->
<g id="node2" class="node">
<title>strelka</title>
<polygon fill="#fafad2" stroke="#000000" points="123,-114.3 123,-150.3 177,-150.3 177,-114.3 123,-114.3"/>
<text text-anchor="middle" x="149.6578" y="-128.1" font-family="Times,serif" font-size="14.00" fill="#000000">strelka</text>
</g>
<!-- manta&#45;&gt;strelka -->
<g id="edge1" class="edge">
<title>manta&#45;&gt;strelka</title>
<path fill="none" stroke="#000000" d="M192.1573,-187.2551C185.4938,-178.5686 177.3785,-167.9898 170.0541,-158.442"/>
<polygon fill="#000000" stroke="#000000" points="172.7412,-156.1944 163.8775,-150.3904 167.1872,-160.455 172.7412,-156.1944"/>
</g>
<!-- diploidSV -->
<g id="node8" class="node">
<title>diploidSV</title>
<polygon fill="#94ddf4" stroke="#000000" points="288.2195,-41.3 288.2195,-77.3 361.7805,-77.3 361.7805,-41.3 288.2195,-41.3"/>
<text text-anchor="middle" x="325" y="-55.1" font-family="Times,serif" font-size="14.00" fill="#000000">diploidSV</text>
</g>
<!-- manta&#45;&gt;diploidSV -->
<g id="edge12" class="edge">
<title>manta&#45;&gt;diploidSV</title>
<path fill="none" stroke="#000000" d="M220.8308,-187.1042C241.6747,-161.5311 279.754,-114.8119 303.6459,-85.4992"/>
<polygon fill="#000000" stroke="#000000" points="306.3773,-87.6878 309.9823,-77.7251 300.9513,-83.2652 306.3773,-87.6878"/>
</g>
<!-- somaticSV -->
<g id="node11" class="node">
<title>somaticSV</title>
<polygon fill="#94ddf4" stroke="#000000" points="193.2826,-41.3 193.2826,-77.3 270.7174,-77.3 270.7174,-41.3 193.2826,-41.3"/>
<text text-anchor="middle" x="232" y="-55.1" font-family="Times,serif" font-size="14.00" fill="#000000">somaticSV</text>
</g>
<!-- manta&#45;&gt;somaticSV -->
<g id="edge15" class="edge">
<title>manta&#45;&gt;somaticSV</title>
<path fill="none" stroke="#000000" d="M209.2403,-187.1042C213.6777,-162.1868 221.6901,-117.1938 226.9269,-87.7877"/>
<polygon fill="#000000" stroke="#000000" points="230.4113,-88.1839 228.7188,-77.7251 223.5197,-86.9566 230.4113,-88.1839"/>
</g>
<!-- indels -->
<g id="node9" class="node">
<title>indels</title>
<polygon fill="#94ddf4" stroke="#000000" points="49,-41.3 49,-77.3 103,-77.3 103,-41.3 49,-41.3"/>
<text text-anchor="middle" x="75.7202" y="-55.1" font-family="Times,serif" font-size="14.00" fill="#000000">indels</text>
</g>
<!-- strelka&#45;&gt;indels -->
<g id="edge13" class="edge">
<title>strelka&#45;&gt;indels</title>
<path fill="none" stroke="#000000" d="M131.7079,-114.2551C122.6356,-105.3054 111.5271,-94.347 101.6232,-84.5769"/>
<polygon fill="#000000" stroke="#000000" points="103.9152,-81.9215 94.3382,-77.3904 98.9992,-86.9049 103.9152,-81.9215"/>
</g>
<!-- snvs -->
<g id="node10" class="node">
<title>snvs</title>
<polygon fill="#94ddf4" stroke="#000000" points="121,-41.3 121,-77.3 175,-77.3 175,-41.3 121,-41.3"/>
<text text-anchor="middle" x="147.9446" y="-55.1" font-family="Times,serif" font-size="14.00" fill="#000000">snvs</text>
</g>
<!-- strelka&#45;&gt;snvs -->
<g id="edge14" class="edge">
<title>strelka&#45;&gt;snvs</title>
<path fill="none" stroke="#000000" d="M149.5056,-114.2551C149.2845,-106.1828 149.0185,-96.4764 148.7721,-87.4817"/>
<polygon fill="#000000" stroke="#000000" points="152.2683,-87.2907 148.4956,-77.3904 145.2709,-87.4825 152.2683,-87.2907"/>
</g>
<!-- region -->
<g id="node3" class="node">
<title>region</title>
<polygon fill="#94ddf4" stroke="#000000" points="88,-265.1 88,-301.1 142,-301.1 142,-265.1 88,-265.1"/>
<text text-anchor="middle" x="114.8829" y="-278.9" font-family="Times,serif" font-size="14.00" fill="#000000">region</text>
</g>
<!-- region&#45;&gt;manta -->
<g id="edge2" class="edge">
<title>region&#45;&gt;manta</title>
<path fill="none" stroke="#000000" d="M124.7422,-264.7043C131.1027,-254.0407 140.2177,-240.9548 151,-231.8 156.6103,-227.0365 163.2236,-222.9075 169.8829,-219.4192"/>
<polygon fill="#000000" stroke="#000000" points="171.4219,-222.5628 178.9026,-215.0602 168.3759,-216.2602 171.4219,-222.5628"/>
</g>
<!-- region&#45;&gt;strelka -->
<g id="edge3" class="edge">
<title>region&#45;&gt;strelka</title>
<path fill="none" stroke="#000000" d="M119.0843,-264.9844C123.463,-245.6192 130.6441,-214.0215 137,-186.8 139.0126,-178.18 141.2371,-168.8018 143.2684,-160.2936"/>
<polygon fill="#000000" stroke="#000000" points="146.699,-160.9965 145.6232,-150.4564 139.8913,-159.3668 146.699,-160.9965"/>
</g>
<!-- exome -->
<g id="node4" class="node">
<title>exome</title>
<polygon fill="#94ddf4" stroke="#000000" points="160,-265.1 160,-301.1 214,-301.1 214,-265.1 160,-265.1"/>
<text text-anchor="middle" x="186.6599" y="-278.9" font-family="Times,serif" font-size="14.00" fill="#000000">exome</text>
</g>
<!-- exome&#45;&gt;manta -->
<g id="edge4" class="edge">
<title>exome&#45;&gt;manta</title>
<path fill="none" stroke="#000000" d="M191.4067,-265.0556C193.6924,-255.6963 196.5366,-244.0503 199.1053,-233.532"/>
<polygon fill="#000000" stroke="#000000" points="202.5789,-234.061 201.5513,-223.5161 195.7788,-232.4002 202.5789,-234.061"/>
</g>
<!-- exome&#45;&gt;strelka -->
<g id="edge5" class="edge">
<title>exome&#45;&gt;strelka</title>
<path fill="none" stroke="#000000" d="M181.4897,-265.014C178.0047,-253.3101 173.5115,-237.7149 170,-223.8 164.6785,-202.7127 159.4583,-178.6837 155.6861,-160.5428"/>
<polygon fill="#000000" stroke="#000000" points="159.0858,-159.6986 153.6425,-150.609 152.2293,-161.1091 159.0858,-159.6986"/>
</g>
<!-- nbam -->
<g id="node5" class="node">
<title>nbam</title>
<polygon fill="#94ddf4" stroke="#000000" points="16,-265.1 16,-301.1 70,-301.1 70,-265.1 16,-265.1"/>
<text text-anchor="middle" x="42.5526" y="-278.9" font-family="Times,serif" font-size="14.00" fill="#000000">nbam</text>
</g>
<!-- nbam&#45;&gt;manta -->
<g id="edge6" class="edge">
<title>nbam&#45;&gt;manta</title>
<path fill="none" stroke="#000000" d="M51.3028,-264.9659C57.3917,-253.7023 66.7321,-239.878 79,-231.8 93.5557,-222.2156 136.9219,-214.5351 168.9478,-209.959"/>
<polygon fill="#000000" stroke="#000000" points="169.4698,-213.4202 178.8964,-208.5839 168.5113,-206.4862 169.4698,-213.4202"/>
</g>
<!-- nbam&#45;&gt;strelka -->
<g id="edge7" class="edge">
<title>nbam&#45;&gt;strelka</title>
<path fill="none" stroke="#000000" d="M55.6274,-265.0322C62.5168,-255.1933 71.2066,-242.8132 79,-231.8 96.5121,-207.0529 116.5895,-178.9401 130.9156,-158.9246"/>
<polygon fill="#000000" stroke="#000000" points="133.8946,-160.7762 136.8708,-150.6079 128.2032,-156.7008 133.8946,-160.7762"/>
</g>
<!-- ref -->
<g id="node6" class="node">
<title>ref</title>
<polygon fill="#94ddf4" stroke="#000000" points="232,-265.1 232,-301.1 286,-301.1 286,-265.1 232,-265.1"/>
<text text-anchor="middle" x="258.7679" y="-278.9" font-family="Times,serif" font-size="14.00" fill="#000000">ref</text>
</g>
<!-- ref&#45;&gt;manta -->
<g id="edge8" class="edge">
<title>ref&#45;&gt;manta</title>
<path fill="none" stroke="#000000" d="M246.7075,-265.0556C239.9996,-255.2089 231.5673,-242.8309 224.1196,-231.8982"/>
<polygon fill="#000000" stroke="#000000" points="226.9321,-229.8101 218.4094,-223.5161 221.1469,-233.7512 226.9321,-229.8101"/>
</g>
<!-- ref&#45;&gt;strelka -->
<g id="edge9" class="edge">
<title>ref&#45;&gt;strelka</title>
<path fill="none" stroke="#000000" d="M260.1083,-265.0996C260.4798,-244.3971 258.2306,-210.2534 242,-186.8 228.6544,-167.5154 206.077,-153.9921 186.6288,-145.2401"/>
<polygon fill="#000000" stroke="#000000" points="187.96,-142.003 177.3871,-141.3226 185.2281,-148.4479 187.96,-142.003"/>
</g>
<!-- tbam -->
<g id="node7" class="node">
<title>tbam</title>
<polygon fill="#94ddf4" stroke="#000000" points="304,-265.1 304,-301.1 358,-301.1 358,-265.1 304,-265.1"/>
<text text-anchor="middle" x="330.9979" y="-278.9" font-family="Times,serif" font-size="14.00" fill="#000000">tbam</text>
</g>
<!-- tbam&#45;&gt;manta -->
<g id="edge10" class="edge">
<title>tbam&#45;&gt;manta</title>
<path fill="none" stroke="#000000" d="M322.3256,-265.0575C316.1399,-253.9766 306.831,-240.3205 295,-231.8 279.9411,-220.9548 260.4304,-214.5048 243.516,-210.6901"/>
<polygon fill="#000000" stroke="#000000" points="243.8784,-207.1926 233.3829,-208.6398 242.4901,-214.0536 243.8784,-207.1926"/>
</g>
<!-- tbam&#45;&gt;strelka -->
<g id="edge11" class="edge">
<title>tbam&#45;&gt;strelka</title>
<path fill="none" stroke="#000000" d="M321.9355,-265.0233C310.6005,-243.9318 289.4322,-209.1097 263,-186.8 240.5717,-167.8697 210.4464,-153.7681 186.941,-144.6567"/>
<polygon fill="#000000" stroke="#000000" points="187.9068,-141.2812 177.3143,-141.0578 185.4555,-147.838 187.9068,-141.2812"/>
</g>
</g>
</svg>

