<?xml version="1.0" encoding="UTF-8" standalone="no"?>
<!DOCTYPE svg PUBLIC "-//W3C//DTD SVG 1.1//EN"
 "http://www.w3.org/Graphics/SVG/1.1/DTD/svg11.dtd">
<!-- Generated by graphviz version 2.40.1 (20161225.0304)
 -->
<!-- Title: G Pages: 1 -->
<svg width="802pt" height="326pt"
 viewBox="0.00 0.00 802.00 325.60" xmlns="http://www.w3.org/2000/svg" xmlns:xlink="http://www.w3.org/1999/xlink">
<g id="graph0" class="graph" transform="scale(1 1) rotate(0) translate(4 321.6)">
<title>G</title>
<polygon fill="#eeeeee" stroke="transparent" points="-4,4 -4,-321.6 798,-321.6 798,4 -4,4"/>
<g id="clust1" class="cluster">
<title>cluster_inputs</title>
<polygon fill="#eeeeee" stroke="#000000" stroke-dasharray="5,2" points="99,-231.8 99,-309.6 786,-309.6 786,-231.8 99,-231.8"/>
<text text-anchor="middle" x="729.9856" y="-240" font-family="Times,serif" font-size="14.00" fill="#000000">Workflow Inputs</text>
</g>
<g id="clust2" class="cluster">
<title>cluster_outputs</title>
<polygon fill="#eeeeee" stroke="#000000" stroke-dasharray="5,2" points="8,-8 8,-85.8 646,-85.8 646,-8 8,-8"/>
<text text-anchor="middle" x="585.3173" y="-16.2" font-family="Times,serif" font-size="14.00" fill="#000000">Workflow Outputs</text>
</g>
<!-- Mapper -->
<g id="node1" class="node">
<title>Mapper</title>
<polygon fill="#fafad2" stroke="#000000" points="509.2328,-187.3 509.2328,-223.3 568.7672,-223.3 568.7672,-187.3 509.2328,-187.3"/>
<text text-anchor="middle" x="539" y="-201.1" font-family="Times,serif" font-size="14.00" fill="#000000">Mapper</text>
</g>
<!-- miRDeep2 -->
<g id="node2" class="node">
<title>miRDeep2</title>
<polygon fill="#fafad2" stroke="#000000" points="282.6732,-114.3 282.6732,-150.3 359.3268,-150.3 359.3268,-114.3 282.6732,-114.3"/>
<text text-anchor="middle" x="321" y="-128.1" font-family="Times,serif" font-size="14.00" fill="#000000">miRDeep2</text>
</g>
<!-- Mapper&#45;&gt;miRDeep2 -->
<g id="edge1" class="edge">
<title>Mapper&#45;&gt;miRDeep2</title>
<path fill="none" stroke="#000000" d="M509.0416,-196.7831C472.8928,-185.4779 411.9356,-165.2218 369.1918,-150.4211"/>
<polygon fill="#000000" stroke="#000000" points="370.1499,-147.0487 359.5551,-147.0685 367.8498,-153.6601 370.1499,-147.0487"/>
</g>
<!-- Mapper&#45;&gt;miRDeep2 -->
<g id="edge2" class="edge">
<title>Mapper&#45;&gt;miRDeep2</title>
<path fill="none" stroke="#000000" d="M509.0894,-193.5713C472.9495,-180.7836 411.9488,-160.3152 369.1803,-146.5963"/>
<polygon fill="#000000" stroke="#000000" points="370.129,-143.2252 359.5383,-143.5201 368.0013,-149.894 370.129,-143.2252"/>
</g>
<!-- arf -->
<g id="node12" class="node">
<title>arf</title>
<polygon fill="#94ddf4" stroke="#000000" points="584,-41.3 584,-77.3 638,-77.3 638,-41.3 584,-41.3"/>
<text text-anchor="middle" x="610.7679" y="-55.1" font-family="Times,serif" font-size="14.00" fill="#000000">arf</text>
</g>
<!-- Mapper&#45;&gt;arf -->
<g id="edge13" class="edge">
<title>Mapper&#45;&gt;arf</title>
<path fill="none" stroke="#000000" d="M547.9733,-187.1042C560.3691,-161.9682 582.8397,-116.4029 597.3311,-87.0175"/>
<polygon fill="#000000" stroke="#000000" points="600.6297,-88.2419 601.9136,-77.7251 594.3516,-85.1458 600.6297,-88.2419"/>
</g>
<!-- preads -->
<g id="node19" class="node">
<title>preads</title>
<polygon fill="#94ddf4" stroke="#000000" points="512,-41.3 512,-77.3 566,-77.3 566,-41.3 512,-41.3"/>
<text text-anchor="middle" x="538.7672" y="-55.1" font-family="Times,serif" font-size="14.00" fill="#000000">preads</text>
</g>
<!-- Mapper&#45;&gt;preads -->
<g id="edge20" class="edge">
<title>Mapper&#45;&gt;preads</title>
<path fill="none" stroke="#000000" d="M539,-187.1042C539,-162.1868 539,-117.1938 539,-87.7877"/>
<polygon fill="#000000" stroke="#000000" points="542.5001,-87.7251 539,-77.7251 535.5001,-87.7251 542.5001,-87.7251"/>
</g>
<!-- bed -->
<g id="node13" class="node">
<title>bed</title>
<polygon fill="#94ddf4" stroke="#000000" points="368,-41.3 368,-77.3 422,-77.3 422,-41.3 368,-41.3"/>
<text text-anchor="middle" x="394.6073" y="-55.1" font-family="Times,serif" font-size="14.00" fill="#000000">bed</text>
</g>
<!-- miRDeep2&#45;&gt;bed -->
<g id="edge14" class="edge">
<title>miRDeep2&#45;&gt;bed</title>
<path fill="none" stroke="#000000" d="M339.2921,-114.2551C348.3644,-105.3054 359.4729,-94.347 369.3768,-84.5769"/>
<polygon fill="#000000" stroke="#000000" points="372.0008,-86.9049 376.6618,-77.3904 367.0848,-81.9215 372.0008,-86.9049"/>
</g>
<!-- csvfiles -->
<g id="node14" class="node">
<title>csvfiles</title>
<polygon fill="#94ddf4" stroke="#000000" points="291.6199,-41.3 291.6199,-77.3 350.3801,-77.3 350.3801,-41.3 291.6199,-41.3"/>
<text text-anchor="middle" x="321" y="-55.1" font-family="Times,serif" font-size="14.00" fill="#000000">csvfiles</text>
</g>
<!-- miRDeep2&#45;&gt;csvfiles -->
<g id="edge15" class="edge">
<title>miRDeep2&#45;&gt;csvfiles</title>
<path fill="none" stroke="#000000" d="M321,-114.2551C321,-106.1828 321,-96.4764 321,-87.4817"/>
<polygon fill="#000000" stroke="#000000" points="324.5001,-87.3903 321,-77.3904 317.5001,-87.3904 324.5001,-87.3903"/>
</g>
<!-- expression -->
<g id="node15" class="node">
<title>expression</title>
<polygon fill="#94ddf4" stroke="#000000" points="198.0652,-41.3 198.0652,-77.3 273.9348,-77.3 273.9348,-41.3 198.0652,-41.3"/>
<text text-anchor="middle" x="236" y="-55.1" font-family="Times,serif" font-size="14.00" fill="#000000">expression</text>
</g>
<!-- miRDeep2&#45;&gt;expression -->
<g id="edge16" class="edge">
<title>miRDeep2&#45;&gt;expression</title>
<path fill="none" stroke="#000000" d="M299.9888,-114.2551C289.3636,-105.1299 276.3068,-93.9165 264.7645,-84.0036"/>
<polygon fill="#000000" stroke="#000000" points="266.9308,-81.2505 257.0641,-77.3904 262.3701,-86.5609 266.9308,-81.2505"/>
</g>
<!-- htmls -->
<g id="node16" class="node">
<title>htmls</title>
<polygon fill="#94ddf4" stroke="#000000" points="126,-41.3 126,-77.3 180,-77.3 180,-41.3 126,-41.3"/>
<text text-anchor="middle" x="152.5582" y="-55.1" font-family="Times,serif" font-size="14.00" fill="#000000">htmls</text>
</g>
<!-- miRDeep2&#45;&gt;htmls -->
<g id="edge17" class="edge">
<title>miRDeep2&#45;&gt;htmls</title>
<path fill="none" stroke="#000000" d="M282.4842,-122.0226C255.4641,-114.0342 218.9598,-101.6506 189,-85.8 187.4437,-84.9766 185.8805,-84.091 184.3238,-83.1607"/>
<polygon fill="#000000" stroke="#000000" points="185.864,-79.9872 175.5735,-77.4657 182.0456,-85.854 185.864,-79.9872"/>
</g>
<!-- mirna_results -->
<g id="node17" class="node">
<title>mirna_results</title>
<polygon fill="#94ddf4" stroke="#000000" points="15.899,-41.3 15.899,-77.3 108.101,-77.3 108.101,-41.3 15.899,-41.3"/>
<text text-anchor="middle" x="62" y="-55.1" font-family="Times,serif" font-size="14.00" fill="#000000">mirna_results</text>
</g>
<!-- miRDeep2&#45;&gt;mirna_results -->
<g id="edge18" class="edge">
<title>miRDeep2&#45;&gt;mirna_results</title>
<path fill="none" stroke="#000000" d="M282.3027,-126.1564C240.7237,-118.9411 173.0595,-105.4133 117,-85.8 113.2796,-84.4984 109.4794,-83.0157 105.7013,-81.432"/>
<polygon fill="#000000" stroke="#000000" points="106.9748,-78.1684 96.4129,-77.3331 104.1486,-84.5726 106.9748,-78.1684"/>
</g>
<!-- pdfs -->
<g id="node18" class="node">
<title>pdfs</title>
<polygon fill="#94ddf4" stroke="#000000" points="440,-41.3 440,-77.3 494,-77.3 494,-41.3 440,-41.3"/>
<text text-anchor="middle" x="466.5526" y="-55.1" font-family="Times,serif" font-size="14.00" fill="#000000">pdfs</text>
</g>
<!-- miRDeep2&#45;&gt;pdfs -->
<g id="edge19" class="edge">
<title>miRDeep2&#45;&gt;pdfs</title>
<path fill="none" stroke="#000000" d="M359.4661,-118.5977C381.0768,-110.2755 408.2032,-98.7694 431,-85.8 432.484,-84.9557 433.9788,-84.0609 435.4716,-83.1303"/>
<polygon fill="#000000" stroke="#000000" points="437.5241,-85.9687 443.9101,-77.5148 433.646,-80.1411 437.5241,-85.9687"/>
</g>
<!-- adapter -->
<g id="node3" class="node">
<title>adapter</title>
<polygon fill="#94ddf4" stroke="#000000" points="720.4025,-265.1 720.4025,-301.1 777.5975,-301.1 777.5975,-265.1 720.4025,-265.1"/>
<text text-anchor="middle" x="749" y="-278.9" font-family="Times,serif" font-size="14.00" fill="#000000">adapter</text>
</g>
<!-- adapter&#45;&gt;Mapper -->
<g id="edge3" class="edge">
<title>adapter&#45;&gt;Mapper</title>
<path fill="none" stroke="#000000" d="M740.2856,-264.9862C733.823,-253.5808 723.905,-239.5894 711,-231.8 689.3879,-218.7551 622.7045,-211.4491 578.9988,-207.9481"/>
<polygon fill="#000000" stroke="#000000" points="579.2038,-204.4537 568.9653,-207.1785 578.6683,-211.4332 579.2038,-204.4537"/>
</g>
<!-- format -->
<g id="node4" class="node">
<title>format</title>
<polygon fill="#94ddf4" stroke="#000000" points="648,-265.1 648,-301.1 702,-301.1 702,-265.1 648,-265.1"/>
<text text-anchor="middle" x="674.6585" y="-278.9" font-family="Times,serif" font-size="14.00" fill="#000000">format</text>
</g>
<!-- format&#45;&gt;Mapper -->
<g id="edge4" class="edge">
<title>format&#45;&gt;Mapper</title>
<path fill="none" stroke="#000000" d="M666.4127,-264.9345C660.2618,-253.8046 650.9589,-240.14 639,-231.8 621.3927,-219.5209 598.4291,-212.9311 578.9485,-209.3948"/>
<polygon fill="#000000" stroke="#000000" points="579.2627,-205.9005 568.8339,-207.7687 578.1516,-212.8117 579.2627,-205.9005"/>
</g>
<!-- genome -->
<g id="node5" class="node">
<title>genome</title>
<polygon fill="#94ddf4" stroke="#000000" points="425.8401,-265.1 425.8401,-301.1 486.1599,-301.1 486.1599,-265.1 425.8401,-265.1"/>
<text text-anchor="middle" x="456" y="-278.9" font-family="Times,serif" font-size="14.00" fill="#000000">genome</text>
</g>
<!-- genome&#45;&gt;Mapper -->
<g id="edge5" class="edge">
<title>genome&#45;&gt;Mapper</title>
<path fill="none" stroke="#000000" d="M467.5069,-264.6238C474.5926,-254.1901 484.3426,-241.3651 495,-231.8 496.7255,-230.2514 498.5543,-228.744 500.4477,-227.2854"/>
<polygon fill="#000000" stroke="#000000" points="502.8857,-229.8491 509.0424,-221.2267 498.8524,-224.1278 502.8857,-229.8491"/>
</g>
<!-- genome&#45;&gt;miRDeep2 -->
<g id="edge6" class="edge">
<title>genome&#45;&gt;miRDeep2</title>
<path fill="none" stroke="#000000" d="M442.7884,-264.6483C435.462,-254.6969 426.0297,-242.3318 417,-231.8 394.4181,-205.4614 366.734,-177.147 346.9074,-157.4836"/>
<polygon fill="#000000" stroke="#000000" points="349.2972,-154.9247 339.7203,-150.3931 344.381,-159.9078 349.2972,-154.9247"/>
</g>
<!-- len -->
<g id="node6" class="node">
<title>len</title>
<polygon fill="#94ddf4" stroke="#000000" points="576,-265.1 576,-301.1 630,-301.1 630,-265.1 576,-265.1"/>
<text text-anchor="middle" x="602.5526" y="-278.9" font-family="Times,serif" font-size="14.00" fill="#000000">len</text>
</g>
<!-- len&#45;&gt;Mapper -->
<g id="edge7" class="edge">
<title>len&#45;&gt;Mapper</title>
<path fill="none" stroke="#000000" d="M591.5107,-264.8753C584.8222,-254.7646 575.9612,-242.1751 567,-231.8 566.6938,-231.4454 566.3833,-231.0904 566.0692,-230.7353"/>
<polygon fill="#000000" stroke="#000000" points="568.4983,-228.2103 559.0806,-223.3567 563.4161,-233.0239 568.4983,-228.2103"/>
</g>
<!-- reads -->
<g id="node7" class="node">
<title>reads</title>
<polygon fill="#94ddf4" stroke="#000000" points="504,-265.1 504,-301.1 558,-301.1 558,-265.1 504,-265.1"/>
<text text-anchor="middle" x="530.7672" y="-278.9" font-family="Times,serif" font-size="14.00" fill="#000000">reads</text>
</g>
<!-- reads&#45;&gt;Mapper -->
<g id="edge8" class="edge">
<title>reads&#45;&gt;Mapper</title>
<path fill="none" stroke="#000000" d="M532.8555,-265.0556C533.8179,-255.6963 535.0154,-244.0503 536.097,-233.532"/>
<polygon fill="#000000" stroke="#000000" points="539.5855,-233.8217 537.1269,-223.5161 532.6223,-233.1056 539.5855,-233.8217"/>
</g>
<!-- miOther -->
<g id="node8" class="node">
<title>miOther</title>
<polygon fill="#94ddf4" stroke="#000000" points="345.6732,-265.1 345.6732,-301.1 408.3268,-301.1 408.3268,-265.1 345.6732,-265.1"/>
<text text-anchor="middle" x="377" y="-278.9" font-family="Times,serif" font-size="14.00" fill="#000000">miOther</text>
</g>
<!-- miOther&#45;&gt;miRDeep2 -->
<g id="edge9" class="edge">
<title>miOther&#45;&gt;miRDeep2</title>
<path fill="none" stroke="#000000" d="M370.2451,-264.91C360.5748,-238.8693 342.7028,-190.7426 331.3556,-160.1862"/>
<polygon fill="#000000" stroke="#000000" points="334.5412,-158.7105 327.7789,-150.5545 327.9791,-161.1475 334.5412,-158.7105"/>
</g>
<!-- miRef -->
<g id="node9" class="node">
<title>miRef</title>
<polygon fill="#94ddf4" stroke="#000000" points="107,-265.1 107,-301.1 161,-301.1 161,-265.1 107,-265.1"/>
<text text-anchor="middle" x="133.9965" y="-278.9" font-family="Times,serif" font-size="14.00" fill="#000000">miRef</text>
</g>
<!-- miRef&#45;&gt;miRDeep2 -->
<g id="edge10" class="edge">
<title>miRef&#45;&gt;miRDeep2</title>
<path fill="none" stroke="#000000" d="M144.5068,-264.727C151.0091,-254.3277 160.0091,-241.5027 170,-231.8 201.9778,-200.7447 244.9333,-173.5303 276.8528,-155.4493"/>
<polygon fill="#000000" stroke="#000000" points="278.9343,-158.2959 285.9615,-150.3669 275.5235,-152.183 278.9343,-158.2959"/>
</g>
<!-- precursors -->
<g id="node10" class="node">
<title>precursors</title>
<polygon fill="#94ddf4" stroke="#000000" points="178.8499,-265.1 178.8499,-301.1 253.1501,-301.1 253.1501,-265.1 178.8499,-265.1"/>
<text text-anchor="middle" x="216" y="-278.9" font-family="Times,serif" font-size="14.00" fill="#000000">precursors</text>
</g>
<!-- precursors&#45;&gt;miRDeep2 -->
<g id="edge11" class="edge">
<title>precursors&#45;&gt;miRDeep2</title>
<path fill="none" stroke="#000000" d="M228.6655,-264.91C247.0337,-238.5296 281.184,-189.4833 302.4094,-158.9996"/>
<polygon fill="#000000" stroke="#000000" points="305.4478,-160.7611 308.2896,-150.5545 299.7031,-156.7612 305.4478,-160.7611"/>
</g>
<!-- species -->
<g id="node11" class="node">
<title>species</title>
<polygon fill="#94ddf4" stroke="#000000" points="270.7882,-265.1 270.7882,-301.1 327.2118,-301.1 327.2118,-265.1 270.7882,-265.1"/>
<text text-anchor="middle" x="299" y="-278.9" font-family="Times,serif" font-size="14.00" fill="#000000">species</text>
</g>
<!-- species&#45;&gt;miRDeep2 -->
<g id="edge12" class="edge">
<title>species&#45;&gt;miRDeep2</title>
<path fill="none" stroke="#000000" d="M301.6537,-264.91C305.4362,-238.9825 312.4129,-191.1606 316.8734,-160.5858"/>
<polygon fill="#000000" stroke="#000000" points="320.3565,-160.9551 318.3369,-150.5545 313.4298,-159.9445 320.3565,-160.9551"/>
</g>
</g>
</svg>

