<?xml version="1.0" encoding="UTF-8" standalone="no"?>
<!DOCTYPE svg PUBLIC "-//W3C//DTD SVG 1.1//EN"
 "http://www.w3.org/Graphics/SVG/1.1/DTD/svg11.dtd">
<!-- Generated by graphviz version 2.40.1 (20161225.0304)
 -->
<!-- Title: G Pages: 1 -->
<svg width="907pt" height="472pt"
 viewBox="0.00 0.00 906.77 471.60" xmlns="http://www.w3.org/2000/svg" xmlns:xlink="http://www.w3.org/1999/xlink">
<g id="graph0" class="graph" transform="scale(1 1) rotate(0) translate(4 467.6)">
<title>G</title>
<polygon fill="#eeeeee" stroke="transparent" points="-4,4 -4,-467.6 902.7658,-467.6 902.7658,4 -4,4"/>
<g id="clust1" class="cluster">
<title>cluster_inputs</title>
<polygon fill="#eeeeee" stroke="#000000" stroke-dasharray="5,2" points="71.7658,-377.8 71.7658,-455.6 890.7658,-455.6 890.7658,-377.8 71.7658,-377.8"/>
<text text-anchor="middle" x="834.7514" y="-386" font-family="Times,serif" font-size="14.00" fill="#000000">Workflow Inputs</text>
</g>
<g id="clust2" class="cluster">
<title>cluster_outputs</title>
<polygon fill="#eeeeee" stroke="#000000" stroke-dasharray="5,2" points="281.7658,-8 281.7658,-85.8 620.7658,-85.8 620.7658,-8 281.7658,-8"/>
<text text-anchor="middle" x="560.0831" y="-16.2" font-family="Times,serif" font-size="14.00" fill="#000000">Workflow Outputs</text>
</g>
<!-- GetPileupSummariesT -->
<g id="node1" class="node">
<title>GetPileupSummariesT</title>
<polygon fill="#fafad2" stroke="#000000" points="0,-333.3 0,-369.3 143.5316,-369.3 143.5316,-333.3 0,-333.3"/>
<text text-anchor="middle" x="71.7658" y="-347.1" font-family="Times,serif" font-size="14.00" fill="#000000">GetPileupSummariesT</text>
</g>
<!-- CalculateContamination -->
<g id="node2" class="node">
<title>CalculateContamination</title>
<polygon fill="#fafad2" stroke="#000000" points="267.723,-260.3 267.723,-296.3 419.8086,-296.3 419.8086,-260.3 267.723,-260.3"/>
<text text-anchor="middle" x="343.7658" y="-274.1" font-family="Times,serif" font-size="14.00" fill="#000000">CalculateContamination</text>
</g>
<!-- GetPileupSummariesT&#45;&gt;CalculateContamination -->
<g id="edge1" class="edge">
<title>GetPileupSummariesT&#45;&gt;CalculateContamination</title>
<path fill="none" stroke="#000000" d="M139.0018,-333.2551C177.6609,-322.8796 226.3798,-309.8043 266.5965,-299.0109"/>
<polygon fill="#000000" stroke="#000000" points="267.6097,-302.3629 276.3606,-296.3904 265.7952,-295.6022 267.6097,-302.3629"/>
</g>
<!-- FilterMutectCalls -->
<g id="node4" class="node">
<title>FilterMutectCalls</title>
<polygon fill="#fafad2" stroke="#000000" points="434.385,-187.3 434.385,-223.3 549.1466,-223.3 549.1466,-187.3 434.385,-187.3"/>
<text text-anchor="middle" x="491.7658" y="-201.1" font-family="Times,serif" font-size="14.00" fill="#000000">FilterMutectCalls</text>
</g>
<!-- CalculateContamination&#45;&gt;FilterMutectCalls -->
<g id="edge3" class="edge">
<title>CalculateContamination&#45;&gt;FilterMutectCalls</title>
<path fill="none" stroke="#000000" d="M374.4344,-260.2551C393.3857,-250.428 418.0967,-238.1789 439.9859,-227.7407"/>
<polygon fill="#000000" stroke="#000000" points="441.6304,-230.8346 449.1692,-223.3904 438.6336,-224.5085 441.6304,-230.8346"/>
</g>
<!-- CalculateContamination&#45;&gt;FilterMutectCalls -->
<g id="edge6" class="edge">
<title>CalculateContamination&#45;&gt;FilterMutectCalls</title>
<path fill="none" stroke="#000000" d="M386.2658,-260.2551C406.9746,-250.5157 431.6722,-238.3975 452.0048,-228.0207"/>
<polygon fill="#000000" stroke="#000000" points="453.717,-231.0759 461.0097,-223.3904 450.5159,-224.8507 453.717,-231.0759"/>
</g>
<!-- conTable -->
<g id="node19" class="node">
<title>conTable</title>
<polygon fill="#94ddf4" stroke="#000000" points="289.7223,-41.3 289.7223,-77.3 357.8093,-77.3 357.8093,-41.3 289.7223,-41.3"/>
<text text-anchor="middle" x="323.7658" y="-55.1" font-family="Times,serif" font-size="14.00" fill="#000000">conTable</text>
</g>
<!-- CalculateContamination&#45;&gt;conTable -->
<g id="edge31" class="edge">
<title>CalculateContamination&#45;&gt;conTable</title>
<path fill="none" stroke="#000000" d="M342.095,-260.0049C338.601,-221.7458 330.5021,-133.0623 326.3388,-87.4742"/>
<polygon fill="#000000" stroke="#000000" points="329.8128,-87.0293 325.4178,-77.389 322.8418,-87.6659 329.8128,-87.0293"/>
</g>
<!-- segment -->
<g id="node22" class="node">
<title>segment</title>
<polygon fill="#94ddf4" stroke="#000000" points="375.4383,-41.3 375.4383,-77.3 438.0933,-77.3 438.0933,-41.3 375.4383,-41.3"/>
<text text-anchor="middle" x="406.7658" y="-55.1" font-family="Times,serif" font-size="14.00" fill="#000000">segment</text>
</g>
<!-- CalculateContamination&#45;&gt;segment -->
<g id="edge34" class="edge">
<title>CalculateContamination&#45;&gt;segment</title>
<path fill="none" stroke="#000000" d="M349.0288,-260.0049C360.058,-221.6651 385.6542,-132.6879 398.7437,-87.1862"/>
<polygon fill="#000000" stroke="#000000" points="402.161,-87.9669 401.5621,-77.389 395.4338,-86.0317 402.161,-87.9669"/>
</g>
<!-- GetPileupSummariesN -->
<g id="node3" class="node">
<title>GetPileupSummariesN</title>
<polygon fill="#fafad2" stroke="#000000" points="161.223,-333.3 161.223,-369.3 306.3086,-369.3 306.3086,-333.3 161.223,-333.3"/>
<text text-anchor="middle" x="233.7658" y="-347.1" font-family="Times,serif" font-size="14.00" fill="#000000">GetPileupSummariesN</text>
</g>
<!-- GetPileupSummariesN&#45;&gt;CalculateContamination -->
<g id="edge2" class="edge">
<title>GetPileupSummariesN&#45;&gt;CalculateContamination</title>
<path fill="none" stroke="#000000" d="M260.9568,-333.2551C275.1036,-323.8667 292.5815,-312.2678 307.8288,-302.1491"/>
<polygon fill="#000000" stroke="#000000" points="310.1095,-304.8362 316.5064,-296.3904 306.2389,-299.0037 310.1095,-304.8362"/>
</g>
<!-- bcfview -->
<g id="node7" class="node">
<title>bcfview</title>
<polygon fill="#fafad2" stroke="#000000" points="548.2223,-114.3 548.2223,-150.3 609.3093,-150.3 609.3093,-114.3 548.2223,-114.3"/>
<text text-anchor="middle" x="578.7658" y="-128.1" font-family="Times,serif" font-size="14.00" fill="#000000">bcfview</text>
</g>
<!-- FilterMutectCalls&#45;&gt;bcfview -->
<g id="edge8" class="edge">
<title>FilterMutectCalls&#45;&gt;bcfview</title>
<path fill="none" stroke="#000000" d="M513.2714,-187.2551C524.1466,-178.1299 537.5106,-166.9165 549.3245,-157.0036"/>
<polygon fill="#000000" stroke="#000000" points="551.7953,-159.4994 557.2061,-150.3904 547.2958,-154.137 551.7953,-159.4994"/>
</g>
<!-- filterVCF -->
<g id="node20" class="node">
<title>filterVCF</title>
<polygon fill="#94ddf4" stroke="#000000" points="456.5491,-41.3 456.5491,-77.3 526.9825,-77.3 526.9825,-41.3 456.5491,-41.3"/>
<text text-anchor="middle" x="491.7658" y="-55.1" font-family="Times,serif" font-size="14.00" fill="#000000">filterVCF</text>
</g>
<!-- FilterMutectCalls&#45;&gt;filterVCF -->
<g id="edge32" class="edge">
<title>FilterMutectCalls&#45;&gt;filterVCF</title>
<path fill="none" stroke="#000000" d="M491.7658,-187.1042C491.7658,-162.1868 491.7658,-117.1938 491.7658,-87.7877"/>
<polygon fill="#000000" stroke="#000000" points="495.2659,-87.7251 491.7658,-77.7251 488.2659,-87.7251 495.2659,-87.7251"/>
</g>
<!-- LearnReadOrientationModel -->
<g id="node5" class="node">
<title>LearnReadOrientationModel</title>
<polygon fill="#fafad2" stroke="#000000" points="513.9074,-260.3 513.9074,-296.3 691.6242,-296.3 691.6242,-260.3 513.9074,-260.3"/>
<text text-anchor="middle" x="602.7658" y="-274.1" font-family="Times,serif" font-size="14.00" fill="#000000">LearnReadOrientationModel</text>
</g>
<!-- LearnReadOrientationModel&#45;&gt;FilterMutectCalls -->
<g id="edge4" class="edge">
<title>LearnReadOrientationModel&#45;&gt;FilterMutectCalls</title>
<path fill="none" stroke="#000000" d="M575.3276,-260.2551C561.0522,-250.8667 543.4154,-239.2678 528.0295,-229.1491"/>
<polygon fill="#000000" stroke="#000000" points="529.5513,-225.9609 519.2731,-223.3904 525.705,-231.8095 529.5513,-225.9609"/>
</g>
<!-- Mutect2 -->
<g id="node6" class="node">
<title>Mutect2</title>
<polygon fill="#fafad2" stroke="#000000" points="500.4383,-333.3 500.4383,-369.3 563.0933,-369.3 563.0933,-333.3 500.4383,-333.3"/>
<text text-anchor="middle" x="531.7658" y="-347.1" font-family="Times,serif" font-size="14.00" fill="#000000">Mutect2</text>
</g>
<!-- Mutect2&#45;&gt;FilterMutectCalls -->
<g id="edge5" class="edge">
<title>Mutect2&#45;&gt;FilterMutectCalls</title>
<path fill="none" stroke="#000000" d="M520.9966,-333.2428C515.3069,-322.9094 508.7046,-309.5083 504.7658,-296.8 498.3729,-276.1738 495.1088,-251.9455 493.4506,-233.6035"/>
<polygon fill="#000000" stroke="#000000" points="496.9333,-233.2455 492.6484,-223.5558 489.9555,-233.8027 496.9333,-233.2455"/>
</g>
<!-- Mutect2&#45;&gt;LearnReadOrientationModel -->
<g id="edge7" class="edge">
<title>Mutect2&#45;&gt;LearnReadOrientationModel</title>
<path fill="none" stroke="#000000" d="M549.3164,-333.2551C558.0208,-324.3054 568.679,-313.347 578.1814,-303.5769"/>
<polygon fill="#000000" stroke="#000000" points="580.7079,-305.9992 585.1711,-296.3904 575.6898,-301.1187 580.7079,-305.9992"/>
</g>
<!-- passVCF -->
<g id="node21" class="node">
<title>passVCF</title>
<polygon fill="#94ddf4" stroke="#000000" points="545.101,-41.3 545.101,-77.3 612.4306,-77.3 612.4306,-41.3 545.101,-41.3"/>
<text text-anchor="middle" x="578.7658" y="-55.1" font-family="Times,serif" font-size="14.00" fill="#000000">passVCF</text>
</g>
<!-- bcfview&#45;&gt;passVCF -->
<g id="edge33" class="edge">
<title>bcfview&#45;&gt;passVCF</title>
<path fill="none" stroke="#000000" d="M578.7658,-114.2551C578.7658,-106.1828 578.7658,-96.4764 578.7658,-87.4817"/>
<polygon fill="#000000" stroke="#000000" points="582.2659,-87.3903 578.7658,-77.3904 575.2659,-87.3904 582.2659,-87.3903"/>
</g>
<!-- tumor -->
<g id="node8" class="node">
<title>tumor</title>
<polygon fill="#94ddf4" stroke="#000000" points="299.7658,-411.1 299.7658,-447.1 353.7658,-447.1 353.7658,-411.1 299.7658,-411.1"/>
<text text-anchor="middle" x="326.4867" y="-424.9" font-family="Times,serif" font-size="14.00" fill="#000000">tumor</text>
</g>
<!-- tumor&#45;&gt;CalculateContamination -->
<g id="edge9" class="edge">
<title>tumor&#45;&gt;CalculateContamination</title>
<path fill="none" stroke="#000000" d="M324.2319,-410.91C324.5739,-384.9825 329.691,-337.1606 335.1708,-306.5858"/>
<polygon fill="#000000" stroke="#000000" points="338.6483,-307.0381 337.117,-296.5545 331.7764,-305.7048 338.6483,-307.0381"/>
</g>
<!-- tumor&#45;&gt;CalculateContamination -->
<g id="edge10" class="edge">
<title>tumor&#45;&gt;CalculateContamination</title>
<path fill="none" stroke="#000000" d="M333.4009,-410.91C338.9047,-384.9825 344.5696,-337.1606 345.9833,-306.5858"/>
<polygon fill="#000000" stroke="#000000" points="349.4826,-306.6596 346.2988,-296.5545 342.4861,-306.4395 349.4826,-306.6596"/>
</g>
<!-- tumor&#45;&gt;FilterMutectCalls -->
<g id="edge11" class="edge">
<title>tumor&#45;&gt;FilterMutectCalls</title>
<path fill="none" stroke="#000000" d="M339.1156,-410.8291C345.9237,-400.9306 354.6244,-388.5584 362.7658,-377.8 390.788,-340.7703 400.909,-333.9543 428.7658,-296.8 444.7734,-275.4496 461.8804,-250.45 474.2226,-231.9824"/>
<polygon fill="#000000" stroke="#000000" points="477.2498,-233.7507 479.873,-223.4857 471.421,-229.8744 477.2498,-233.7507"/>
</g>
<!-- tumor&#45;&gt;Mutect2 -->
<g id="edge12" class="edge">
<title>tumor&#45;&gt;Mutect2</title>
<path fill="none" stroke="#000000" d="M334.4838,-410.9501C340.4277,-399.3749 349.8282,-385.2035 362.7658,-377.8 381.9226,-366.8375 440.0104,-373.5234 461.7658,-369.8 471.1376,-368.196 481.0824,-365.9248 490.4435,-363.5207"/>
<polygon fill="#000000" stroke="#000000" points="491.5583,-366.8457 500.3173,-360.885 489.7529,-360.0825 491.5583,-366.8457"/>
</g>
<!-- normal -->
<g id="node9" class="node">
<title>normal</title>
<polygon fill="#94ddf4" stroke="#000000" points="682.9376,-411.1 682.9376,-447.1 738.594,-447.1 738.594,-411.1 682.9376,-411.1"/>
<text text-anchor="middle" x="710.7658" y="-424.9" font-family="Times,serif" font-size="14.00" fill="#000000">normal</text>
</g>
<!-- normal&#45;&gt;FilterMutectCalls -->
<g id="edge13" class="edge">
<title>normal&#45;&gt;FilterMutectCalls</title>
<path fill="none" stroke="#000000" d="M715.9287,-410.8397C724.3253,-376.8787 736.6349,-303.4949 700.7658,-259.8 682.7912,-237.9037 613.2279,-222.8692 559.2345,-214.2242"/>
<polygon fill="#000000" stroke="#000000" points="559.7696,-210.7654 549.3499,-212.6841 558.6919,-217.682 559.7696,-210.7654"/>
</g>
<!-- normal&#45;&gt;Mutect2 -->
<g id="edge14" class="edge">
<title>normal&#45;&gt;Mutect2</title>
<path fill="none" stroke="#000000" d="M694.4919,-410.8735C686.8893,-399.5719 677.2846,-385.7401 664.7658,-377.8 649.5078,-368.1226 606.438,-360.9437 573.304,-356.5166"/>
<polygon fill="#000000" stroke="#000000" points="573.7486,-353.045 563.3818,-355.2313 572.8493,-359.987 573.7486,-353.045"/>
</g>
<!-- normal&#45;&gt;Mutect2 -->
<g id="edge15" class="edge">
<title>normal&#45;&gt;Mutect2</title>
<path fill="none" stroke="#000000" d="M709.8523,-410.8735C704.8893,-399.5719 695.2846,-385.7401 682.7658,-377.8 665.4405,-366.8114 612.2563,-359.0442 573.7776,-354.8693"/>
<polygon fill="#000000" stroke="#000000" points="573.6647,-351.3388 563.3567,-353.7873 572.9417,-358.3014 573.6647,-351.3388"/>
</g>
<!-- Ref -->
<g id="node10" class="node">
<title>Ref</title>
<polygon fill="#94ddf4" stroke="#000000" points="756.7658,-411.1 756.7658,-447.1 810.7658,-447.1 810.7658,-411.1 756.7658,-411.1"/>
<text text-anchor="middle" x="783.3717" y="-424.9" font-family="Times,serif" font-size="14.00" fill="#000000">Ref</text>
</g>
<!-- Ref&#45;&gt;FilterMutectCalls -->
<g id="edge16" class="edge">
<title>Ref&#45;&gt;FilterMutectCalls</title>
<path fill="none" stroke="#000000" d="M782.82,-410.9532C779.9911,-376.1833 768.711,-300.0602 723.7658,-259.8 699.7313,-238.2708 618.86,-222.7446 559.3335,-213.8984"/>
<polygon fill="#000000" stroke="#000000" points="559.6313,-210.405 549.2319,-212.4304 558.6245,-217.3323 559.6313,-210.405"/>
</g>
<!-- Ref&#45;&gt;Mutect2 -->
<g id="edge17" class="edge">
<title>Ref&#45;&gt;Mutect2</title>
<path fill="none" stroke="#000000" d="M775.8149,-410.8706C769.8211,-399.4164 760.454,-385.414 747.7658,-377.8 719.2336,-360.6782 627.7011,-354.5722 573.3749,-352.4289"/>
<polygon fill="#000000" stroke="#000000" points="573.483,-348.9306 563.3615,-352.062 573.2266,-355.9259 573.483,-348.9306"/>
</g>
<!-- nbam -->
<g id="node11" class="node">
<title>nbam</title>
<polygon fill="#94ddf4" stroke="#000000" points="227.7658,-411.1 227.7658,-447.1 281.7658,-447.1 281.7658,-411.1 227.7658,-411.1"/>
<text text-anchor="middle" x="254.3184" y="-424.9" font-family="Times,serif" font-size="14.00" fill="#000000">nbam</text>
</g>
<!-- nbam&#45;&gt;GetPileupSummariesN -->
<g id="edge18" class="edge">
<title>nbam&#45;&gt;GetPileupSummariesN</title>
<path fill="none" stroke="#000000" d="M249.8952,-411.0556C247.3426,-401.5988 244.1598,-389.8074 241.2976,-379.2037"/>
<polygon fill="#000000" stroke="#000000" points="244.6678,-378.2584 238.6827,-369.5161 237.9097,-380.0827 244.6678,-378.2584"/>
</g>
<!-- nbam&#45;&gt;Mutect2 -->
<g id="edge19" class="edge">
<title>nbam&#45;&gt;Mutect2</title>
<path fill="none" stroke="#000000" d="M262.554,-411.0707C268.5284,-399.5479 277.9364,-385.3896 290.7658,-377.8 307.4955,-367.903 425.5555,-358.4916 490.0059,-354.0177"/>
<polygon fill="#000000" stroke="#000000" points="490.5069,-357.4917 500.2447,-353.3172 490.029,-350.508 490.5069,-357.4917"/>
</g>
<!-- comvcf -->
<g id="node12" class="node">
<title>comvcf</title>
<polygon fill="#94ddf4" stroke="#000000" points="79.7756,-411.1 79.7756,-447.1 137.756,-447.1 137.756,-411.1 79.7756,-411.1"/>
<text text-anchor="middle" x="108.7658" y="-424.9" font-family="Times,serif" font-size="14.00" fill="#000000">comvcf</text>
</g>
<!-- comvcf&#45;&gt;GetPileupSummariesT -->
<g id="edge22" class="edge">
<title>comvcf&#45;&gt;GetPileupSummariesT</title>
<path fill="none" stroke="#000000" d="M94.3835,-411.0556C88.8751,-401.5013 82.9685,-389.564 78.3913,-378.8761"/>
<polygon fill="#000000" stroke="#000000" points="81.6012,-377.4777 74.611,-369.5161 75.1106,-380.0991 81.6012,-377.4777"/>
</g>
<!-- comvcf&#45;&gt;GetPileupSummariesT -->
<g id="edge23" class="edge">
<title>comvcf&#45;&gt;GetPileupSummariesT</title>
<path fill="none" stroke="#000000" d="M105.985,-411.0556C102.3693,-401.4038 96.8468,-389.3202 91.1984,-378.5493"/>
<polygon fill="#000000" stroke="#000000" points="94.1228,-376.6028 86.247,-369.5161 87.9844,-379.9675 94.1228,-376.6028"/>
</g>
<!-- comvcf&#45;&gt;GetPileupSummariesN -->
<g id="edge20" class="edge">
<title>comvcf&#45;&gt;GetPileupSummariesN</title>
<path fill="none" stroke="#000000" d="M110.4534,-411.086C115.7878,-400.0165 125.6305,-386.3624 137.7658,-377.8 142.0111,-374.8046 146.6025,-372.1414 151.4,-369.7745"/>
<polygon fill="#000000" stroke="#000000" points="153.1257,-372.8377 160.843,-365.5786 150.2833,-366.4408 153.1257,-372.8377"/>
</g>
<!-- comvcf&#45;&gt;GetPileupSummariesN -->
<g id="edge21" class="edge">
<title>comvcf&#45;&gt;GetPileupSummariesN</title>
<path fill="none" stroke="#000000" d="M125.8719,-411.086C133.7878,-400.0165 143.6305,-386.3624 155.7658,-377.8 157.6002,-376.5057 159.4992,-375.2734 161.4484,-374.1003"/>
<polygon fill="#000000" stroke="#000000" points="163.1424,-377.1633 170.2722,-369.3263 159.8114,-371.0066 163.1424,-377.1633"/>
</g>
<!-- tbam -->
<g id="node13" class="node">
<title>tbam</title>
<polygon fill="#94ddf4" stroke="#000000" points="155.7658,-411.1 155.7658,-447.1 209.7658,-447.1 209.7658,-411.1 155.7658,-411.1"/>
<text text-anchor="middle" x="182.7637" y="-424.9" font-family="Times,serif" font-size="14.00" fill="#000000">tbam</text>
</g>
<!-- tbam&#45;&gt;GetPileupSummariesT -->
<g id="edge24" class="edge">
<title>tbam&#45;&gt;GetPileupSummariesT</title>
<path fill="none" stroke="#000000" d="M173.6613,-410.7638C167.4194,-399.8511 158.2057,-386.4834 146.7658,-377.8 145.1983,-376.6102 143.573,-375.4708 141.901,-374.3798"/>
<polygon fill="#000000" stroke="#000000" points="143.6089,-371.3242 133.2055,-369.3194 140.088,-377.3743 143.6089,-371.3242"/>
</g>
<!-- tbam&#45;&gt;Mutect2 -->
<g id="edge25" class="edge">
<title>tbam&#45;&gt;Mutect2</title>
<path fill="none" stroke="#000000" d="M190.4878,-410.957C196.4334,-399.3848 205.8343,-385.2142 218.7658,-377.8 237.5293,-367.042 294.2131,-371.6117 315.7658,-369.8 376.4001,-364.703 446.5959,-358.6656 490.0944,-354.9083"/>
<polygon fill="#000000" stroke="#000000" points="490.6277,-358.3753 500.2892,-354.0272 490.0249,-351.4013 490.6277,-358.3753"/>
</g>
<!-- gresource -->
<g id="node14" class="node">
<title>gresource</title>
<polygon fill="#94ddf4" stroke="#000000" points="448.561,-411.1 448.561,-447.1 518.9706,-447.1 518.9706,-411.1 448.561,-411.1"/>
<text text-anchor="middle" x="483.7658" y="-424.9" font-family="Times,serif" font-size="14.00" fill="#000000">gresource</text>
</g>
<!-- gresource&#45;&gt;Mutect2 -->
<g id="edge26" class="edge">
<title>gresource&#45;&gt;Mutect2</title>
<path fill="none" stroke="#000000" d="M494.8986,-411.0556C500.9136,-401.3063 508.4594,-389.0758 515.155,-378.2233"/>
<polygon fill="#000000" stroke="#000000" points="518.255,-379.8644 520.5271,-369.5161 512.2976,-376.1889 518.255,-379.8644"/>
</g>
<!-- interval -->
<g id="node15" class="node">
<title>interval</title>
<polygon fill="#94ddf4" stroke="#000000" points="371.385,-411.1 371.385,-447.1 430.1466,-447.1 430.1466,-411.1 371.385,-411.1"/>
<text text-anchor="middle" x="400.7658" y="-424.9" font-family="Times,serif" font-size="14.00" fill="#000000">interval</text>
</g>
<!-- interval&#45;&gt;Mutect2 -->
<g id="edge27" class="edge">
<title>interval&#45;&gt;Mutect2</title>
<path fill="none" stroke="#000000" d="M410.469,-411.0248C417.2922,-399.9309 427.3979,-386.2725 439.7658,-377.8 444.2452,-374.7315 468.1193,-367.8917 490.4228,-361.9298"/>
<polygon fill="#000000" stroke="#000000" points="491.3809,-365.2968 500.1533,-359.3558 489.5907,-358.5296 491.3809,-365.2968"/>
</g>
<!-- pon -->
<g id="node16" class="node">
<title>pon</title>
<polygon fill="#94ddf4" stroke="#000000" points="610.7658,-411.1 610.7658,-447.1 664.7658,-447.1 664.7658,-411.1 610.7658,-411.1"/>
<text text-anchor="middle" x="637.7658" y="-424.9" font-family="Times,serif" font-size="14.00" fill="#000000">pon</text>
</g>
<!-- pon&#45;&gt;Mutect2 -->
<g id="edge28" class="edge">
<title>pon&#45;&gt;Mutect2</title>
<path fill="none" stroke="#000000" d="M628.5928,-410.8531C622.3251,-399.9739 613.1083,-386.6102 601.7658,-377.8 593.2889,-371.2157 582.9946,-366.1214 572.9382,-362.2412"/>
<polygon fill="#000000" stroke="#000000" points="574.0313,-358.9154 563.4366,-358.8839 571.6993,-365.5155 574.0313,-358.9154"/>
</g>
<!-- threads -->
<g id="node17" class="node">
<title>threads</title>
<polygon fill="#94ddf4" stroke="#000000" points="536.5533,-411.1 536.5533,-447.1 592.9783,-447.1 592.9783,-411.1 536.5533,-411.1"/>
<text text-anchor="middle" x="564.7658" y="-424.9" font-family="Times,serif" font-size="14.00" fill="#000000">threads</text>
</g>
<!-- threads&#45;&gt;Mutect2 -->
<g id="edge29" class="edge">
<title>threads&#45;&gt;Mutect2</title>
<path fill="none" stroke="#000000" d="M557.112,-411.0556C553.0594,-401.5013 547.996,-389.564 543.4626,-378.8761"/>
<polygon fill="#000000" stroke="#000000" points="546.6195,-377.3554 539.4924,-369.5161 540.1752,-380.0889 546.6195,-377.3554"/>
</g>
<!-- filter -->
<g id="node18" class="node">
<title>filter</title>
<polygon fill="#94ddf4" stroke="#000000" points="828.7658,-411.1 828.7658,-447.1 882.7658,-447.1 882.7658,-411.1 828.7658,-411.1"/>
<text text-anchor="middle" x="855.3696" y="-424.9" font-family="Times,serif" font-size="14.00" fill="#000000">filter</text>
</g>
<!-- filter&#45;&gt;bcfview -->
<g id="edge30" class="edge">
<title>filter&#45;&gt;bcfview</title>
<path fill="none" stroke="#000000" d="M847.4255,-411.0426C831.743,-378.3554 795.3878,-308.2764 750.7658,-259.8 711.1464,-216.7583 655.2337,-178.45 618.0354,-155.3227"/>
<polygon fill="#000000" stroke="#000000" points="619.8203,-152.3116 609.4678,-150.0586 616.1557,-158.2758 619.8203,-152.3116"/>
</g>
</g>
</svg>

