<?xml version="1.0" encoding="UTF-8" standalone="no"?>
<!DOCTYPE svg PUBLIC "-//W3C//DTD SVG 1.1//EN"
 "http://www.w3.org/Graphics/SVG/1.1/DTD/svg11.dtd">
<!-- Generated by graphviz version 2.40.1 (20161225.0304)
 -->
<!-- Title: G Pages: 1 -->
<svg width="543pt" height="399pt"
 viewBox="0.00 0.00 543.00 398.60" xmlns="http://www.w3.org/2000/svg" xmlns:xlink="http://www.w3.org/1999/xlink">
<g id="graph0" class="graph" transform="scale(1 1) rotate(0) translate(4 394.6)">
<title>G</title>
<polygon fill="#eeeeee" stroke="transparent" points="-4,4 -4,-394.6 539,-394.6 539,4 -4,4"/>
<g id="clust1" class="cluster">
<title>cluster_inputs</title>
<polygon fill="#eeeeee" stroke="#000000" stroke-dasharray="5,2" points="8,-304.8 8,-382.6 527,-382.6 527,-304.8 8,-304.8"/>
<text text-anchor="middle" x="470.9856" y="-313" font-family="Times,serif" font-size="14.00" fill="#000000">Workflow Inputs</text>
</g>
<g id="clust2" class="cluster">
<title>cluster_outputs</title>
<polygon fill="#eeeeee" stroke="#000000" stroke-dasharray="5,2" points="262,-8 262,-85.8 383,-85.8 383,-8 262,-8"/>
<text text-anchor="middle" x="322.3173" y="-16.2" font-family="Times,serif" font-size="14.00" fill="#000000">Workflow Outputs</text>
</g>
<!-- preprocess -->
<g id="node1" class="node">
<title>preprocess</title>
<polygon fill="#fafad2" stroke="#000000" points="216.0729,-260.3 216.0729,-296.3 291.9271,-296.3 291.9271,-260.3 216.0729,-260.3"/>
<text text-anchor="middle" x="254" y="-274.1" font-family="Times,serif" font-size="14.00" fill="#000000">preprocess</text>
</g>
<!-- call -->
<g id="node2" class="node">
<title>call</title>
<polygon fill="#fafad2" stroke="#000000" points="221,-187.3 221,-223.3 275,-223.3 275,-187.3 221,-187.3"/>
<text text-anchor="middle" x="247.6052" y="-201.1" font-family="Times,serif" font-size="14.00" fill="#000000">call</text>
</g>
<!-- preprocess&#45;&gt;call -->
<g id="edge1" class="edge">
<title>preprocess&#45;&gt;call</title>
<path fill="none" stroke="#000000" d="M252.5169,-260.2551C251.8534,-252.1828 251.0556,-242.4764 250.3163,-233.4817"/>
<polygon fill="#000000" stroke="#000000" points="253.7944,-233.07 249.4869,-223.3904 246.8179,-233.6435 253.7944,-233.07"/>
</g>
<!-- postprocess -->
<g id="node3" class="node">
<title>postprocess</title>
<polygon fill="#fafad2" stroke="#000000" points="281.3429,-114.3 281.3429,-150.3 362.6571,-150.3 362.6571,-114.3 281.3429,-114.3"/>
<text text-anchor="middle" x="322" y="-128.1" font-family="Times,serif" font-size="14.00" fill="#000000">postprocess</text>
</g>
<!-- preprocess&#45;&gt;postprocess -->
<g id="edge2" class="edge">
<title>preprocess&#45;&gt;postprocess</title>
<path fill="none" stroke="#000000" d="M264.7873,-259.8985C270.7405,-249.4575 278.1002,-236.0633 284,-223.8 294.1301,-202.7438 304.2093,-178.2696 311.4392,-159.934"/>
<polygon fill="#000000" stroke="#000000" points="314.7694,-161.0279 315.1449,-150.4397 308.2485,-158.4826 314.7694,-161.0279"/>
</g>
<!-- call&#45;&gt;postprocess -->
<g id="edge3" class="edge">
<title>call&#45;&gt;postprocess</title>
<path fill="none" stroke="#000000" d="M266.2921,-187.2551C275.3644,-178.3054 286.4729,-167.347 296.3768,-157.5769"/>
<polygon fill="#000000" stroke="#000000" points="299.0008,-159.9049 303.6618,-150.3904 294.0848,-154.9215 299.0008,-159.9049"/>
</g>
<!-- outVcf -->
<g id="node11" class="node">
<title>outVcf</title>
<polygon fill="#94ddf4" stroke="#000000" points="294.5638,-41.3 294.5638,-77.3 349.4362,-77.3 349.4362,-41.3 294.5638,-41.3"/>
<text text-anchor="middle" x="322" y="-55.1" font-family="Times,serif" font-size="14.00" fill="#000000">outVcf</text>
</g>
<!-- postprocess&#45;&gt;outVcf -->
<g id="edge15" class="edge">
<title>postprocess&#45;&gt;outVcf</title>
<path fill="none" stroke="#000000" d="M322,-114.2551C322,-106.1828 322,-96.4764 322,-87.4817"/>
<polygon fill="#000000" stroke="#000000" points="325.5001,-87.3903 322,-77.3904 318.5001,-87.3904 325.5001,-87.3903"/>
</g>
<!-- ref -->
<g id="node4" class="node">
<title>ref</title>
<polygon fill="#94ddf4" stroke="#000000" points="16,-338.1 16,-374.1 70,-374.1 70,-338.1 16,-338.1"/>
<text text-anchor="middle" x="42.7679" y="-351.9" font-family="Times,serif" font-size="14.00" fill="#000000">ref</text>
</g>
<!-- ref&#45;&gt;preprocess -->
<g id="edge6" class="edge">
<title>ref&#45;&gt;preprocess</title>
<path fill="none" stroke="#000000" d="M50.72,-337.9535C56.6647,-326.3798 66.0654,-312.2088 79,-304.8 97.9602,-293.9398 155.4241,-300.2514 177,-296.8 186.4713,-295.2849 196.499,-293.2217 206.0764,-291.0215"/>
<polygon fill="#000000" stroke="#000000" points="206.9331,-294.4155 215.8518,-288.6965 205.3133,-287.6055 206.9331,-294.4155"/>
</g>
<!-- ref&#45;&gt;call -->
<g id="edge4" class="edge">
<title>ref&#45;&gt;call</title>
<path fill="none" stroke="#000000" d="M53.0253,-338.0241C59.4863,-327.4738 68.6073,-314.3948 79,-304.8 89.9936,-294.6504 165.5702,-251.5267 211.8553,-225.4973"/>
<polygon fill="#000000" stroke="#000000" points="213.6883,-228.4821 220.694,-220.5341 210.2609,-222.3786 213.6883,-228.4821"/>
</g>
<!-- ref&#45;&gt;postprocess -->
<g id="edge5" class="edge">
<title>ref&#45;&gt;postprocess</title>
<path fill="none" stroke="#000000" d="M48.1261,-337.9312C54.7533,-317.0705 68.002,-282.7782 89,-259.8 139.4094,-204.6369 219.3668,-168.2209 271.2623,-148.9224"/>
<polygon fill="#000000" stroke="#000000" points="272.7308,-152.1126 280.9311,-145.4039 270.3371,-145.5346 272.7308,-152.1126"/>
</g>
<!-- ensemble -->
<g id="node5" class="node">
<title>ensemble</title>
<polygon fill="#94ddf4" stroke="#000000" points="306.5652,-338.1 306.5652,-374.1 375.4348,-374.1 375.4348,-338.1 306.5652,-338.1"/>
<text text-anchor="middle" x="341" y="-351.9" font-family="Times,serif" font-size="14.00" fill="#000000">ensemble</text>
</g>
<!-- ensemble&#45;&gt;preprocess -->
<g id="edge8" class="edge">
<title>ensemble&#45;&gt;preprocess</title>
<path fill="none" stroke="#000000" d="M327.5637,-337.7673C319.4183,-327.3814 308.4183,-314.5564 297,-304.8 296.025,-303.9669 295.021,-303.1425 293.9946,-302.3285"/>
<polygon fill="#000000" stroke="#000000" points="295.9294,-299.4072 285.794,-296.321 291.7926,-305.0541 295.9294,-299.4072"/>
</g>
<!-- ensemble&#45;&gt;postprocess -->
<g id="edge7" class="edge">
<title>ensemble&#45;&gt;postprocess</title>
<path fill="none" stroke="#000000" d="M339.4452,-337.7855C336.1316,-298.7548 328.355,-207.155 324.4003,-160.5735"/>
<polygon fill="#000000" stroke="#000000" points="327.8832,-160.2217 323.5497,-150.5537 320.9083,-160.8139 327.8832,-160.2217"/>
</g>
<!-- ovcf -->
<g id="node6" class="node">
<title>ovcf</title>
<polygon fill="#94ddf4" stroke="#000000" points="465,-338.1 465,-374.1 519,-374.1 519,-338.1 465,-338.1"/>
<text text-anchor="middle" x="491.9376" y="-351.9" font-family="Times,serif" font-size="14.00" fill="#000000">ovcf</text>
</g>
<!-- ovcf&#45;&gt;postprocess -->
<g id="edge9" class="edge">
<title>ovcf&#45;&gt;postprocess</title>
<path fill="none" stroke="#000000" d="M479.4882,-337.9493C472.6326,-328.0861 463.9383,-315.7092 456,-304.8 417.3498,-251.6848 407.6997,-238.3616 367,-186.8 359.5496,-177.3612 351.2089,-167.1623 343.7513,-158.1684"/>
<polygon fill="#000000" stroke="#000000" points="346.2906,-155.7483 337.2016,-150.3039 340.9116,-160.2279 346.2906,-155.7483"/>
</g>
<!-- tbam -->
<g id="node7" class="node">
<title>tbam</title>
<polygon fill="#94ddf4" stroke="#000000" points="393,-338.1 393,-374.1 447,-374.1 447,-338.1 393,-338.1"/>
<text text-anchor="middle" x="419.9979" y="-351.9" font-family="Times,serif" font-size="14.00" fill="#000000">tbam</text>
</g>
<!-- tbam&#45;&gt;preprocess -->
<g id="edge11" class="edge">
<title>tbam&#45;&gt;preprocess</title>
<path fill="none" stroke="#000000" d="M411.7097,-337.9469C405.6259,-326.6755 396.2865,-312.8496 384,-304.8 370.628,-296.0392 333.5367,-288.9879 302.3797,-284.3679"/>
<polygon fill="#000000" stroke="#000000" points="302.4786,-280.8465 292.0837,-282.8954 301.4875,-287.776 302.4786,-280.8465"/>
</g>
<!-- tbam&#45;&gt;postprocess -->
<g id="edge10" class="edge">
<title>tbam&#45;&gt;postprocess</title>
<path fill="none" stroke="#000000" d="M411.9802,-337.7855C394.8171,-298.5905 354.4401,-206.3827 334.1241,-159.9875"/>
<polygon fill="#000000" stroke="#000000" points="337.2105,-158.31 329.9931,-150.5537 330.7983,-161.1179 337.2105,-158.31"/>
</g>
<!-- nbam -->
<g id="node8" class="node">
<title>nbam</title>
<polygon fill="#94ddf4" stroke="#000000" points="160,-338.1 160,-374.1 214,-374.1 214,-338.1 160,-338.1"/>
<text text-anchor="middle" x="186.5526" y="-351.9" font-family="Times,serif" font-size="14.00" fill="#000000">nbam</text>
</g>
<!-- nbam&#45;&gt;preprocess -->
<g id="edge12" class="edge">
<title>nbam&#45;&gt;preprocess</title>
<path fill="none" stroke="#000000" d="M198.2885,-337.6974C204.9142,-327.531 213.7793,-314.9451 223,-304.8 223.3214,-304.4463 223.6475,-304.0929 223.9777,-303.7399"/>
<polygon fill="#000000" stroke="#000000" points="226.6871,-305.9842 231.3594,-296.4752 221.777,-300.995 226.6871,-305.9842"/>
</g>
<!-- region -->
<g id="node9" class="node">
<title>region</title>
<polygon fill="#94ddf4" stroke="#000000" points="88,-338.1 88,-374.1 142,-374.1 142,-338.1 88,-338.1"/>
<text text-anchor="middle" x="114.8829" y="-351.9" font-family="Times,serif" font-size="14.00" fill="#000000">region</text>
</g>
<!-- region&#45;&gt;preprocess -->
<g id="edge13" class="edge">
<title>region&#45;&gt;preprocess</title>
<path fill="none" stroke="#000000" d="M123.5668,-337.905C129.7095,-326.7633 139.0111,-313.0967 151,-304.8 153.4907,-303.0764 180.4955,-296.1559 206.2264,-289.8197"/>
<polygon fill="#000000" stroke="#000000" points="207.0921,-293.2112 215.9718,-287.4319 205.4262,-286.4123 207.0921,-293.2112"/>
</g>
<!-- threads -->
<g id="node10" class="node">
<title>threads</title>
<polygon fill="#94ddf4" stroke="#000000" points="231.7875,-338.1 231.7875,-374.1 288.2125,-374.1 288.2125,-338.1 231.7875,-338.1"/>
<text text-anchor="middle" x="260" y="-351.9" font-family="Times,serif" font-size="14.00" fill="#000000">threads</text>
</g>
<!-- threads&#45;&gt;preprocess -->
<g id="edge14" class="edge">
<title>threads&#45;&gt;preprocess</title>
<path fill="none" stroke="#000000" d="M258.6084,-338.0556C257.8866,-328.6963 256.9885,-317.0503 256.1773,-306.532"/>
<polygon fill="#000000" stroke="#000000" points="259.6635,-306.2173 255.4048,-296.5161 252.6842,-306.7556 259.6635,-306.2173"/>
</g>
</g>
</svg>

