<?xml version="1.0" encoding="UTF-8" standalone="no"?>
<!DOCTYPE svg PUBLIC "-//W3C//DTD SVG 1.1//EN"
 "http://www.w3.org/Graphics/SVG/1.1/DTD/svg11.dtd">
<!-- Generated by graphviz version 2.40.1 (20161225.0304)
 -->
<!-- Title: G Pages: 1 -->
<svg width="1078pt" height="383pt"
 viewBox="0.00 0.00 1077.94 382.60" xmlns="http://www.w3.org/2000/svg" xmlns:xlink="http://www.w3.org/1999/xlink">
<g id="graph0" class="graph" transform="scale(1 1) rotate(0) translate(4 378.6)">
<title>G</title>
<polygon fill="#eeeeee" stroke="transparent" points="-4,4 -4,-378.6 1073.9355,-378.6 1073.9355,4 -4,4"/>
<g id="clust1" class="cluster">
<title>cluster_inputs</title>
<polygon fill="#eeeeee" stroke="#000000" stroke-dasharray="5,2" points="166,-231.8 166,-309.6 984,-309.6 984,-231.8 166,-231.8"/>
<text text-anchor="middle" x="927.9856" y="-240" font-family="Times,serif" font-size="14.00" fill="#000000">Workflow Inputs</text>
</g>
<g id="clust2" class="cluster">
<title>cluster_outputs</title>
<polygon fill="#eeeeee" stroke="#000000" stroke-dasharray="5,2" points="8,-8 8,-85.8 1017,-85.8 1017,-8 8,-8"/>
<text text-anchor="middle" x="956.3173" y="-16.2" font-family="Times,serif" font-size="14.00" fill="#000000">Workflow Outputs</text>
</g>
<!-- Mutect2PL -->
<g id="node1" class="node">
<title>Mutect2PL</title>
<polygon fill="#f3cea1" stroke="#000000" points="403.5049,-187.3 403.5049,-223.3 482.4951,-223.3 482.4951,-187.3 403.5049,-187.3"/>
<text text-anchor="middle" x="443" y="-201.1" font-family="Times,serif" font-size="14.00" fill="#000000">Mutect2PL</text>
</g>
<!-- combine -->
<g id="node2" class="node">
<title>combine</title>
<polygon fill="#fafad2" stroke="#000000" points="633.8948,-114.3 633.8948,-150.3 698.1052,-150.3 698.1052,-114.3 633.8948,-114.3"/>
<text text-anchor="middle" x="666" y="-128.1" font-family="Times,serif" font-size="14.00" fill="#000000">combine</text>
</g>
<!-- Mutect2PL&#45;&gt;combine -->
<g id="edge1" class="edge">
<title>Mutect2PL&#45;&gt;combine</title>
<path fill="none" stroke="#000000" d="M482.611,-192.3332C522.386,-179.3126 583.4379,-159.3271 624.0298,-146.0391"/>
<polygon fill="#000000" stroke="#000000" points="625.2149,-149.334 633.6298,-142.8965 623.0371,-142.6814 625.2149,-149.334"/>
</g>
<!-- mutect2conTable -->
<g id="node22" class="node">
<title>mutect2conTable</title>
<polygon fill="#94ddf4" stroke="#000000" points="141.406,-41.3 141.406,-77.3 254.594,-77.3 254.594,-41.3 141.406,-41.3"/>
<text text-anchor="middle" x="198" y="-55.1" font-family="Times,serif" font-size="14.00" fill="#000000">mutect2conTable</text>
</g>
<!-- Mutect2PL&#45;&gt;mutect2conTable -->
<g id="edge40" class="edge">
<title>Mutect2PL&#45;&gt;mutect2conTable</title>
<path fill="none" stroke="#000000" d="M412.466,-187.1042C368.1476,-160.6941 285.9837,-111.7311 237.2308,-82.6784"/>
<polygon fill="#000000" stroke="#000000" points="238.9152,-79.6078 228.5331,-77.4952 235.3317,-85.6211 238.9152,-79.6078"/>
</g>
<!-- mutect2filterVCF -->
<g id="node23" class="node">
<title>mutect2filterVCF</title>
<polygon fill="#94ddf4" stroke="#000000" points="272.2328,-41.3 272.2328,-77.3 387.7672,-77.3 387.7672,-41.3 272.2328,-41.3"/>
<text text-anchor="middle" x="330" y="-55.1" font-family="Times,serif" font-size="14.00" fill="#000000">mutect2filterVCF</text>
</g>
<!-- Mutect2PL&#45;&gt;mutect2filterVCF -->
<g id="edge41" class="edge">
<title>Mutect2PL&#45;&gt;mutect2filterVCF</title>
<path fill="none" stroke="#000000" d="M428.9169,-187.1042C409.2086,-161.6403 373.2734,-115.2108 350.569,-85.8759"/>
<polygon fill="#000000" stroke="#000000" points="353.149,-83.491 344.2605,-77.7251 347.6134,-87.7755 353.149,-83.491"/>
</g>
<!-- mutect2passVCF -->
<g id="node24" class="node">
<title>mutect2passVCF</title>
<polygon fill="#94ddf4" stroke="#000000" points="405.7847,-41.3 405.7847,-77.3 518.2153,-77.3 518.2153,-41.3 405.7847,-41.3"/>
<text text-anchor="middle" x="462" y="-55.1" font-family="Times,serif" font-size="14.00" fill="#000000">mutect2passVCF</text>
</g>
<!-- Mutect2PL&#45;&gt;mutect2passVCF -->
<g id="edge42" class="edge">
<title>Mutect2PL&#45;&gt;mutect2passVCF</title>
<path fill="none" stroke="#000000" d="M445.3679,-187.1042C448.6106,-162.1868 454.4659,-117.1938 458.2927,-87.7877"/>
<polygon fill="#000000" stroke="#000000" points="461.7824,-88.0932 459.6022,-77.7251 454.8409,-87.1898 461.7824,-88.0932"/>
</g>
<!-- mutect2segment -->
<g id="node25" class="node">
<title>mutect2segment</title>
<polygon fill="#94ddf4" stroke="#000000" points="16.122,-41.3 16.122,-77.3 123.878,-77.3 123.878,-41.3 16.122,-41.3"/>
<text text-anchor="middle" x="70" y="-55.1" font-family="Times,serif" font-size="14.00" fill="#000000">mutect2segment</text>
</g>
<!-- Mutect2PL&#45;&gt;mutect2segment -->
<g id="edge43" class="edge">
<title>Mutect2PL&#45;&gt;mutect2segment</title>
<path fill="none" stroke="#000000" d="M403.3279,-192.1851C371.6534,-181.5354 326.2361,-165.8646 287,-150.8 217.2625,-124.0245 200.7897,-114.9243 132,-85.8 128.6213,-84.3695 125.1405,-82.8921 121.6333,-81.4006"/>
<polygon fill="#000000" stroke="#000000" points="122.9116,-78.1408 112.3398,-77.4425 120.1686,-84.5811 122.9116,-78.1408"/>
</g>
<!-- combineVcf -->
<g id="node21" class="node">
<title>combineVcf</title>
<polygon fill="#94ddf4" stroke="#000000" points="623.4039,-41.3 623.4039,-77.3 708.5961,-77.3 708.5961,-41.3 623.4039,-41.3"/>
<text text-anchor="middle" x="666" y="-55.1" font-family="Times,serif" font-size="14.00" fill="#000000">combineVcf</text>
</g>
<!-- combine&#45;&gt;combineVcf -->
<g id="edge39" class="edge">
<title>combine&#45;&gt;combineVcf</title>
<path fill="none" stroke="#000000" d="M666,-114.2551C666,-106.1828 666,-96.4764 666,-87.4817"/>
<polygon fill="#000000" stroke="#000000" points="669.5001,-87.3903 666,-77.3904 662.5001,-87.3904 669.5001,-87.3903"/>
</g>
<!-- MuSE -->
<g id="node3" class="node">
<title>MuSE</title>
<polygon fill="#fafad2" stroke="#000000" points="584,-187.3 584,-223.3 638,-223.3 638,-187.3 584,-187.3"/>
<text text-anchor="middle" x="610.8899" y="-201.1" font-family="Times,serif" font-size="14.00" fill="#000000">MuSE</text>
</g>
<!-- MuSE&#45;&gt;combine -->
<g id="edge2" class="edge">
<title>MuSE&#45;&gt;combine</title>
<path fill="none" stroke="#000000" d="M624.5955,-187.2551C631.1401,-178.5686 639.1104,-167.9898 646.304,-158.442"/>
<polygon fill="#000000" stroke="#000000" points="649.1482,-160.4834 652.3703,-150.3904 643.5573,-156.2711 649.1482,-160.4834"/>
</g>
<!-- MuSEout -->
<g id="node19" class="node">
<title>MuSEout</title>
<polygon fill="#94ddf4" stroke="#000000" points="536.1648,-41.3 536.1648,-77.3 605.8352,-77.3 605.8352,-41.3 536.1648,-41.3"/>
<text text-anchor="middle" x="571" y="-55.1" font-family="Times,serif" font-size="14.00" fill="#000000">MuSEout</text>
</g>
<!-- MuSE&#45;&gt;MuSEout -->
<g id="edge37" class="edge">
<title>MuSE&#45;&gt;MuSEout</title>
<path fill="none" stroke="#000000" d="M606.0148,-187.1042C599.1582,-162.0775 586.7531,-116.7988 578.6991,-87.4017"/>
<polygon fill="#000000" stroke="#000000" points="582.066,-86.4448 576.048,-77.7251 575.3148,-88.2945 582.066,-86.4448"/>
</g>
<!-- mantaStrelka -->
<g id="node4" class="node">
<title>mantaStrelka</title>
<polygon fill="#f3cea1" stroke="#000000" points="798.068,-187.3 798.068,-223.3 887.932,-223.3 887.932,-187.3 798.068,-187.3"/>
<text text-anchor="middle" x="843" y="-201.1" font-family="Times,serif" font-size="14.00" fill="#000000">mantaStrelka</text>
</g>
<!-- mantaStrelka&#45;&gt;combine -->
<g id="edge3" class="edge">
<title>mantaStrelka&#45;&gt;combine</title>
<path fill="none" stroke="#000000" d="M797.9979,-189.0989C770.1481,-178.1272 734.7309,-163.5674 707.5468,-151.9361"/>
<polygon fill="#000000" stroke="#000000" points="708.8697,-148.695 698.3007,-147.9547 706.1012,-155.1243 708.8697,-148.695"/>
</g>
<!-- mantaStrelka&#45;&gt;combine -->
<g id="edge5" class="edge">
<title>mantaStrelka&#45;&gt;combine</title>
<path fill="none" stroke="#000000" d="M805.1629,-187.2551C776.5785,-174.9646 737.4799,-158.8858 707.9445,-147.299"/>
<polygon fill="#000000" stroke="#000000" points="708.9123,-143.9199 698.3238,-143.5537 706.3728,-150.4431 708.9123,-143.9199"/>
</g>
<!-- strelka2indel -->
<g id="node26" class="node">
<title>strelka2indel</title>
<polygon fill="#94ddf4" stroke="#000000" points="920.8443,-41.3 920.8443,-77.3 1009.1557,-77.3 1009.1557,-41.3 920.8443,-41.3"/>
<text text-anchor="middle" x="965" y="-55.1" font-family="Times,serif" font-size="14.00" fill="#000000">strelka2indel</text>
</g>
<!-- mantaStrelka&#45;&gt;strelka2indel -->
<g id="edge44" class="edge">
<title>mantaStrelka&#45;&gt;strelka2indel</title>
<path fill="none" stroke="#000000" d="M858.2047,-187.1042C879.5741,-161.5311 918.6134,-114.8119 943.1075,-85.4992"/>
<polygon fill="#000000" stroke="#000000" points="945.8772,-87.643 949.6037,-77.7251 940.5057,-83.1544 945.8772,-87.643"/>
</g>
<!-- strelka2snv -->
<g id="node27" class="node">
<title>strelka2snv</title>
<polygon fill="#94ddf4" stroke="#000000" points="823.1199,-41.3 823.1199,-77.3 902.8801,-77.3 902.8801,-41.3 823.1199,-41.3"/>
<text text-anchor="middle" x="863" y="-55.1" font-family="Times,serif" font-size="14.00" fill="#000000">strelka2snv</text>
</g>
<!-- mantaStrelka&#45;&gt;strelka2snv -->
<g id="edge45" class="edge">
<title>mantaStrelka&#45;&gt;strelka2snv</title>
<path fill="none" stroke="#000000" d="M845.4926,-187.1042C848.9059,-162.1868 855.0693,-117.1938 859.0976,-87.7877"/>
<polygon fill="#000000" stroke="#000000" points="862.5864,-88.1076 860.476,-77.7251 855.6511,-87.1575 862.5864,-88.1076"/>
</g>
<!-- VarDict -->
<g id="node5" class="node">
<title>VarDict</title>
<polygon fill="#fafad2" stroke="#000000" points="700.4579,-187.3 700.4579,-223.3 761.5421,-223.3 761.5421,-187.3 700.4579,-187.3"/>
<text text-anchor="middle" x="731" y="-201.1" font-family="Times,serif" font-size="14.00" fill="#000000">VarDict</text>
</g>
<!-- VarDict&#45;&gt;combine -->
<g id="edge4" class="edge">
<title>VarDict&#45;&gt;combine</title>
<path fill="none" stroke="#000000" d="M714.9326,-187.2551C707.0419,-178.3932 697.3974,-167.5616 688.763,-157.8646"/>
<polygon fill="#000000" stroke="#000000" points="691.3718,-155.5313 682.1079,-150.3904 686.1439,-160.1863 691.3718,-155.5313"/>
</g>
<!-- VarDictout -->
<g id="node20" class="node">
<title>VarDictout</title>
<polygon fill="#94ddf4" stroke="#000000" points="726.5126,-41.3 726.5126,-77.3 805.4874,-77.3 805.4874,-41.3 726.5126,-41.3"/>
<text text-anchor="middle" x="766" y="-55.1" font-family="Times,serif" font-size="14.00" fill="#000000">VarDictout</text>
</g>
<!-- VarDict&#45;&gt;VarDictout -->
<g id="edge38" class="edge">
<title>VarDict&#45;&gt;VarDictout</title>
<path fill="none" stroke="#000000" d="M735.362,-187.1042C741.3354,-162.1868 752.1213,-117.1938 759.1708,-87.7877"/>
<polygon fill="#000000" stroke="#000000" points="762.6553,-88.2655 761.583,-77.7251 755.8482,-86.6336 762.6553,-88.2655"/>
</g>
<!-- tabixIndex -->
<g id="node6" class="node">
<title>tabixIndex</title>
<polygon fill="#fafad2" stroke="#000000" points="994.0645,-265.1 994.0645,-301.1 1069.9355,-301.1 1069.9355,-265.1 994.0645,-265.1"/>
<text text-anchor="middle" x="1032" y="-278.9" font-family="Times,serif" font-size="14.00" fill="#000000">tabixIndex</text>
</g>
<!-- tabixIndex&#45;&gt;mantaStrelka -->
<g id="edge6" class="edge">
<title>tabixIndex&#45;&gt;mantaStrelka</title>
<path fill="none" stroke="#000000" d="M1021.1814,-265.0901C1013.391,-253.7286 1001.8379,-239.747 988,-231.8 972.8013,-223.0714 932.3536,-216.0967 898.0283,-211.4979"/>
<polygon fill="#000000" stroke="#000000" points="898.4398,-208.022 888.0725,-210.2061 897.539,-214.9638 898.4398,-208.022"/>
</g>
<!-- bgzip -->
<g id="node7" class="node">
<title>bgzip</title>
<polygon fill="#fafad2" stroke="#000000" points="781,-338.1 781,-374.1 835,-374.1 835,-338.1 781,-338.1"/>
<text text-anchor="middle" x="807.5526" y="-351.9" font-family="Times,serif" font-size="14.00" fill="#000000">bgzip</text>
</g>
<!-- bgzip&#45;&gt;tabixIndex -->
<g id="edge7" class="edge">
<title>bgzip&#45;&gt;tabixIndex</title>
<path fill="none" stroke="#000000" d="M835.0158,-351.6463C870.929,-345.1644 935.9199,-331.4626 988,-309.6 990.6208,-308.4998 993.2712,-307.2627 995.903,-305.94"/>
<polygon fill="#000000" stroke="#000000" points="997.5724,-309.0163 1004.7102,-301.1866 994.2477,-302.8562 997.5724,-309.0163"/>
</g>
<!-- dbsnp -->
<g id="node8" class="node">
<title>dbsnp</title>
<polygon fill="#94ddf4" stroke="#000000" points="484,-265.1 484,-301.1 538,-301.1 538,-265.1 484,-265.1"/>
<text text-anchor="middle" x="510.7223" y="-278.9" font-family="Times,serif" font-size="14.00" fill="#000000">dbsnp</text>
</g>
<!-- dbsnp&#45;&gt;MuSE -->
<g id="edge8" class="edge">
<title>dbsnp&#45;&gt;MuSE</title>
<path fill="none" stroke="#000000" d="M520.269,-264.9748C526.5728,-254.1415 535.7939,-240.7831 547,-231.8 555.093,-225.3124 564.9975,-220.1883 574.5741,-216.2453"/>
<polygon fill="#000000" stroke="#000000" points="575.8503,-219.5046 583.9622,-212.6893 573.3708,-212.9585 575.8503,-219.5046"/>
</g>
<!-- nbam -->
<g id="node9" class="node">
<title>nbam</title>
<polygon fill="#94ddf4" stroke="#000000" points="704,-265.1 704,-301.1 758,-301.1 758,-265.1 704,-265.1"/>
<text text-anchor="middle" x="730.5526" y="-278.9" font-family="Times,serif" font-size="14.00" fill="#000000">nbam</text>
</g>
<!-- nbam&#45;&gt;Mutect2PL -->
<g id="edge10" class="edge">
<title>nbam&#45;&gt;Mutect2PL</title>
<path fill="none" stroke="#000000" d="M723.3155,-264.891C717.3862,-253.2901 707.9894,-239.1124 695,-231.8 671.7109,-218.6894 601.5845,-226.5454 575,-223.8 547.8097,-220.992 517.6074,-216.8365 492.9619,-213.1749"/>
<polygon fill="#000000" stroke="#000000" points="493.1741,-209.6675 482.7648,-211.6412 492.133,-216.5896 493.1741,-209.6675"/>
</g>
<!-- nbam&#45;&gt;MuSE -->
<g id="edge9" class="edge">
<title>nbam&#45;&gt;MuSE</title>
<path fill="none" stroke="#000000" d="M721.9984,-264.6259C715.7952,-253.6613 706.586,-240.2874 695,-231.8 681.2377,-221.7183 663.5176,-215.3909 647.9029,-211.4603"/>
<polygon fill="#000000" stroke="#000000" points="648.5361,-208.015 638.0086,-209.2081 646.9823,-214.8404 648.5361,-208.015"/>
</g>
<!-- nbam&#45;&gt;mantaStrelka -->
<g id="edge12" class="edge">
<title>nbam&#45;&gt;mantaStrelka</title>
<path fill="none" stroke="#000000" d="M740.0919,-264.7472C746.329,-253.8282 755.5422,-240.4597 767,-231.8 773.4988,-226.8883 780.9789,-222.8393 788.6564,-219.5149"/>
<polygon fill="#000000" stroke="#000000" points="790.0439,-222.7302 798.0664,-215.81 787.4794,-216.2169 790.0439,-222.7302"/>
</g>
<!-- nbam&#45;&gt;VarDict -->
<g id="edge11" class="edge">
<title>nbam&#45;&gt;VarDict</title>
<path fill="none" stroke="#000000" d="M731,-265.0556C731,-255.6963 731,-244.0503 731,-233.532"/>
<polygon fill="#000000" stroke="#000000" points="734.5001,-233.516 731,-223.5161 727.5001,-233.5161 734.5001,-233.516"/>
</g>
<!-- Ref -->
<g id="node10" class="node">
<title>Ref</title>
<polygon fill="#94ddf4" stroke="#000000" points="848,-265.1 848,-301.1 902,-301.1 902,-265.1 848,-265.1"/>
<text text-anchor="middle" x="874.6059" y="-278.9" font-family="Times,serif" font-size="14.00" fill="#000000">Ref</text>
</g>
<!-- Ref&#45;&gt;Mutect2PL -->
<g id="edge14" class="edge">
<title>Ref&#45;&gt;Mutect2PL</title>
<path fill="none" stroke="#000000" d="M867.5286,-264.9926C861.6443,-253.2776 852.2156,-238.9272 839,-231.8 826.085,-224.8349 589.6207,-225.0424 575,-223.8 547.7633,-221.4856 517.5574,-217.3682 492.9215,-213.6044"/>
<polygon fill="#000000" stroke="#000000" points="493.1483,-210.0976 482.7292,-212.0193 492.0725,-217.0145 493.1483,-210.0976"/>
</g>
<!-- Ref&#45;&gt;MuSE -->
<g id="edge13" class="edge">
<title>Ref&#45;&gt;MuSE</title>
<path fill="none" stroke="#000000" d="M867.4742,-265.0921C861.5656,-253.4216 852.1302,-239.0834 839,-231.8 824.5988,-223.8116 707.3059,-226.1083 691,-223.8 676.828,-221.7938 661.4664,-218.5154 648.0285,-215.2714"/>
<polygon fill="#000000" stroke="#000000" points="648.7284,-211.8389 638.179,-212.8191 647.0371,-218.6315 648.7284,-211.8389"/>
</g>
<!-- Ref&#45;&gt;mantaStrelka -->
<g id="edge16" class="edge">
<title>Ref&#45;&gt;mantaStrelka</title>
<path fill="none" stroke="#000000" d="M867.5781,-265.0556C863.6484,-255.5013 858.7384,-243.564 854.3423,-232.8761"/>
<polygon fill="#000000" stroke="#000000" points="857.5333,-231.433 850.4925,-223.5161 851.0596,-234.0957 857.5333,-231.433"/>
</g>
<!-- Ref&#45;&gt;VarDict -->
<g id="edge15" class="edge">
<title>Ref&#45;&gt;VarDict</title>
<path fill="none" stroke="#000000" d="M866.9559,-265.0227C860.9228,-253.6327 851.5468,-239.6448 839,-231.8 819.918,-219.8691 810.8931,-229.0119 789,-223.8 783.2694,-222.4358 777.285,-220.7887 771.4288,-219.0466"/>
<polygon fill="#000000" stroke="#000000" points="772.3495,-215.6678 761.7618,-216.0582 770.282,-222.3556 772.3495,-215.6678"/>
</g>
<!-- interval -->
<g id="node11" class="node">
<title>interval</title>
<polygon fill="#94ddf4" stroke="#000000" points="555.6192,-265.1 555.6192,-301.1 614.3808,-301.1 614.3808,-265.1 555.6192,-265.1"/>
<text text-anchor="middle" x="585" y="-278.9" font-family="Times,serif" font-size="14.00" fill="#000000">interval</text>
</g>
<!-- interval&#45;&gt;Mutect2PL -->
<g id="edge18" class="edge">
<title>interval&#45;&gt;Mutect2PL</title>
<path fill="none" stroke="#000000" d="M575.7356,-264.8936C569.1633,-253.7474 559.3297,-240.08 547,-231.8 537.8115,-225.6295 514.7528,-219.4789 492.6767,-214.6587"/>
<polygon fill="#000000" stroke="#000000" points="493.1635,-211.1843 482.6561,-212.5423 491.717,-218.0333 493.1635,-211.1843"/>
</g>
<!-- interval&#45;&gt;MuSE -->
<g id="edge17" class="edge">
<title>interval&#45;&gt;MuSE</title>
<path fill="none" stroke="#000000" d="M591.0303,-265.0556C594.1906,-255.5988 598.1312,-243.8074 601.6749,-233.2037"/>
<polygon fill="#000000" stroke="#000000" points="605.0622,-234.1099 604.9124,-223.5161 598.4232,-231.8911 605.0622,-234.1099"/>
</g>
<!-- interval&#45;&gt;VarDict -->
<g id="edge19" class="edge">
<title>interval&#45;&gt;VarDict</title>
<path fill="none" stroke="#000000" d="M594.2394,-264.8563C600.8018,-253.6951 610.6336,-240.0251 623,-231.8 628.7805,-227.9553 662.1594,-220.0653 690.299,-213.8895"/>
<polygon fill="#000000" stroke="#000000" points="691.3392,-217.2452 700.3684,-211.7024 689.8534,-210.4047 691.3392,-217.2452"/>
</g>
<!-- interval&#45;&gt;bgzip -->
<g id="edge20" class="edge">
<title>interval&#45;&gt;bgzip</title>
<path fill="none" stroke="#000000" d="M608.3288,-301.3145C613.0092,-304.3991 618.0232,-307.332 623,-309.6 671.6179,-331.7563 732.4314,-344.4544 770.7601,-350.816"/>
<polygon fill="#000000" stroke="#000000" points="770.5185,-354.3218 780.9457,-352.4449 771.6239,-347.4096 770.5185,-354.3218"/>
</g>
<!-- tbam -->
<g id="node12" class="node">
<title>tbam</title>
<polygon fill="#94ddf4" stroke="#000000" points="776,-265.1 776,-301.1 830,-301.1 830,-265.1 776,-265.1"/>
<text text-anchor="middle" x="802.9979" y="-278.9" font-family="Times,serif" font-size="14.00" fill="#000000">tbam</text>
</g>
<!-- tbam&#45;&gt;Mutect2PL -->
<g id="edge22" class="edge">
<title>tbam&#45;&gt;Mutect2PL</title>
<path fill="none" stroke="#000000" d="M795.5027,-265.0403C789.6069,-253.3466 780.175,-239.0021 767,-231.8 748.2647,-221.5584 596.2646,-225.7285 575,-223.8 547.7768,-221.3311 517.572,-217.2017 492.9333,-213.4699"/>
<polygon fill="#000000" stroke="#000000" points="493.1557,-209.963 482.7396,-211.9009 492.0907,-216.8815 493.1557,-209.963"/>
</g>
<!-- tbam&#45;&gt;MuSE -->
<g id="edge21" class="edge">
<title>tbam&#45;&gt;MuSE</title>
<path fill="none" stroke="#000000" d="M795.2232,-265.0514C789.2538,-253.5202 779.8469,-239.3598 767,-231.8 752.3639,-223.1873 707.7486,-226.6072 691,-223.8 676.8836,-221.434 661.534,-218.078 648.0901,-214.8727"/>
<polygon fill="#000000" stroke="#000000" points="648.7774,-211.4378 638.233,-212.4698 647.1195,-218.2386 648.7774,-211.4378"/>
</g>
<!-- tbam&#45;&gt;mantaStrelka -->
<g id="edge24" class="edge">
<title>tbam&#45;&gt;mantaStrelka</title>
<path fill="none" stroke="#000000" d="M812.2773,-265.0556C817.2397,-255.4038 823.4524,-243.3202 828.9901,-232.5493"/>
<polygon fill="#000000" stroke="#000000" points="832.1746,-234.0099 833.6344,-223.5161 825.9492,-230.8091 832.1746,-234.0099"/>
</g>
<!-- tbam&#45;&gt;VarDict -->
<g id="edge23" class="edge">
<title>tbam&#45;&gt;VarDict</title>
<path fill="none" stroke="#000000" d="M792.3018,-264.9191C785.7357,-254.5837 776.7357,-241.7587 767,-231.8 766.471,-231.2589 765.9302,-230.7206 765.379,-230.1857"/>
<polygon fill="#000000" stroke="#000000" points="767.5849,-227.4642 757.7731,-223.4667 762.9504,-232.7104 767.5849,-227.4642"/>
</g>
<!-- normal -->
<g id="node13" class="node">
<title>normal</title>
<polygon fill="#94ddf4" stroke="#000000" points="410.1718,-265.1 410.1718,-301.1 465.8282,-301.1 465.8282,-265.1 410.1718,-265.1"/>
<text text-anchor="middle" x="438" y="-278.9" font-family="Times,serif" font-size="14.00" fill="#000000">normal</text>
</g>
<!-- normal&#45;&gt;Mutect2PL -->
<g id="edge26" class="edge">
<title>normal&#45;&gt;Mutect2PL</title>
<path fill="none" stroke="#000000" d="M439.1597,-265.0556C439.7612,-255.6963 440.5096,-244.0503 441.1856,-233.532"/>
<polygon fill="#000000" stroke="#000000" points="444.6807,-233.72 441.8293,-223.5161 437.6951,-233.271 444.6807,-233.72"/>
</g>
<!-- normal&#45;&gt;combine -->
<g id="edge28" class="edge">
<title>normal&#45;&gt;combine</title>
<path fill="none" stroke="#000000" d="M448.1637,-264.7726C454.7544,-254.1332 464.1258,-241.0488 475,-231.8 481.0562,-226.649 483.9214,-227.4198 491,-223.8 536.9538,-200.3003 589.3796,-172.7962 624.773,-154.1244"/>
<polygon fill="#000000" stroke="#000000" points="626.6274,-157.1033 633.8367,-149.3395 623.3593,-150.913 626.6274,-157.1033"/>
</g>
<!-- normal&#45;&gt;MuSE -->
<g id="edge25" class="edge">
<title>normal&#45;&gt;MuSE</title>
<path fill="none" stroke="#000000" d="M446.1222,-265.0541C452.3136,-253.5241 461.9958,-239.364 475,-231.8 489.2976,-223.4838 532.7856,-227.0671 549,-223.8 557.2199,-222.1437 565.9178,-219.8803 574.116,-217.5048"/>
<polygon fill="#000000" stroke="#000000" points="575.2382,-220.8221 583.8024,-214.5847 573.2177,-214.12 575.2382,-220.8221"/>
</g>
<!-- normal&#45;&gt;VarDict -->
<g id="edge27" class="edge">
<title>normal&#45;&gt;VarDict</title>
<path fill="none" stroke="#000000" d="M445.8425,-265.0484C451.9631,-253.3583 461.6738,-239.0148 475,-231.8 491.8243,-222.6914 628.0337,-226.311 647,-223.8 661.156,-221.9258 676.4569,-218.8705 690.0721,-215.778"/>
<polygon fill="#000000" stroke="#000000" points="691.1714,-219.1152 700.1084,-213.4248 689.5734,-212.3001 691.1714,-219.1152"/>
</g>
<!-- tumor -->
<g id="node14" class="node">
<title>tumor</title>
<polygon fill="#94ddf4" stroke="#000000" points="632,-265.1 632,-301.1 686,-301.1 686,-265.1 632,-265.1"/>
<text text-anchor="middle" x="658.7209" y="-278.9" font-family="Times,serif" font-size="14.00" fill="#000000">tumor</text>
</g>
<!-- tumor&#45;&gt;Mutect2PL -->
<g id="edge30" class="edge">
<title>tumor&#45;&gt;Mutect2PL</title>
<path fill="none" stroke="#000000" d="M650.988,-264.971C644.9684,-253.5592 635.5955,-239.5663 623,-231.8 620.2037,-230.0758 544.987,-219.3961 492.6815,-212.1319"/>
<polygon fill="#000000" stroke="#000000" points="492.94,-208.6344 482.5541,-210.7283 491.9789,-215.5681 492.94,-208.6344"/>
</g>
<!-- tumor&#45;&gt;combine -->
<g id="edge32" class="edge">
<title>tumor&#45;&gt;combine</title>
<path fill="none" stroke="#000000" d="M659.8444,-264.91C661.0479,-238.9825 663.2677,-191.1606 664.687,-160.5858"/>
<polygon fill="#000000" stroke="#000000" points="668.1851,-160.7061 665.1526,-150.5545 661.1926,-160.3814 668.1851,-160.7061"/>
</g>
<!-- tumor&#45;&gt;MuSE -->
<g id="edge29" class="edge">
<title>tumor&#45;&gt;MuSE</title>
<path fill="none" stroke="#000000" d="M647.8672,-265.0556C641.8522,-255.3063 634.3064,-243.0758 627.6108,-232.2233"/>
<polygon fill="#000000" stroke="#000000" points="630.4682,-230.1889 622.2387,-223.5161 624.5108,-233.8644 630.4682,-230.1889"/>
</g>
<!-- tumor&#45;&gt;VarDict -->
<g id="edge31" class="edge">
<title>tumor&#45;&gt;VarDict</title>
<path fill="none" stroke="#000000" d="M669.6982,-264.9191C676.2643,-254.5837 685.2643,-241.7587 695,-231.8 695.529,-231.2589 696.0698,-230.7206 696.621,-230.1857"/>
<polygon fill="#000000" stroke="#000000" points="699.0496,-232.7104 704.2269,-223.4667 694.4151,-227.4642 699.0496,-232.7104"/>
</g>
<!-- comvcf -->
<g id="node15" class="node">
<title>comvcf</title>
<polygon fill="#94ddf4" stroke="#000000" points="174.0098,-265.1 174.0098,-301.1 231.9902,-301.1 231.9902,-265.1 174.0098,-265.1"/>
<text text-anchor="middle" x="203" y="-278.9" font-family="Times,serif" font-size="14.00" fill="#000000">comvcf</text>
</g>
<!-- comvcf&#45;&gt;Mutect2PL -->
<g id="edge33" class="edge">
<title>comvcf&#45;&gt;Mutect2PL</title>
<path fill="none" stroke="#000000" d="M211.6573,-264.8905C218.0958,-253.4447 228.0085,-239.4442 241,-231.8 265.9546,-217.1167 341.6093,-210.3758 392.9088,-207.4239"/>
<polygon fill="#000000" stroke="#000000" points="393.3453,-210.9054 403.14,-206.8664 392.9644,-203.9157 393.3453,-210.9054"/>
</g>
<!-- gresource -->
<g id="node16" class="node">
<title>gresource</title>
<polygon fill="#94ddf4" stroke="#000000" points="321.7952,-265.1 321.7952,-301.1 392.2048,-301.1 392.2048,-265.1 321.7952,-265.1"/>
<text text-anchor="middle" x="357" y="-278.9" font-family="Times,serif" font-size="14.00" fill="#000000">gresource</text>
</g>
<!-- gresource&#45;&gt;Mutect2PL -->
<g id="edge34" class="edge">
<title>gresource&#45;&gt;Mutect2PL</title>
<path fill="none" stroke="#000000" d="M370.4751,-264.8125C378.6334,-254.4416 389.6334,-241.6166 401,-231.8 401.8483,-231.0674 402.7187,-230.3409 403.6068,-229.6217"/>
<polygon fill="#000000" stroke="#000000" points="406.0426,-232.1708 411.9586,-223.3816 401.8528,-226.5632 406.0426,-232.1708"/>
</g>
<!-- pon -->
<g id="node17" class="node">
<title>pon</title>
<polygon fill="#94ddf4" stroke="#000000" points="250,-265.1 250,-301.1 304,-301.1 304,-265.1 250,-265.1"/>
<text text-anchor="middle" x="277" y="-278.9" font-family="Times,serif" font-size="14.00" fill="#000000">pon</text>
</g>
<!-- pon&#45;&gt;Mutect2PL -->
<g id="edge35" class="edge">
<title>pon&#45;&gt;Mutect2PL</title>
<path fill="none" stroke="#000000" d="M285.2903,-264.9469C291.3741,-253.6755 300.7135,-239.8496 313,-231.8 326.1556,-223.181 362.2692,-216.2166 393.1033,-211.5941"/>
<polygon fill="#000000" stroke="#000000" points="393.9207,-215.0124 403.3169,-210.1173 392.9189,-208.0845 393.9207,-215.0124"/>
</g>
<!-- threads -->
<g id="node18" class="node">
<title>threads</title>
<polygon fill="#94ddf4" stroke="#000000" points="919.7875,-265.1 919.7875,-301.1 976.2125,-301.1 976.2125,-265.1 919.7875,-265.1"/>
<text text-anchor="middle" x="948" y="-278.9" font-family="Times,serif" font-size="14.00" fill="#000000">threads</text>
</g>
<!-- threads&#45;&gt;VarDict -->
<g id="edge36" class="edge">
<title>threads&#45;&gt;VarDict</title>
<path fill="none" stroke="#000000" d="M939.9794,-264.8751C933.8321,-253.2674 924.161,-239.0879 911,-231.8 887.2315,-218.6382 815.6951,-228.8544 789,-223.8 783.2121,-222.7041 777.1953,-221.2086 771.3236,-219.5393"/>
<polygon fill="#000000" stroke="#000000" points="772.2302,-216.1569 761.6449,-216.6059 770.1998,-222.856 772.2302,-216.1569"/>
</g>
</g>
</svg>

