<?xml version="1.0" encoding="UTF-8" standalone="no"?>
<!DOCTYPE svg PUBLIC "-//W3C//DTD SVG 1.1//EN"
 "http://www.w3.org/Graphics/SVG/1.1/DTD/svg11.dtd">
<!-- Generated by graphviz version 2.40.1 (20161225.0304)
 -->
<!-- Title: G Pages: 1 -->
<svg width="2214pt" height="456pt"
 viewBox="0.00 0.00 2214.05 455.60" xmlns="http://www.w3.org/2000/svg" xmlns:xlink="http://www.w3.org/1999/xlink">
<g id="graph0" class="graph" transform="scale(1 1) rotate(0) translate(4 451.6)">
<title>G</title>
<polygon fill="#eeeeee" stroke="transparent" points="-4,4 -4,-451.6 2210.0477,-451.6 2210.0477,4 -4,4"/>
<g id="clust1" class="cluster">
<title>cluster_inputs</title>
<polygon fill="#eeeeee" stroke="#000000" stroke-dasharray="5,2" points="966,-304.8 966,-382.6 1638,-382.6 1638,-304.8 966,-304.8"/>
<text text-anchor="middle" x="1581.9856" y="-313" font-family="Times,serif" font-size="14.00" fill="#000000">Workflow Inputs</text>
</g>
<g id="clust2" class="cluster">
<title>cluster_outputs</title>
<polygon fill="#eeeeee" stroke="#000000" stroke-dasharray="5,2" points="8,-8 8,-85.8 2100,-85.8 2100,-8 8,-8"/>
<text text-anchor="middle" x="2039.3173" y="-16.2" font-family="Times,serif" font-size="14.00" fill="#000000">Workflow Outputs</text>
</g>
<!-- SomaticSniper -->
<g id="node1" class="node">
<title>SomaticSniper</title>
<polygon fill="#fafad2" stroke="#000000" points="1562.784,-260.3 1562.784,-296.3 1661.216,-296.3 1661.216,-260.3 1562.784,-260.3"/>
<text text-anchor="middle" x="1612" y="-274.1" font-family="Times,serif" font-size="14.00" fill="#000000">SomaticSniper</text>
</g>
<!-- Wrapper -->
<g id="node2" class="node">
<title>Wrapper</title>
<polygon fill="#fafad2" stroke="#000000" points="1339.5175,-187.3 1339.5175,-223.3 1404.4825,-223.3 1404.4825,-187.3 1339.5175,-187.3"/>
<text text-anchor="middle" x="1372" y="-201.1" font-family="Times,serif" font-size="14.00" fill="#000000">Wrapper</text>
</g>
<!-- SomaticSniper&#45;&gt;Wrapper -->
<g id="edge1" class="edge">
<title>SomaticSniper&#45;&gt;Wrapper</title>
<path fill="none" stroke="#000000" d="M1562.5628,-263.2629C1518.8279,-249.9601 1455.6984,-230.7583 1414.2684,-218.1566"/>
<polygon fill="#000000" stroke="#000000" points="1415.0717,-214.7427 1404.4859,-215.1811 1413.0346,-221.4398 1415.0717,-214.7427"/>
</g>
<!-- SomaticSniperout -->
<g id="node22" class="node">
<title>SomaticSniperout</title>
<polygon fill="#94ddf4" stroke="#000000" points="1646.8387,-41.3 1646.8387,-77.3 1763.1613,-77.3 1763.1613,-41.3 1646.8387,-41.3"/>
<text text-anchor="middle" x="1705" y="-55.1" font-family="Times,serif" font-size="14.00" fill="#000000">SomaticSniperout</text>
</g>
<!-- SomaticSniper&#45;&gt;SomaticSniperout -->
<g id="edge52" class="edge">
<title>SomaticSniper&#45;&gt;SomaticSniperout</title>
<path fill="none" stroke="#000000" d="M1619.7692,-260.0049C1636.119,-221.5037 1674.1539,-131.9377 1693.401,-86.6138"/>
<polygon fill="#000000" stroke="#000000" points="1696.6311,-87.9616 1697.3183,-77.389 1690.188,-85.2254 1696.6311,-87.9616"/>
</g>
<!-- mergeTSV -->
<g id="node9" class="node">
<title>mergeTSV</title>
<polygon fill="#fafad2" stroke="#000000" points="1422.2889,-114.3 1422.2889,-150.3 1499.7111,-150.3 1499.7111,-114.3 1422.2889,-114.3"/>
<text text-anchor="middle" x="1461" y="-128.1" font-family="Times,serif" font-size="14.00" fill="#000000">mergeTSV</text>
</g>
<!-- Wrapper&#45;&gt;mergeTSV -->
<g id="edge10" class="edge">
<title>Wrapper&#45;&gt;mergeTSV</title>
<path fill="none" stroke="#000000" d="M1388.0843,-187.2551C1398.4051,-178.0422 1412.0678,-166.7006 1424.8201,-156.718"/>
<polygon fill="#000000" stroke="#000000" points="1427.2435,-159.2691 1433.0244,-150.3904 1422.9684,-153.7261 1427.2435,-159.2691"/>
</g>
<!-- Wrapper&#45;&gt;mergeTSV -->
<g id="edge11" class="edge">
<title>Wrapper&#45;&gt;mergeTSV</title>
<path fill="none" stroke="#000000" d="M1399.9157,-187.2551C1411.9435,-178.1299 1425.7849,-166.9165 1437.3083,-157.0036"/>
<polygon fill="#000000" stroke="#000000" points="1439.6447,-159.61 1444.8648,-150.3904 1435.0346,-154.3423 1439.6447,-159.61"/>
</g>
<!-- WrapperEINDEL -->
<g id="node27" class="node">
<title>WrapperEINDEL</title>
<polygon fill="#94ddf4" stroke="#000000" points="947.2517,-41.3 947.2517,-77.3 1062.7483,-77.3 1062.7483,-41.3 947.2517,-41.3"/>
<text text-anchor="middle" x="1005" y="-55.1" font-family="Times,serif" font-size="14.00" fill="#000000">WrapperEINDEL</text>
</g>
<!-- Wrapper&#45;&gt;WrapperEINDEL -->
<g id="edge57" class="edge">
<title>Wrapper&#45;&gt;WrapperEINDEL</title>
<path fill="none" stroke="#000000" d="M1339.2506,-194.2908C1308.1225,-183.6722 1260.0926,-166.886 1219,-150.8 1162.0371,-128.5014 1097.6063,-100.5768 1054.4614,-81.4787"/>
<polygon fill="#000000" stroke="#000000" points="1055.8795,-78.2788 1045.3193,-77.4229 1053.0408,-84.6775 1055.8795,-78.2788"/>
</g>
<!-- WrapperESNV -->
<g id="node28" class="node">
<title>WrapperESNV</title>
<polygon fill="#94ddf4" stroke="#000000" points="1081.2433,-41.3 1081.2433,-77.3 1182.7567,-77.3 1182.7567,-41.3 1081.2433,-41.3"/>
<text text-anchor="middle" x="1132" y="-55.1" font-family="Times,serif" font-size="14.00" fill="#000000">WrapperESNV</text>
</g>
<!-- Wrapper&#45;&gt;WrapperESNV -->
<g id="edge58" class="edge">
<title>Wrapper&#45;&gt;WrapperESNV</title>
<path fill="none" stroke="#000000" d="M1342.0891,-187.1042C1298.7653,-160.7489 1218.522,-111.9342 1170.7279,-82.8595"/>
<polygon fill="#000000" stroke="#000000" points="1172.2724,-79.7023 1161.91,-77.4952 1168.6343,-85.6827 1172.2724,-79.7023"/>
</g>
<!-- WrapperINDEL -->
<g id="node29" class="node">
<title>WrapperINDEL</title>
<polygon fill="#94ddf4" stroke="#000000" points="1200.528,-41.3 1200.528,-77.3 1307.472,-77.3 1307.472,-41.3 1200.528,-41.3"/>
<text text-anchor="middle" x="1254" y="-55.1" font-family="Times,serif" font-size="14.00" fill="#000000">WrapperINDEL</text>
</g>
<!-- Wrapper&#45;&gt;WrapperINDEL -->
<g id="edge59" class="edge">
<title>Wrapper&#45;&gt;WrapperINDEL</title>
<path fill="none" stroke="#000000" d="M1357.2938,-187.1042C1336.7134,-161.6403 1299.1882,-115.2108 1275.4792,-85.8759"/>
<polygon fill="#000000" stroke="#000000" points="1277.8995,-83.3025 1268.8915,-77.7251 1272.4553,-87.7026 1277.8995,-83.3025"/>
</g>
<!-- WrapperSNV -->
<g id="node30" class="node">
<title>WrapperSNV</title>
<polygon fill="#94ddf4" stroke="#000000" points="1325.5196,-41.3 1325.5196,-77.3 1418.4804,-77.3 1418.4804,-41.3 1325.5196,-41.3"/>
<text text-anchor="middle" x="1372" y="-55.1" font-family="Times,serif" font-size="14.00" fill="#000000">WrapperSNV</text>
</g>
<!-- Wrapper&#45;&gt;WrapperSNV -->
<g id="edge60" class="edge">
<title>Wrapper&#45;&gt;WrapperSNV</title>
<path fill="none" stroke="#000000" d="M1372,-187.1042C1372,-162.1868 1372,-117.1938 1372,-87.7877"/>
<polygon fill="#000000" stroke="#000000" points="1375.5001,-87.7251 1372,-77.7251 1368.5001,-87.7251 1375.5001,-87.7251"/>
</g>
<!-- mantaStrelka -->
<g id="node3" class="node">
<title>mantaStrelka</title>
<polygon fill="#f3cea1" stroke="#000000" points="1717.068,-260.3 1717.068,-296.3 1806.932,-296.3 1806.932,-260.3 1717.068,-260.3"/>
<text text-anchor="middle" x="1762" y="-274.1" font-family="Times,serif" font-size="14.00" fill="#000000">mantaStrelka</text>
</g>
<!-- mantaStrelka&#45;&gt;Wrapper -->
<g id="edge2" class="edge">
<title>mantaStrelka&#45;&gt;Wrapper</title>
<path fill="none" stroke="#000000" d="M1716.9062,-266.0429C1709.255,-263.7721 1701.4148,-261.5637 1694,-259.8 1595.1822,-236.2953 1477.376,-219.5212 1415.1674,-211.2165"/>
<polygon fill="#000000" stroke="#000000" points="1415.3169,-207.7057 1404.9436,-209.8605 1414.3966,-214.645 1415.3169,-207.7057"/>
</g>
<!-- mantaStrelka&#45;&gt;Wrapper -->
<g id="edge5" class="edge">
<title>mantaStrelka&#45;&gt;Wrapper</title>
<path fill="none" stroke="#000000" d="M1717.0662,-261.0557C1715.3635,-260.6175 1713.6709,-260.1974 1712,-259.8 1606.8059,-234.7787 1480.0939,-217.3845 1414.9733,-209.7151"/>
<polygon fill="#000000" stroke="#000000" points="1415.0204,-206.1973 1404.6845,-208.5251 1414.216,-213.151 1415.0204,-206.1973"/>
</g>
<!-- strelka2indel -->
<g id="node37" class="node">
<title>strelka2indel</title>
<polygon fill="#94ddf4" stroke="#000000" points="2003.8443,-41.3 2003.8443,-77.3 2092.1557,-77.3 2092.1557,-41.3 2003.8443,-41.3"/>
<text text-anchor="middle" x="2048" y="-55.1" font-family="Times,serif" font-size="14.00" fill="#000000">strelka2indel</text>
</g>
<!-- mantaStrelka&#45;&gt;strelka2indel -->
<g id="edge67" class="edge">
<title>mantaStrelka&#45;&gt;strelka2indel</title>
<path fill="none" stroke="#000000" d="M1764.6908,-260.0571C1770.8035,-225.5594 1789.115,-150.9032 1837,-113.8 1893.3739,-70.1193 1927.2932,-108.2013 1995,-85.8 1998.7388,-84.563 2002.5446,-83.1033 2006.3138,-81.5153"/>
<polygon fill="#000000" stroke="#000000" points="2007.867,-84.6545 2015.5482,-77.3572 2004.9929,-78.2717 2007.867,-84.6545"/>
</g>
<!-- strelka2snv -->
<g id="node38" class="node">
<title>strelka2snv</title>
<polygon fill="#94ddf4" stroke="#000000" points="1906.1199,-41.3 1906.1199,-77.3 1985.8801,-77.3 1985.8801,-41.3 1906.1199,-41.3"/>
<text text-anchor="middle" x="1946" y="-55.1" font-family="Times,serif" font-size="14.00" fill="#000000">strelka2snv</text>
</g>
<!-- mantaStrelka&#45;&gt;strelka2snv -->
<g id="edge68" class="edge">
<title>mantaStrelka&#45;&gt;strelka2snv</title>
<path fill="none" stroke="#000000" d="M1753.1076,-260.2795C1738.1746,-227.137 1712.955,-156.0441 1748,-113.8 1791.0216,-61.9407 1833.493,-108.319 1897,-85.8 1900.29,-84.6334 1903.6264,-83.269 1906.9306,-81.7857"/>
<polygon fill="#000000" stroke="#000000" points="1908.6127,-84.8601 1916.0923,-77.3564 1905.5658,-78.558 1908.6127,-84.8601"/>
</g>
<!-- Mutect2PL -->
<g id="node4" class="node">
<title>Mutect2PL</title>
<polygon fill="#f3cea1" stroke="#000000" points="1026.5049,-260.3 1026.5049,-296.3 1105.4951,-296.3 1105.4951,-260.3 1026.5049,-260.3"/>
<text text-anchor="middle" x="1066" y="-274.1" font-family="Times,serif" font-size="14.00" fill="#000000">Mutect2PL</text>
</g>
<!-- Mutect2PL&#45;&gt;Wrapper -->
<g id="edge3" class="edge">
<title>Mutect2PL&#45;&gt;Wrapper</title>
<path fill="none" stroke="#000000" d="M1105.7687,-263.8262C1110.2081,-262.3875 1114.6842,-261.0131 1119,-259.8 1192.0431,-239.2695 1278.8073,-222.1104 1329.4086,-212.808"/>
<polygon fill="#000000" stroke="#000000" points="1330.1253,-216.2352 1339.3356,-210.9988 1328.8701,-209.3486 1330.1253,-216.2352"/>
</g>
<!-- mutect2conTable -->
<g id="node32" class="node">
<title>mutect2conTable</title>
<polygon fill="#94ddf4" stroke="#000000" points="271.406,-41.3 271.406,-77.3 384.594,-77.3 384.594,-41.3 271.406,-41.3"/>
<text text-anchor="middle" x="328" y="-55.1" font-family="Times,serif" font-size="14.00" fill="#000000">mutect2conTable</text>
</g>
<!-- Mutect2PL&#45;&gt;mutect2conTable -->
<g id="edge62" class="edge">
<title>Mutect2PL&#45;&gt;mutect2conTable</title>
<path fill="none" stroke="#000000" d="M1026.3404,-277.0233C919.4783,-273.1388 627.6364,-259.472 539,-223.8 460.7549,-192.3099 387.351,-122.7285 351.2875,-84.9365"/>
<polygon fill="#000000" stroke="#000000" points="353.5745,-82.2598 344.1704,-77.3798 348.4787,-87.0591 353.5745,-82.2598"/>
</g>
<!-- mutect2filterVCF -->
<g id="node33" class="node">
<title>mutect2filterVCF</title>
<polygon fill="#94ddf4" stroke="#000000" points="402.2328,-41.3 402.2328,-77.3 517.7672,-77.3 517.7672,-41.3 402.2328,-41.3"/>
<text text-anchor="middle" x="460" y="-55.1" font-family="Times,serif" font-size="14.00" fill="#000000">mutect2filterVCF</text>
</g>
<!-- Mutect2PL&#45;&gt;mutect2filterVCF -->
<g id="edge63" class="edge">
<title>Mutect2PL&#45;&gt;mutect2filterVCF</title>
<path fill="none" stroke="#000000" d="M1026.1805,-277.7044C925.2154,-275.5802 661.9146,-266.0309 587,-223.8 531.0277,-192.2473 491.4708,-124.9878 472.5771,-86.9695"/>
<polygon fill="#000000" stroke="#000000" points="475.5142,-85.0034 468.01,-77.5242 469.2122,-88.0507 475.5142,-85.0034"/>
</g>
<!-- mutect2passVCF -->
<g id="node34" class="node">
<title>mutect2passVCF</title>
<polygon fill="#94ddf4" stroke="#000000" points="15.7847,-41.3 15.7847,-77.3 128.2153,-77.3 128.2153,-41.3 15.7847,-41.3"/>
<text text-anchor="middle" x="72" y="-55.1" font-family="Times,serif" font-size="14.00" fill="#000000">mutect2passVCF</text>
</g>
<!-- Mutect2PL&#45;&gt;mutect2passVCF -->
<g id="edge64" class="edge">
<title>Mutect2PL&#45;&gt;mutect2passVCF</title>
<path fill="none" stroke="#000000" d="M1026.2451,-277.2485C899.2019,-273.5577 504.2275,-259.4354 382,-223.8 274.01,-192.3155 160.5484,-120.6858 105.6735,-83.1903"/>
<polygon fill="#000000" stroke="#000000" points="107.6,-80.2674 97.3793,-77.4769 103.6291,-86.0321 107.6,-80.2674"/>
</g>
<!-- mutect2segment -->
<g id="node35" class="node">
<title>mutect2segment</title>
<polygon fill="#94ddf4" stroke="#000000" points="146.122,-41.3 146.122,-77.3 253.878,-77.3 253.878,-41.3 146.122,-41.3"/>
<text text-anchor="middle" x="200" y="-55.1" font-family="Times,serif" font-size="14.00" fill="#000000">mutect2segment</text>
</g>
<!-- Mutect2PL&#45;&gt;mutect2segment -->
<g id="edge65" class="edge">
<title>Mutect2PL&#45;&gt;mutect2segment</title>
<path fill="none" stroke="#000000" d="M1026.1204,-276.9866C910.1496,-272.7995 574.6877,-257.9828 471,-223.8 375.0917,-192.1819 277.4505,-121.3827 229.829,-83.8096"/>
<polygon fill="#000000" stroke="#000000" points="231.8059,-80.9096 221.8034,-77.4167 227.4445,-86.3849 231.8059,-80.9096"/>
</g>
<!-- MuSE -->
<g id="node5" class="node">
<title>MuSE</title>
<polygon fill="#fafad2" stroke="#000000" points="1199,-260.3 1199,-296.3 1253,-296.3 1253,-260.3 1199,-260.3"/>
<text text-anchor="middle" x="1225.8899" y="-274.1" font-family="Times,serif" font-size="14.00" fill="#000000">MuSE</text>
</g>
<!-- MuSE&#45;&gt;Wrapper -->
<g id="edge4" class="edge">
<title>MuSE&#45;&gt;Wrapper</title>
<path fill="none" stroke="#000000" d="M1253.105,-264.3171C1256.1032,-262.7865 1259.1142,-261.2563 1262,-259.8 1284.4402,-248.4758 1309.5505,-236.0186 1330.1081,-225.8757"/>
<polygon fill="#000000" stroke="#000000" points="1331.785,-228.9513 1339.2071,-221.3907 1328.6901,-222.6726 1331.785,-228.9513"/>
</g>
<!-- MuSEout -->
<g id="node21" class="node">
<title>MuSEout</title>
<polygon fill="#94ddf4" stroke="#000000" points="536.1648,-41.3 536.1648,-77.3 605.8352,-77.3 605.8352,-41.3 536.1648,-41.3"/>
<text text-anchor="middle" x="571" y="-55.1" font-family="Times,serif" font-size="14.00" fill="#000000">MuSEout</text>
</g>
<!-- MuSE&#45;&gt;MuSEout -->
<g id="edge51" class="edge">
<title>MuSE&#45;&gt;MuSEout</title>
<path fill="none" stroke="#000000" d="M1198.8693,-273.7509C1130.0016,-262.1497 952.0234,-231.812 926,-223.8 781.4756,-179.3043 749.1403,-155.6107 615,-85.8 613.0076,-84.7631 610.9813,-83.6737 608.9472,-82.5522"/>
<polygon fill="#000000" stroke="#000000" points="610.4804,-79.3977 600.0583,-77.4925 607.0176,-85.4812 610.4804,-79.3977"/>
</g>
<!-- VarScanPL -->
<g id="node6" class="node">
<title>VarScanPL</title>
<polygon fill="#f3cea1" stroke="#000000" points="1270.7356,-260.3 1270.7356,-296.3 1351.2644,-296.3 1351.2644,-260.3 1270.7356,-260.3"/>
<text text-anchor="middle" x="1311" y="-274.1" font-family="Times,serif" font-size="14.00" fill="#000000">VarScanPL</text>
</g>
<!-- VarScanPL&#45;&gt;Wrapper -->
<g id="edge6" class="edge">
<title>VarScanPL&#45;&gt;Wrapper</title>
<path fill="none" stroke="#000000" d="M1320.1629,-260.2551C1326.6915,-251.3932 1335.5567,-240.5616 1344.1646,-230.8646"/>
<polygon fill="#000000" stroke="#000000" points="1346.8235,-233.143 1350.9632,-223.3904 1341.6452,-228.4328 1346.8235,-233.143"/>
</g>
<!-- VarScanPL&#45;&gt;Wrapper -->
<g id="edge7" class="edge">
<title>VarScanPL&#45;&gt;Wrapper</title>
<path fill="none" stroke="#000000" d="M1331.9944,-260.2551C1340.1121,-251.5686 1349.1474,-240.9898 1356.6577,-231.442"/>
<polygon fill="#000000" stroke="#000000" points="1359.5182,-233.4629 1362.8036,-223.3904 1353.9539,-229.2157 1359.5182,-233.4629"/>
</g>
<!-- VarScanIndel -->
<g id="node24" class="node">
<title>VarScanIndel</title>
<polygon fill="#94ddf4" stroke="#000000" points="732.5203,-41.3 732.5203,-77.3 825.4797,-77.3 825.4797,-41.3 732.5203,-41.3"/>
<text text-anchor="middle" x="779" y="-55.1" font-family="Times,serif" font-size="14.00" fill="#000000">VarScanIndel</text>
</g>
<!-- VarScanPL&#45;&gt;VarScanIndel -->
<g id="edge54" class="edge">
<title>VarScanPL&#45;&gt;VarScanIndel</title>
<path fill="none" stroke="#000000" d="M1270.7304,-262.7504C1267.787,-261.7203 1264.8543,-260.7258 1262,-259.8 1204.1569,-241.0396 1187.0964,-244.723 1130,-223.8 1015.268,-181.7564 886.7154,-116.6009 821.6628,-82.2682"/>
<polygon fill="#000000" stroke="#000000" points="823.0099,-79.0211 812.5348,-77.4328 819.7331,-85.2068 823.0099,-79.0211"/>
</g>
<!-- VarScanSnp -->
<g id="node25" class="node">
<title>VarScanSnp</title>
<polygon fill="#94ddf4" stroke="#000000" points="843.0119,-41.3 843.0119,-77.3 928.9881,-77.3 928.9881,-41.3 843.0119,-41.3"/>
<text text-anchor="middle" x="886" y="-55.1" font-family="Times,serif" font-size="14.00" fill="#000000">VarScanSnp</text>
</g>
<!-- VarScanPL&#45;&gt;VarScanSnp -->
<g id="edge55" class="edge">
<title>VarScanPL&#45;&gt;VarScanSnp</title>
<path fill="none" stroke="#000000" d="M1275.8589,-260.192C1198.7994,-220.4837 1015.0929,-125.8208 930.2913,-82.1231"/>
<polygon fill="#000000" stroke="#000000" points="931.6746,-78.8986 921.1822,-77.4292 928.4682,-85.121 931.6746,-78.8986"/>
</g>
<!-- VarScansVcf -->
<g id="node26" class="node">
<title>VarScansVcf</title>
<polygon fill="#94ddf4" stroke="#000000" points="623.69,-41.3 623.69,-77.3 714.31,-77.3 714.31,-41.3 623.69,-41.3"/>
<text text-anchor="middle" x="669" y="-55.1" font-family="Times,serif" font-size="14.00" fill="#000000">VarScansVcf</text>
</g>
<!-- VarScanPL&#45;&gt;VarScansVcf -->
<g id="edge56" class="edge">
<title>VarScanPL&#45;&gt;VarScansVcf</title>
<path fill="none" stroke="#000000" d="M1270.5663,-262.3054C1267.6882,-261.3923 1264.8129,-260.5447 1262,-259.8 1162.8278,-233.5451 1132.3719,-252.9105 1034,-223.8 911.1453,-187.4445 775.9743,-118.1576 709.9184,-82.2119"/>
<polygon fill="#000000" stroke="#000000" points="711.5175,-79.0973 701.0647,-77.368 708.1577,-85.2383 711.5175,-79.0973"/>
</g>
<!-- VarDict -->
<g id="node7" class="node">
<title>VarDict</title>
<polygon fill="#fafad2" stroke="#000000" points="1445.4579,-260.3 1445.4579,-296.3 1506.5421,-296.3 1506.5421,-260.3 1445.4579,-260.3"/>
<text text-anchor="middle" x="1476" y="-274.1" font-family="Times,serif" font-size="14.00" fill="#000000">VarDict</text>
</g>
<!-- VarDict&#45;&gt;Wrapper -->
<g id="edge8" class="edge">
<title>VarDict&#45;&gt;Wrapper</title>
<path fill="none" stroke="#000000" d="M1450.2921,-260.2551C1436.917,-250.8667 1420.3925,-239.2678 1405.9768,-229.1491"/>
<polygon fill="#000000" stroke="#000000" points="1407.9683,-226.2709 1397.7726,-223.3904 1403.9467,-232.0003 1407.9683,-226.2709"/>
</g>
<!-- VarDictout -->
<g id="node23" class="node">
<title>VarDictout</title>
<polygon fill="#94ddf4" stroke="#000000" points="1549.5126,-41.3 1549.5126,-77.3 1628.4874,-77.3 1628.4874,-41.3 1549.5126,-41.3"/>
<text text-anchor="middle" x="1589" y="-55.1" font-family="Times,serif" font-size="14.00" fill="#000000">VarDictout</text>
</g>
<!-- VarDict&#45;&gt;VarDictout -->
<g id="edge53" class="edge">
<title>VarDict&#45;&gt;VarDictout</title>
<path fill="none" stroke="#000000" d="M1485.44,-260.0049C1505.3475,-221.4229 1551.7142,-131.5619 1575.0534,-86.3293"/>
<polygon fill="#000000" stroke="#000000" points="1578.1913,-87.8807 1579.6664,-77.389 1571.9706,-84.6709 1578.1913,-87.8807"/>
</g>
<!-- tabixIndex -->
<g id="node8" class="node">
<title>tabixIndex</title>
<polygon fill="#fafad2" stroke="#000000" points="1686.0645,-338.1 1686.0645,-374.1 1761.9355,-374.1 1761.9355,-338.1 1686.0645,-338.1"/>
<text text-anchor="middle" x="1724" y="-351.9" font-family="Times,serif" font-size="14.00" fill="#000000">tabixIndex</text>
</g>
<!-- tabixIndex&#45;&gt;mantaStrelka -->
<g id="edge9" class="edge">
<title>tabixIndex&#45;&gt;mantaStrelka</title>
<path fill="none" stroke="#000000" d="M1732.8135,-338.0556C1737.5277,-328.4038 1743.4297,-316.3202 1748.6906,-305.5493"/>
<polygon fill="#000000" stroke="#000000" points="1751.8588,-307.0376 1753.1027,-296.5161 1745.5689,-303.9655 1751.8588,-307.0376"/>
</g>
<!-- neusomaticPL -->
<g id="node10" class="node">
<title>neusomaticPL</title>
<polygon fill="#f3cea1" stroke="#000000" points="2109.9523,-41.3 2109.9523,-77.3 2206.0477,-77.3 2206.0477,-41.3 2109.9523,-41.3"/>
<text text-anchor="middle" x="2158" y="-55.1" font-family="Times,serif" font-size="14.00" fill="#000000">neusomaticPL</text>
</g>
<!-- mergeTSV&#45;&gt;neusomaticPL -->
<g id="edge12" class="edge">
<title>mergeTSV&#45;&gt;neusomaticPL</title>
<path fill="none" stroke="#000000" d="M1500.1124,-129.8854C1635.0948,-121.4983 2074.7617,-93.7097 2104,-85.8 2108.3126,-84.6333 2112.6919,-83.1165 2116.9952,-81.3992"/>
<polygon fill="#000000" stroke="#000000" points="2118.4655,-84.5764 2126.2388,-77.3774 2115.6727,-78.1577 2118.4655,-84.5764"/>
</g>
<!-- mergeTSVout -->
<g id="node31" class="node">
<title>mergeTSVout</title>
<polygon fill="#94ddf4" stroke="#000000" points="1436.3436,-41.3 1436.3436,-77.3 1531.6564,-77.3 1531.6564,-41.3 1436.3436,-41.3"/>
<text text-anchor="middle" x="1484" y="-55.1" font-family="Times,serif" font-size="14.00" fill="#000000">mergeTSVout</text>
</g>
<!-- mergeTSV&#45;&gt;mergeTSVout -->
<g id="edge61" class="edge">
<title>mergeTSV&#45;&gt;mergeTSVout</title>
<path fill="none" stroke="#000000" d="M1466.6854,-114.2551C1469.2563,-106.0951 1472.3534,-96.2652 1475.2132,-87.1887"/>
<polygon fill="#000000" stroke="#000000" points="1478.6334,-87.98 1478.3003,-77.3904 1471.9569,-85.8764 1478.6334,-87.98"/>
</g>
<!-- neusomaticVCF -->
<g id="node36" class="node">
<title>neusomaticVCF</title>
<polygon fill="#94ddf4" stroke="#000000" points="1781.507,-41.3 1781.507,-77.3 1888.493,-77.3 1888.493,-41.3 1781.507,-41.3"/>
<text text-anchor="middle" x="1835" y="-55.1" font-family="Times,serif" font-size="14.00" fill="#000000">neusomaticVCF</text>
</g>
<!-- neusomaticPL&#45;&gt;neusomaticVCF -->
<g id="edge66" class="edge">
<title>neusomaticPL&#45;&gt;neusomaticVCF</title>
<path fill="none" stroke="#000000" d="M2136.5124,-77.5107C2124.9955,-86.0761 2110.0955,-95.3664 2095,-99.8 2054.7021,-111.6356 1946.5971,-110.5647 1906,-99.8 1892.7955,-96.2987 1879.482,-89.7038 1868.0088,-82.837"/>
<polygon fill="#000000" stroke="#000000" points="1869.5684,-79.6833 1859.2392,-77.3255 1865.8436,-85.61 1869.5684,-79.6833"/>
</g>
<!-- bgzip -->
<g id="node11" class="node">
<title>bgzip</title>
<polygon fill="#fafad2" stroke="#000000" points="1490,-411.1 1490,-447.1 1544,-447.1 1544,-411.1 1490,-411.1"/>
<text text-anchor="middle" x="1516.5526" y="-424.9" font-family="Times,serif" font-size="14.00" fill="#000000">bgzip</text>
</g>
<!-- bgzip&#45;&gt;tabixIndex -->
<g id="edge13" class="edge">
<title>bgzip&#45;&gt;tabixIndex</title>
<path fill="none" stroke="#000000" d="M1544.0616,-419.5565C1577.6435,-407.7136 1635.4827,-387.3163 1676.5138,-372.8463"/>
<polygon fill="#000000" stroke="#000000" points="1677.7701,-376.1146 1686.0368,-369.488 1675.442,-369.5131 1677.7701,-376.1146"/>
</g>
<!-- dbsnp -->
<g id="node12" class="node">
<title>dbsnp</title>
<polygon fill="#94ddf4" stroke="#000000" points="1210,-338.1 1210,-374.1 1264,-374.1 1264,-338.1 1210,-338.1"/>
<text text-anchor="middle" x="1236.7223" y="-351.9" font-family="Times,serif" font-size="14.00" fill="#000000">dbsnp</text>
</g>
<!-- dbsnp&#45;&gt;Wrapper -->
<g id="edge15" class="edge">
<title>dbsnp&#45;&gt;Wrapper</title>
<path fill="none" stroke="#000000" d="M1227.9105,-337.7441C1221.6742,-326.8239 1212.4611,-313.4553 1201,-304.8 1192.3632,-298.2776 1184.2711,-305.6209 1178,-296.8 1168.4716,-283.3974 1168.0682,-272.9064 1178,-259.8 1196.186,-235.801 1277.6326,-219.4346 1329.0409,-211.2874"/>
<polygon fill="#000000" stroke="#000000" points="1329.8575,-214.7029 1339.2078,-209.7207 1328.7914,-207.7846 1329.8575,-214.7029"/>
</g>
<!-- dbsnp&#45;&gt;MuSE -->
<g id="edge14" class="edge">
<title>dbsnp&#45;&gt;MuSE</title>
<path fill="none" stroke="#000000" d="M1234.4487,-338.0556C1233.1254,-328.6963 1231.4788,-317.0503 1229.9917,-306.532"/>
<polygon fill="#000000" stroke="#000000" points="1233.4411,-305.9276 1228.5755,-296.5161 1226.51,-306.9076 1233.4411,-305.9276"/>
</g>
<!-- nbam -->
<g id="node13" class="node">
<title>nbam</title>
<polygon fill="#94ddf4" stroke="#000000" points="1502,-338.1 1502,-374.1 1556,-374.1 1556,-338.1 1502,-338.1"/>
<text text-anchor="middle" x="1528.5526" y="-351.9" font-family="Times,serif" font-size="14.00" fill="#000000">nbam</text>
</g>
<!-- nbam&#45;&gt;SomaticSniper -->
<g id="edge18" class="edge">
<title>nbam&#45;&gt;SomaticSniper</title>
<path fill="none" stroke="#000000" d="M1538.9604,-337.9532C1545.3983,-327.3777 1554.518,-314.2972 1565,-304.8 1565.833,-304.0452 1566.6912,-303.303 1567.5704,-302.5738"/>
<polygon fill="#000000" stroke="#000000" points="1569.9851,-305.1408 1575.9364,-296.3754 1565.8179,-299.5163 1569.9851,-305.1408"/>
</g>
<!-- nbam&#45;&gt;Wrapper -->
<g id="edge21" class="edge">
<title>nbam&#45;&gt;Wrapper</title>
<path fill="none" stroke="#000000" d="M1536.707,-337.9308C1542.6462,-326.3473 1552.0454,-312.1738 1565,-304.8 1585.3372,-293.224 1654.094,-313.964 1670,-296.8 1681.1776,-284.7384 1680.5302,-272.4307 1670,-259.8 1638.0203,-221.4413 1489.4922,-210.0018 1414.9346,-206.6519"/>
<polygon fill="#000000" stroke="#000000" points="1414.6316,-203.1362 1404.4937,-206.2141 1414.3382,-210.1301 1414.6316,-203.1362"/>
</g>
<!-- nbam&#45;&gt;mantaStrelka -->
<g id="edge22" class="edge">
<title>nbam&#45;&gt;mantaStrelka</title>
<path fill="none" stroke="#000000" d="M1536.664,-337.8545C1542.5845,-326.2378 1551.9791,-312.056 1565,-304.8 1591.8331,-289.847 1672.783,-302.326 1703,-296.8 1704.2771,-296.5665 1705.5651,-296.3137 1706.8603,-296.044"/>
<polygon fill="#000000" stroke="#000000" points="1707.935,-299.3867 1716.8648,-293.6849 1706.3284,-292.5736 1707.935,-299.3867"/>
</g>
<!-- nbam&#45;&gt;Mutect2PL -->
<g id="edge17" class="edge">
<title>nbam&#45;&gt;Mutect2PL</title>
<path fill="none" stroke="#000000" d="M1521.5374,-337.9761C1515.6571,-326.2538 1506.2295,-311.9015 1493,-304.8 1478.1632,-296.8358 1206.7751,-298.2673 1190,-296.8 1165.3675,-294.6454 1138.1786,-290.76 1115.5528,-287.1042"/>
<polygon fill="#000000" stroke="#000000" points="1115.94,-283.6209 1105.5038,-285.4477 1114.8014,-290.5277 1115.94,-283.6209"/>
</g>
<!-- nbam&#45;&gt;MuSE -->
<g id="edge16" class="edge">
<title>nbam&#45;&gt;MuSE</title>
<path fill="none" stroke="#000000" d="M1521.5187,-338.0108C1515.6301,-326.3039 1506.2002,-311.9558 1493,-304.8 1472.0978,-293.4689 1313.2154,-301.8064 1262.9,-295.5497"/>
<polygon fill="#000000" stroke="#000000" points="1263.4852,-292.0988 1253.0192,-293.7459 1262.228,-298.985 1263.4852,-292.0988"/>
</g>
<!-- nbam&#45;&gt;VarScanPL -->
<g id="edge20" class="edge">
<title>nbam&#45;&gt;VarScanPL</title>
<path fill="none" stroke="#000000" d="M1521.0052,-337.943C1514.9929,-326.5194 1505.6216,-312.5239 1493,-304.8 1471.1799,-291.447 1461.3198,-300.4504 1436,-296.8 1411.5217,-293.2709 1384.3618,-289.2624 1361.629,-285.8811"/>
<polygon fill="#000000" stroke="#000000" points="1361.9278,-282.3871 1351.5212,-284.3756 1360.8965,-289.3107 1361.9278,-282.3871"/>
</g>
<!-- nbam&#45;&gt;VarDict -->
<g id="edge19" class="edge">
<title>nbam&#45;&gt;VarDict</title>
<path fill="none" stroke="#000000" d="M1516.7075,-338.0556C1509.9996,-328.2089 1501.5673,-315.8309 1494.1196,-304.8982"/>
<polygon fill="#000000" stroke="#000000" points="1496.9321,-302.8101 1488.4094,-296.5161 1491.1469,-306.7512 1496.9321,-302.8101"/>
</g>
<!-- nbam&#45;&gt;neusomaticPL -->
<g id="edge23" class="edge">
<title>nbam&#45;&gt;neusomaticPL</title>
<path fill="none" stroke="#000000" d="M1536.4437,-337.9408C1542.3156,-326.2027 1551.7409,-311.846 1565,-304.8 1586.7857,-293.223 1987.5203,-308.9352 2009,-296.8 2090.647,-250.6728 2133.7913,-139.4643 2150.1434,-87.2544"/>
<polygon fill="#000000" stroke="#000000" points="2153.5076,-88.2212 2153.0601,-77.6358 2146.8088,-86.1899 2153.5076,-88.2212"/>
</g>
<!-- Ref -->
<g id="node14" class="node">
<title>Ref</title>
<polygon fill="#94ddf4" stroke="#000000" points="1358,-338.1 1358,-374.1 1412,-374.1 1412,-338.1 1358,-338.1"/>
<text text-anchor="middle" x="1384.6059" y="-351.9" font-family="Times,serif" font-size="14.00" fill="#000000">Ref</text>
</g>
<!-- Ref&#45;&gt;SomaticSniper -->
<g id="edge26" class="edge">
<title>Ref&#45;&gt;SomaticSniper</title>
<path fill="none" stroke="#000000" d="M1392.7261,-337.9642C1398.6736,-326.3952 1408.0749,-312.2254 1421,-304.8 1439.3702,-294.2465 1495.0132,-299.6974 1516,-296.8 1527.8222,-295.1678 1540.3923,-293.0366 1552.4075,-290.8037"/>
<polygon fill="#000000" stroke="#000000" points="1553.1721,-294.2211 1562.3412,-288.9128 1551.8631,-287.3445 1553.1721,-294.2211"/>
</g>
<!-- Ref&#45;&gt;Wrapper -->
<g id="edge29" class="edge">
<title>Ref&#45;&gt;Wrapper</title>
<path fill="none" stroke="#000000" d="M1383.4319,-337.91C1381.1968,-311.9825 1377.0742,-264.1606 1374.4384,-233.5858"/>
<polygon fill="#000000" stroke="#000000" points="1377.9197,-233.2169 1373.5737,-223.5545 1370.9456,-233.8182 1377.9197,-233.2169"/>
</g>
<!-- Ref&#45;&gt;mantaStrelka -->
<g id="edge30" class="edge">
<title>Ref&#45;&gt;mantaStrelka</title>
<path fill="none" stroke="#000000" d="M1392.4756,-338.0002C1398.3617,-326.2887 1407.7909,-311.9393 1421,-304.8 1445.3517,-291.6384 1642.5028,-299.984 1670,-296.8 1682.0114,-295.4092 1694.791,-293.2698 1706.8837,-290.9329"/>
<polygon fill="#000000" stroke="#000000" points="1707.7311,-294.3327 1716.8481,-288.9355 1706.3552,-287.4693 1707.7311,-294.3327"/>
</g>
<!-- Ref&#45;&gt;Mutect2PL -->
<g id="edge25" class="edge">
<title>Ref&#45;&gt;Mutect2PL</title>
<path fill="none" stroke="#000000" d="M1377.4828,-338.0765C1371.5781,-326.399 1362.1438,-312.0589 1349,-304.8 1333.5155,-296.2484 1207.6021,-298.5516 1190,-296.8 1165.395,-294.3515 1138.2092,-290.433 1115.5783,-286.8314"/>
<polygon fill="#000000" stroke="#000000" points="1115.9571,-283.3473 1105.5265,-285.2053 1114.8392,-290.2574 1115.9571,-283.3473"/>
</g>
<!-- Ref&#45;&gt;MuSE -->
<g id="edge24" class="edge">
<title>Ref&#45;&gt;MuSE</title>
<path fill="none" stroke="#000000" d="M1377.2553,-337.9964C1371.2998,-326.4413 1361.8965,-312.275 1349,-304.8 1334.0399,-296.1289 1291.5047,-300.8607 1262.8992,-295.8857"/>
<polygon fill="#000000" stroke="#000000" points="1263.6034,-292.4559 1253.0674,-293.5709 1261.9991,-299.2696 1263.6034,-292.4559"/>
</g>
<!-- Ref&#45;&gt;VarScanPL -->
<g id="edge28" class="edge">
<title>Ref&#45;&gt;VarScanPL</title>
<path fill="none" stroke="#000000" d="M1374.3967,-337.825C1367.8623,-327.4583 1358.8623,-314.6333 1349,-304.8 1348.3521,-304.154 1347.6868,-303.5131 1347.0068,-302.8782"/>
<polygon fill="#000000" stroke="#000000" points="1349.1827,-300.1343 1339.2912,-296.3385 1344.6566,-305.4743 1349.1827,-300.1343"/>
</g>
<!-- Ref&#45;&gt;VarDict -->
<g id="edge27" class="edge">
<title>Ref&#45;&gt;VarDict</title>
<path fill="none" stroke="#000000" d="M1394.7422,-337.7043C1401.1027,-327.0407 1410.2177,-313.9548 1421,-304.8 1425.5549,-300.9326 1430.7709,-297.4834 1436.136,-294.4558"/>
<polygon fill="#000000" stroke="#000000" points="1437.9414,-297.4625 1445.2152,-289.7591 1434.7251,-291.2451 1437.9414,-297.4625"/>
</g>
<!-- Ref&#45;&gt;neusomaticPL -->
<g id="edge31" class="edge">
<title>Ref&#45;&gt;neusomaticPL</title>
<path fill="none" stroke="#000000" d="M1392.4487,-337.9502C1398.3228,-326.2163 1407.7488,-311.8608 1421,-304.8 1440.3707,-294.4785 1795.2604,-303.9851 1816,-296.8 1841.7854,-287.8668 1842.9399,-275.8637 1865,-259.8 1956.3033,-193.3151 1979.2175,-176.7396 2073,-113.8 2088.4529,-103.4292 2105.7072,-92.2872 2120.6113,-82.7971"/>
<polygon fill="#000000" stroke="#000000" points="2122.517,-85.7331 2129.0837,-77.4188 2118.7653,-79.8234 2122.517,-85.7331"/>
</g>
<!-- interval -->
<g id="node15" class="node">
<title>interval</title>
<polygon fill="#94ddf4" stroke="#000000" points="1281.6192,-338.1 1281.6192,-374.1 1340.3808,-374.1 1340.3808,-338.1 1281.6192,-338.1"/>
<text text-anchor="middle" x="1311" y="-351.9" font-family="Times,serif" font-size="14.00" fill="#000000">interval</text>
</g>
<!-- interval&#45;&gt;Wrapper -->
<g id="edge36" class="edge">
<title>interval&#45;&gt;Wrapper</title>
<path fill="none" stroke="#000000" d="M1302.5686,-337.9961C1296.1709,-326.4408 1286.2174,-312.2745 1273,-304.8 1256.8705,-295.6787 1202.4582,-310.5168 1190,-296.8 1178.9439,-284.627 1180.1805,-272.9908 1190,-259.8 1206.6868,-237.3843 1281.0206,-220.7653 1329.3772,-212.09"/>
<polygon fill="#000000" stroke="#000000" points="1330.0238,-215.5301 1339.2716,-210.3601 1328.8182,-208.6347 1330.0238,-215.5301"/>
</g>
<!-- interval&#45;&gt;Mutect2PL -->
<g id="edge33" class="edge">
<title>interval&#45;&gt;Mutect2PL</title>
<path fill="none" stroke="#000000" d="M1302.6338,-337.879C1296.2644,-326.2729 1286.3179,-312.0938 1273,-304.8 1250.3372,-292.3883 1182.6049,-300.2703 1157,-296.8 1143.5055,-294.9711 1129.0089,-292.335 1115.6407,-289.6235"/>
<polygon fill="#000000" stroke="#000000" points="1116.1768,-286.1601 1105.6732,-287.5474 1114.7494,-293.013 1116.1768,-286.1601"/>
</g>
<!-- interval&#45;&gt;MuSE -->
<g id="edge32" class="edge">
<title>interval&#45;&gt;MuSE</title>
<path fill="none" stroke="#000000" d="M1300.2947,-337.9819C1293.4313,-327.4166 1283.8008,-314.3367 1273,-304.8 1270.8057,-302.8625 1266.8814,-300.2915 1262.2026,-297.5118"/>
<polygon fill="#000000" stroke="#000000" points="1263.599,-294.2794 1253.1767,-292.3748 1260.1365,-300.3631 1263.599,-294.2794"/>
</g>
<!-- interval&#45;&gt;VarScanPL -->
<g id="edge35" class="edge">
<title>interval&#45;&gt;VarScanPL</title>
<path fill="none" stroke="#000000" d="M1311,-338.0556C1311,-328.6963 1311,-317.0503 1311,-306.532"/>
<polygon fill="#000000" stroke="#000000" points="1314.5001,-306.516 1311,-296.5161 1307.5001,-306.5161 1314.5001,-306.516"/>
</g>
<!-- interval&#45;&gt;VarDict -->
<g id="edge34" class="edge">
<title>interval&#45;&gt;VarDict</title>
<path fill="none" stroke="#000000" d="M1319.4342,-338.0011C1325.8331,-326.448 1335.787,-312.2822 1349,-304.8 1364.9317,-295.7783 1413.232,-301.2169 1431,-296.8 1432.4858,-296.4306 1433.9868,-296.0209 1435.4933,-295.5782"/>
<polygon fill="#000000" stroke="#000000" points="1437.0417,-298.751 1445.4155,-292.2603 1434.8217,-292.1124 1437.0417,-298.751"/>
</g>
<!-- interval&#45;&gt;neusomaticPL -->
<g id="edge38" class="edge">
<title>interval&#45;&gt;neusomaticPL</title>
<path fill="none" stroke="#000000" d="M1321.5816,-337.8393C1328.4012,-327.2235 1338.029,-314.1405 1349,-304.8 1365.5734,-290.6897 1415.6759,-267.5915 1436,-259.8 1579.2332,-204.8899 1960.1946,-139.1936 2104,-85.8 2107.4846,-84.5062 2111.0442,-83.0599 2114.5904,-81.5285"/>
<polygon fill="#000000" stroke="#000000" points="2116.2182,-84.6336 2123.886,-77.3223 2113.3324,-78.2561 2116.2182,-84.6336"/>
</g>
<!-- interval&#45;&gt;bgzip -->
<g id="edge37" class="edge">
<title>interval&#45;&gt;bgzip</title>
<path fill="none" stroke="#000000" d="M1334.373,-374.2191C1339.0493,-377.3124 1344.0505,-380.273 1349,-382.6 1391.69,-402.6711 1444.6781,-415.5397 1479.5965,-422.5356"/>
<polygon fill="#000000" stroke="#000000" points="1479.3381,-426.0507 1489.8217,-424.5197 1480.6715,-419.1788 1479.3381,-426.0507"/>
</g>
<!-- tbam -->
<g id="node16" class="node">
<title>tbam</title>
<polygon fill="#94ddf4" stroke="#000000" points="1430,-338.1 1430,-374.1 1484,-374.1 1484,-338.1 1430,-338.1"/>
<text text-anchor="middle" x="1456.9979" y="-351.9" font-family="Times,serif" font-size="14.00" fill="#000000">tbam</text>
</g>
<!-- tbam&#45;&gt;SomaticSniper -->
<g id="edge41" class="edge">
<title>tbam&#45;&gt;SomaticSniper</title>
<path fill="none" stroke="#000000" d="M1465.0011,-337.9532C1471.016,-326.5339 1480.3879,-312.5394 1493,-304.8 1514.4286,-291.6503 1524.4306,-302.1334 1549,-296.8 1550.2532,-296.528 1551.518,-296.2441 1552.7908,-295.95"/>
<polygon fill="#000000" stroke="#000000" points="1553.7783,-299.3114 1562.6504,-293.5203 1552.1034,-292.5147 1553.7783,-299.3114"/>
</g>
<!-- tbam&#45;&gt;Wrapper -->
<g id="edge44" class="edge">
<title>tbam&#45;&gt;Wrapper</title>
<path fill="none" stroke="#000000" d="M1466.0895,-337.7441C1472.3258,-326.8239 1481.5389,-313.4553 1493,-304.8 1501.6368,-298.2776 1509.7289,-305.6209 1516,-296.8 1525.5284,-283.3974 1525.3461,-273.3303 1516,-259.8 1504.0762,-242.538 1452.6336,-225.9541 1414.6192,-215.707"/>
<polygon fill="#000000" stroke="#000000" points="1415.3494,-212.28 1404.7876,-213.1158 1413.5653,-219.0489 1415.3494,-212.28"/>
</g>
<!-- tbam&#45;&gt;mantaStrelka -->
<g id="edge45" class="edge">
<title>tbam&#45;&gt;mantaStrelka</title>
<path fill="none" stroke="#000000" d="M1464.5054,-338.0551C1470.4049,-326.368 1479.8377,-312.0253 1493,-304.8 1510.2575,-295.3266 1650.4591,-299.192 1670,-296.8 1682.0021,-295.3308 1694.7777,-293.1586 1706.8696,-290.8144"/>
<polygon fill="#000000" stroke="#000000" points="1707.7172,-294.2142 1716.834,-288.8165 1706.341,-287.3508 1707.7172,-294.2142"/>
</g>
<!-- tbam&#45;&gt;Mutect2PL -->
<g id="edge40" class="edge">
<title>tbam&#45;&gt;Mutect2PL</title>
<path fill="none" stroke="#000000" d="M1449.5187,-338.0108C1443.6301,-326.3039 1434.2002,-311.9558 1421,-304.8 1398.4221,-292.5605 1215.5749,-299.143 1190,-296.8 1165.3765,-294.5441 1138.1887,-290.6474 1115.5612,-287.0102"/>
<polygon fill="#000000" stroke="#000000" points="1115.9456,-283.5266 1105.5113,-285.3642 1114.8141,-290.4346 1115.9456,-283.5266"/>
</g>
<!-- tbam&#45;&gt;MuSE -->
<g id="edge39" class="edge">
<title>tbam&#45;&gt;MuSE</title>
<path fill="none" stroke="#000000" d="M1449.4828,-338.0765C1443.5781,-326.399 1434.1438,-312.0589 1421,-304.8 1392.2084,-288.8993 1309.055,-303.5838 1262.8435,-295.8581"/>
<polygon fill="#000000" stroke="#000000" points="1263.5506,-292.43 1253.0319,-293.6977 1262.0453,-299.2663 1263.5506,-292.43"/>
</g>
<!-- tbam&#45;&gt;VarScanPL -->
<g id="edge43" class="edge">
<title>tbam&#45;&gt;VarScanPL</title>
<path fill="none" stroke="#000000" d="M1448.6131,-338.0915C1442.4897,-326.8794 1433.1425,-313.0653 1421,-304.8 1411.0095,-297.9995 1385.21,-291.6142 1361.1068,-286.816"/>
<polygon fill="#000000" stroke="#000000" points="1361.7678,-283.379 1351.2866,-284.9262 1360.445,-290.2529 1361.7678,-283.379"/>
</g>
<!-- tbam&#45;&gt;VarDict -->
<g id="edge42" class="edge">
<title>tbam&#45;&gt;VarDict</title>
<path fill="none" stroke="#000000" d="M1461.4067,-338.0556C1463.6924,-328.6963 1466.5366,-317.0503 1469.1053,-306.532"/>
<polygon fill="#000000" stroke="#000000" points="1472.5789,-307.061 1471.5513,-296.5161 1465.7788,-305.4002 1472.5789,-307.061"/>
</g>
<!-- tbam&#45;&gt;neusomaticPL -->
<g id="edge46" class="edge">
<title>tbam&#45;&gt;neusomaticPL</title>
<path fill="none" stroke="#000000" d="M1464.4515,-337.9555C1470.3269,-326.224 1479.7532,-311.8691 1493,-304.8 1529.4743,-285.3357 1826.1825,-311.028 1865,-296.8 1985.2186,-252.7354 2092.7297,-137.4219 2136.8071,-85.4114"/>
<polygon fill="#000000" stroke="#000000" points="2139.5889,-87.541 2143.3288,-77.6281 2134.2235,-83.0451 2139.5889,-87.541"/>
</g>
<!-- comvcf -->
<g id="node17" class="node">
<title>comvcf</title>
<polygon fill="#94ddf4" stroke="#000000" points="1062.0098,-338.1 1062.0098,-374.1 1119.9902,-374.1 1119.9902,-338.1 1062.0098,-338.1"/>
<text text-anchor="middle" x="1091" y="-351.9" font-family="Times,serif" font-size="14.00" fill="#000000">comvcf</text>
</g>
<!-- comvcf&#45;&gt;Mutect2PL -->
<g id="edge47" class="edge">
<title>comvcf&#45;&gt;Mutect2PL</title>
<path fill="none" stroke="#000000" d="M1085.2017,-338.0556C1082.1629,-328.5988 1078.3738,-316.8074 1074.9665,-306.2037"/>
<polygon fill="#000000" stroke="#000000" points="1078.2451,-304.9658 1071.8535,-296.5161 1071.5807,-307.1074 1078.2451,-304.9658"/>
</g>
<!-- gresource -->
<g id="node18" class="node">
<title>gresource</title>
<polygon fill="#94ddf4" stroke="#000000" points="973.7952,-338.1 973.7952,-374.1 1044.2048,-374.1 1044.2048,-338.1 973.7952,-338.1"/>
<text text-anchor="middle" x="1009" y="-351.9" font-family="Times,serif" font-size="14.00" fill="#000000">gresource</text>
</g>
<!-- gresource&#45;&gt;Mutect2PL -->
<g id="edge48" class="edge">
<title>gresource&#45;&gt;Mutect2PL</title>
<path fill="none" stroke="#000000" d="M1022.2202,-338.0556C1029.4344,-328.2089 1038.503,-315.8309 1046.5129,-304.8982"/>
<polygon fill="#000000" stroke="#000000" points="1049.5673,-306.6513 1052.654,-296.5161 1043.9206,-302.5143 1049.5673,-306.6513"/>
</g>
<!-- pon -->
<g id="node19" class="node">
<title>pon</title>
<polygon fill="#94ddf4" stroke="#000000" points="1138,-338.1 1138,-374.1 1192,-374.1 1192,-338.1 1138,-338.1"/>
<text text-anchor="middle" x="1165" y="-351.9" font-family="Times,serif" font-size="14.00" fill="#000000">pon</text>
</g>
<!-- pon&#45;&gt;Mutect2PL -->
<g id="edge49" class="edge">
<title>pon&#45;&gt;Mutect2PL</title>
<path fill="none" stroke="#000000" d="M1155.7132,-337.9968C1149.4028,-327.1718 1140.1809,-313.8144 1129,-304.8 1124.67,-301.309 1119.8134,-298.2079 1114.7683,-295.4711"/>
<polygon fill="#000000" stroke="#000000" points="1116.0737,-292.2125 1105.5565,-290.9325 1112.98,-298.4918 1116.0737,-292.2125"/>
</g>
<!-- threads -->
<g id="node20" class="node">
<title>threads</title>
<polygon fill="#94ddf4" stroke="#000000" points="1573.7875,-338.1 1573.7875,-374.1 1630.2125,-374.1 1630.2125,-338.1 1573.7875,-338.1"/>
<text text-anchor="middle" x="1602" y="-351.9" font-family="Times,serif" font-size="14.00" fill="#000000">threads</text>
</g>
<!-- threads&#45;&gt;neusomaticPL -->
<g id="edge50" class="edge">
<title>threads&#45;&gt;neusomaticPL</title>
<path fill="none" stroke="#000000" d="M1621.5897,-337.9323C1635.7973,-326.0271 1656.1135,-311.4769 1677,-304.8 1699.3881,-297.6431 2081.6515,-311.4894 2100,-296.8 2163.4144,-246.0319 2164.4279,-138.4311 2160.8999,-87.3492"/>
<polygon fill="#000000" stroke="#000000" points="2164.3861,-87.0362 2160.0989,-77.3475 2157.4084,-87.595 2164.3861,-87.0362"/>
</g>
</g>
</svg>

