<?xml version="1.0" encoding="UTF-8" standalone="no"?>
<!DOCTYPE svg PUBLIC "-//W3C//DTD SVG 1.1//EN"
 "http://www.w3.org/Graphics/SVG/1.1/DTD/svg11.dtd">
<!-- Generated by graphviz version 2.40.1 (20161225.0304)
 -->
<!-- Title: G Pages: 1 -->
<svg width="595pt" height="326pt"
 viewBox="0.00 0.00 595.00 325.60" xmlns="http://www.w3.org/2000/svg" xmlns:xlink="http://www.w3.org/1999/xlink">
<g id="graph0" class="graph" transform="scale(1 1) rotate(0) translate(4 321.6)">
<title>G</title>
<polygon fill="#eeeeee" stroke="transparent" points="-4,4 -4,-321.6 591,-321.6 591,4 -4,4"/>
<g id="clust1" class="cluster">
<title>cluster_inputs</title>
<polygon fill="#eeeeee" stroke="#000000" stroke-dasharray="5,2" points="8,-231.8 8,-309.6 579,-309.6 579,-231.8 8,-231.8"/>
<text text-anchor="middle" x="522.9856" y="-240" font-family="Times,serif" font-size="14.00" fill="#000000">Workflow Inputs</text>
</g>
<g id="clust2" class="cluster">
<title>cluster_outputs</title>
<polygon fill="#eeeeee" stroke="#000000" stroke-dasharray="5,2" points="126,-8 126,-85.8 412,-85.8 412,-8 126,-8"/>
<text text-anchor="middle" x="351.3173" y="-16.2" font-family="Times,serif" font-size="14.00" fill="#000000">Workflow Outputs</text>
</g>
<!-- STARsolo -->
<g id="node1" class="node">
<title>STARsolo</title>
<polygon fill="#fafad2" stroke="#000000" points="267.4432,-187.3 267.4432,-223.3 342.5568,-223.3 342.5568,-187.3 267.4432,-187.3"/>
<text text-anchor="middle" x="305" y="-201.1" font-family="Times,serif" font-size="14.00" fill="#000000">STARsolo</text>
</g>
<!-- DropletUtils -->
<g id="node2" class="node">
<title>DropletUtils</title>
<polygon fill="#fafad2" stroke="#000000" points="190.007,-114.3 190.007,-150.3 275.993,-150.3 275.993,-114.3 190.007,-114.3"/>
<text text-anchor="middle" x="233" y="-128.1" font-family="Times,serif" font-size="14.00" fill="#000000">DropletUtils</text>
</g>
<!-- STARsolo&#45;&gt;DropletUtils -->
<g id="edge1" class="edge">
<title>STARsolo&#45;&gt;DropletUtils</title>
<path fill="none" stroke="#000000" d="M287.2022,-187.2551C278.3752,-178.3054 267.5669,-167.347 257.9307,-157.5769"/>
<polygon fill="#000000" stroke="#000000" points="260.3566,-155.0523 250.8425,-150.3904 255.3728,-159.9678 260.3566,-155.0523"/>
</g>
<!-- Solo -->
<g id="node9" class="node">
<title>Solo</title>
<polygon fill="#94ddf4" stroke="#000000" points="278,-41.3 278,-77.3 332,-77.3 332,-41.3 278,-41.3"/>
<text text-anchor="middle" x="304.8366" y="-55.1" font-family="Times,serif" font-size="14.00" fill="#000000">Solo</text>
</g>
<!-- STARsolo&#45;&gt;Solo -->
<g id="edge8" class="edge">
<title>STARsolo&#45;&gt;Solo</title>
<path fill="none" stroke="#000000" d="M305,-187.1042C305,-162.1868 305,-117.1938 305,-87.7877"/>
<polygon fill="#000000" stroke="#000000" points="308.5001,-87.7251 305,-77.7251 301.5001,-87.7251 308.5001,-87.7251"/>
</g>
<!-- sam -->
<g id="node11" class="node">
<title>sam</title>
<polygon fill="#94ddf4" stroke="#000000" points="350,-41.3 350,-77.3 404,-77.3 404,-41.3 350,-41.3"/>
<text text-anchor="middle" x="376.7749" y="-55.1" font-family="Times,serif" font-size="14.00" fill="#000000">sam</text>
</g>
<!-- STARsolo&#45;&gt;sam -->
<g id="edge10" class="edge">
<title>STARsolo&#45;&gt;sam</title>
<path fill="none" stroke="#000000" d="M313.9733,-187.1042C326.3691,-161.9682 348.8397,-116.4029 363.3311,-87.0175"/>
<polygon fill="#000000" stroke="#000000" points="366.6297,-88.2419 367.9136,-77.7251 360.3516,-85.1458 366.6297,-88.2419"/>
</g>
<!-- plots -->
<g id="node10" class="node">
<title>plots</title>
<polygon fill="#94ddf4" stroke="#000000" points="134,-41.3 134,-77.3 188,-77.3 188,-41.3 134,-41.3"/>
<text text-anchor="middle" x="160.6129" y="-55.1" font-family="Times,serif" font-size="14.00" fill="#000000">plots</text>
</g>
<!-- DropletUtils&#45;&gt;plots -->
<g id="edge9" class="edge">
<title>DropletUtils&#45;&gt;plots</title>
<path fill="none" stroke="#000000" d="M215.2022,-114.2551C206.3752,-105.3054 195.5669,-94.347 185.9307,-84.5769"/>
<polygon fill="#000000" stroke="#000000" points="188.3566,-82.0523 178.8425,-77.3904 183.3728,-86.9678 188.3566,-82.0523"/>
</g>
<!-- sce -->
<g id="node12" class="node">
<title>sce</title>
<polygon fill="#94ddf4" stroke="#000000" points="206,-41.3 206,-77.3 260,-77.3 260,-41.3 206,-41.3"/>
<text text-anchor="middle" x="232.9369" y="-55.1" font-family="Times,serif" font-size="14.00" fill="#000000">sce</text>
</g>
<!-- DropletUtils&#45;&gt;sce -->
<g id="edge11" class="edge">
<title>DropletUtils&#45;&gt;sce</title>
<path fill="none" stroke="#000000" d="M233,-114.2551C233,-106.1828 233,-96.4764 233,-87.4817"/>
<polygon fill="#000000" stroke="#000000" points="236.5001,-87.3903 233,-77.3904 229.5001,-87.3904 236.5001,-87.3903"/>
</g>
<!-- genomeDir -->
<g id="node3" class="node">
<title>genomeDir</title>
<polygon fill="#94ddf4" stroke="#000000" points="492.5112,-265.1 492.5112,-301.1 571.4888,-301.1 571.4888,-265.1 492.5112,-265.1"/>
<text text-anchor="middle" x="532" y="-278.9" font-family="Times,serif" font-size="14.00" fill="#000000">genomeDir</text>
</g>
<!-- genomeDir&#45;&gt;STARsolo -->
<g id="edge2" class="edge">
<title>genomeDir&#45;&gt;STARsolo</title>
<path fill="none" stroke="#000000" d="M519.9316,-264.9279C511.3205,-253.498 498.6919,-239.5011 484,-231.8 461.8648,-220.1974 398.101,-212.7808 353.004,-208.8287"/>
<polygon fill="#000000" stroke="#000000" points="353.0935,-205.3238 342.8339,-207.9679 352.503,-212.2989 353.0935,-205.3238"/>
</g>
<!-- fastq_cb -->
<g id="node4" class="node">
<title>fastq_cb</title>
<polygon fill="#94ddf4" stroke="#000000" points="411.2875,-265.1 411.2875,-301.1 474.7125,-301.1 474.7125,-265.1 411.2875,-265.1"/>
<text text-anchor="middle" x="443" y="-278.9" font-family="Times,serif" font-size="14.00" fill="#000000">fastq_cb</text>
</g>
<!-- fastq_cb&#45;&gt;STARsolo -->
<g id="edge3" class="edge">
<title>fastq_cb&#45;&gt;STARsolo</title>
<path fill="none" stroke="#000000" d="M432.6381,-264.9707C425.4008,-253.8552 414.7657,-240.1931 402,-231.8 387.3833,-222.1899 369.3479,-216.043 352.8094,-212.1204"/>
<polygon fill="#000000" stroke="#000000" points="353.262,-208.6377 342.7493,-209.9544 351.7886,-215.4809 353.262,-208.6377"/>
</g>
<!-- fastq_cdna -->
<g id="node5" class="node">
<title>fastq_cdna</title>
<polygon fill="#94ddf4" stroke="#000000" points="316.6802,-265.1 316.6802,-301.1 393.3198,-301.1 393.3198,-265.1 316.6802,-265.1"/>
<text text-anchor="middle" x="355" y="-278.9" font-family="Times,serif" font-size="14.00" fill="#000000">fastq_cdna</text>
</g>
<!-- fastq_cdna&#45;&gt;STARsolo -->
<g id="edge4" class="edge">
<title>fastq_cdna&#45;&gt;STARsolo</title>
<path fill="none" stroke="#000000" d="M343.4033,-265.0556C337.1378,-255.3063 329.2775,-243.0758 322.3029,-232.2233"/>
<polygon fill="#000000" stroke="#000000" points="325.0579,-230.0363 316.707,-223.5161 319.1691,-233.8209 325.0579,-230.0363"/>
</g>
<!-- runThreadN -->
<g id="node6" class="node">
<title>runThreadN</title>
<polygon fill="#94ddf4" stroke="#000000" points="213.7952,-265.1 213.7952,-301.1 298.2048,-301.1 298.2048,-265.1 213.7952,-265.1"/>
<text text-anchor="middle" x="256" y="-278.9" font-family="Times,serif" font-size="14.00" fill="#000000">runThreadN</text>
</g>
<!-- runThreadN&#45;&gt;STARsolo -->
<g id="edge5" class="edge">
<title>runThreadN&#45;&gt;STARsolo</title>
<path fill="none" stroke="#000000" d="M267.3647,-265.0556C273.505,-255.3063 281.2081,-243.0758 288.0432,-232.2233"/>
<polygon fill="#000000" stroke="#000000" points="291.1594,-233.843 293.5271,-223.5161 285.2362,-230.1124 291.1594,-233.843"/>
</g>
<!-- soloCellFilter -->
<g id="node7" class="node">
<title>soloCellFilter</title>
<polygon fill="#94ddf4" stroke="#000000" points="102.5014,-265.1 102.5014,-301.1 195.4986,-301.1 195.4986,-265.1 102.5014,-265.1"/>
<text text-anchor="middle" x="149" y="-278.9" font-family="Times,serif" font-size="14.00" fill="#000000">soloCellFilter</text>
</g>
<!-- soloCellFilter&#45;&gt;STARsolo -->
<g id="edge6" class="edge">
<title>soloCellFilter&#45;&gt;STARsolo</title>
<path fill="none" stroke="#000000" d="M164.4705,-265.0269C174.8813,-253.9338 189.4979,-240.2756 205,-231.8 221.0715,-223.0131 240.2084,-217.0215 257.4177,-212.9926"/>
<polygon fill="#000000" stroke="#000000" points="258.2645,-216.3903 267.2898,-210.841 256.7738,-209.5509 258.2645,-216.3903"/>
</g>
<!-- whiteList -->
<g id="node8" class="node">
<title>whiteList</title>
<polygon fill="#94ddf4" stroke="#000000" points="15.5596,-265.1 15.5596,-301.1 84.4404,-301.1 84.4404,-265.1 15.5596,-265.1"/>
<text text-anchor="middle" x="50" y="-278.9" font-family="Times,serif" font-size="14.00" fill="#000000">whiteList</text>
</g>
<!-- whiteList&#45;&gt;STARsolo -->
<g id="edge7" class="edge">
<title>whiteList&#45;&gt;STARsolo</title>
<path fill="none" stroke="#000000" d="M60.506,-265.0861C68.2366,-253.5699 79.8424,-239.4133 94,-231.8 121.2832,-217.1283 203.4646,-210.3046 256.847,-207.3443"/>
<polygon fill="#000000" stroke="#000000" points="257.313,-210.8247 267.1147,-206.8026 256.9441,-203.8344 257.313,-210.8247"/>
</g>
</g>
</svg>

