<?xml version="1.0" encoding="UTF-8" standalone="no"?>
<!DOCTYPE svg PUBLIC "-//W3C//DTD SVG 1.1//EN"
 "http://www.w3.org/Graphics/SVG/1.1/DTD/svg11.dtd">
<!-- Generated by graphviz version 2.40.1 (20161225.0304)
 -->
<!-- Title: G Pages: 1 -->
<svg width="407pt" height="399pt"
 viewBox="0.00 0.00 406.66 398.60" xmlns="http://www.w3.org/2000/svg" xmlns:xlink="http://www.w3.org/1999/xlink">
<g id="graph0" class="graph" transform="scale(1 1) rotate(0) translate(4 394.6)">
<title>G</title>
<polygon fill="#eeeeee" stroke="transparent" points="-4,4 -4,-394.6 402.6557,-394.6 402.6557,4 -4,4"/>
<g id="clust1" class="cluster">
<title>cluster_inputs</title>
<polygon fill="#eeeeee" stroke="#000000" stroke-dasharray="5,2" points="8,-304.8 8,-382.6 366,-382.6 366,-304.8 8,-304.8"/>
<text text-anchor="middle" x="309.9856" y="-313" font-family="Times,serif" font-size="14.00" fill="#000000">Workflow Inputs</text>
</g>
<g id="clust2" class="cluster">
<title>cluster_outputs</title>
<polygon fill="#eeeeee" stroke="#000000" stroke-dasharray="5,2" points="237,-8 237,-85.8 379,-85.8 379,-8 237,-8"/>
<text text-anchor="middle" x="318.3173" y="-16.2" font-family="Times,serif" font-size="14.00" fill="#000000">Workflow Outputs</text>
</g>
<!-- manta -->
<g id="node1" class="node">
<title>manta</title>
<polygon fill="#fafad2" stroke="#000000" points="137,-260.3 137,-296.3 191,-296.3 191,-260.3 137,-260.3"/>
<text text-anchor="middle" x="163.6052" y="-274.1" font-family="Times,serif" font-size="14.00" fill="#000000">manta</text>
</g>
<!-- strelka -->
<g id="node2" class="node">
<title>strelka</title>
<polygon fill="#fafad2" stroke="#000000" points="211,-187.3 211,-223.3 265,-223.3 265,-187.3 211,-187.3"/>
<text text-anchor="middle" x="237.6578" y="-201.1" font-family="Times,serif" font-size="14.00" fill="#000000">strelka</text>
</g>
<!-- manta&#45;&gt;strelka -->
<g id="edge1" class="edge">
<title>manta&#45;&gt;strelka</title>
<path fill="none" stroke="#000000" d="M182.2921,-260.2551C191.3644,-251.3054 202.4729,-240.347 212.3768,-230.5769"/>
<polygon fill="#000000" stroke="#000000" points="215.0008,-232.9049 219.6618,-223.3904 210.0848,-227.9215 215.0008,-232.9049"/>
</g>
<!-- strelkaIndel -->
<g id="node3" class="node">
<title>strelkaIndel</title>
<polygon fill="#fafad2" stroke="#000000" points="216.9593,-114.3 216.9593,-150.3 299.0407,-150.3 299.0407,-114.3 216.9593,-114.3"/>
<text text-anchor="middle" x="258" y="-128.1" font-family="Times,serif" font-size="14.00" fill="#000000">strelkaIndel</text>
</g>
<!-- strelka&#45;&gt;strelkaIndel -->
<g id="edge2" class="edge">
<title>strelka&#45;&gt;strelkaIndel</title>
<path fill="none" stroke="#000000" d="M242.9438,-187.2551C245.1794,-179.0951 247.8726,-169.2652 250.3593,-160.1887"/>
<polygon fill="#000000" stroke="#000000" points="253.7769,-160.9598 253.0437,-150.3904 247.0257,-159.1101 253.7769,-160.9598"/>
</g>
<!-- strelkaSNV -->
<g id="node4" class="node">
<title>strelkaSNV</title>
<polygon fill="#fafad2" stroke="#000000" points="317.3443,-114.3 317.3443,-150.3 398.6557,-150.3 398.6557,-114.3 317.3443,-114.3"/>
<text text-anchor="middle" x="358" y="-128.1" font-family="Times,serif" font-size="14.00" fill="#000000">strelkaSNV</text>
</g>
<!-- strelka&#45;&gt;strelkaSNV -->
<g id="edge3" class="edge">
<title>strelka&#45;&gt;strelkaSNV</title>
<path fill="none" stroke="#000000" d="M265.2299,-188.7352C281.2468,-178.9915 301.7581,-166.5138 319.4193,-155.7699"/>
<polygon fill="#000000" stroke="#000000" points="321.632,-158.5207 328.3563,-150.3332 317.9939,-152.5403 321.632,-158.5207"/>
</g>
<!-- indels -->
<g id="node10" class="node">
<title>indels</title>
<polygon fill="#94ddf4" stroke="#000000" points="245,-41.3 245,-77.3 299,-77.3 299,-41.3 245,-41.3"/>
<text text-anchor="middle" x="271.7202" y="-55.1" font-family="Times,serif" font-size="14.00" fill="#000000">indels</text>
</g>
<!-- strelkaIndel&#45;&gt;indels -->
<g id="edge16" class="edge">
<title>strelkaIndel&#45;&gt;indels</title>
<path fill="none" stroke="#000000" d="M261.4607,-114.2551C263.0088,-106.1828 264.8703,-96.4764 266.5953,-87.4817"/>
<polygon fill="#000000" stroke="#000000" points="270.0844,-87.8706 268.5306,-77.3904 263.2097,-86.5521 270.0844,-87.8706"/>
</g>
<!-- snvs -->
<g id="node11" class="node">
<title>snvs</title>
<polygon fill="#94ddf4" stroke="#000000" points="317,-41.3 317,-77.3 371,-77.3 371,-41.3 317,-41.3"/>
<text text-anchor="middle" x="343.9446" y="-55.1" font-family="Times,serif" font-size="14.00" fill="#000000">snvs</text>
</g>
<!-- strelkaSNV&#45;&gt;snvs -->
<g id="edge17" class="edge">
<title>strelkaSNV&#45;&gt;snvs</title>
<path fill="none" stroke="#000000" d="M354.5393,-114.2551C352.9912,-106.1828 351.1297,-96.4764 349.4047,-87.4817"/>
<polygon fill="#000000" stroke="#000000" points="352.7903,-86.5521 347.4694,-77.3904 345.9156,-87.8706 352.7903,-86.5521"/>
</g>
<!-- region -->
<g id="node5" class="node">
<title>region</title>
<polygon fill="#94ddf4" stroke="#000000" points="160,-338.1 160,-374.1 214,-374.1 214,-338.1 160,-338.1"/>
<text text-anchor="middle" x="186.8829" y="-351.9" font-family="Times,serif" font-size="14.00" fill="#000000">region</text>
</g>
<!-- region&#45;&gt;manta -->
<g id="edge4" class="edge">
<title>region&#45;&gt;manta</title>
<path fill="none" stroke="#000000" d="M181.6655,-338.0556C178.8698,-328.5988 175.3839,-316.8074 172.2492,-306.2037"/>
<polygon fill="#000000" stroke="#000000" points="175.5767,-305.1135 169.3852,-296.5161 168.8639,-307.0981 175.5767,-305.1135"/>
</g>
<!-- region&#45;&gt;strelka -->
<g id="edge5" class="edge">
<title>region&#45;&gt;strelka</title>
<path fill="none" stroke="#000000" d="M193.1518,-337.91C201.9587,-311.8693 218.2349,-263.7426 228.569,-233.1862"/>
<polygon fill="#000000" stroke="#000000" points="231.9381,-234.1488 231.8264,-223.5545 225.3071,-231.9061 231.9381,-234.1488"/>
</g>
<!-- exome -->
<g id="node6" class="node">
<title>exome</title>
<polygon fill="#94ddf4" stroke="#000000" points="88,-338.1 88,-374.1 142,-374.1 142,-338.1 88,-338.1"/>
<text text-anchor="middle" x="114.6599" y="-351.9" font-family="Times,serif" font-size="14.00" fill="#000000">exome</text>
</g>
<!-- exome&#45;&gt;manta -->
<g id="edge6" class="edge">
<title>exome&#45;&gt;manta</title>
<path fill="none" stroke="#000000" d="M126.3647,-338.0556C132.505,-328.3063 140.2081,-316.0758 147.0432,-305.2233"/>
<polygon fill="#000000" stroke="#000000" points="150.1594,-306.843 152.5271,-296.5161 144.2362,-303.1124 150.1594,-306.843"/>
</g>
<!-- exome&#45;&gt;strelka -->
<g id="edge7" class="edge">
<title>exome&#45;&gt;strelka</title>
<path fill="none" stroke="#000000" d="M112.6943,-337.9482C111.0403,-317.1034 111.4748,-282.8261 128,-259.8 145.2564,-235.7551 176.159,-221.7597 200.8254,-213.9865"/>
<polygon fill="#000000" stroke="#000000" points="202.0016,-217.289 210.6137,-211.1179 200.0329,-210.5716 202.0016,-217.289"/>
</g>
<!-- nbam -->
<g id="node7" class="node">
<title>nbam</title>
<polygon fill="#94ddf4" stroke="#000000" points="232,-338.1 232,-374.1 286,-374.1 286,-338.1 232,-338.1"/>
<text text-anchor="middle" x="258.5526" y="-351.9" font-family="Times,serif" font-size="14.00" fill="#000000">nbam</text>
</g>
<!-- nbam&#45;&gt;manta -->
<g id="edge8" class="edge">
<title>nbam&#45;&gt;manta</title>
<path fill="none" stroke="#000000" d="M249.6366,-338.0907C243.2973,-327.301 234.072,-313.9478 223,-304.8 216.415,-299.3594 208.5339,-294.8122 200.7084,-291.108"/>
<polygon fill="#000000" stroke="#000000" points="201.8473,-287.7865 191.2814,-287.0042 199.0533,-294.2048 201.8473,-287.7865"/>
</g>
<!-- nbam&#45;&gt;strelka -->
<g id="edge9" class="edge">
<title>nbam&#45;&gt;strelka</title>
<path fill="none" stroke="#000000" d="M256.4669,-337.91C252.8563,-311.9825 246.1968,-264.1606 241.939,-233.5858"/>
<polygon fill="#000000" stroke="#000000" points="245.388,-232.9762 240.5421,-223.5545 238.4549,-233.9417 245.388,-232.9762"/>
</g>
<!-- ref -->
<g id="node8" class="node">
<title>ref</title>
<polygon fill="#94ddf4" stroke="#000000" points="16,-338.1 16,-374.1 70,-374.1 70,-338.1 16,-338.1"/>
<text text-anchor="middle" x="42.7679" y="-351.9" font-family="Times,serif" font-size="14.00" fill="#000000">ref</text>
</g>
<!-- ref&#45;&gt;manta -->
<g id="edge10" class="edge">
<title>ref&#45;&gt;manta</title>
<path fill="none" stroke="#000000" d="M51.9915,-337.6121C58.1909,-326.6423 67.3997,-313.2678 79,-304.8 92.9286,-294.6326 110.86,-288.2942 126.6601,-284.3785"/>
<polygon fill="#000000" stroke="#000000" points="127.6769,-287.7376 136.6718,-282.1392 126.149,-280.9064 127.6769,-287.7376"/>
</g>
<!-- ref&#45;&gt;strelka -->
<g id="edge11" class="edge">
<title>ref&#45;&gt;strelka</title>
<path fill="none" stroke="#000000" d="M51.7019,-337.8177C62.6498,-316.5285 83.2949,-281.5164 110,-259.8 136.9533,-237.8818 174.0264,-223.3886 201.3388,-214.8961"/>
<polygon fill="#000000" stroke="#000000" points="202.3412,-218.2496 210.9228,-212.0361 200.3395,-211.5418 202.3412,-218.2496"/>
</g>
<!-- tbam -->
<g id="node9" class="node">
<title>tbam</title>
<polygon fill="#94ddf4" stroke="#000000" points="304,-338.1 304,-374.1 358,-374.1 358,-338.1 304,-338.1"/>
<text text-anchor="middle" x="330.9979" y="-351.9" font-family="Times,serif" font-size="14.00" fill="#000000">tbam</text>
</g>
<!-- tbam&#45;&gt;manta -->
<g id="edge12" class="edge">
<title>tbam&#45;&gt;manta</title>
<path fill="none" stroke="#000000" d="M322.7137,-337.9408C316.6316,-326.6668 307.2925,-312.8404 295,-304.8 279.8432,-294.8861 234.4602,-287.2092 201.35,-282.7274"/>
<polygon fill="#000000" stroke="#000000" points="201.4543,-279.2114 191.085,-281.3858 200.5471,-286.1524 201.4543,-279.2114"/>
</g>
<!-- tbam&#45;&gt;strelka -->
<g id="edge13" class="edge">
<title>tbam&#45;&gt;strelka</title>
<path fill="none" stroke="#000000" d="M319.782,-337.91C303.5828,-311.6428 273.525,-262.9039 254.7086,-232.3931"/>
<polygon fill="#000000" stroke="#000000" points="257.486,-230.2288 249.2578,-223.5545 251.5279,-233.9033 257.486,-230.2288"/>
</g>
<!-- tbam&#45;&gt;strelkaIndel -->
<g id="edge14" class="edge">
<title>tbam&#45;&gt;strelkaIndel</title>
<path fill="none" stroke="#000000" d="M325.0261,-337.7855C312.2681,-298.6726 282.2906,-206.7691 267.1266,-160.2799"/>
<polygon fill="#000000" stroke="#000000" points="270.3826,-158.9753 263.9541,-150.5537 263.7277,-161.1461 270.3826,-158.9753"/>
</g>
<!-- tbam&#45;&gt;strelkaSNV -->
<g id="edge15" class="edge">
<title>tbam&#45;&gt;strelkaSNV</title>
<path fill="none" stroke="#000000" d="M336.9167,-337.8747C340.4409,-326.2486 344.6684,-310.7892 347,-296.8 354.8637,-249.6194 357.1482,-193.94 357.7866,-160.9614"/>
<polygon fill="#000000" stroke="#000000" points="361.2903,-160.7458 357.9457,-150.6927 354.2911,-160.6373 361.2903,-160.7458"/>
</g>
</g>
</svg>

