<?xml version="1.0" encoding="UTF-8" standalone="no"?>
<!DOCTYPE svg PUBLIC "-//W3C//DTD SVG 1.1//EN"
 "http://www.w3.org/Graphics/SVG/1.1/DTD/svg11.dtd">
<!-- Generated by graphviz version 2.40.1 (20161225.0304)
 -->
<!-- Title: G Pages: 1 -->
<svg width="740pt" height="472pt"
 viewBox="0.00 0.00 740.00 471.60" xmlns="http://www.w3.org/2000/svg" xmlns:xlink="http://www.w3.org/1999/xlink">
<g id="graph0" class="graph" transform="scale(1 1) rotate(0) translate(4 467.6)">
<title>G</title>
<polygon fill="#eeeeee" stroke="transparent" points="-4,4 -4,-467.6 736,-467.6 736,4 -4,4"/>
<g id="clust1" class="cluster">
<title>cluster_inputs</title>
<polygon fill="#eeeeee" stroke="#000000" stroke-dasharray="5,2" points="8,-377.8 8,-455.6 724,-455.6 724,-377.8 8,-377.8"/>
<text text-anchor="middle" x="667.9856" y="-386" font-family="Times,serif" font-size="14.00" fill="#000000">Workflow Inputs</text>
</g>
<g id="clust2" class="cluster">
<title>cluster_outputs</title>
<polygon fill="#eeeeee" stroke="#000000" stroke-dasharray="5,2" points="202,-8 202,-85.8 564,-85.8 564,-8 202,-8"/>
<text text-anchor="middle" x="503.3173" y="-16.2" font-family="Times,serif" font-size="14.00" fill="#000000">Workflow Outputs</text>
</g>
<!-- bwaAlign -->
<g id="node1" class="node">
<title>bwaAlign</title>
<polygon fill="#f3cea1" stroke="#000000" points="246.3955,-333.3 246.3955,-369.3 317.6045,-369.3 317.6045,-333.3 246.3955,-333.3"/>
<text text-anchor="middle" x="282" y="-347.1" font-family="Times,serif" font-size="14.00" fill="#000000">bwaAlign</text>
</g>
<!-- BaseRecal -->
<g id="node2" class="node">
<title>BaseRecal</title>
<polygon fill="#f3cea1" stroke="#000000" points="278.4593,-260.3 278.4593,-296.3 353.5407,-296.3 353.5407,-260.3 278.4593,-260.3"/>
<text text-anchor="middle" x="316" y="-274.1" font-family="Times,serif" font-size="14.00" fill="#000000">BaseRecal</text>
</g>
<!-- bwaAlign&#45;&gt;BaseRecal -->
<g id="edge1" class="edge">
<title>bwaAlign&#45;&gt;BaseRecal</title>
<path fill="none" stroke="#000000" d="M290.4045,-333.2551C294.2868,-324.9196 298.9806,-314.8416 303.283,-305.6042"/>
<polygon fill="#000000" stroke="#000000" points="306.525,-306.9331 307.5744,-296.3904 300.1795,-303.9776 306.525,-306.9331"/>
</g>
<!-- HaplotypeCaller -->
<g id="node3" class="node">
<title>HaplotypeCaller</title>
<polygon fill="#fafad2" stroke="#000000" points="430.7377,-187.3 430.7377,-223.3 539.2623,-223.3 539.2623,-187.3 430.7377,-187.3"/>
<text text-anchor="middle" x="485" y="-201.1" font-family="Times,serif" font-size="14.00" fill="#000000">HaplotypeCaller</text>
</g>
<!-- BaseRecal&#45;&gt;HaplotypeCaller -->
<g id="edge3" class="edge">
<title>BaseRecal&#45;&gt;HaplotypeCaller</title>
<path fill="none" stroke="#000000" d="M353.9269,-261.9174C377.5022,-251.734 408.1112,-238.5123 433.8203,-227.4072"/>
<polygon fill="#000000" stroke="#000000" points="435.256,-230.5997 443.0483,-223.4211 432.4802,-224.1735 435.256,-230.5997"/>
</g>
<!-- BAM -->
<g id="node15" class="node">
<title>BAM</title>
<polygon fill="#94ddf4" stroke="#000000" points="210,-41.3 210,-77.3 264,-77.3 264,-41.3 210,-41.3"/>
<text text-anchor="middle" x="236.9439" y="-55.1" font-family="Times,serif" font-size="14.00" fill="#000000">BAM</text>
</g>
<!-- BaseRecal&#45;&gt;BAM -->
<g id="edge20" class="edge">
<title>BaseRecal&#45;&gt;BAM</title>
<path fill="none" stroke="#000000" d="M309.4004,-260.0049C295.5409,-221.5844 263.338,-132.313 246.956,-86.8994"/>
<polygon fill="#000000" stroke="#000000" points="250.211,-85.6081 243.5253,-77.389 243.6263,-87.9834 250.211,-85.6081"/>
</g>
<!-- flagstat -->
<g id="node17" class="node">
<title>flagstat</title>
<polygon fill="#94ddf4" stroke="#000000" points="282.3969,-41.3 282.3969,-77.3 339.6031,-77.3 339.6031,-41.3 282.3969,-41.3"/>
<text text-anchor="middle" x="311" y="-55.1" font-family="Times,serif" font-size="14.00" fill="#000000">flagstat</text>
</g>
<!-- BaseRecal&#45;&gt;flagstat -->
<g id="edge22" class="edge">
<title>BaseRecal&#45;&gt;flagstat</title>
<path fill="none" stroke="#000000" d="M315.5823,-260.0049C314.7088,-221.7458 312.6841,-133.0623 311.6432,-87.4742"/>
<polygon fill="#000000" stroke="#000000" points="315.1404,-87.3065 311.413,-77.389 308.1423,-87.4664 315.1404,-87.3065"/>
</g>
<!-- stats -->
<g id="node19" class="node">
<title>stats</title>
<polygon fill="#94ddf4" stroke="#000000" points="358,-41.3 358,-77.3 412,-77.3 412,-41.3 358,-41.3"/>
<text text-anchor="middle" x="384.9425" y="-55.1" font-family="Times,serif" font-size="14.00" fill="#000000">stats</text>
</g>
<!-- BaseRecal&#45;&gt;stats -->
<g id="edge24" class="edge">
<title>BaseRecal&#45;&gt;stats</title>
<path fill="none" stroke="#000000" d="M321.7642,-260.0049C333.8439,-221.6651 361.8778,-132.6879 376.2139,-87.1862"/>
<polygon fill="#000000" stroke="#000000" points="379.6338,-87.9786 379.3007,-77.389 372.9574,-85.8751 379.6338,-87.9786"/>
</g>
<!-- GenotypeGVCFs -->
<g id="node4" class="node">
<title>GenotypeGVCFs</title>
<polygon fill="#fafad2" stroke="#000000" points="394.3983,-114.3 394.3983,-150.3 507.6017,-150.3 507.6017,-114.3 394.3983,-114.3"/>
<text text-anchor="middle" x="451" y="-128.1" font-family="Times,serif" font-size="14.00" fill="#000000">GenotypeGVCFs</text>
</g>
<!-- HaplotypeCaller&#45;&gt;GenotypeGVCFs -->
<g id="edge2" class="edge">
<title>HaplotypeCaller&#45;&gt;GenotypeGVCFs</title>
<path fill="none" stroke="#000000" d="M476.5955,-187.2551C472.7132,-178.9196 468.0194,-168.8416 463.717,-159.6042"/>
<polygon fill="#000000" stroke="#000000" points="466.8205,-157.9776 459.4256,-150.3904 460.475,-160.9331 466.8205,-157.9776"/>
</g>
<!-- gVCF -->
<g id="node18" class="node">
<title>gVCF</title>
<polygon fill="#94ddf4" stroke="#000000" points="502,-41.3 502,-77.3 556,-77.3 556,-41.3 502,-41.3"/>
<text text-anchor="middle" x="528.6129" y="-55.1" font-family="Times,serif" font-size="14.00" fill="#000000">gVCF</text>
</g>
<!-- HaplotypeCaller&#45;&gt;gVCF -->
<g id="edge23" class="edge">
<title>HaplotypeCaller&#45;&gt;gVCF</title>
<path fill="none" stroke="#000000" d="M498.2265,-187.0371C504.9368,-176.8574 512.5827,-163.6685 517,-150.8 524.0442,-130.2788 526.9938,-105.8641 528.2095,-87.4175"/>
<polygon fill="#000000" stroke="#000000" points="531.7104,-87.4915 528.7428,-77.3207 524.7201,-87.1222 531.7104,-87.4915"/>
</g>
<!-- VCF -->
<g id="node16" class="node">
<title>VCF</title>
<polygon fill="#94ddf4" stroke="#000000" points="430,-41.3 430,-77.3 484,-77.3 484,-41.3 430,-41.3"/>
<text text-anchor="middle" x="456.6129" y="-55.1" font-family="Times,serif" font-size="14.00" fill="#000000">VCF</text>
</g>
<!-- GenotypeGVCFs&#45;&gt;VCF -->
<g id="edge21" class="edge">
<title>GenotypeGVCFs&#45;&gt;VCF</title>
<path fill="none" stroke="#000000" d="M452.4831,-114.2551C453.1466,-106.1828 453.9444,-96.4764 454.6837,-87.4817"/>
<polygon fill="#000000" stroke="#000000" points="458.1821,-87.6435 455.5131,-77.3904 451.2056,-87.07 458.1821,-87.6435"/>
</g>
<!-- bedtolist -->
<g id="node5" class="node">
<title>bedtolist</title>
<polygon fill="#fafad2" stroke="#000000" points="452.8892,-333.3 452.8892,-369.3 517.1108,-369.3 517.1108,-333.3 452.8892,-333.3"/>
<text text-anchor="middle" x="485" y="-347.1" font-family="Times,serif" font-size="14.00" fill="#000000">bedtolist</text>
</g>
<!-- bedtolist&#45;&gt;HaplotypeCaller -->
<g id="edge4" class="edge">
<title>bedtolist&#45;&gt;HaplotypeCaller</title>
<path fill="none" stroke="#000000" d="M485,-333.1042C485,-308.1868 485,-263.1938 485,-233.7877"/>
<polygon fill="#000000" stroke="#000000" points="488.5001,-233.7251 485,-223.7251 481.5001,-233.7251 488.5001,-233.7251"/>
</g>
<!-- knowSites -->
<g id="node6" class="node">
<title>knowSites</title>
<polygon fill="#94ddf4" stroke="#000000" points="15.8352,-411.1 15.8352,-447.1 90.1648,-447.1 90.1648,-411.1 15.8352,-411.1"/>
<text text-anchor="middle" x="53" y="-424.9" font-family="Times,serif" font-size="14.00" fill="#000000">knowSites</text>
</g>
<!-- knowSites&#45;&gt;BaseRecal -->
<g id="edge5" class="edge">
<title>knowSites&#45;&gt;BaseRecal</title>
<path fill="none" stroke="#000000" d="M66.3614,-410.7538C74.8125,-400.1077 86.479,-387.0229 99,-377.8 151.9612,-338.7889 222.6595,-309.9054 268.7462,-293.5861"/>
<polygon fill="#000000" stroke="#000000" points="269.9001,-296.8905 278.1918,-290.2953 267.597,-290.2802 269.9001,-296.8905"/>
</g>
<!-- Sample -->
<g id="node7" class="node">
<title>Sample</title>
<polygon fill="#94ddf4" stroke="#000000" points="542.0035,-411.1 542.0035,-447.1 599.9965,-447.1 599.9965,-411.1 542.0035,-411.1"/>
<text text-anchor="middle" x="571" y="-424.9" font-family="Times,serif" font-size="14.00" fill="#000000">Sample</text>
</g>
<!-- Sample&#45;&gt;BaseRecal -->
<g id="edge6" class="edge">
<title>Sample&#45;&gt;BaseRecal</title>
<path fill="none" stroke="#000000" d="M567.4355,-410.9742C562.1893,-389.1674 550.2615,-352.9789 526,-332.8 501.5151,-312.4353 417.748,-295.1945 363.7003,-285.8364"/>
<polygon fill="#000000" stroke="#000000" points="364.0897,-282.3524 353.6445,-284.1265 362.9162,-289.2534 364.0897,-282.3524"/>
</g>
<!-- Sample&#45;&gt;HaplotypeCaller -->
<g id="edge8" class="edge">
<title>Sample&#45;&gt;HaplotypeCaller</title>
<path fill="none" stroke="#000000" d="M569.2741,-410.9259C567.0234,-391.2399 562.233,-359.1212 553,-332.8 540.1315,-296.1148 517.9246,-257.1225 502.4008,-232.0593"/>
<polygon fill="#000000" stroke="#000000" points="505.2976,-230.0908 497.0136,-223.4858 499.3705,-233.8151 505.2976,-230.0908"/>
</g>
<!-- Sample&#45;&gt;GenotypeGVCFs -->
<g id="edge7" class="edge">
<title>Sample&#45;&gt;GenotypeGVCFs</title>
<path fill="none" stroke="#000000" d="M574.5747,-410.8555C581.9567,-367.8447 594.5457,-258.3473 548,-186.8 539.3592,-173.5179 526.2962,-163.1519 512.5323,-155.197"/>
<polygon fill="#000000" stroke="#000000" points="513.8923,-151.9547 503.4257,-150.3112 510.5829,-158.1231 513.8923,-151.9547"/>
</g>
<!-- Ref -->
<g id="node8" class="node">
<title>Ref</title>
<polygon fill="#94ddf4" stroke="#000000" points="398,-411.1 398,-447.1 452,-447.1 452,-411.1 398,-411.1"/>
<text text-anchor="middle" x="424.6059" y="-424.9" font-family="Times,serif" font-size="14.00" fill="#000000">Ref</text>
</g>
<!-- Ref&#45;&gt;bwaAlign -->
<g id="edge13" class="edge">
<title>Ref&#45;&gt;bwaAlign</title>
<path fill="none" stroke="#000000" d="M416.9989,-410.9532C410.984,-399.5339 401.6121,-385.5394 389,-377.8 367.5714,-364.6503 357.3911,-375.8968 333,-369.8 331.1154,-369.3289 329.2034,-368.8137 327.2807,-368.2644"/>
<polygon fill="#000000" stroke="#000000" points="328.2427,-364.8984 317.6548,-365.2819 326.1709,-371.5848 328.2427,-364.8984"/>
</g>
<!-- Ref&#45;&gt;BaseRecal -->
<g id="edge9" class="edge">
<title>Ref&#45;&gt;BaseRecal</title>
<path fill="none" stroke="#000000" d="M415.2089,-410.7615C408.831,-400.1182 399.715,-387.0335 389,-377.8 382.9773,-372.61 378.8783,-375.153 373,-369.8 353.2595,-351.8236 337.8197,-325.4686 328.0175,-305.6551"/>
<polygon fill="#000000" stroke="#000000" points="331.1255,-304.0412 323.6642,-296.5193 324.8063,-307.0524 331.1255,-304.0412"/>
</g>
<!-- Ref&#45;&gt;HaplotypeCaller -->
<g id="edge11" class="edge">
<title>Ref&#45;&gt;HaplotypeCaller</title>
<path fill="none" stroke="#000000" d="M427.9483,-410.8543C431.2463,-391.3804 437.0482,-359.6929 444,-332.8 452.9903,-298.0211 466.0616,-258.7845 475.0139,-233.1368"/>
<polygon fill="#000000" stroke="#000000" points="478.3225,-234.2785 478.3421,-223.6837 471.7198,-231.9538 478.3225,-234.2785"/>
</g>
<!-- Ref&#45;&gt;GenotypeGVCFs -->
<g id="edge10" class="edge">
<title>Ref&#45;&gt;GenotypeGVCFs</title>
<path fill="none" stroke="#000000" d="M421.6572,-410.8021C414.854,-369.8942 401.6833,-268.2319 422,-186.8 424.3626,-177.3303 428.7139,-167.7016 433.34,-159.2252"/>
<polygon fill="#000000" stroke="#000000" points="436.3878,-160.9464 438.3866,-150.5418 430.3357,-157.429 436.3878,-160.9464"/>
</g>
<!-- Ref&#45;&gt;bedtolist -->
<g id="edge12" class="edge">
<title>Ref&#45;&gt;bedtolist</title>
<path fill="none" stroke="#000000" d="M437.128,-410.6566C443.8711,-400.7076 452.5805,-388.3422 461,-377.8 461.1356,-377.6302 461.2719,-377.4602 461.409,-377.2898"/>
<polygon fill="#000000" stroke="#000000" points="464.1423,-379.4778 467.9147,-369.5774 458.7917,-374.9644 464.1423,-379.4778"/>
</g>
<!-- downsampling -->
<g id="node9" class="node">
<title>downsampling</title>
<polygon fill="#94ddf4" stroke="#000000" points="617.7812,-411.1 617.7812,-447.1 716.2188,-447.1 716.2188,-411.1 617.7812,-411.1"/>
<text text-anchor="middle" x="667" y="-424.9" font-family="Times,serif" font-size="14.00" fill="#000000">downsampling</text>
</g>
<!-- downsampling&#45;&gt;HaplotypeCaller -->
<g id="edge14" class="edge">
<title>downsampling&#45;&gt;HaplotypeCaller</title>
<path fill="none" stroke="#000000" d="M655.1722,-411.0306C634.0174,-379.2069 587.631,-311.6273 542,-259.8 533.0762,-249.6645 522.5675,-239.2489 513.0199,-230.2735"/>
<polygon fill="#000000" stroke="#000000" points="515.3324,-227.6448 505.6175,-223.4172 510.5756,-232.7803 515.3324,-227.6448"/>
</g>
<!-- bed -->
<g id="node10" class="node">
<title>bed</title>
<polygon fill="#94ddf4" stroke="#000000" points="470,-411.1 470,-447.1 524,-447.1 524,-411.1 470,-411.1"/>
<text text-anchor="middle" x="496.6073" y="-424.9" font-family="Times,serif" font-size="14.00" fill="#000000">bed</text>
</g>
<!-- bed&#45;&gt;bedtolist -->
<g id="edge15" class="edge">
<title>bed&#45;&gt;bedtolist</title>
<path fill="none" stroke="#000000" d="M494.2168,-411.0556C492.7732,-401.6963 490.9769,-390.0503 489.3545,-379.532"/>
<polygon fill="#000000" stroke="#000000" points="492.7932,-378.8656 487.8097,-369.5161 485.8751,-379.9328 492.7932,-378.8656"/>
</g>
<!-- FQ1 -->
<g id="node11" class="node">
<title>FQ1</title>
<polygon fill="#94ddf4" stroke="#000000" points="326,-411.1 326,-447.1 380,-447.1 380,-411.1 326,-411.1"/>
<text text-anchor="middle" x="352.9446" y="-424.9" font-family="Times,serif" font-size="14.00" fill="#000000">FQ1</text>
</g>
<!-- FQ1&#45;&gt;bwaAlign -->
<g id="edge16" class="edge">
<title>FQ1&#45;&gt;bwaAlign</title>
<path fill="none" stroke="#000000" d="M342.2512,-410.9682C335.6682,-400.6492 326.6682,-387.8242 317,-377.8 316.5701,-377.3543 316.1322,-376.9102 315.6874,-376.468"/>
<polygon fill="#000000" stroke="#000000" points="317.7782,-373.6399 308.0131,-369.5297 313.0837,-378.8324 317.7782,-373.6399"/>
</g>
<!-- FQ2 -->
<g id="node12" class="node">
<title>FQ2</title>
<polygon fill="#94ddf4" stroke="#000000" points="254,-411.1 254,-447.1 308,-447.1 308,-411.1 254,-411.1"/>
<text text-anchor="middle" x="280.9446" y="-424.9" font-family="Times,serif" font-size="14.00" fill="#000000">FQ2</text>
</g>
<!-- FQ2&#45;&gt;bwaAlign -->
<g id="edge17" class="edge">
<title>FQ2&#45;&gt;bwaAlign</title>
<path fill="none" stroke="#000000" d="M281.2319,-411.0556C281.3522,-401.6963 281.5019,-390.0503 281.6371,-379.532"/>
<polygon fill="#000000" stroke="#000000" points="285.1369,-379.5603 281.7659,-369.5161 278.1375,-379.4702 285.1369,-379.5603"/>
</g>
<!-- RG -->
<g id="node13" class="node">
<title>RG</title>
<polygon fill="#94ddf4" stroke="#000000" points="182,-411.1 182,-447.1 236,-447.1 236,-411.1 182,-411.1"/>
<text text-anchor="middle" x="208.7216" y="-424.9" font-family="Times,serif" font-size="14.00" fill="#000000">RG</text>
</g>
<!-- RG&#45;&gt;bwaAlign -->
<g id="edge18" class="edge">
<title>RG&#45;&gt;bwaAlign</title>
<path fill="none" stroke="#000000" d="M219.6497,-410.8713C226.1997,-400.5201 235.1997,-387.6951 245,-377.8 245.5421,-377.2527 246.0966,-376.7086 246.6617,-376.1683"/>
<polygon fill="#000000" stroke="#000000" points="249.2031,-378.5973 254.4675,-369.4029 244.6184,-373.3076 249.2031,-378.5973"/>
</g>
<!-- threads -->
<g id="node14" class="node">
<title>threads</title>
<polygon fill="#94ddf4" stroke="#000000" points="107.7875,-411.1 107.7875,-447.1 164.2125,-447.1 164.2125,-411.1 107.7875,-411.1"/>
<text text-anchor="middle" x="136" y="-424.9" font-family="Times,serif" font-size="14.00" fill="#000000">threads</text>
</g>
<!-- threads&#45;&gt;bwaAlign -->
<g id="edge19" class="edge">
<title>threads&#45;&gt;bwaAlign</title>
<path fill="none" stroke="#000000" d="M144.7404,-411.0981C151.0834,-399.8886 160.7001,-386.0751 173,-377.8 183.4737,-370.7535 211.2918,-364.048 236.202,-359.1451"/>
<polygon fill="#000000" stroke="#000000" points="237.1114,-362.5349 246.2796,-357.2251 235.8012,-355.6586 237.1114,-362.5349"/>
</g>
</g>
</svg>

