<?xml version="1.0" encoding="UTF-8" standalone="no"?>
<!DOCTYPE svg PUBLIC "-//W3C//DTD SVG 1.1//EN"
 "http://www.w3.org/Graphics/SVG/1.1/DTD/svg11.dtd">
<!-- Generated by graphviz version 2.40.1 (20161225.0304)
 -->
<!-- Title: G Pages: 1 -->
<svg width="156pt" height="326pt"
 viewBox="0.00 0.00 156.00 325.60" xmlns="http://www.w3.org/2000/svg" xmlns:xlink="http://www.w3.org/1999/xlink">
<g id="graph0" class="graph" transform="scale(1 1) rotate(0) translate(4 321.6)">
<title>G</title>
<polygon fill="#eeeeee" stroke="transparent" points="-4,4 -4,-321.6 152,-321.6 152,4 -4,4"/>
<g id="clust1" class="cluster">
<title>cluster_inputs</title>
<polygon fill="#eeeeee" stroke="#000000" stroke-dasharray="5,2" points="8,-231.8 8,-309.6 120,-309.6 120,-231.8 8,-231.8"/>
<text text-anchor="middle" x="63.9856" y="-240" font-family="Times,serif" font-size="14.00" fill="#000000">Workflow Inputs</text>
</g>
<g id="clust2" class="cluster">
<title>cluster_outputs</title>
<polygon fill="#eeeeee" stroke="#000000" stroke-dasharray="5,2" points="19,-8 19,-85.8 140,-85.8 140,-8 19,-8"/>
<text text-anchor="middle" x="79.3173" y="-16.2" font-family="Times,serif" font-size="14.00" fill="#000000">Workflow Outputs</text>
</g>
<!-- bgzip -->
<g id="node1" class="node">
<title>bgzip</title>
<polygon fill="#fafad2" stroke="#000000" points="37,-187.3 37,-223.3 91,-223.3 91,-187.3 37,-187.3"/>
<text text-anchor="middle" x="63.5526" y="-201.1" font-family="Times,serif" font-size="14.00" fill="#000000">bgzip</text>
</g>
<!-- index -->
<g id="node2" class="node">
<title>index</title>
<polygon fill="#fafad2" stroke="#000000" points="37,-114.3 37,-150.3 91,-150.3 91,-114.3 37,-114.3"/>
<text text-anchor="middle" x="63.5526" y="-128.1" font-family="Times,serif" font-size="14.00" fill="#000000">index</text>
</g>
<!-- bgzip&#45;&gt;index -->
<g id="edge1" class="edge">
<title>bgzip&#45;&gt;index</title>
<path fill="none" stroke="#000000" d="M64,-187.2551C64,-179.1828 64,-169.4764 64,-160.4817"/>
<polygon fill="#000000" stroke="#000000" points="67.5001,-160.3903 64,-150.3904 60.5001,-160.3904 67.5001,-160.3903"/>
</g>
<!-- tbi -->
<g id="node4" class="node">
<title>tbi</title>
<polygon fill="#94ddf4" stroke="#000000" points="37,-41.3 37,-77.3 91,-77.3 91,-41.3 37,-41.3"/>
<text text-anchor="middle" x="63.8906" y="-55.1" font-family="Times,serif" font-size="14.00" fill="#000000">tbi</text>
</g>
<!-- index&#45;&gt;tbi -->
<g id="edge3" class="edge">
<title>index&#45;&gt;tbi</title>
<path fill="none" stroke="#000000" d="M64,-114.2551C64,-106.1828 64,-96.4764 64,-87.4817"/>
<polygon fill="#000000" stroke="#000000" points="67.5001,-87.3903 64,-77.3904 60.5001,-87.3904 67.5001,-87.3903"/>
</g>
<!-- vcf -->
<g id="node3" class="node">
<title>vcf</title>
<polygon fill="#94ddf4" stroke="#000000" points="37,-265.1 37,-301.1 91,-301.1 91,-265.1 37,-265.1"/>
<text text-anchor="middle" x="63.9376" y="-278.9" font-family="Times,serif" font-size="14.00" fill="#000000">vcf</text>
</g>
<!-- vcf&#45;&gt;bgzip -->
<g id="edge2" class="edge">
<title>vcf&#45;&gt;bgzip</title>
<path fill="none" stroke="#000000" d="M64,-265.0556C64,-255.6963 64,-244.0503 64,-233.532"/>
<polygon fill="#000000" stroke="#000000" points="67.5001,-233.516 64,-223.5161 60.5001,-233.5161 67.5001,-233.516"/>
</g>
</g>
</svg>

