<?xml version="1.0" encoding="UTF-8" standalone="no"?>
<!DOCTYPE svg PUBLIC "-//W3C//DTD SVG 1.1//EN"
 "http://www.w3.org/Graphics/SVG/1.1/DTD/svg11.dtd">
<!-- Generated by graphviz version 2.40.1 (20161225.0304)
 -->
<!-- Title: G Pages: 1 -->
<svg width="384pt" height="472pt"
 viewBox="0.00 0.00 384.00 471.60" xmlns="http://www.w3.org/2000/svg" xmlns:xlink="http://www.w3.org/1999/xlink">
<g id="graph0" class="graph" transform="scale(1 1) rotate(0) translate(4 467.6)">
<title>G</title>
<polygon fill="#eeeeee" stroke="transparent" points="-4,4 -4,-467.6 380,-467.6 380,4 -4,4"/>
<g id="clust1" class="cluster">
<title>cluster_inputs</title>
<polygon fill="#eeeeee" stroke="#000000" stroke-dasharray="5,2" points="8,-377.8 8,-455.6 368,-455.6 368,-377.8 8,-377.8"/>
<text text-anchor="middle" x="311.9856" y="-386" font-family="Times,serif" font-size="14.00" fill="#000000">Workflow Inputs</text>
</g>
<g id="clust2" class="cluster">
<title>cluster_outputs</title>
<polygon fill="#eeeeee" stroke="#000000" stroke-dasharray="5,2" points="182,-8 182,-85.8 303,-85.8 303,-8 182,-8"/>
<text text-anchor="middle" x="242.3173" y="-16.2" font-family="Times,serif" font-size="14.00" fill="#000000">Workflow Outputs</text>
</g>
<!-- decompose -->
<g id="node1" class="node">
<title>decompose</title>
<polygon fill="#fafad2" stroke="#000000" points="113.5105,-333.3 113.5105,-369.3 192.4895,-369.3 192.4895,-333.3 113.5105,-333.3"/>
<text text-anchor="middle" x="153" y="-347.1" font-family="Times,serif" font-size="14.00" fill="#000000">decompose</text>
</g>
<!-- readcount -->
<g id="node2" class="node">
<title>readcount</title>
<polygon fill="#fafad2" stroke="#000000" points="51.4025,-260.3 51.4025,-296.3 122.5975,-296.3 122.5975,-260.3 51.4025,-260.3"/>
<text text-anchor="middle" x="87" y="-274.1" font-family="Times,serif" font-size="14.00" fill="#000000">readcount</text>
</g>
<!-- decompose&#45;&gt;readcount -->
<g id="edge1" class="edge">
<title>decompose&#45;&gt;readcount</title>
<path fill="none" stroke="#000000" d="M136.6854,-333.2551C128.6733,-324.3932 118.8804,-313.5616 110.1132,-303.8646"/>
<polygon fill="#000000" stroke="#000000" points="112.6584,-301.4609 103.3557,-296.3904 107.4659,-306.1554 112.6584,-301.4609"/>
</g>
<!-- readcount_annotator_snv -->
<g id="node4" class="node">
<title>readcount_annotator_snv</title>
<polygon fill="#fafad2" stroke="#000000" points="110.2447,-187.3 110.2447,-223.3 267.7553,-223.3 267.7553,-187.3 110.2447,-187.3"/>
<text text-anchor="middle" x="189" y="-201.1" font-family="Times,serif" font-size="14.00" fill="#000000">readcount_annotator_snv</text>
</g>
<!-- decompose&#45;&gt;readcount_annotator_snv -->
<g id="edge4" class="edge">
<title>decompose&#45;&gt;readcount_annotator_snv</title>
<path fill="none" stroke="#000000" d="M157.4866,-333.1042C163.6307,-308.1868 174.7248,-263.1938 181.9756,-233.7877"/>
<polygon fill="#000000" stroke="#000000" points="185.4609,-234.2723 184.4568,-223.7251 178.6645,-232.5964 185.4609,-234.2723"/>
</g>
<!-- readcount_annotator_indel -->
<g id="node3" class="node">
<title>readcount_annotator_indel</title>
<polygon fill="#fafad2" stroke="#000000" points="158.9691,-114.3 158.9691,-150.3 325.0309,-150.3 325.0309,-114.3 158.9691,-114.3"/>
<text text-anchor="middle" x="242" y="-128.1" font-family="Times,serif" font-size="14.00" fill="#000000">readcount_annotator_indel</text>
</g>
<!-- readcount&#45;&gt;readcount_annotator_indel -->
<g id="edge2" class="edge">
<title>readcount&#45;&gt;readcount_annotator_indel</title>
<path fill="none" stroke="#000000" d="M84.7787,-260.0351C83.3645,-239.8946 84.2904,-207.5951 101,-186.8 113.5159,-171.224 131.0588,-160.0923 149.5316,-152.139"/>
<polygon fill="#000000" stroke="#000000" points="150.9669,-155.3346 158.9544,-148.3739 148.3696,-148.8343 150.9669,-155.3346"/>
</g>
<!-- readcount&#45;&gt;readcount_annotator_snv -->
<g id="edge5" class="edge">
<title>readcount&#45;&gt;readcount_annotator_snv</title>
<path fill="none" stroke="#000000" d="M112.2135,-260.2551C125.2088,-250.9545 141.2355,-239.4844 155.2796,-229.4332"/>
<polygon fill="#000000" stroke="#000000" points="157.6281,-232.0565 163.7231,-223.3904 153.5541,-226.3641 157.6281,-232.0565"/>
</g>
<!-- outvcf -->
<g id="node10" class="node">
<title>outvcf</title>
<polygon fill="#94ddf4" stroke="#000000" points="215,-41.3 215,-77.3 269,-77.3 269,-41.3 215,-41.3"/>
<text text-anchor="middle" x="241.8829" y="-55.1" font-family="Times,serif" font-size="14.00" fill="#000000">outvcf</text>
</g>
<!-- readcount_annotator_indel&#45;&gt;outvcf -->
<g id="edge14" class="edge">
<title>readcount_annotator_indel&#45;&gt;outvcf</title>
<path fill="none" stroke="#000000" d="M242,-114.2551C242,-106.1828 242,-96.4764 242,-87.4817"/>
<polygon fill="#000000" stroke="#000000" points="245.5001,-87.3903 242,-77.3904 238.5001,-87.3904 245.5001,-87.3903"/>
</g>
<!-- readcount_annotator_snv&#45;&gt;readcount_annotator_indel -->
<g id="edge3" class="edge">
<title>readcount_annotator_snv&#45;&gt;readcount_annotator_indel</title>
<path fill="none" stroke="#000000" d="M202.1011,-187.2551C208.344,-178.6564 215.9332,-168.2034 222.8099,-158.7316"/>
<polygon fill="#000000" stroke="#000000" points="225.823,-160.5388 228.8659,-150.3904 220.1585,-156.4262 225.823,-160.5388"/>
</g>
<!-- vcf -->
<g id="node5" class="node">
<title>vcf</title>
<polygon fill="#94ddf4" stroke="#000000" points="160,-411.1 160,-447.1 214,-447.1 214,-411.1 160,-411.1"/>
<text text-anchor="middle" x="186.9376" y="-424.9" font-family="Times,serif" font-size="14.00" fill="#000000">vcf</text>
</g>
<!-- vcf&#45;&gt;decompose -->
<g id="edge6" class="edge">
<title>vcf&#45;&gt;decompose</title>
<path fill="none" stroke="#000000" d="M179.1143,-411.0556C174.9389,-401.5013 169.7221,-389.564 165.0512,-378.8761"/>
<polygon fill="#000000" stroke="#000000" points="168.1724,-377.2777 160.9608,-369.5161 161.7582,-380.0809 168.1724,-377.2777"/>
</g>
<!-- bam -->
<g id="node6" class="node">
<title>bam</title>
<polygon fill="#94ddf4" stroke="#000000" points="16,-411.1 16,-447.1 70,-447.1 70,-411.1 16,-411.1"/>
<text text-anchor="middle" x="42.5526" y="-424.9" font-family="Times,serif" font-size="14.00" fill="#000000">bam</text>
</g>
<!-- bam&#45;&gt;readcount -->
<g id="edge7" class="edge">
<title>bam&#45;&gt;readcount</title>
<path fill="none" stroke="#000000" d="M48.3074,-410.91C55.9055,-384.8693 69.9478,-336.7426 78.8634,-306.1862"/>
<polygon fill="#000000" stroke="#000000" points="82.2326,-307.1346 81.6737,-296.5545 75.5128,-305.1739 82.2326,-307.1346"/>
</g>
<!-- ref -->
<g id="node7" class="node">
<title>ref</title>
<polygon fill="#94ddf4" stroke="#000000" points="88,-411.1 88,-447.1 142,-447.1 142,-411.1 88,-411.1"/>
<text text-anchor="middle" x="114.7679" y="-424.9" font-family="Times,serif" font-size="14.00" fill="#000000">ref</text>
</g>
<!-- ref&#45;&gt;readcount -->
<g id="edge8" class="edge">
<title>ref&#45;&gt;readcount</title>
<path fill="none" stroke="#000000" d="M111.6225,-410.91C106.8084,-384.9825 97.929,-337.1606 92.252,-306.5858"/>
<polygon fill="#000000" stroke="#000000" points="95.6563,-305.7475 90.3894,-296.5545 88.7739,-307.0254 95.6563,-305.7475"/>
</g>
<!-- sample -->
<g id="node8" class="node">
<title>sample</title>
<polygon fill="#94ddf4" stroke="#000000" points="232.1725,-411.1 232.1725,-447.1 287.8275,-447.1 287.8275,-411.1 232.1725,-411.1"/>
<text text-anchor="middle" x="260" y="-424.9" font-family="Times,serif" font-size="14.00" fill="#000000">sample</text>
</g>
<!-- sample&#45;&gt;readcount -->
<g id="edge9" class="edge">
<title>sample&#45;&gt;readcount</title>
<path fill="none" stroke="#000000" d="M252.7173,-410.9799C243.4423,-389.8466 225.6138,-354.9844 201,-332.8 181.2523,-315.0014 154.6542,-301.8408 132.117,-292.9157"/>
<polygon fill="#000000" stroke="#000000" points="133.3296,-289.6324 122.7386,-289.3488 130.8411,-296.1752 133.3296,-289.6324"/>
</g>
<!-- sample&#45;&gt;readcount_annotator_indel -->
<g id="edge10" class="edge">
<title>sample&#45;&gt;readcount_annotator_indel</title>
<path fill="none" stroke="#000000" d="M265.4936,-411.0066C277.0137,-370.0934 300.7478,-267.7263 277,-186.8 274.133,-177.03 268.9155,-167.3532 263.3689,-158.9259"/>
<polygon fill="#000000" stroke="#000000" points="266.1652,-156.8175 257.5544,-150.6446 260.4363,-160.8399 266.1652,-156.8175"/>
</g>
<!-- sample&#45;&gt;readcount_annotator_snv -->
<g id="edge11" class="edge">
<title>sample&#45;&gt;readcount_annotator_snv</title>
<path fill="none" stroke="#000000" d="M254.1898,-410.7855C241.7813,-371.6726 212.6251,-279.7691 197.8765,-233.2799"/>
<polygon fill="#000000" stroke="#000000" points="201.1511,-232.0271 194.7909,-223.5537 194.4788,-234.1439 201.1511,-232.0271"/>
</g>
<!-- ntype -->
<g id="node9" class="node">
<title>ntype</title>
<polygon fill="#94ddf4" stroke="#000000" points="306,-411.1 306,-447.1 360,-447.1 360,-411.1 306,-411.1"/>
<text text-anchor="middle" x="332.5526" y="-424.9" font-family="Times,serif" font-size="14.00" fill="#000000">ntype</text>
</g>
<!-- ntype&#45;&gt;readcount_annotator_indel -->
<g id="edge12" class="edge">
<title>ntype&#45;&gt;readcount_annotator_indel</title>
<path fill="none" stroke="#000000" d="M333.6459,-410.9758C334.4041,-369.132 332.0783,-263.5099 294,-186.8 288.6482,-176.0186 280.4231,-165.945 272.0826,-157.4638"/>
<polygon fill="#000000" stroke="#000000" points="274.4232,-154.8588 264.7926,-150.4428 269.5674,-159.9007 274.4232,-154.8588"/>
</g>
<!-- ntype&#45;&gt;readcount_annotator_snv -->
<g id="edge13" class="edge">
<title>ntype&#45;&gt;readcount_annotator_snv</title>
<path fill="none" stroke="#000000" d="M321.5857,-410.9992C301.984,-379.9617 260.5938,-314.6291 225,-259.8 219.0725,-250.6692 212.5281,-240.7224 206.6631,-231.8557"/>
<polygon fill="#000000" stroke="#000000" points="209.514,-229.8217 201.0725,-223.4192 203.6789,-233.6885 209.514,-229.8217"/>
</g>
</g>
</svg>

